  0
SECTION
  2
HEADER
  9
$ANGBASE
  50
0.0
  9
$ANGDIR
  70
1
  9
$MEASUREMENT
  70
1
  0
ENDSEC
  0
SECTION
  2
TABLES
  0
TABLE
  2
LTYPE
  70
4
  0
LTYPE
  5
40F
  2
CONTINUOUS
  70
0
  3
Solid line
  72
65
  73
0
  40
0.0
  0
LTYPE
  5
410
  2
DASHDOT
 70
0
  3
Dash Dot ____ _ ____ _
 72
65
 73
4
 40
2.0
 49
1.25
 49
-0.25
 49
0.25
 49
-0.25
  0
LTYPE
  5
411
  2
DASHED
 70
0
  3
Dashed __ __ __ __ __
 72
65
 73
2
 40
0.75
 49
0.5
 49
-0.25
  0
LTYPE
  5
43B
  2
DOTTED
 70
0
  3
Dotted .  .  .  .
 72
65
 73
2
 40
0.2
 49
0.0
 49
-0.2
  0
ENDTAB
  0
TABLE
  2
STYLE
  70
4
  0
STYLE
  2
KICAD
  70
0
  40
0
  41
1
  42
1
  50
0
  71
0
  3
isocp.shx
  0
STYLE
  2
KICADB
  70
0
  40
0
  41
1
  42
1
  50
0
  71
0
  3
isocp.shx
  0
STYLE
  2
KICADI
  70
0
  40
0
  41
1
  42
1
  50
15
  71
0
  3
isocp.shx
  0
STYLE
  2
KICADBI
  70
0
  40
0
  41
1
  42
1
  50
15
  71
0
  3
isocp.shx
  0
ENDTAB
  0
TABLE
  2
LAYER
  70
1
  0
LAYER
  2
BLACK
  70
0
  62
7
  6
CONTINUOUS
  0
ENDTAB
  0
ENDSEC
  0
SECTION
  2
ENTITIES
0
ARC
8
BLACK
10
-1.5999989999999999
20
-67.4999990000000025
40
0.9999990000004999
50
-0.00005730
51
90.00005730
0
ARC
8
BLACK
10
121.354699999999994
20
-85.2646000000000015
40
0.9996728741193291
50
-110.01128646
51
-19.98260216
0
ARC
8
BLACK
10
294.
20
9.
40
0.5
50
0.00000000
51
90.00000000
0
LINE
8
BLACK
6
CONTINUOUS
10
207.6603470000000016
20
-78.9523089999999996
11
204.1129119999999944
21
-69.2058349999999933
0
ARC
8
BLACK
10
154.1453999999999951
20
-85.2644999999999982
40
0.9997541897111509
50
-160.01402437
51
-69.99604008
0
LINE
8
BLACK
6
CONTINUOUS
10
67.7356269999999938
20
-85.5
11
0.4
21
-85.5
0
LINE
8
BLACK
6
CONTINUOUS
10
153.2058109999999829
20
-85.6062220000000025
11
149.9634619999999927
21
-76.6979619999999898
0
LINE
8
BLACK
6
CONTINUOUS
10
157.25
20
5.7000000000000002
11
157.25
21
9.5
0
ARC
8
BLACK
10
203.1732999999999834
20
-69.5476999999999919
40
0.9998529774741883
50
19.99322602
51
110.00744858
0
ARC
8
BLACK
10
167.5
20
5.7000000000000002
40
0.5
50
-90.00000000
51
-0.00000000
0
ARC
8
BLACK
10
10.5
20
8.5
40
1.
50
90.00000000
51
180.00000000
0
ARC
8
BLACK
10
148.25
20
-76.2574999999999932
40
0.9999383706229099
50
-180.00349504
51
-69.99921126
0
ARC
8
BLACK
10
67.73599999999999
20
-86.4986999999999995
40
0.9987000696550491
50
69.99515529
51
90.02139914
0
LINE
8
BLACK
6
CONTINUOUS
10
294.5
20
-66.
11
294.5
21
9.
0
LINE
8
BLACK
6
CONTINUOUS
10
-1.5999999999999999
20
-66.5
11
-3.75
21
-66.5
0
ARC
8
BLACK
10
156.8418999999999812
20
-102.9059999999999917
40
0.9999110491463727
50
-160.00228551
51
-69.99614127
0
LINE
8
BLACK
6
CONTINUOUS
10
118.3160469999999975
20
-103.8455859999999973
11
68.077652999999998
21
-85.560262999999992
0
ARC
8
BLACK
10
72.216399999999993
20
-69.5075999999999965
40
0.999969787454101
50
69.99820201
51
160.00431756
0
LINE
8
BLACK
6
CONTINUOUS
10
128.25
20
-76.2574389999999909
11
128.25
21
-67.5
0
ARC
8
BLACK
10
289.8499999999999659
20
-85.
40
0.5
50
-90.00000000
51
-0.00000000
0
LINE
8
BLACK
6
CONTINUOUS
10
0.
20
-46.5
11
0.
21
-29.5
0
LINE
8
BLACK
6
CONTINUOUS
10
290.8499999999999659
20
-66.5
11
294.
21
-66.5
0
LINE
8
BLACK
6
CONTINUOUS
10
137.75
20
-85.5
11
126.7576959999999957
21
-85.5
0
LINE
8
BLACK
6
CONTINUOUS
10
122.2941889999999887
20
-85.606223
11
125.5365379999999931
21
-76.6979619999999898
0
ARC
8
BLACK
10
207.7639999999999816
20
-86.4984999999999928
40
0.9985066051749482
50
89.97859657
51
110.00877074
0
ARC
8
BLACK
10
118.6580999999999904
20
-102.9059999999999917
40
0.9999337419729368
50
-110.00385873
51
-19.99771449
0
ARC
8
BLACK
10
208.5999999999999943
20
-78.6102999999999952
40
1.0000000000125
50
-159.99982353
51
0.00028648
0
LINE
8
BLACK
6
CONTINUOUS
10
202.8312080000000037
20
-68.6081899999999933
11
154.4874010000000055
21
-86.2039379999999937
0
LINE
8
BLACK
6
CONTINUOUS
10
156.75
20
-66.5
11
208.5999999999999943
21
-66.5
0
LINE
8
BLACK
6
CONTINUOUS
10
137.75
20
-85.5
11
148.7423039999999901
21
-85.5
0
ARC
8
BLACK
10
290.8499999999999659
20
-67.
40
0.5
50
90.00000000
51
180.00000000
0
ARC
8
BLACK
10
127.2500999999999891
20
-76.2574999999999932
40
0.9999000018606861
50
-110.00617291
51
0.00349539
0
LINE
8
BLACK
6
CONTINUOUS
10
294.
20
9.5
11
168.
21
9.5
0
ARC
8
BLACK
10
-3.7500009999999997
20
-65.5000009999999975
40
0.9999990000004999
50
-180.00005730
51
-89.99994270
0
LINE
8
BLACK
6
CONTINUOUS
10
148.25
20
-66.5
11
156.75
21
-66.5
0
LINE
8
BLACK
6
CONTINUOUS
10
167.5
20
5.2000000000000002
11
157.75
21
5.2000000000000002
0
ARC
8
BLACK
10
-0.999999
20
-46.5000009999999975
40
0.9999990000004999
50
-90.00005730
51
0.00005730
0
LINE
8
BLACK
6
CONTINUOUS
10
149.9634619999999927
20
-76.6979619999999898
11
148.5920119999999827
21
-77.1971300000000014
0
ARC
8
BLACK
10
208.5999999999999943
20
-67.5
40
1.
50
0.00000000
51
90.00000000
0
LINE
8
BLACK
6
CONTINUOUS
10
125.5365379999999931
20
-76.6979619999999898
11
126.9079879999999889
21
-77.1971300000000014
0
LINE
8
BLACK
6
CONTINUOUS
10
1.
20
-28.5
11
8.5
21
-28.5
0
ARC
8
BLACK
10
0.4
20
-84.5
40
1.
50
-180.00000000
51
-90.00000000
0
ARC
8
BLACK
10
1.
20
-29.5
40
1.
50
90.00000000
51
180.00000000
0
LINE
8
BLACK
6
CONTINUOUS
10
-0.6
20
-84.5
11
-0.6
21
-67.5
0
LINE
8
BLACK
6
CONTINUOUS
10
9.5
20
8.5
11
9.5
21
-27.5
0
LINE
8
BLACK
6
CONTINUOUS
10
209.5999999999999943
20
-67.5
11
209.5999999999999943
21
-78.6102949999999936
0
ARC
8
BLACK
10
127.25
20
-67.5
40
1.
50
0.00000000
51
90.00000000
0
LINE
8
BLACK
6
CONTINUOUS
10
72.5584139999999991
20
-68.5680160000000001
11
121.0125989999999945
21
-86.2039389999999912
0
LINE
8
BLACK
6
CONTINUOUS
10
168.
20
9.5
11
168.
21
5.7000000000000002
0
ARC
8
BLACK
10
157.75
20
5.7000000000000002
40
0.5
50
-180.00000000
51
-90.00000000
0
LINE
8
BLACK
6
CONTINUOUS
10
157.25
20
9.5
11
10.5
21
9.5
0
ARC
8
BLACK
10
294.
20
-66.
40
0.5
50
-90.00000000
51
-0.00000000
0
LINE
8
BLACK
6
CONTINUOUS
10
147.25
20
-76.2574389999999909
11
147.25
21
-67.5
0
ARC
8
BLACK
10
148.7423000000000002
20
-86.5
40
1.0000000000079998
50
19.99996031
51
89.99977082
0
ARC
8
BLACK
10
126.7576999999999998
20
-86.5
40
1.0000044081152843
50
90.00022918
51
160.00003969
0
LINE
8
BLACK
6
CONTINUOUS
10
157.1839530000000025
20
-103.8455859999999973
11
207.422347000000002
21
-85.560262999999992
0
LINE
8
BLACK
6
CONTINUOUS
10
-3.75
20
-47.5
11
-1.
21
-47.5
0
ARC
8
BLACK
10
8.5
20
-27.5
40
1.
50
-90.00000000
51
-0.00000000
0
ARC
8
BLACK
10
148.25
20
-67.5
40
1.
50
90.00000000
51
180.00000000
0
LINE
8
BLACK
6
CONTINUOUS
10
207.7643729999999778
20
-85.5
11
289.8499999999999659
21
-85.5
0
LINE
8
BLACK
6
CONTINUOUS
10
65.8999999999999915
20
-67.5
11
65.8999999999999915
21
-78.2668609999999916
0
LINE
8
BLACK
6
CONTINUOUS
10
-4.75
20
-65.5
11
-4.75
21
-48.5
0
LINE
8
BLACK
6
CONTINUOUS
10
125.8180029999999903
20
-86.1579789999999974
11
119.5977439999999916
21
-103.247959999999992
0
ARC
8
BLACK
10
66.8999999999999915
20
-67.5
40
1.
50
90.00000000
51
180.00000000
0
LINE
8
BLACK
6
CONTINUOUS
10
149.6819969999999955
20
-86.1579789999999974
11
155.9022559999999942
21
-103.247959999999992
0
LINE
8
BLACK
6
CONTINUOUS
10
67.8396529999999984
20
-78.6088749999999976
11
71.2767099999999942
21
-69.1656610000000001
0
ARC
8
BLACK
10
66.8999999999999915
20
-78.2668999999999926
40
0.9999473291298897
50
-180.00223454
51
-19.99834580
0
LINE
8
BLACK
6
CONTINUOUS
10
118.75
20
-66.5
11
66.8999999999999915
21
-66.5
0
ARC
8
BLACK
10
-3.7500009999999997
20
-48.4999989999999954
40
0.9999990000004999
50
-270.00005730
51
-179.99994270
0
LINE
8
BLACK
6
CONTINUOUS
10
290.3499999999999659
20
-85.
11
290.3499999999999659
21
-67.
0
LINE
8
BLACK
6
CONTINUOUS
10
127.25
20
-66.5
11
118.75
21
-66.5
0
CIRCLE
8
BLACK
10
214.0249999999999773
20
-76.
40
0.85
0
CIRCLE
8
BLACK
10
219.0999999999999943
20
-76.
40
2.6000000000000001
0
CIRCLE
8
BLACK
10
224.1749999999999829
20
-76.
40
0.85
0
CIRCLE
8
BLACK
10
260.9250000000000114
20
0.
40
0.85
0
CIRCLE
8
BLACK
10
266.
20
0.
40
2.6000000000000001
0
CIRCLE
8
BLACK
10
271.0749999999999886
20
0.
40
0.85
0
CIRCLE
8
BLACK
10
156.4249999999999829
20
-19.
40
0.85
0
CIRCLE
8
BLACK
10
161.5
20
-19.
40
2.6000000000000001
0
CIRCLE
8
BLACK
10
166.5749999999999886
20
-19.
40
0.85
0
CIRCLE
8
BLACK
10
260.9250000000000114
20
-38.
40
0.85
0
CIRCLE
8
BLACK
10
266.
20
-38.
40
2.6000000000000001
0
CIRCLE
8
BLACK
10
271.0749999999999886
20
-38.
40
0.85
0
CIRCLE
8
BLACK
10
184.9249999999999829
20
0.
40
0.85
0
CIRCLE
8
BLACK
10
190.
20
0.
40
2.6000000000000001
0
CIRCLE
8
BLACK
10
195.0749999999999886
20
0.
40
0.85
0
CIRCLE
8
BLACK
10
170.6749999999999829
20
-57.
40
0.85
0
CIRCLE
8
BLACK
10
175.75
20
-57.
40
2.6000000000000001
0
CIRCLE
8
BLACK
10
180.8249999999999886
20
-57.
40
0.85
0
CIRCLE
8
BLACK
10
256.7749999999999773
20
-76.
40
0.85
0
CIRCLE
8
BLACK
10
261.8499999999999659
20
-76.
40
2.6000000000000001
0
CIRCLE
8
BLACK
10
266.9250000000000114
20
-76.
40
0.85
0
CIRCLE
8
BLACK
10
85.1749999999999972
20
-38.
40
0.85
0
CIRCLE
8
BLACK
10
90.25
20
-38.
40
2.6000000000000001
0
CIRCLE
8
BLACK
10
95.3249999999999886
20
-38.
40
0.85
0
CIRCLE
8
BLACK
10
161.1749999999999829
20
-38.
40
0.85
0
CIRCLE
8
BLACK
10
166.25
20
-38.
40
2.6000000000000001
0
CIRCLE
8
BLACK
10
171.3249999999999886
20
-38.
40
0.85
0
CIRCLE
8
BLACK
10
42.4249999999999972
20
-19.
40
0.85
0
CIRCLE
8
BLACK
10
47.5
20
-19.
40
2.6000000000000001
0
CIRCLE
8
BLACK
10
52.5749999999999957
20
-19.
40
0.85
0
CIRCLE
8
BLACK
10
146.9249999999999829
20
0.
40
0.85
0
CIRCLE
8
BLACK
10
152.
20
0.
40
2.6000000000000001
0
CIRCLE
8
BLACK
10
251.4249999999999829
20
-19.
40
0.85
0
CIRCLE
8
BLACK
10
256.5
20
-19.
40
2.6000000000000001
0
CIRCLE
8
BLACK
10
261.5749999999999886
20
-19.
40
0.85
0
CIRCLE
8
BLACK
10
47.1749999999999972
20
-38.
40
0.85
0
CIRCLE
8
BLACK
10
52.25
20
-38.
40
2.6000000000000001
0
CIRCLE
8
BLACK
10
57.3249999999999957
20
-38.
40
0.85
0
CIRCLE
8
BLACK
10
80.4249999999999972
20
-19.
40
0.85
0
CIRCLE
8
BLACK
10
85.5
20
-19.
40
2.6000000000000001
0
CIRCLE
8
BLACK
10
90.5750000000000028
20
-19.
40
0.85
0
CIRCLE
8
BLACK
10
123.1749999999999972
20
-38.
40
0.85
0
CIRCLE
8
BLACK
10
128.25
20
-38.
40
2.6000000000000001
0
CIRCLE
8
BLACK
10
133.3249999999999886
20
-38.
40
0.85
0
CIRCLE
8
BLACK
10
70.9249999999999972
20
0.
40
0.85
0
CIRCLE
8
BLACK
10
76.
20
0.
40
2.6000000000000001
0
CIRCLE
8
BLACK
10
81.0750000000000028
20
0.
40
0.85
0
CIRCLE
8
BLACK
10
18.6750000000000007
20
-19.
40
0.85
0
CIRCLE
8
BLACK
10
23.75
20
-19.
40
2.6000000000000001
0
CIRCLE
8
BLACK
10
28.8249999999999993
20
-19.
40
0.85
0
CIRCLE
8
BLACK
10
275.7749999999999773
20
-76.
40
0.85
0
CIRCLE
8
BLACK
10
280.8499999999999659
20
-76.
40
2.6000000000000001
0
CIRCLE
8
BLACK
10
285.9250000000000114
20
-76.
40
0.85
0
CIRCLE
8
BLACK
10
32.9249999999999972
20
0.
40
0.85
0
CIRCLE
8
BLACK
10
38.
20
0.
40
2.6000000000000001
0
CIRCLE
8
BLACK
10
43.0749999999999957
20
0.
40
0.85
0
CIRCLE
8
BLACK
10
118.4249999999999972
20
-19.
40
0.85
0
CIRCLE
8
BLACK
10
123.5
20
-19.
40
2.6000000000000001
0
CIRCLE
8
BLACK
10
128.5749999999999886
20
-19.
40
0.85
0
CIRCLE
8
BLACK
10
241.9249999999999829
20
0.
40
0.85
0
CIRCLE
8
BLACK
10
247.
20
0.
40
2.6000000000000001
0
CIRCLE
8
BLACK
10
252.0749999999999886
20
0.
40
0.85
0
CIRCLE
8
BLACK
10
151.6749999999999829
20
-57.
40
0.85
0
CIRCLE
8
BLACK
10
156.75
20
-57.
40
2.6000000000000001
0
CIRCLE
8
BLACK
10
161.8249999999999886
20
-57.
40
0.85
0
CIRCLE
8
BLACK
10
137.4249999999999829
20
-19.
40
0.85
0
CIRCLE
8
BLACK
10
142.5
20
-19.
40
2.6000000000000001
0
CIRCLE
8
BLACK
10
147.5749999999999886
20
-19.
40
0.85
0
CIRCLE
8
BLACK
10
99.4249999999999972
20
-19.
40
0.85
0
CIRCLE
8
BLACK
10
104.5
20
-19.
40
2.6000000000000001
0
CIRCLE
8
BLACK
10
109.5749999999999886
20
-19.
40
0.85
0
CIRCLE
8
BLACK
10
213.4249999999999829
20
-19.
40
0.85
0
CIRCLE
8
BLACK
10
218.5
20
-19.
40
2.6000000000000001
0
CIRCLE
8
BLACK
10
223.5749999999999886
20
-19.
40
0.85
0
CIRCLE
8
BLACK
10
199.1749999999999829
20
-38.
40
0.85
0
CIRCLE
8
BLACK
10
204.25
20
-38.
40
2.6000000000000001
0
CIRCLE
8
BLACK
10
209.3249999999999886
20
-38.
40
0.85
0
CIRCLE
8
BLACK
10
90.8310599999999937
20
-84.2642479999999949
40
0.85
0
CIRCLE
8
BLACK
10
95.5999999999999943
20
-86.
40
2.6000000000000001
0
CIRCLE
8
BLACK
10
100.3689399999999949
20
-87.7357519999999909
40
0.85
0
CIRCLE
8
BLACK
10
194.4249999999999829
20
-19.
40
0.85
0
CIRCLE
8
BLACK
10
199.5
20
-19.
40
2.6000000000000001
0
CIRCLE
8
BLACK
10
204.5749999999999886
20
-19.
40
0.85
0
CIRCLE
8
BLACK
10
239.5499999999999829
20
-38.
40
0.85
0
CIRCLE
8
BLACK
10
244.625
20
-38.
40
2.6000000000000001
0
CIRCLE
8
BLACK
10
249.6999999999999886
20
-38.
40
0.85
0
CIRCLE
8
BLACK
10
232.4249999999999829
20
-19.
40
0.85
0
CIRCLE
8
BLACK
10
237.5
20
-19.
40
2.6000000000000001
0
CIRCLE
8
BLACK
10
242.5749999999999886
20
-19.
40
0.85
0
CIRCLE
8
BLACK
10
279.9250000000000114
20
-38.
40
0.85
0
CIRCLE
8
BLACK
10
285.
20
-38.
40
2.6000000000000001
0
CIRCLE
8
BLACK
10
290.0749999999999886
20
-38.
40
0.85
0
CIRCLE
8
BLACK
10
275.1750000000000114
20
-19.
40
0.85
0
CIRCLE
8
BLACK
10
280.25
20
-19.
40
2.6000000000000001
0
CIRCLE
8
BLACK
10
285.3249999999999886
20
-19.
40
0.85
0
CIRCLE
8
BLACK
10
142.1749999999999829
20
-38.
40
0.85
0
CIRCLE
8
BLACK
10
147.25
20
-38.
40
2.6000000000000001
0
CIRCLE
8
BLACK
10
152.3249999999999886
20
-38.
40
0.85
0
CIRCLE
8
BLACK
10
51.3249999999999957
20
-76.
40
0.85
0
CIRCLE
8
BLACK
10
56.3999999999999986
20
-76.
40
2.6000000000000001
0
CIRCLE
8
BLACK
10
61.4749999999999943
20
-76.
40
0.85
0
CIRCLE
8
BLACK
10
192.9810599999999852
20
-81.2357519999999909
40
0.85
0
CIRCLE
8
BLACK
10
197.75
20
-79.5
40
2.6000000000000001
0
CIRCLE
8
BLACK
10
202.5189399999999864
20
-77.7642479999999949
40
0.85
0
CIRCLE
8
BLACK
10
127.9249999999999972
20
0.
40
0.85
0
CIRCLE
8
BLACK
10
133.
20
0.
40
2.6000000000000001
0
CIRCLE
8
BLACK
10
138.0749999999999886
20
0.
40
0.85
0
CIRCLE
8
BLACK
10
279.9250000000000114
20
-57.
40
0.85
0
CIRCLE
8
BLACK
10
285.
20
-57.
40
2.6000000000000001
0
CIRCLE
8
BLACK
10
290.0749999999999886
20
-57.
40
0.85
0
CIRCLE
8
BLACK
10
175.1310599999999909
20
-87.7357519999999909
40
0.85
0
CIRCLE
8
BLACK
10
179.9000000000000057
20
-86.
40
2.6000000000000001
0
CIRCLE
8
BLACK
10
184.6689399999999921
20
-84.2642479999999949
40
0.85
0
CIRCLE
8
BLACK
10
2.0499999999999998
20
-57.
40
0.85
0
CIRCLE
8
BLACK
10
7.125
20
-57.
40
2.6000000000000001
0
CIRCLE
8
BLACK
10
12.1999999999999993
20
-57.
40
0.85
0
CIRCLE
8
BLACK
10
94.6749999999999972
20
-57.
40
0.85
0
CIRCLE
8
BLACK
10
99.75
20
-57.
40
2.6000000000000001
0
CIRCLE
8
BLACK
10
104.8249999999999886
20
-57.
40
0.85
0
CIRCLE
8
BLACK
10
171.
20
0.
40
2.6000000000000001
0
CIRCLE
8
BLACK
10
176.0749999999999886
20
0.
40
0.85
0
CIRCLE
8
BLACK
10
72.8560599999999994
20
-77.7642479999999949
40
0.85
0
CIRCLE
8
BLACK
10
77.625
20
-79.5
40
2.6000000000000001
0
CIRCLE
8
BLACK
10
82.3939400000000006
20
-81.2357519999999909
40
0.85
0
CIRCLE
8
BLACK
10
203.9249999999999829
20
0.
40
0.85
0
CIRCLE
8
BLACK
10
209.
20
0.
40
2.6000000000000001
0
CIRCLE
8
BLACK
10
214.0749999999999886
20
0.
40
0.85
0
CIRCLE
8
BLACK
10
30.5499999999999972
20
-57.
40
0.85
0
CIRCLE
8
BLACK
10
35.625
20
-57.
40
2.6000000000000001
0
CIRCLE
8
BLACK
10
40.6999999999999957
20
-57.
40
0.85
0
CIRCLE
8
BLACK
10
108.6310599999999909
20
-90.7642479999999949
40
0.85
0
CIRCLE
8
BLACK
10
113.3999999999999915
20
-92.5
40
2.6000000000000001
0
CIRCLE
8
BLACK
10
118.1689399999999921
20
-94.2357519999999909
40
0.85
0
CIRCLE
8
BLACK
10
56.6749999999999972
20
-57.
40
0.85
0
CIRCLE
8
BLACK
10
61.75
20
-57.
40
2.6000000000000001
0
CIRCLE
8
BLACK
10
66.8250000000000028
20
-57.
40
0.85
0
CIRCLE
8
BLACK
10
218.1749999999999829
20
-38.
40
0.85
0
CIRCLE
8
BLACK
10
223.25
20
-38.
40
2.6000000000000001
0
CIRCLE
8
BLACK
10
228.3249999999999886
20
-38.
40
0.85
0
CIRCLE
8
BLACK
10
61.4249999999999972
20
-19.
40
0.85
0
CIRCLE
8
BLACK
10
66.5
20
-19.
40
2.6000000000000001
0
CIRCLE
8
BLACK
10
71.5750000000000028
20
-19.
40
0.85
0
CIRCLE
8
BLACK
10
253.7999999999999829
20
-57.
40
0.85
0
CIRCLE
8
BLACK
10
258.875
20
-57.
40
2.6000000000000001
0
CIRCLE
8
BLACK
10
263.9499999999999886
20
-57.
40
0.85
0
CIRCLE
8
BLACK
10
6.1999999999999993
20
-76.
40
0.85
0
CIRCLE
8
BLACK
10
11.2750000000000004
20
-76.
40
2.6000000000000001
0
CIRCLE
8
BLACK
10
16.3499999999999979
20
-76.
40
0.85
0
CIRCLE
8
BLACK
10
28.1749999999999972
20
-38.
40
0.85
0
CIRCLE
8
BLACK
10
33.25
20
-38.
40
2.6000000000000001
0
CIRCLE
8
BLACK
10
38.3249999999999957
20
-38.
40
0.85
0
CIRCLE
8
BLACK
10
157.3310599999999795
20
-94.2357519999999909
40
0.85
0
CIRCLE
8
BLACK
10
162.0999999999999943
20
-92.5
40
2.6000000000000001
0
CIRCLE
8
BLACK
10
166.8689399999999807
20
-90.7642479999999949
40
0.85
0
CIRCLE
8
BLACK
10
227.6749999999999829
20
-57.
40
0.85
0
CIRCLE
8
BLACK
10
232.75
20
-57.
40
2.6000000000000001
0
CIRCLE
8
BLACK
10
237.8249999999999886
20
-57.
40
0.85
0
CIRCLE
8
BLACK
10
51.9249999999999972
20
0.
40
0.85
0
CIRCLE
8
BLACK
10
57.
20
0.
40
2.6000000000000001
0
CIRCLE
8
BLACK
10
62.0749999999999957
20
0.
40
0.85
0
CIRCLE
8
BLACK
10
180.1749999999999829
20
-38.
40
0.85
0
CIRCLE
8
BLACK
10
185.25
20
-38.
40
2.6000000000000001
0
CIRCLE
8
BLACK
10
190.3249999999999886
20
-38.
40
0.85
0
CIRCLE
8
BLACK
10
113.6749999999999972
20
-57.
40
0.85
0
CIRCLE
8
BLACK
10
118.75
20
-57.
40
2.6000000000000001
0
CIRCLE
8
BLACK
10
123.8249999999999886
20
-57.
40
0.85
0
CIRCLE
8
BLACK
10
222.9249999999999829
20
0.
40
0.85
0
CIRCLE
8
BLACK
10
228.
20
0.
40
2.6000000000000001
0
CIRCLE
8
BLACK
10
233.0749999999999886
20
0.
40
0.85
0
CIRCLE
8
BLACK
10
66.1749999999999972
20
-38.
40
0.85
0
CIRCLE
8
BLACK
10
71.25
20
-38.
40
2.6000000000000001
0
CIRCLE
8
BLACK
10
76.3250000000000028
20
-38.
40
0.85
0
CIRCLE
8
BLACK
10
6.7999999999999998
20
-38.
40
0.85
0
CIRCLE
8
BLACK
10
11.875
20
-38.
40
2.6000000000000001
0
CIRCLE
8
BLACK
10
16.9499999999999993
20
-38.
40
0.85
0
CIRCLE
8
BLACK
10
13.9249999999999989
20
0.
40
0.85
0
CIRCLE
8
BLACK
10
19.
20
0.
40
2.6000000000000001
0
CIRCLE
8
BLACK
10
24.0749999999999993
20
0.
40
0.85
0
CIRCLE
8
BLACK
10
89.9249999999999972
20
0.
40
0.85
0
CIRCLE
8
BLACK
10
95.
20
0.
40
2.6000000000000001
0
CIRCLE
8
BLACK
10
100.0749999999999886
20
0.
40
0.85
0
CIRCLE
8
BLACK
10
175.4249999999999829
20
-19.
40
0.85
0
CIRCLE
8
BLACK
10
180.5
20
-19.
40
2.6000000000000001
0
CIRCLE
8
BLACK
10
185.5749999999999886
20
-19.
40
0.85
0
CIRCLE
8
BLACK
10
75.6749999999999972
20
-57.
40
0.85
0
CIRCLE
8
BLACK
10
80.75
20
-57.
40
2.6000000000000001
0
CIRCLE
8
BLACK
10
85.8250000000000028
20
-57.
40
0.85
0
CIRCLE
8
BLACK
10
132.6749999999999829
20
-76.
40
0.85
0
CIRCLE
8
BLACK
10
137.75
20
-76.
40
2.6000000000000001
0
CIRCLE
8
BLACK
10
142.8249999999999886
20
-76.
40
0.85
0
CIRCLE
8
BLACK
10
208.6749999999999829
20
-57.
40
0.85
0
CIRCLE
8
BLACK
10
213.75
20
-57.
40
2.6000000000000001
0
CIRCLE
8
BLACK
10
218.8249999999999886
20
-57.
40
0.85
0
CIRCLE
8
BLACK
10
104.1749999999999972
20
-38.
40
0.85
0
CIRCLE
8
BLACK
10
109.25
20
-38.
40
2.6000000000000001
0
CIRCLE
8
BLACK
10
114.3249999999999886
20
-38.
40
0.85
0
CIRCLE
8
BLACK
10
108.9249999999999972
20
0.
40
0.85
0
CIRCLE
8
BLACK
10
114.
20
0.
40
2.6000000000000001
0
CIRCLE
8
BLACK
10
119.0749999999999886
20
0.
40
0.85
0
CIRCLE
8
BLACK
10
29.9499999999999993
20
-76.
40
0.85
0
CIRCLE
8
BLACK
10
35.0249999999999986
20
-76.
40
2.6000000000000001
0
CIRCLE
8
BLACK
10
40.1000000000000014
20
-76.
40
0.85
0
CIRCLE
8
BLACK
10
132.6749999999999829
20
-57.
40
0.85
0
CIRCLE
8
BLACK
10
137.75
20
-57.
40
2.6000000000000001
0
CIRCLE
8
BLACK
10
142.8249999999999886
20
-57.
40
0.85
0
CIRCLE
8
BLACK
10
235.3999999999999773
20
-76.
40
0.85
0
CIRCLE
8
BLACK
10
240.4749999999999943
20
-76.
40
2.6000000000000001
0
CIRCLE
8
BLACK
10
245.5499999999999829
20
-76.
40
0.85
0
CIRCLE
8
BLACK
10
189.6749999999999829
20
-57.
40
0.85
0
CIRCLE
8
BLACK
10
194.75
20
-57.
40
2.6000000000000001
0
CIRCLE
8
BLACK
10
199.8249999999999886
20
-57.
40
0.85
0
CIRCLE
8
BLACK
10
279.9250000000000114
20
0.
40
0.85
0
CIRCLE
8
BLACK
10
285.
20
0.
40
2.6000000000000001
0
CIRCLE
8
BLACK
10
290.0749999999999886
20
0.
40
0.85
0
LINE
8
BLACK
6
CONTINUOUS
10
185.420659999999998
20
-19.9806600000000003
11
194.5292999999999779
21
-19.9806600000000003
0
LINE
8
BLACK
6
CONTINUOUS
10
183.9206609999999955
20
-26.6593400000000003
11
183.920659999999998
21
-21.4806600000000003
0
LINE
8
BLACK
6
CONTINUOUS
10
194.5293399999999906
20
-28.1593389999999992
11
185.4206999999999823
21
-28.1593400000000003
0
LINE
8
BLACK
6
CONTINUOUS
10
196.0293389999999931
20
-21.4806600000000003
11
196.0293399999999906
21
-26.6592999999999982
0
LINE
8
BLACK
6
CONTINUOUS
10
185.3093399999999917
20
-6.6193
11
185.3093399999999917
21
-1.08066
0
LINE
8
BLACK
6
CONTINUOUS
10
175.86069999999998
20
-8.1193399999999993
11
183.809299999999979
21
-8.1193399999999993
0
LINE
8
BLACK
6
CONTINUOUS
10
174.3606609999999932
20
-1.08066
11
174.3606599999999958
21
-6.6193399999999993
0
LINE
8
BLACK
6
CONTINUOUS
10
183.8093399999999917
20
0.419339
11
175.86069999999998
21
0.41934
0
LINE
8
BLACK
6
CONTINUOUS
10
152.590660999999983
20
-5.9606599999999998
11
152.5906599999999855
21
-11.469339999999999
0
LINE
8
BLACK
6
CONTINUOUS
10
158.5493400000000008
20
-4.460661
11
154.0906999999999982
21
-4.4606599999999998
0
LINE
8
BLACK
6
CONTINUOUS
10
160.0493400000000008
20
-11.469339999999999
11
160.0493400000000008
21
-5.9607000000000001
0
LINE
8
BLACK
6
CONTINUOUS
10
154.0906999999999982
20
-12.969339999999999
11
158.5492999999999881
21
-12.969339999999999
0
LINE
8
BLACK
6
CONTINUOUS
10
107.900660000000002
20
-25.7293400000000005
11
107.900660000000002
21
-21.4006599999999985
0
LINE
8
BLACK
6
CONTINUOUS
10
118.3993399999999951
20
-27.2293389999999995
11
109.400660000000002
21
-27.2293400000000005
0
LINE
8
BLACK
6
CONTINUOUS
10
119.8993399999999951
20
-21.4006599999999985
11
119.8993399999999951
21
-25.7292999999999985
0
LINE
8
BLACK
6
CONTINUOUS
10
109.400660000000002
20
-19.9006609999999995
11
118.3992999999999967
21
-19.9006599999999985
0
LINE
8
BLACK
6
CONTINUOUS
10
132.8906599999999969
20
-28.2906999999999975
11
132.8906599999999969
21
-38.4293399999999963
0
LINE
8
BLACK
6
CONTINUOUS
10
141.6693400000000054
20
-26.790659999999999
11
134.3906999999999812
21
-26.790659999999999
0
LINE
8
BLACK
6
CONTINUOUS
10
143.1693389999999795
20
-38.4293399999999963
11
143.1693400000000054
21
-28.290659999999999
0
LINE
8
BLACK
6
CONTINUOUS
10
134.3906599999999969
20
-39.9293389999999988
11
141.6692999999999927
21
-39.9293399999999963
0
LINE
8
BLACK
6
CONTINUOUS
10
124.1893400000000014
20
-44.6293399999999991
11
124.1893400000000014
21
-40.1106599999999958
0
LINE
8
BLACK
6
CONTINUOUS
10
114.0006599999999963
20
-46.1293399999999991
11
122.6893400000000014
21
-46.1293399999999991
0
LINE
8
BLACK
6
CONTINUOUS
10
112.5006599999999963
20
-40.1106599999999958
11
112.5006599999999963
21
-44.6293399999999991
0
LINE
8
BLACK
6
CONTINUOUS
10
122.6892999999999887
20
-38.6106599999999958
11
114.0006999999999948
21
-38.6106599999999958
0
LINE
8
BLACK
6
CONTINUOUS
10
122.9406599999999941
20
-63.3892999999999986
11
122.9406599999999941
21
-58.430659999999996
0
LINE
8
BLACK
6
CONTINUOUS
10
136.3893400000000042
20
-58.430659999999996
11
136.3893400000000042
21
-63.3999999999999986
0
LINE
8
BLACK
6
CONTINUOUS
10
124.4406599999999941
20
-64.88933999999999
11
134.8892999999999915
21
-64.88933999999999
0
LINE
8
BLACK
6
CONTINUOUS
10
124.4406999999999925
20
-56.930659999999996
11
134.8892999999999915
21
-56.930659999999996
0
LINE
8
BLACK
6
CONTINUOUS
10
154.2793399999999906
20
-63.9193399999999983
11
154.2793399999999906
21
-59.5606999999999971
0
LINE
8
BLACK
6
CONTINUOUS
10
152.7793399999999906
20
-65.4193389999999937
11
142.8306599999999946
21
-65.4193399999999912
0
LINE
8
BLACK
6
CONTINUOUS
10
141.3306599999999946
20
-63.9192999999999998
11
141.3306609999999921
21
-59.5606599999999986
0
ARC
8
BLACK
10
21.5892999999999979
20
-36.0807000000000002
40
1.500040000533319
50
0.00152785
51
89.99847215
0
LINE
8
BLACK
6
CONTINUOUS
10
117.6506609999999995
20
-2.37066
11
117.6506599999999878
21
-6.6593399999999994
0
LINE
8
BLACK
6
CONTINUOUS
10
171.4893399999999986
20
-11.6893399999999996
11
171.4893399999999986
21
-7.41066
0
ARC
8
BLACK
10
114.0006999999999948
20
-44.6293000000000006
40
1.500040000533319
50
-179.99847215
51
-90.00152785
0
LINE
8
BLACK
6
CONTINUOUS
10
13.0093399999999999
20
-13.1793399999999998
11
11.
21
-13.1793399999999998
0
ARC
8
BLACK
10
119.1507000000000005
20
-6.6593
40
1.500040000533319
50
-179.99847215
51
-90.00152785
0
ARC
8
BLACK
10
155.4099999999999966
20
-3.2799999999999998
40
1.5
50
-180.00000000
51
-90.00000000
0
ARC
8
BLACK
10
21.58934
20
-39.9793400000000005
40
1.5
50
-90.00000000
51
-0.00000000
0
ARC
8
BLACK
10
175.86069999999998
20
-6.6193
40
1.500040000533319
50
-179.99847215
51
-90.00152785
0
ARC
8
BLACK
10
141.6692999999999927
20
-28.2906999999999975
40
1.500040000533319
50
0.00152785
51
89.99847215
0
LINE
8
BLACK
6
CONTINUOUS
10
31.8593399999999995
20
6.7093400000000001
11
31.8593399999999995
21
3.12066
0
LINE
8
BLACK
6
CONTINUOUS
10
181.996594999999985
20
-40.3999999999999986
11
181.999338999999992
21
-44.6293399999999991
0
ARC
8
BLACK
10
142.8307000000000073
20
-63.9192999999999998
40
1.500040000533319
50
-179.99847215
51
-90.00152785
0
ARC
8
BLACK
10
124.4406999999999925
20
-58.4306999999999945
40
1.500040000533319
50
90.00152785
51
179.99847215
0
ARC
8
BLACK
10
165.020700000000005
20
-7.4106999999999994
40
1.500040000533319
50
90.00152785
51
179.99847215
0
LINE
8
BLACK
6
CONTINUOUS
10
23.2306600000000003
20
3.12066
11
23.2306600000000003
21
6.7093400000000001
0
ARC
8
BLACK
10
30.3592999999999975
20
6.7092999999999998
40
1.500040000533319
50
0.00152785
51
89.99847215
0
ARC
8
BLACK
10
42.33934
20
-24.8293399999999984
40
1.5
50
-90.00000000
51
-0.00000000
0
LINE
8
BLACK
6
CONTINUOUS
10
163.5206609999999898
20
-7.41066
11
163.5206599999999924
21
-11.6893399999999996
0
LINE
8
BLACK
6
CONTINUOUS
10
43.83934
20
-24.8293399999999984
11
43.83934
21
-13.2706599999999995
0
LINE
8
BLACK
6
CONTINUOUS
10
152.7793399999999906
20
-58.0606609999999961
11
142.8306599999999946
21
-58.0606599999999986
0
ARC
8
BLACK
10
171.4206999999999823
20
-40.4906999999999968
40
1.500040000533319
50
90.00152785
51
179.99847215
0
ARC
8
BLACK
10
152.7793000000000063
20
-59.5606999999999971
40
1.500040000533319
50
0.00152785
51
89.99847215
0
ARC
8
BLACK
10
155.4099999999999966
20
8.0499999999999989
40
1.5
50
90.00000000
51
180.00000000
0
ARC
8
BLACK
10
183.809299999999979
20
-1.0807
40
1.500040000533319
50
0.00152785
51
89.99847215
0
ARC
8
BLACK
10
166.1099999999999852
20
-3.2799999999999998
40
1.5
50
-90.00000000
51
-0.00000000
0
ARC
8
BLACK
10
142.8307000000000073
20
-59.5606999999999971
40
1.500040000533319
50
90.00152785
51
179.99847215
0
LINE
8
BLACK
6
CONTINUOUS
10
23.08934
20
-36.0806600000000017
11
23.08934
21
-39.9793400000000005
0
ARC
8
BLACK
10
134.3906999999999812
20
-28.2906999999999975
40
1.500040000533319
50
90.00152785
51
179.99847215
0
LINE
8
BLACK
6
CONTINUOUS
10
155.4099999999999966
20
9.5499999999999989
11
166.1099999999999852
21
9.5499999999999989
0
ARC
8
BLACK
10
109.4007000000000005
20
-21.4007000000000005
40
1.500040000533319
50
90.00152785
51
179.99847215
0
LINE
8
BLACK
6
CONTINUOUS
10
20.4806600000000003
20
-41.4793400000000005
11
21.58934
21
-41.4793400000000005
0
LINE
8
BLACK
6
CONTINUOUS
10
127.9393389999999897
20
-0.8706609999999999
11
119.1506599999999878
21
-0.87066
0
LINE
8
BLACK
6
CONTINUOUS
10
180.4993399999999895
20
-46.1293399999999991
11
171.420659999999998
21
-46.1293399999999991
0
ARC
8
BLACK
10
134.8892999999999915
20
-58.4306999999999945
40
1.500040000533319
50
0.00152785
51
89.99847215
0
ARC
8
BLACK
10
134.3906999999999812
20
-38.4292999999999978
40
1.500040000533319
50
-179.99847215
51
-90.00152785
0
ARC
8
BLACK
10
124.4406999999999925
20
-63.3892999999999986
40
1.500040000533319
50
-179.99847215
51
-90.00152785
0
ARC
8
BLACK
10
20.4806600000000003
20
-36.0806600000000017
40
1.5
50
90.00000000
51
180.00000000
0
ARC
8
BLACK
10
13.0093399999999999
20
-11.6793399999999998
40
1.5
50
-90.00000000
51
-0.00000000
0
ARC
8
BLACK
10
13.
20
-2.5
40
1.5
50
0.00000000
51
90.00000000
0
ARC
8
BLACK
10
141.6692999999999927
20
-38.4292999999999978
40
1.500040000533319
50
-89.99847215
51
-0.00152785
0
ARC
8
BLACK
10
194.5292999999999779
20
-26.6592999999999982
40
1.500040000533319
50
-89.99847215
51
-0.00152785
0
ARC
8
BLACK
10
11.
20
-11.6792999999999996
40
1.50004
50
-179.99847211
51
-90.00000000
0
ARC
8
BLACK
10
169.9892999999999859
20
-7.4106999999999994
40
1.500040000533319
50
0.00152785
51
89.99847215
0
ARC
8
BLACK
10
127.9392999999999887
20
-6.6593
40
1.500040000533319
50
-89.99847215
51
-0.00152785
0
ARC
8
BLACK
10
10.9906600000000001
20
-2.5
40
1.5000009999999999
50
90.00003820
51
180.00000000
0
LINE
8
BLACK
6
CONTINUOUS
10
13.
20
-1.
11
10.9906600000000001
21
-1.
0
LINE
8
BLACK
6
CONTINUOUS
10
24.7306600000000003
20
8.2093399999999992
11
30.3593399999999995
21
8.2093399999999992
0
ARC
8
BLACK
10
180.4993000000000052
20
-44.6293000000000006
40
1.500040000533319
50
-89.99847215
51
-0.00152785
0
ARC
8
BLACK
10
158.5492999999999881
20
-11.4692999999999987
40
1.500040000533319
50
-89.99847215
51
-0.00152785
0
ARC
8
BLACK
10
122.6892999999999887
20
-40.1107000000000014
40
1.500040000533319
50
0.00152785
51
89.99847215
0
ARC
8
BLACK
10
166.1099999999999852
20
8.0499999999999989
40
1.5
50
0.00000000
51
90.00000000
0
LINE
8
BLACK
6
CONTINUOUS
10
30.3593399999999995
20
1.62066
11
24.7306600000000003
21
1.62066
0
ARC
8
BLACK
10
30.3593399999999995
20
3.12066
40
1.5
50
-90.00000000
51
-0.00000000
0
ARC
8
BLACK
10
114.0006999999999948
20
-40.1107000000000014
40
1.500040000533319
50
90.00152785
51
179.99847215
0
ARC
8
BLACK
10
185.4206999999999823
20
-21.4806999999999988
40
1.500040000533319
50
90.00152785
51
179.99847215
0
LINE
8
BLACK
6
CONTINUOUS
10
42.33934
20
-11.7706599999999995
11
28.6106599999999993
21
-11.7706599999999995
0
ARC
8
BLACK
10
28.6106999999999978
20
-24.8292999999999999
40
1.500040000533319
50
-179.99847215
51
-90.00152785
0
ARC
8
BLACK
10
158.5492999999999881
20
-5.9607000000000001
40
1.500040000533319
50
0.00152785
51
89.99847215
0
ARC
8
BLACK
10
118.3992999999999967
20
-21.4007000000000005
40
1.500040000533319
50
0.00152785
51
89.99847215
0
ARC
8
BLACK
10
118.3992999999999967
20
-25.7292999999999985
40
1.500040000533319
50
-89.99847215
51
-0.00152785
0
ARC
8
BLACK
10
152.7793000000000063
20
-63.9192999999999998
40
1.500040000533319
50
-89.99847215
51
-0.00152785
0
LINE
8
BLACK
6
CONTINUOUS
10
27.1106599999999993
20
-13.0999999999999996
11
27.1106599999999993
21
-24.8293399999999984
0
LINE
8
BLACK
6
CONTINUOUS
10
18.9806600000000003
20
-36.0806600000000017
11
18.9806600000000003
21
-39.9793400000000005
0
LINE
8
BLACK
6
CONTINUOUS
10
169.9206609999999955
20
-44.6293399999999991
11
169.920659999999998
21
-40.4906599999999983
0
LINE
8
BLACK
6
CONTINUOUS
10
20.4806600000000003
20
-34.5806600000000017
11
21.58934
21
-34.5806600000000017
0
ARC
8
BLACK
10
20.4806999999999988
20
-39.979299999999995
40
1.500040000533319
50
-179.99847215
51
-90.00152785
0
LINE
8
BLACK
6
CONTINUOUS
10
14.5
20
-2.5
11
14.5093399999999999
21
-11.6793399999999998
0
ARC
8
BLACK
10
154.0906999999999982
20
-5.9607000000000001
40
1.500040000533319
50
90.00152785
51
179.99847215
0
ARC
8
BLACK
10
154.0906999999999982
20
-11.4692999999999987
40
1.500040000533319
50
-179.99847215
51
-90.00152785
0
LINE
8
BLACK
6
CONTINUOUS
10
169.9892999999999859
20
-5.91066
11
165.0206599999999924
21
-5.91066
0
ARC
8
BLACK
10
180.4993000000000052
20
-40.4906999999999968
40
1.500040000533319
50
0.00152785
51
89.99847215
0
LINE
8
BLACK
6
CONTINUOUS
10
153.9099999999999966
20
-3.2799999999999998
11
153.9099999999999966
21
8.0499999999999989
0
LINE
8
BLACK
6
CONTINUOUS
10
171.420659999999998
20
-38.9906609999999958
11
180.4993399999999895
21
-38.9906599999999983
0
ARC
8
BLACK
10
28.6106599999999993
20
-13.2706599999999995
40
1.5
50
90.00000000
51
180.00000000
0
ARC
8
BLACK
10
183.809299999999979
20
-6.6193
40
1.500040000533319
50
-89.99847215
51
-0.00152785
0
LINE
8
BLACK
6
CONTINUOUS
10
28.6106610000000003
20
-26.3293389999999974
11
42.33934
21
-26.3293399999999984
0
ARC
8
BLACK
10
194.5292999999999779
20
-21.4806999999999988
40
1.500040000533319
50
0.00152785
51
89.99847215
0
ARC
8
BLACK
10
127.9392999999999887
20
-2.3706999999999998
40
1.500040000533319
50
0.00152785
51
89.99847215
0
ARC
8
BLACK
10
175.86069999999998
20
-1.0807
40
1.500040000533319
50
90.00152785
51
179.99847215
0
ARC
8
BLACK
10
171.4206999999999823
20
-44.6293000000000006
40
1.500040000533319
50
-179.99847215
51
-90.00152785
0
LINE
8
BLACK
6
CONTINUOUS
10
129.4393389999999897
20
-6.6593399999999994
11
129.4393389999999897
21
-2.37066
0
ARC
8
BLACK
10
24.7306600000000003
20
6.7093400000000001
40
1.5
50
90.00000000
51
180.00000000
0
ARC
8
BLACK
10
134.8892999999999915
20
-63.3892999999999986
40
1.500040000533319
50
-89.99847215
51
-0.00152785
0
ARC
8
BLACK
10
119.1507000000000005
20
-2.3706999999999998
40
1.500040000533319
50
90.00152785
51
179.99847215
0
LINE
8
BLACK
6
CONTINUOUS
10
167.6099999999999852
20
8.0499999999999989
11
167.6099999999999852
21
-3.2799999999999998
0
ARC
8
BLACK
10
109.4007000000000005
20
-25.7292999999999985
40
1.500040000533319
50
-179.99847215
51
-90.00152785
0
ARC
8
BLACK
10
169.9892999999999859
20
-11.6892999999999994
40
1.500040000533319
50
-89.99847215
51
-0.00152785
0
LINE
8
BLACK
6
CONTINUOUS
10
119.1506599999999878
20
-8.1593389999999992
11
127.9393399999999872
21
-8.1593400000000003
0
ARC
8
BLACK
10
122.6892999999999887
20
-44.6293000000000006
40
1.500040000533319
50
-89.99847215
51
-0.00152785
0
ARC
8
BLACK
10
185.4206999999999823
20
-26.6592999999999982
40
1.500040000533319
50
-179.99847215
51
-90.00152785
0
ARC
8
BLACK
10
165.020700000000005
20
-11.6892999999999994
40
1.500040000533319
50
-179.99847215
51
-90.00152785
0
ARC
8
BLACK
10
42.3393000000000015
20
-13.2706999999999997
40
1.500040000533319
50
0.00152785
51
89.99847215
0
LINE
8
BLACK
6
CONTINUOUS
10
9.5
20
-11.6793399999999998
11
9.499998999999999
21
-2.5
0
LINE
8
BLACK
6
CONTINUOUS
10
165.020700000000005
20
-13.1893399999999996
11
169.9893399999999986
21
-13.1893399999999996
0
LINE
8
BLACK
6
CONTINUOUS
10
166.1099999999999852
20
-4.7799999999999994
11
155.4099999999999966
21
-4.7799999999999994
0
ARC
8
BLACK
10
24.7306999999999988
20
3.1206999999999998
40
1.500040000533319
50
-179.99847215
51
-90.00152785
0
LINE
8
BLACK
6
CONTINUOUS
10
215.5999999999999943
20
-79.8999999999999915
11
215.5999999999999943
21
-80.8999999999999915
0
LINE
8
BLACK
6
CONTINUOUS
10
216.5999999999999943
20
-69.75
11
221.5999999999999943
21
-69.75
0
LINE
8
BLACK
6
CONTINUOUS
10
216.5999999999999943
20
-72.75
11
221.5999999999999943
21
-72.75
0
LINE
8
BLACK
6
CONTINUOUS
10
217.0999999999999943
20
-78.3999999999999915
11
221.0999999999999943
21
-78.3999999999999915
0
LINE
8
BLACK
6
CONTINUOUS
10
217.0999999999999943
20
-82.3999999999999915
11
221.0999999999999943
21
-82.3999999999999915
0
LINE
8
BLACK
6
CONTINUOUS
10
222.5999999999999943
20
-79.8999999999999915
11
222.5999999999999943
21
-80.8999999999999915
0
ARC
8
BLACK
10
217.1000009999999918
20
-79.9000010000000032
40
1.5000010000003334
50
90.00003820
51
179.99996180
0
ARC
8
BLACK
10
216.5999999999999943
20
-71.25
40
1.5
50
-270.00000000
51
-90.00000000
0
ARC
8
BLACK
10
217.1000009999999918
20
-80.899998999999994
40
1.5000010000003334
50
-179.99996180
51
-90.00003820
0
ARC
8
BLACK
10
221.0999999999999943
20
-79.8999999999999915
40
1.5
50
0.00000000
51
90.00000000
0
ARC
8
BLACK
10
221.5999999999999943
20
-71.25
40
1.5
50
-90.00000000
51
90.00000000
0
ARC
8
BLACK
10
221.0999999999999943
20
-80.8999999999999915
40
1.5
50
-90.00000000
51
-0.00000000
0
LINE
8
BLACK
6
CONTINUOUS
10
262.5
20
-3.8999999999999999
11
262.5
21
-4.8999999999999995
0
LINE
8
BLACK
6
CONTINUOUS
10
263.5
20
6.25
11
268.5
21
6.25
0
LINE
8
BLACK
6
CONTINUOUS
10
263.5
20
3.25
11
268.5
21
3.25
0
LINE
8
BLACK
6
CONTINUOUS
10
264.
20
-2.3999999999999999
11
268.
21
-2.3999999999999999
0
LINE
8
BLACK
6
CONTINUOUS
10
264.
20
-6.3999999999999995
11
268.
21
-6.3999999999999995
0
LINE
8
BLACK
6
CONTINUOUS
10
269.5
20
-3.8999999999999999
11
269.5
21
-4.8999999999999995
0
ARC
8
BLACK
10
264.0000009999999975
20
-3.9000009999999996
40
1.5000010000003334
50
90.00003820
51
179.99996180
0
ARC
8
BLACK
10
263.5
20
4.75
40
1.5
50
-270.00000000
51
-90.00000000
0
ARC
8
BLACK
10
264.0000009999999975
20
-4.8999990000000002
40
1.5000010000003334
50
-179.99996180
51
-90.00003820
0
ARC
8
BLACK
10
268.
20
-3.8999999999999999
40
1.5
50
0.00000000
51
90.00000000
0
ARC
8
BLACK
10
268.5
20
4.75
40
1.5
50
-90.00000000
51
90.00000000
0
ARC
8
BLACK
10
268.
20
-4.8999999999999995
40
1.5
50
-90.00000000
51
-0.00000000
0
LINE
8
BLACK
6
CONTINUOUS
10
158.
20
-22.8999999999999986
11
158.
21
-23.8999999999999986
0
LINE
8
BLACK
6
CONTINUOUS
10
159.
20
-12.75
11
164.
21
-12.75
0
LINE
8
BLACK
6
CONTINUOUS
10
159.
20
-15.75
11
164.
21
-15.75
0
LINE
8
BLACK
6
CONTINUOUS
10
159.5
20
-21.3999999999999986
11
163.5
21
-21.3999999999999986
0
LINE
8
BLACK
6
CONTINUOUS
10
159.5
20
-25.3999999999999986
11
163.5
21
-25.3999999999999986
0
LINE
8
BLACK
6
CONTINUOUS
10
165.
20
-22.8999999999999986
11
165.
21
-23.8999999999999986
0
ARC
8
BLACK
10
159.5000009999999975
20
-22.9000009999999996
40
1.5000010000003334
50
90.00003820
51
179.99996180
0
ARC
8
BLACK
10
159.
20
-14.25
40
1.5
50
-270.00000000
51
-90.00000000
0
ARC
8
BLACK
10
159.5000009999999975
20
-23.8999989999999976
40
1.5000010000003334
50
-179.99996180
51
-90.00003820
0
ARC
8
BLACK
10
163.5
20
-22.8999999999999986
40
1.5
50
0.00000000
51
90.00000000
0
ARC
8
BLACK
10
164.
20
-14.25
40
1.5
50
-90.00000000
51
90.00000000
0
ARC
8
BLACK
10
163.5
20
-23.8999999999999986
40
1.5
50
-90.00000000
51
-0.00000000
0
LINE
8
BLACK
6
CONTINUOUS
10
262.5
20
-41.8999999999999986
11
262.5
21
-42.8999999999999986
0
LINE
8
BLACK
6
CONTINUOUS
10
263.5
20
-31.75
11
268.5
21
-31.75
0
LINE
8
BLACK
6
CONTINUOUS
10
263.5
20
-34.75
11
268.5
21
-34.75
0
LINE
8
BLACK
6
CONTINUOUS
10
264.
20
-40.3999999999999986
11
268.
21
-40.3999999999999986
0
LINE
8
BLACK
6
CONTINUOUS
10
264.
20
-44.3999999999999986
11
268.
21
-44.3999999999999986
0
LINE
8
BLACK
6
CONTINUOUS
10
269.5
20
-41.8999999999999986
11
269.5
21
-42.8999999999999986
0
ARC
8
BLACK
10
264.0000009999999975
20
-41.9000009999999961
40
1.5000010000003334
50
90.00003820
51
179.99996180
0
ARC
8
BLACK
10
263.5
20
-33.25
40
1.5
50
-270.00000000
51
-90.00000000
0
ARC
8
BLACK
10
264.0000009999999975
20
-42.8999990000000011
40
1.5000010000003334
50
-179.99996180
51
-90.00003820
0
ARC
8
BLACK
10
268.
20
-41.8999999999999986
40
1.5
50
0.00000000
51
90.00000000
0
ARC
8
BLACK
10
268.5
20
-33.25
40
1.5
50
-90.00000000
51
90.00000000
0
ARC
8
BLACK
10
268.
20
-42.8999999999999986
40
1.5
50
-90.00000000
51
-0.00000000
0
LINE
8
BLACK
6
CONTINUOUS
10
186.5
20
-3.8999999999999999
11
186.5
21
-4.8999999999999995
0
LINE
8
BLACK
6
CONTINUOUS
10
187.5
20
6.25
11
192.5
21
6.25
0
LINE
8
BLACK
6
CONTINUOUS
10
187.5
20
3.25
11
192.5
21
3.25
0
LINE
8
BLACK
6
CONTINUOUS
10
188.
20
-2.3999999999999999
11
192.
21
-2.3999999999999999
0
LINE
8
BLACK
6
CONTINUOUS
10
188.
20
-6.3999999999999995
11
192.
21
-6.3999999999999995
0
LINE
8
BLACK
6
CONTINUOUS
10
193.5
20
-3.8999999999999999
11
193.5
21
-4.8999999999999995
0
ARC
8
BLACK
10
188.0000009999999975
20
-3.9000009999999996
40
1.5000010000003334
50
90.00003820
51
179.99996180
0
ARC
8
BLACK
10
187.5
20
4.75
40
1.5
50
-270.00000000
51
-90.00000000
0
ARC
8
BLACK
10
188.0000009999999975
20
-4.8999990000000002
40
1.5000010000003334
50
-179.99996180
51
-90.00003820
0
ARC
8
BLACK
10
192.
20
-3.8999999999999999
40
1.5
50
0.00000000
51
90.00000000
0
ARC
8
BLACK
10
192.5
20
4.75
40
1.5
50
-90.00000000
51
90.00000000
0
ARC
8
BLACK
10
192.
20
-4.8999999999999995
40
1.5
50
-90.00000000
51
-0.00000000
0
LINE
8
BLACK
6
CONTINUOUS
10
172.25
20
-60.8999999999999986
11
172.25
21
-61.8999999999999986
0
LINE
8
BLACK
6
CONTINUOUS
10
173.25
20
-50.75
11
178.25
21
-50.75
0
LINE
8
BLACK
6
CONTINUOUS
10
173.25
20
-53.75
11
178.25
21
-53.75
0
LINE
8
BLACK
6
CONTINUOUS
10
173.75
20
-59.3999999999999986
11
177.75
21
-59.3999999999999986
0
LINE
8
BLACK
6
CONTINUOUS
10
173.75
20
-63.3999999999999986
11
177.75
21
-63.3999999999999986
0
LINE
8
BLACK
6
CONTINUOUS
10
179.25
20
-60.8999999999999986
11
179.25
21
-61.8999999999999986
0
ARC
8
BLACK
10
173.7500009999999975
20
-60.9000009999999961
40
1.5000010000003334
50
90.00003820
51
179.99996180
0
ARC
8
BLACK
10
173.25
20
-52.25
40
1.5
50
-270.00000000
51
-90.00000000
0
ARC
8
BLACK
10
173.7500009999999975
20
-61.899998999999994
40
1.5000010000003334
50
-179.99996180
51
-90.00003820
0
ARC
8
BLACK
10
177.75
20
-60.8999999999999986
40
1.5
50
0.00000000
51
90.00000000
0
ARC
8
BLACK
10
178.25
20
-52.25
40
1.5
50
-90.00000000
51
90.00000000
0
ARC
8
BLACK
10
177.75
20
-61.8999999999999986
40
1.5
50
-90.00000000
51
-0.00000000
0
LINE
8
BLACK
6
CONTINUOUS
10
258.3499999999999659
20
-79.8999999999999915
11
258.3499999999999659
21
-80.8999999999999915
0
LINE
8
BLACK
6
CONTINUOUS
10
259.3499999999999659
20
-69.75
11
264.3499999999999659
21
-69.75
0
LINE
8
BLACK
6
CONTINUOUS
10
259.3499999999999659
20
-72.75
11
264.3499999999999659
21
-72.75
0
LINE
8
BLACK
6
CONTINUOUS
10
259.8499999999999659
20
-78.3999999999999915
11
263.8499999999999659
21
-78.3999999999999915
0
LINE
8
BLACK
6
CONTINUOUS
10
259.8499999999999659
20
-82.3999999999999915
11
263.8499999999999659
21
-82.3999999999999915
0
LINE
8
BLACK
6
CONTINUOUS
10
265.3499999999999659
20
-79.8999999999999915
11
265.3499999999999659
21
-80.8999999999999915
0
ARC
8
BLACK
10
259.8500009999999634
20
-79.9000010000000032
40
1.5000010000003334
50
90.00003820
51
179.99996180
0
ARC
8
BLACK
10
259.3499999999999659
20
-71.25
40
1.5
50
-270.00000000
51
-90.00000000
0
ARC
8
BLACK
10
259.8500009999999634
20
-80.899998999999994
40
1.5000010000003334
50
-179.99996180
51
-90.00003820
0
ARC
8
BLACK
10
263.8499999999999659
20
-79.8999999999999915
40
1.5
50
0.00000000
51
90.00000000
0
ARC
8
BLACK
10
264.3499999999999659
20
-71.25
40
1.5
50
-90.00000000
51
90.00000000
0
ARC
8
BLACK
10
263.8499999999999659
20
-80.8999999999999915
40
1.5
50
-90.00000000
51
-0.00000000
0
LINE
8
BLACK
6
CONTINUOUS
10
86.75
20
-41.8999999999999986
11
86.75
21
-42.8999999999999986
0
LINE
8
BLACK
6
CONTINUOUS
10
87.75
20
-31.75
11
92.75
21
-31.75
0
LINE
8
BLACK
6
CONTINUOUS
10
87.75
20
-34.75
11
92.75
21
-34.75
0
LINE
8
BLACK
6
CONTINUOUS
10
88.25
20
-40.3999999999999986
11
92.25
21
-40.3999999999999986
0
LINE
8
BLACK
6
CONTINUOUS
10
88.25
20
-44.3999999999999986
11
92.25
21
-44.3999999999999986
0
LINE
8
BLACK
6
CONTINUOUS
10
93.75
20
-41.8999999999999986
11
93.75
21
-42.8999999999999986
0
ARC
8
BLACK
10
88.2500009999999975
20
-41.9000009999999961
40
1.5000010000003334
50
90.00003820
51
179.99996180
0
ARC
8
BLACK
10
87.75
20
-33.25
40
1.5
50
-270.00000000
51
-90.00000000
0
ARC
8
BLACK
10
88.2500009999999975
20
-42.8999990000000011
40
1.5000010000003334
50
-179.99996180
51
-90.00003820
0
ARC
8
BLACK
10
92.25
20
-41.8999999999999986
40
1.5
50
0.00000000
51
90.00000000
0
ARC
8
BLACK
10
92.75
20
-33.25
40
1.5
50
-90.00000000
51
90.00000000
0
ARC
8
BLACK
10
92.25
20
-42.8999999999999986
40
1.5
50
-90.00000000
51
-0.00000000
0
LINE
8
BLACK
6
CONTINUOUS
10
162.75
20
-41.8999999999999986
11
162.75
21
-42.8999999999999986
0
LINE
8
BLACK
6
CONTINUOUS
10
163.75
20
-31.75
11
168.75
21
-31.75
0
LINE
8
BLACK
6
CONTINUOUS
10
163.75
20
-34.75
11
168.75
21
-34.75
0
LINE
8
BLACK
6
CONTINUOUS
10
164.25
20
-40.3999999999999986
11
168.25
21
-40.3999999999999986
0
LINE
8
BLACK
6
CONTINUOUS
10
164.25
20
-44.3999999999999986
11
168.25
21
-44.3999999999999986
0
LINE
8
BLACK
6
CONTINUOUS
10
169.75
20
-41.8999999999999986
11
169.75
21
-42.8999999999999986
0
ARC
8
BLACK
10
164.2500009999999975
20
-41.9000009999999961
40
1.5000010000003334
50
90.00003820
51
179.99996180
0
ARC
8
BLACK
10
163.75
20
-33.25
40
1.5
50
-270.00000000
51
-90.00000000
0
ARC
8
BLACK
10
164.2500009999999975
20
-42.8999990000000011
40
1.5000010000003334
50
-179.99996180
51
-90.00003820
0
ARC
8
BLACK
10
168.25
20
-41.8999999999999986
40
1.5
50
0.00000000
51
90.00000000
0
ARC
8
BLACK
10
168.75
20
-33.25
40
1.5
50
-90.00000000
51
90.00000000
0
ARC
8
BLACK
10
168.25
20
-42.8999999999999986
40
1.5
50
-90.00000000
51
-0.00000000
0
LINE
8
BLACK
6
CONTINUOUS
10
44.
20
-22.8999999999999986
11
44.
21
-23.8999999999999986
0
LINE
8
BLACK
6
CONTINUOUS
10
45.
20
-12.75
11
50.
21
-12.75
0
LINE
8
BLACK
6
CONTINUOUS
10
45.
20
-15.75
11
50.
21
-15.75
0
LINE
8
BLACK
6
CONTINUOUS
10
45.5
20
-21.3999999999999986
11
49.5
21
-21.3999999999999986
0
LINE
8
BLACK
6
CONTINUOUS
10
45.5
20
-25.3999999999999986
11
49.5
21
-25.3999999999999986
0
LINE
8
BLACK
6
CONTINUOUS
10
51.
20
-22.8999999999999986
11
51.
21
-23.8999999999999986
0
ARC
8
BLACK
10
45.5000009999999975
20
-22.9000009999999996
40
1.5000010000003334
50
90.00003820
51
179.99996180
0
ARC
8
BLACK
10
45.
20
-14.25
40
1.5
50
-270.00000000
51
-90.00000000
0
ARC
8
BLACK
10
45.5000009999999975
20
-23.8999989999999976
40
1.5000010000003334
50
-179.99996180
51
-90.00003820
0
ARC
8
BLACK
10
49.5
20
-22.8999999999999986
40
1.5
50
0.00000000
51
90.00000000
0
ARC
8
BLACK
10
50.
20
-14.25
40
1.5
50
-90.00000000
51
90.00000000
0
ARC
8
BLACK
10
49.5
20
-23.8999999999999986
40
1.5
50
-90.00000000
51
-0.00000000
0
LINE
8
BLACK
6
CONTINUOUS
10
148.5
20
-3.8999999999999999
11
148.5
21
-4.8999999999999995
0
LINE
8
BLACK
6
CONTINUOUS
10
149.5
20
6.25
11
154.5
21
6.25
0
LINE
8
BLACK
6
CONTINUOUS
10
149.5
20
3.25
11
154.5
21
3.25
0
LINE
8
BLACK
6
CONTINUOUS
10
150.
20
-2.3999999999999999
11
154.
21
-2.3999999999999999
0
LINE
8
BLACK
6
CONTINUOUS
10
150.
20
-6.3999999999999995
11
154.
21
-6.3999999999999995
0
LINE
8
BLACK
6
CONTINUOUS
10
155.5
20
-3.8999999999999999
11
155.5
21
-4.8999999999999995
0
ARC
8
BLACK
10
150.0000009999999975
20
-3.9000009999999996
40
1.5000010000003334
50
90.00003820
51
179.99996180
0
ARC
8
BLACK
10
149.5
20
4.75
40
1.5
50
-270.00000000
51
-90.00000000
0
ARC
8
BLACK
10
150.0000009999999975
20
-4.8999990000000002
40
1.5000010000003334
50
-179.99996180
51
-90.00003820
0
ARC
8
BLACK
10
154.
20
-3.8999999999999999
40
1.5
50
0.00000000
51
90.00000000
0
ARC
8
BLACK
10
154.5
20
4.75
40
1.5
50
-90.00000000
51
90.00000000
0
ARC
8
BLACK
10
154.
20
-4.8999999999999995
40
1.5
50
-90.00000000
51
-0.00000000
0
LINE
8
BLACK
6
CONTINUOUS
10
253.
20
-22.8999999999999986
11
253.
21
-23.8999999999999986
0
LINE
8
BLACK
6
CONTINUOUS
10
254.
20
-12.75
11
259.
21
-12.75
0
LINE
8
BLACK
6
CONTINUOUS
10
254.
20
-15.75
11
259.
21
-15.75
0
LINE
8
BLACK
6
CONTINUOUS
10
254.5
20
-21.3999999999999986
11
258.5
21
-21.3999999999999986
0
LINE
8
BLACK
6
CONTINUOUS
10
254.5
20
-25.3999999999999986
11
258.5
21
-25.3999999999999986
0
LINE
8
BLACK
6
CONTINUOUS
10
260.
20
-22.8999999999999986
11
260.
21
-23.8999999999999986
0
ARC
8
BLACK
10
254.5000009999999975
20
-22.9000009999999996
40
1.5000010000003334
50
90.00003820
51
179.99996180
0
ARC
8
BLACK
10
254.
20
-14.25
40
1.5
50
-270.00000000
51
-90.00000000
0
ARC
8
BLACK
10
254.5000009999999975
20
-23.8999989999999976
40
1.5000010000003334
50
-179.99996180
51
-90.00003820
0
ARC
8
BLACK
10
258.5
20
-22.8999999999999986
40
1.5
50
0.00000000
51
90.00000000
0
ARC
8
BLACK
10
259.
20
-14.25
40
1.5
50
-90.00000000
51
90.00000000
0
ARC
8
BLACK
10
258.5
20
-23.8999999999999986
40
1.5
50
-90.00000000
51
-0.00000000
0
LINE
8
BLACK
6
CONTINUOUS
10
48.75
20
-41.8999999999999986
11
48.75
21
-42.8999999999999986
0
LINE
8
BLACK
6
CONTINUOUS
10
49.75
20
-31.75
11
54.75
21
-31.75
0
LINE
8
BLACK
6
CONTINUOUS
10
49.75
20
-34.75
11
54.75
21
-34.75
0
LINE
8
BLACK
6
CONTINUOUS
10
50.25
20
-40.3999999999999986
11
54.25
21
-40.3999999999999986
0
LINE
8
BLACK
6
CONTINUOUS
10
50.25
20
-44.3999999999999986
11
54.25
21
-44.3999999999999986
0
LINE
8
BLACK
6
CONTINUOUS
10
55.75
20
-41.8999999999999986
11
55.75
21
-42.8999999999999986
0
ARC
8
BLACK
10
50.2500009999999975
20
-41.9000009999999961
40
1.5000010000003334
50
90.00003820
51
179.99996180
0
ARC
8
BLACK
10
49.75
20
-33.25
40
1.5
50
-270.00000000
51
-90.00000000
0
ARC
8
BLACK
10
50.2500009999999975
20
-42.8999990000000011
40
1.5000010000003334
50
-179.99996180
51
-90.00003820
0
ARC
8
BLACK
10
54.25
20
-41.8999999999999986
40
1.5
50
0.00000000
51
90.00000000
0
ARC
8
BLACK
10
54.75
20
-33.25
40
1.5
50
-90.00000000
51
90.00000000
0
ARC
8
BLACK
10
54.25
20
-42.8999999999999986
40
1.5
50
-90.00000000
51
-0.00000000
0
LINE
8
BLACK
6
CONTINUOUS
10
82.
20
-22.8999999999999986
11
82.
21
-23.8999999999999986
0
LINE
8
BLACK
6
CONTINUOUS
10
83.
20
-12.75
11
88.
21
-12.75
0
LINE
8
BLACK
6
CONTINUOUS
10
83.
20
-15.75
11
88.
21
-15.75
0
LINE
8
BLACK
6
CONTINUOUS
10
83.5
20
-21.3999999999999986
11
87.5
21
-21.3999999999999986
0
LINE
8
BLACK
6
CONTINUOUS
10
83.5
20
-25.3999999999999986
11
87.5
21
-25.3999999999999986
0
LINE
8
BLACK
6
CONTINUOUS
10
89.
20
-22.8999999999999986
11
89.
21
-23.8999999999999986
0
ARC
8
BLACK
10
83.5000009999999975
20
-22.9000009999999996
40
1.5000010000003334
50
90.00003820
51
179.99996180
0
ARC
8
BLACK
10
83.
20
-14.25
40
1.5
50
-270.00000000
51
-90.00000000
0
ARC
8
BLACK
10
83.5000009999999975
20
-23.8999989999999976
40
1.5000010000003334
50
-179.99996180
51
-90.00003820
0
ARC
8
BLACK
10
87.5
20
-22.8999999999999986
40
1.5
50
0.00000000
51
90.00000000
0
ARC
8
BLACK
10
88.
20
-14.25
40
1.5
50
-90.00000000
51
90.00000000
0
ARC
8
BLACK
10
87.5
20
-23.8999999999999986
40
1.5
50
-90.00000000
51
-0.00000000
0
LINE
8
BLACK
6
CONTINUOUS
10
124.75
20
-41.8999999999999986
11
124.75
21
-42.8999999999999986
0
LINE
8
BLACK
6
CONTINUOUS
10
125.75
20
-31.75
11
130.75
21
-31.75
0
LINE
8
BLACK
6
CONTINUOUS
10
125.75
20
-34.75
11
130.75
21
-34.75
0
LINE
8
BLACK
6
CONTINUOUS
10
126.25
20
-40.3999999999999986
11
130.25
21
-40.3999999999999986
0
LINE
8
BLACK
6
CONTINUOUS
10
126.25
20
-44.3999999999999986
11
130.25
21
-44.3999999999999986
0
LINE
8
BLACK
6
CONTINUOUS
10
131.75
20
-41.8999999999999986
11
131.75
21
-42.8999999999999986
0
ARC
8
BLACK
10
126.2500009999999975
20
-41.9000009999999961
40
1.5000010000003334
50
90.00003820
51
179.99996180
0
ARC
8
BLACK
10
125.75
20
-33.25
40
1.5
50
-270.00000000
51
-90.00000000
0
ARC
8
BLACK
10
126.2500009999999975
20
-42.8999990000000011
40
1.5000010000003334
50
-179.99996180
51
-90.00003820
0
ARC
8
BLACK
10
130.25
20
-41.8999999999999986
40
1.5
50
0.00000000
51
90.00000000
0
ARC
8
BLACK
10
130.75
20
-33.25
40
1.5
50
-90.00000000
51
90.00000000
0
ARC
8
BLACK
10
130.25
20
-42.8999999999999986
40
1.5
50
-90.00000000
51
-0.00000000
0
LINE
8
BLACK
6
CONTINUOUS
10
72.5
20
-3.8999999999999999
11
72.5
21
-4.8999999999999995
0
LINE
8
BLACK
6
CONTINUOUS
10
73.5
20
6.25
11
78.5
21
6.25
0
LINE
8
BLACK
6
CONTINUOUS
10
73.5
20
3.25
11
78.5
21
3.25
0
LINE
8
BLACK
6
CONTINUOUS
10
74.
20
-2.3999999999999999
11
78.
21
-2.3999999999999999
0
LINE
8
BLACK
6
CONTINUOUS
10
74.
20
-6.3999999999999995
11
78.
21
-6.3999999999999995
0
LINE
8
BLACK
6
CONTINUOUS
10
79.5
20
-3.8999999999999999
11
79.5
21
-4.8999999999999995
0
ARC
8
BLACK
10
74.0000009999999975
20
-3.9000009999999996
40
1.5000010000003334
50
90.00003820
51
179.99996180
0
ARC
8
BLACK
10
73.5
20
4.75
40
1.5
50
-270.00000000
51
-90.00000000
0
ARC
8
BLACK
10
74.0000009999999975
20
-4.8999990000000002
40
1.5000010000003334
50
-179.99996180
51
-90.00003820
0
ARC
8
BLACK
10
78.
20
-3.8999999999999999
40
1.5
50
0.00000000
51
90.00000000
0
ARC
8
BLACK
10
78.5
20
4.75
40
1.5
50
-90.00000000
51
90.00000000
0
ARC
8
BLACK
10
78.
20
-4.8999999999999995
40
1.5
50
-90.00000000
51
-0.00000000
0
LINE
8
BLACK
6
CONTINUOUS
10
20.25
20
-22.8999999999999986
11
20.25
21
-23.8999999999999986
0
LINE
8
BLACK
6
CONTINUOUS
10
21.25
20
-12.75
11
26.25
21
-12.75
0
LINE
8
BLACK
6
CONTINUOUS
10
21.25
20
-15.75
11
26.25
21
-15.75
0
LINE
8
BLACK
6
CONTINUOUS
10
21.75
20
-21.3999999999999986
11
25.75
21
-21.3999999999999986
0
LINE
8
BLACK
6
CONTINUOUS
10
21.75
20
-25.3999999999999986
11
25.75
21
-25.3999999999999986
0
LINE
8
BLACK
6
CONTINUOUS
10
27.25
20
-22.8999999999999986
11
27.25
21
-23.8999999999999986
0
ARC
8
BLACK
10
21.7500009999999975
20
-22.9000009999999996
40
1.5000010000003334
50
90.00003820
51
179.99996180
0
ARC
8
BLACK
10
21.25
20
-14.25
40
1.5
50
-270.00000000
51
-90.00000000
0
ARC
8
BLACK
10
21.7500009999999975
20
-23.8999989999999976
40
1.5000010000003334
50
-179.99996180
51
-90.00003820
0
ARC
8
BLACK
10
25.75
20
-22.8999999999999986
40
1.5
50
0.00000000
51
90.00000000
0
ARC
8
BLACK
10
26.25
20
-14.25
40
1.5
50
-90.00000000
51
90.00000000
0
ARC
8
BLACK
10
25.75
20
-23.8999999999999986
40
1.5
50
-90.00000000
51
-0.00000000
0
LINE
8
BLACK
6
CONTINUOUS
10
277.3499999999999659
20
-79.8999999999999915
11
277.3499999999999659
21
-80.8999999999999915
0
LINE
8
BLACK
6
CONTINUOUS
10
278.3499999999999659
20
-69.75
11
283.3499999999999659
21
-69.75
0
LINE
8
BLACK
6
CONTINUOUS
10
278.3499999999999659
20
-72.75
11
283.3499999999999659
21
-72.75
0
LINE
8
BLACK
6
CONTINUOUS
10
278.8499999999999659
20
-78.3999999999999915
11
282.8499999999999659
21
-78.3999999999999915
0
LINE
8
BLACK
6
CONTINUOUS
10
278.8499999999999659
20
-82.3999999999999915
11
282.8499999999999659
21
-82.3999999999999915
0
LINE
8
BLACK
6
CONTINUOUS
10
284.3499999999999659
20
-79.8999999999999915
11
284.3499999999999659
21
-80.8999999999999915
0
ARC
8
BLACK
10
278.8500009999999634
20
-79.9000010000000032
40
1.5000010000003334
50
90.00003820
51
179.99996180
0
ARC
8
BLACK
10
278.3499999999999659
20
-71.25
40
1.5
50
-270.00000000
51
-90.00000000
0
ARC
8
BLACK
10
278.8500009999999634
20
-80.899998999999994
40
1.5000010000003334
50
-179.99996180
51
-90.00003820
0
ARC
8
BLACK
10
282.8499999999999659
20
-79.8999999999999915
40
1.5
50
0.00000000
51
90.00000000
0
ARC
8
BLACK
10
283.3499999999999659
20
-71.25
40
1.5
50
-90.00000000
51
90.00000000
0
ARC
8
BLACK
10
282.8499999999999659
20
-80.8999999999999915
40
1.5
50
-90.00000000
51
-0.00000000
0
LINE
8
BLACK
6
CONTINUOUS
10
34.5
20
-3.8999999999999999
11
34.5
21
-4.8999999999999995
0
LINE
8
BLACK
6
CONTINUOUS
10
35.5
20
6.25
11
40.5
21
6.25
0
LINE
8
BLACK
6
CONTINUOUS
10
35.5
20
3.25
11
40.5
21
3.25
0
LINE
8
BLACK
6
CONTINUOUS
10
36.
20
-2.3999999999999999
11
40.
21
-2.3999999999999999
0
LINE
8
BLACK
6
CONTINUOUS
10
36.
20
-6.3999999999999995
11
40.
21
-6.3999999999999995
0
LINE
8
BLACK
6
CONTINUOUS
10
41.5
20
-3.8999999999999999
11
41.5
21
-4.8999999999999995
0
ARC
8
BLACK
10
36.0000009999999975
20
-3.9000009999999996
40
1.5000010000003334
50
90.00003820
51
179.99996180
0
ARC
8
BLACK
10
35.5
20
4.75
40
1.5
50
-270.00000000
51
-90.00000000
0
ARC
8
BLACK
10
36.0000009999999975
20
-4.8999990000000002
40
1.5000010000003334
50
-179.99996180
51
-90.00003820
0
ARC
8
BLACK
10
40.
20
-3.8999999999999999
40
1.5
50
0.00000000
51
90.00000000
0
ARC
8
BLACK
10
40.5
20
4.75
40
1.5
50
-90.00000000
51
90.00000000
0
ARC
8
BLACK
10
40.
20
-4.8999999999999995
40
1.5
50
-90.00000000
51
-0.00000000
0
LINE
8
BLACK
6
CONTINUOUS
10
120.
20
-22.8999999999999986
11
120.
21
-23.8999999999999986
0
LINE
8
BLACK
6
CONTINUOUS
10
121.
20
-12.75
11
126.
21
-12.75
0
LINE
8
BLACK
6
CONTINUOUS
10
121.
20
-15.75
11
126.
21
-15.75
0
LINE
8
BLACK
6
CONTINUOUS
10
121.5
20
-21.3999999999999986
11
125.5
21
-21.3999999999999986
0
LINE
8
BLACK
6
CONTINUOUS
10
121.5
20
-25.3999999999999986
11
125.5
21
-25.3999999999999986
0
LINE
8
BLACK
6
CONTINUOUS
10
127.
20
-22.8999999999999986
11
127.
21
-23.8999999999999986
0
ARC
8
BLACK
10
121.5000009999999975
20
-22.9000009999999996
40
1.5000010000003334
50
90.00003820
51
179.99996180
0
ARC
8
BLACK
10
121.
20
-14.25
40
1.5
50
-270.00000000
51
-90.00000000
0
ARC
8
BLACK
10
121.5000009999999975
20
-23.8999989999999976
40
1.5000010000003334
50
-179.99996180
51
-90.00003820
0
ARC
8
BLACK
10
125.5
20
-22.8999999999999986
40
1.5
50
0.00000000
51
90.00000000
0
ARC
8
BLACK
10
126.
20
-14.25
40
1.5
50
-90.00000000
51
90.00000000
0
ARC
8
BLACK
10
125.5
20
-23.8999999999999986
40
1.5
50
-90.00000000
51
-0.00000000
0
LINE
8
BLACK
6
CONTINUOUS
10
243.5
20
-3.8999999999999999
11
243.5
21
-4.8999999999999995
0
LINE
8
BLACK
6
CONTINUOUS
10
244.5
20
6.25
11
249.5
21
6.25
0
LINE
8
BLACK
6
CONTINUOUS
10
244.5
20
3.25
11
249.5
21
3.25
0
LINE
8
BLACK
6
CONTINUOUS
10
245.
20
-2.3999999999999999
11
249.
21
-2.3999999999999999
0
LINE
8
BLACK
6
CONTINUOUS
10
245.
20
-6.3999999999999995
11
249.
21
-6.3999999999999995
0
LINE
8
BLACK
6
CONTINUOUS
10
250.5
20
-3.8999999999999999
11
250.5
21
-4.8999999999999995
0
ARC
8
BLACK
10
245.0000009999999975
20
-3.9000009999999996
40
1.5000010000003334
50
90.00003820
51
179.99996180
0
ARC
8
BLACK
10
244.5
20
4.75
40
1.5
50
-270.00000000
51
-90.00000000
0
ARC
8
BLACK
10
245.0000009999999975
20
-4.8999990000000002
40
1.5000010000003334
50
-179.99996180
51
-90.00003820
0
ARC
8
BLACK
10
249.
20
-3.8999999999999999
40
1.5
50
0.00000000
51
90.00000000
0
ARC
8
BLACK
10
249.5
20
4.75
40
1.5
50
-90.00000000
51
90.00000000
0
ARC
8
BLACK
10
249.
20
-4.8999999999999995
40
1.5
50
-90.00000000
51
-0.00000000
0
LINE
8
BLACK
6
CONTINUOUS
10
153.25
20
-60.8999999999999986
11
153.25
21
-61.8999999999999986
0
LINE
8
BLACK
6
CONTINUOUS
10
154.25
20
-50.75
11
159.25
21
-50.75
0
LINE
8
BLACK
6
CONTINUOUS
10
154.25
20
-53.75
11
159.25
21
-53.75
0
LINE
8
BLACK
6
CONTINUOUS
10
154.75
20
-59.3999999999999986
11
158.75
21
-59.3999999999999986
0
LINE
8
BLACK
6
CONTINUOUS
10
154.75
20
-63.3999999999999986
11
158.75
21
-63.3999999999999986
0
LINE
8
BLACK
6
CONTINUOUS
10
160.25
20
-60.8999999999999986
11
160.25
21
-61.8999999999999986
0
ARC
8
BLACK
10
154.7500009999999975
20
-60.9000009999999961
40
1.5000010000003334
50
90.00003820
51
179.99996180
0
ARC
8
BLACK
10
154.25
20
-52.25
40
1.5
50
-270.00000000
51
-90.00000000
0
ARC
8
BLACK
10
154.7500009999999975
20
-61.899998999999994
40
1.5000010000003334
50
-179.99996180
51
-90.00003820
0
ARC
8
BLACK
10
158.75
20
-60.8999999999999986
40
1.5
50
0.00000000
51
90.00000000
0
ARC
8
BLACK
10
159.25
20
-52.25
40
1.5
50
-90.00000000
51
90.00000000
0
ARC
8
BLACK
10
158.75
20
-61.8999999999999986
40
1.5
50
-90.00000000
51
-0.00000000
0
LINE
8
BLACK
6
CONTINUOUS
10
139.
20
-22.8999999999999986
11
139.
21
-23.8999999999999986
0
LINE
8
BLACK
6
CONTINUOUS
10
140.
20
-12.75
11
145.
21
-12.75
0
LINE
8
BLACK
6
CONTINUOUS
10
140.
20
-15.75
11
145.
21
-15.75
0
LINE
8
BLACK
6
CONTINUOUS
10
140.5
20
-21.3999999999999986
11
144.5
21
-21.3999999999999986
0
LINE
8
BLACK
6
CONTINUOUS
10
140.5
20
-25.3999999999999986
11
144.5
21
-25.3999999999999986
0
LINE
8
BLACK
6
CONTINUOUS
10
146.
20
-22.8999999999999986
11
146.
21
-23.8999999999999986
0
ARC
8
BLACK
10
140.5000009999999975
20
-22.9000009999999996
40
1.5000010000003334
50
90.00003820
51
179.99996180
0
ARC
8
BLACK
10
140.
20
-14.25
40
1.5
50
-270.00000000
51
-90.00000000
0
ARC
8
BLACK
10
140.5000009999999975
20
-23.8999989999999976
40
1.5000010000003334
50
-179.99996180
51
-90.00003820
0
ARC
8
BLACK
10
144.5
20
-22.8999999999999986
40
1.5
50
0.00000000
51
90.00000000
0
ARC
8
BLACK
10
145.
20
-14.25
40
1.5
50
-90.00000000
51
90.00000000
0
ARC
8
BLACK
10
144.5
20
-23.8999999999999986
40
1.5
50
-90.00000000
51
-0.00000000
0
LINE
8
BLACK
6
CONTINUOUS
10
101.
20
-22.8999999999999986
11
101.
21
-23.8999999999999986
0
LINE
8
BLACK
6
CONTINUOUS
10
102.
20
-12.75
11
107.
21
-12.75
0
LINE
8
BLACK
6
CONTINUOUS
10
102.
20
-15.75
11
107.
21
-15.75
0
LINE
8
BLACK
6
CONTINUOUS
10
102.5
20
-21.3999999999999986
11
106.5
21
-21.3999999999999986
0
LINE
8
BLACK
6
CONTINUOUS
10
102.5
20
-25.3999999999999986
11
106.5
21
-25.3999999999999986
0
LINE
8
BLACK
6
CONTINUOUS
10
108.
20
-22.8999999999999986
11
108.
21
-23.8999999999999986
0
ARC
8
BLACK
10
102.5000009999999975
20
-22.9000009999999996
40
1.5000010000003334
50
90.00003820
51
179.99996180
0
ARC
8
BLACK
10
102.
20
-14.25
40
1.5
50
-270.00000000
51
-90.00000000
0
ARC
8
BLACK
10
102.5000009999999975
20
-23.8999989999999976
40
1.5000010000003334
50
-179.99996180
51
-90.00003820
0
ARC
8
BLACK
10
106.5
20
-22.8999999999999986
40
1.5
50
0.00000000
51
90.00000000
0
ARC
8
BLACK
10
107.
20
-14.25
40
1.5
50
-90.00000000
51
90.00000000
0
ARC
8
BLACK
10
106.5
20
-23.8999999999999986
40
1.5
50
-90.00000000
51
-0.00000000
0
LINE
8
BLACK
6
CONTINUOUS
10
215.
20
-22.8999999999999986
11
215.
21
-23.8999999999999986
0
LINE
8
BLACK
6
CONTINUOUS
10
216.
20
-12.75
11
221.
21
-12.75
0
LINE
8
BLACK
6
CONTINUOUS
10
216.
20
-15.75
11
221.
21
-15.75
0
LINE
8
BLACK
6
CONTINUOUS
10
216.5
20
-21.3999999999999986
11
220.5
21
-21.3999999999999986
0
LINE
8
BLACK
6
CONTINUOUS
10
216.5
20
-25.3999999999999986
11
220.5
21
-25.3999999999999986
0
LINE
8
BLACK
6
CONTINUOUS
10
222.
20
-22.8999999999999986
11
222.
21
-23.8999999999999986
0
ARC
8
BLACK
10
216.5000009999999975
20
-22.9000009999999996
40
1.5000010000003334
50
90.00003820
51
179.99996180
0
ARC
8
BLACK
10
216.
20
-14.25
40
1.5
50
-270.00000000
51
-90.00000000
0
ARC
8
BLACK
10
216.5000009999999975
20
-23.8999989999999976
40
1.5000010000003334
50
-179.99996180
51
-90.00003820
0
ARC
8
BLACK
10
220.5
20
-22.8999999999999986
40
1.5
50
0.00000000
51
90.00000000
0
ARC
8
BLACK
10
221.
20
-14.25
40
1.5
50
-90.00000000
51
90.00000000
0
ARC
8
BLACK
10
220.5
20
-23.8999999999999986
40
1.5
50
-90.00000000
51
-0.00000000
0
LINE
8
BLACK
6
CONTINUOUS
10
200.75
20
-41.8999999999999986
11
200.75
21
-42.8999999999999986
0
LINE
8
BLACK
6
CONTINUOUS
10
201.75
20
-31.75
11
206.75
21
-31.75
0
LINE
8
BLACK
6
CONTINUOUS
10
201.75
20
-34.75
11
206.75
21
-34.75
0
LINE
8
BLACK
6
CONTINUOUS
10
202.25
20
-40.3999999999999986
11
206.25
21
-40.3999999999999986
0
LINE
8
BLACK
6
CONTINUOUS
10
202.25
20
-44.3999999999999986
11
206.25
21
-44.3999999999999986
0
LINE
8
BLACK
6
CONTINUOUS
10
207.75
20
-41.8999999999999986
11
207.75
21
-42.8999999999999986
0
ARC
8
BLACK
10
202.2500009999999975
20
-41.9000009999999961
40
1.5000010000003334
50
90.00003820
51
179.99996180
0
ARC
8
BLACK
10
201.75
20
-33.25
40
1.5
50
-270.00000000
51
-90.00000000
0
ARC
8
BLACK
10
202.2500009999999975
20
-42.8999990000000011
40
1.5000010000003334
50
-179.99996180
51
-90.00003820
0
ARC
8
BLACK
10
206.25
20
-41.8999999999999986
40
1.5
50
0.00000000
51
90.00000000
0
ARC
8
BLACK
10
206.75
20
-33.25
40
1.5
50
-90.00000000
51
90.00000000
0
ARC
8
BLACK
10
206.25
20
-42.8999999999999986
40
1.5
50
-90.00000000
51
-0.00000000
0
LINE
8
BLACK
6
CONTINUOUS
10
90.9771969999999897
20
-88.4677310000000006
11
90.6351769999999988
21
-89.4074229999999943
0
LINE
8
BLACK
6
CONTINUOUS
10
91.5316859999999934
20
-91.3299919999999901
11
95.2904559999999918
21
-92.6980729999999937
0
LINE
8
BLACK
6
CONTINUOUS
10
92.8997659999999996
20
-87.5712219999999917
11
96.6585369999999955
21
-88.9393029999999953
0
LINE
8
BLACK
6
CONTINUOUS
10
94.3623339999999899
20
-82.0909489999999948
11
99.0607969999999938
21
-83.8010489999999919
0
LINE
8
BLACK
6
CONTINUOUS
10
95.388393999999991
20
-79.2718709999999902
11
100.0868569999999949
21
-80.9819710000000015
0
LINE
8
BLACK
6
CONTINUOUS
10
97.5550459999999902
20
-90.8618719999999911
11
97.2130250000000018
21
-91.8015639999999991
0
ARC
8
BLACK
10
92.3867369999999966
20
-88.9807619999999986
40
1.5000012728531265
50
70.00005757
51
159.99998579
0
ARC
8
BLACK
10
92.0447149999999965
20
-89.9204529999999949
40
1.4999996491206256
50
-200.00000445
51
-109.99995549
0
ARC
8
BLACK
10
94.8753639999999905
20
-80.6814099999999996
40
1.4999999911403332
50
-289.99999138
51
-109.99999138
0
ARC
8
BLACK
10
96.1455069999999949
20
-90.3488419999999905
40
1.4999999911403332
50
-19.99999138
51
70.00000862
0
ARC
8
BLACK
10
95.8034869999999898
20
-91.2885339999999985
40
1.4999990514477
50
-110.00002728
51
-20.00000445
0
ARC
8
BLACK
10
99.5738269999999943
20
-82.3915099999999967
40
1.4999999911403332
50
-109.99999138
51
70.00000862
0
LINE
8
BLACK
6
CONTINUOUS
10
196.
20
-22.8999999999999986
11
196.
21
-23.8999999999999986
0
LINE
8
BLACK
6
CONTINUOUS
10
197.
20
-12.75
11
202.
21
-12.75
0
LINE
8
BLACK
6
CONTINUOUS
10
197.
20
-15.75
11
202.
21
-15.75
0
LINE
8
BLACK
6
CONTINUOUS
10
197.5
20
-21.3999999999999986
11
201.5
21
-21.3999999999999986
0
LINE
8
BLACK
6
CONTINUOUS
10
197.5
20
-25.3999999999999986
11
201.5
21
-25.3999999999999986
0
LINE
8
BLACK
6
CONTINUOUS
10
203.
20
-22.8999999999999986
11
203.
21
-23.8999999999999986
0
ARC
8
BLACK
10
197.5000009999999975
20
-22.9000009999999996
40
1.5000010000003334
50
90.00003820
51
179.99996180
0
ARC
8
BLACK
10
197.
20
-14.25
40
1.5
50
-270.00000000
51
-90.00000000
0
ARC
8
BLACK
10
197.5000009999999975
20
-23.8999989999999976
40
1.5000010000003334
50
-179.99996180
51
-90.00003820
0
ARC
8
BLACK
10
201.5
20
-22.8999999999999986
40
1.5
50
0.00000000
51
90.00000000
0
ARC
8
BLACK
10
202.
20
-14.25
40
1.5
50
-90.00000000
51
90.00000000
0
ARC
8
BLACK
10
201.5
20
-23.8999999999999986
40
1.5
50
-90.00000000
51
-0.00000000
0
LINE
8
BLACK
6
CONTINUOUS
10
99.0377709999999922
20
-102.8095699999999937
11
100.816276000000002
21
-97.9231699999999989
0
LINE
8
BLACK
6
CONTINUOUS
10
99.3426180000000016
20
-103.3461980000000011
11
113.2782599999999888
21
-108.4183570000000003
0
LINE
8
BLACK
6
CONTINUOUS
10
101.3947390000000013
20
-97.7080419999999918
11
115.330379999999991
21
-102.780200999999991
0
LINE
8
BLACK
6
CONTINUOUS
10
107.5511009999999885
20
-80.7935749999999899
11
121.4867429999999899
21
-85.8657339999999891
0
LINE
8
BLACK
6
CONTINUOUS
10
109.0905369999999976
20
-75.3944879999999955
11
107.3120320000000021
21
-80.2808899999999994
0
LINE
8
BLACK
6
CONTINUOUS
10
109.6032219999999882
20
-75.1554189999999949
11
123.5388639999999896
21
-80.2275779999999941
0
LINE
8
BLACK
6
CONTINUOUS
10
113.7909449999999936
20
-108.1792879999999997
11
115.5694489999999917
21
-103.2928859999999958
0
LINE
8
BLACK
6
CONTINUOUS
10
121.9994279999999947
20
-85.6266650000000027
11
123.7779329999999902
21
-80.7402629999999988
0
ARC
8
BLACK
10
99.4136499999999899
20
-102.9463789999999932
40
0.4000019007517339
50
-200.00003127
51
-110.00034946
0
ARC
8
BLACK
10
101.1921529999999905
20
-98.0599789999999985
40
0.4000012167043995
50
70.00005434
51
159.99991974
0
ARC
8
BLACK
10
107.6879089999999906
20
-80.4176980000000015
40
0.3999999349912447
50
-199.99999465
51
-109.99999465
0
ARC
8
BLACK
10
109.4664140000000003
20
-75.5312959999999975
40
0.3999999349912447
50
70.00000535
51
160.00000535
0
ARC
8
BLACK
10
113.4150679999999909
20
-108.0424809999999951
40
0.3999995929722929
50
-110.00004364
51
-19.99986005
0
ARC
8
BLACK
10
115.1935739999999981
20
-103.1560769999999962
40
0.3999983112614352
50
-20.00022723
51
70.00022556
0
ARC
8
BLACK
10
121.623550999999992
20
-85.4898570000000007
40
0.3999999349912447
50
-109.99999465
51
-19.99999465
0
ARC
8
BLACK
10
123.4020559999999875
20
-80.6034549999999967
40
0.3999999349912447
50
-19.99999465
51
70.00000535
0
LINE
8
BLACK
6
CONTINUOUS
10
125.5762709999999913
20
-86.8221109999999925
11
119.077888999999999
21
-104.6762709999999998
0
LINE
8
BLACK
6
CONTINUOUS
10
119.077888999999999
20
-104.6762709999999998
11
101.2237289999999916
21
-98.1778889999999933
0
LINE
8
BLACK
6
CONTINUOUS
10
101.2237289999999916
20
-98.1778889999999933
11
107.7221109999999982
21
-80.3237290000000002
0
LINE
8
BLACK
6
CONTINUOUS
10
107.7221109999999982
20
-80.3237290000000002
11
125.5762709999999913
21
-86.8221109999999925
0
LINE
8
BLACK
6
CONTINUOUS
10
241.125
20
-41.8999999999999986
11
241.125
21
-42.8999999999999986
0
LINE
8
BLACK
6
CONTINUOUS
10
242.125
20
-31.75
11
247.125
21
-31.75
0
LINE
8
BLACK
6
CONTINUOUS
10
242.125
20
-34.75
11
247.125
21
-34.75
0
LINE
8
BLACK
6
CONTINUOUS
10
242.625
20
-40.3999999999999986
11
246.625
21
-40.3999999999999986
0
LINE
8
BLACK
6
CONTINUOUS
10
242.625
20
-44.3999999999999986
11
246.625
21
-44.3999999999999986
0
LINE
8
BLACK
6
CONTINUOUS
10
248.125
20
-41.8999999999999986
11
248.125
21
-42.8999999999999986
0
ARC
8
BLACK
10
242.6250009999999975
20
-41.9000009999999961
40
1.5000010000003334
50
90.00003820
51
179.99996180
0
ARC
8
BLACK
10
242.125
20
-33.25
40
1.5
50
-270.00000000
51
-90.00000000
0
ARC
8
BLACK
10
242.6250009999999975
20
-42.8999990000000011
40
1.5000010000003334
50
-179.99996180
51
-90.00003820
0
ARC
8
BLACK
10
246.625
20
-41.8999999999999986
40
1.5
50
0.00000000
51
90.00000000
0
ARC
8
BLACK
10
247.125
20
-33.25
40
1.5
50
-90.00000000
51
90.00000000
0
ARC
8
BLACK
10
246.625
20
-42.8999999999999986
40
1.5
50
-90.00000000
51
-0.00000000
0
LINE
8
BLACK
6
CONTINUOUS
10
234.
20
-22.8999999999999986
11
234.
21
-23.8999999999999986
0
LINE
8
BLACK
6
CONTINUOUS
10
235.
20
-12.75
11
240.
21
-12.75
0
LINE
8
BLACK
6
CONTINUOUS
10
235.
20
-15.75
11
240.
21
-15.75
0
LINE
8
BLACK
6
CONTINUOUS
10
235.5
20
-21.3999999999999986
11
239.5
21
-21.3999999999999986
0
LINE
8
BLACK
6
CONTINUOUS
10
235.5
20
-25.3999999999999986
11
239.5
21
-25.3999999999999986
0
LINE
8
BLACK
6
CONTINUOUS
10
241.
20
-22.8999999999999986
11
241.
21
-23.8999999999999986
0
ARC
8
BLACK
10
235.5000009999999975
20
-22.9000009999999996
40
1.5000010000003334
50
90.00003820
51
179.99996180
0
ARC
8
BLACK
10
235.
20
-14.25
40
1.5
50
-270.00000000
51
-90.00000000
0
ARC
8
BLACK
10
235.5000009999999975
20
-23.8999989999999976
40
1.5000010000003334
50
-179.99996180
51
-90.00003820
0
ARC
8
BLACK
10
239.5
20
-22.8999999999999986
40
1.5
50
0.00000000
51
90.00000000
0
ARC
8
BLACK
10
240.
20
-14.25
40
1.5
50
-90.00000000
51
90.00000000
0
ARC
8
BLACK
10
239.5
20
-23.8999999999999986
40
1.5
50
-90.00000000
51
-0.00000000
0
LINE
8
BLACK
6
CONTINUOUS
10
281.5
20
-41.8999999999999986
11
281.5
21
-42.8999999999999986
0
LINE
8
BLACK
6
CONTINUOUS
10
282.5
20
-31.75
11
287.5
21
-31.75
0
LINE
8
BLACK
6
CONTINUOUS
10
282.5
20
-34.75
11
287.5
21
-34.75
0
LINE
8
BLACK
6
CONTINUOUS
10
283.
20
-40.3999999999999986
11
287.
21
-40.3999999999999986
0
LINE
8
BLACK
6
CONTINUOUS
10
283.
20
-44.3999999999999986
11
287.
21
-44.3999999999999986
0
LINE
8
BLACK
6
CONTINUOUS
10
288.5
20
-41.8999999999999986
11
288.5
21
-42.8999999999999986
0
ARC
8
BLACK
10
283.0000009999999975
20
-41.9000009999999961
40
1.5000010000003334
50
90.00003820
51
179.99996180
0
ARC
8
BLACK
10
282.5
20
-33.25
40
1.5
50
-270.00000000
51
-90.00000000
0
ARC
8
BLACK
10
283.0000009999999975
20
-42.8999990000000011
40
1.5000010000003334
50
-179.99996180
51
-90.00003820
0
ARC
8
BLACK
10
287.
20
-41.8999999999999986
40
1.5
50
0.00000000
51
90.00000000
0
ARC
8
BLACK
10
287.5
20
-33.25
40
1.5
50
-90.00000000
51
90.00000000
0
ARC
8
BLACK
10
287.
20
-42.8999999999999986
40
1.5
50
-90.00000000
51
-0.00000000
0
LINE
8
BLACK
6
CONTINUOUS
10
276.75
20
-22.8999999999999986
11
276.75
21
-23.8999999999999986
0
LINE
8
BLACK
6
CONTINUOUS
10
277.75
20
-12.75
11
282.75
21
-12.75
0
LINE
8
BLACK
6
CONTINUOUS
10
277.75
20
-15.75
11
282.75
21
-15.75
0
LINE
8
BLACK
6
CONTINUOUS
10
278.25
20
-21.3999999999999986
11
282.25
21
-21.3999999999999986
0
LINE
8
BLACK
6
CONTINUOUS
10
278.25
20
-25.3999999999999986
11
282.25
21
-25.3999999999999986
0
LINE
8
BLACK
6
CONTINUOUS
10
283.75
20
-22.8999999999999986
11
283.75
21
-23.8999999999999986
0
ARC
8
BLACK
10
278.2500009999999975
20
-22.9000009999999996
40
1.5000010000003334
50
90.00003820
51
179.99996180
0
ARC
8
BLACK
10
277.75
20
-14.25
40
1.5
50
-270.00000000
51
-90.00000000
0
ARC
8
BLACK
10
278.2500009999999975
20
-23.8999989999999976
40
1.5000010000003334
50
-179.99996180
51
-90.00003820
0
ARC
8
BLACK
10
282.25
20
-22.8999999999999986
40
1.5
50
0.00000000
51
90.00000000
0
ARC
8
BLACK
10
282.75
20
-14.25
40
1.5
50
-90.00000000
51
90.00000000
0
ARC
8
BLACK
10
282.25
20
-23.8999999999999986
40
1.5
50
-90.00000000
51
-0.00000000
0
LINE
8
BLACK
6
CONTINUOUS
10
143.75
20
-41.8999999999999986
11
143.75
21
-42.8999999999999986
0
LINE
8
BLACK
6
CONTINUOUS
10
144.75
20
-31.75
11
149.75
21
-31.75
0
LINE
8
BLACK
6
CONTINUOUS
10
144.75
20
-34.75
11
149.75
21
-34.75
0
LINE
8
BLACK
6
CONTINUOUS
10
145.25
20
-40.3999999999999986
11
149.25
21
-40.3999999999999986
0
LINE
8
BLACK
6
CONTINUOUS
10
145.25
20
-44.3999999999999986
11
149.25
21
-44.3999999999999986
0
LINE
8
BLACK
6
CONTINUOUS
10
150.75
20
-41.8999999999999986
11
150.75
21
-42.8999999999999986
0
ARC
8
BLACK
10
145.2500009999999975
20
-41.9000009999999961
40
1.5000010000003334
50
90.00003820
51
179.99996180
0
ARC
8
BLACK
10
144.75
20
-33.25
40
1.5
50
-270.00000000
51
-90.00000000
0
ARC
8
BLACK
10
145.2500009999999975
20
-42.8999990000000011
40
1.5000010000003334
50
-179.99996180
51
-90.00003820
0
ARC
8
BLACK
10
149.25
20
-41.8999999999999986
40
1.5
50
0.00000000
51
90.00000000
0
ARC
8
BLACK
10
149.75
20
-33.25
40
1.5
50
-90.00000000
51
90.00000000
0
ARC
8
BLACK
10
149.25
20
-42.8999999999999986
40
1.5
50
-90.00000000
51
-0.00000000
0
LINE
8
BLACK
6
CONTINUOUS
10
52.8999999999999986
20
-79.8999999999999915
11
52.8999999999999986
21
-80.8999999999999915
0
LINE
8
BLACK
6
CONTINUOUS
10
53.8999999999999986
20
-69.75
11
58.8999999999999986
21
-69.75
0
LINE
8
BLACK
6
CONTINUOUS
10
53.8999999999999986
20
-72.75
11
58.8999999999999986
21
-72.75
0
LINE
8
BLACK
6
CONTINUOUS
10
54.3999999999999986
20
-78.3999999999999915
11
58.3999999999999986
21
-78.3999999999999915
0
LINE
8
BLACK
6
CONTINUOUS
10
54.3999999999999986
20
-82.3999999999999915
11
58.3999999999999986
21
-82.3999999999999915
0
LINE
8
BLACK
6
CONTINUOUS
10
59.8999999999999986
20
-79.8999999999999915
11
59.8999999999999986
21
-80.8999999999999915
0
ARC
8
BLACK
10
54.4000009999999961
20
-79.9000010000000032
40
1.5000010000003334
50
90.00003820
51
179.99996180
0
ARC
8
BLACK
10
53.8999999999999986
20
-71.25
40
1.5
50
-270.00000000
51
-90.00000000
0
ARC
8
BLACK
10
54.4000009999999961
20
-80.899998999999994
40
1.5000010000003334
50
-179.99996180
51
-90.00003820
0
ARC
8
BLACK
10
58.3999999999999986
20
-79.8999999999999915
40
1.5
50
0.00000000
51
90.00000000
0
ARC
8
BLACK
10
58.8999999999999986
20
-71.25
40
1.5
50
-90.00000000
51
90.00000000
0
ARC
8
BLACK
10
58.3999999999999986
20
-80.8999999999999915
40
1.5
50
-90.00000000
51
-0.00000000
0
LINE
8
BLACK
6
CONTINUOUS
10
193.2631429999999852
20
-74.4819710000000015
11
197.9616059999999891
21
-72.7718709999999902
0
LINE
8
BLACK
6
CONTINUOUS
10
194.2892029999999863
20
-77.3010489999999919
11
198.9876659999999902
21
-75.5909489999999948
0
LINE
8
BLACK
6
CONTINUOUS
10
195.7949539999999899
20
-84.3618719999999911
11
196.1369749999999783
21
-85.3015639999999991
0
LINE
8
BLACK
6
CONTINUOUS
10
196.6914629999999988
20
-82.4393029999999953
11
200.4502339999999947
21
-81.0712219999999917
0
LINE
8
BLACK
6
CONTINUOUS
10
198.0595439999999883
20
-86.1980729999999937
11
201.8183139999999867
21
-84.8299919999999901
0
LINE
8
BLACK
6
CONTINUOUS
10
202.3728030000000047
20
-81.9677310000000006
11
202.7148229999999955
21
-82.9074229999999943
0
ARC
8
BLACK
10
193.776173
20
-75.8915099999999967
40
1.4999999911403332
50
-250.00000862
51
-70.00000862
0
ARC
8
BLACK
10
197.2044949999999801
20
-83.8488419999999905
40
1.5000018705258336
50
-249.99993683
51
-160.00003474
0
ARC
8
BLACK
10
198.4746360000000038
20
-74.1814099999999996
40
1.4999999911403332
50
-70.00000862
51
109.99999138
0
ARC
8
BLACK
10
197.5465140000000019
20
-84.788534999999996
40
1.4999990514477
50
-160.00004451
51
-69.99999555
0
ARC
8
BLACK
10
200.963263999999981
20
-82.4807610000000011
40
1.4999999911403332
50
19.99999138
51
109.99999138
0
ARC
8
BLACK
10
201.3052840000000003
20
-83.4204539999999923
40
1.5000003331606298
50
-69.99999555
51
20.00002728
0
LINE
8
BLACK
6
CONTINUOUS
10
129.5
20
-3.8999999999999999
11
129.5
21
-4.8999999999999995
0
LINE
8
BLACK
6
CONTINUOUS
10
130.5
20
6.25
11
135.5
21
6.25
0
LINE
8
BLACK
6
CONTINUOUS
10
130.5
20
3.25
11
135.5
21
3.25
0
LINE
8
BLACK
6
CONTINUOUS
10
131.
20
-2.3999999999999999
11
135.
21
-2.3999999999999999
0
LINE
8
BLACK
6
CONTINUOUS
10
131.
20
-6.3999999999999995
11
135.
21
-6.3999999999999995
0
LINE
8
BLACK
6
CONTINUOUS
10
136.5
20
-3.8999999999999999
11
136.5
21
-4.8999999999999995
0
ARC
8
BLACK
10
131.0000009999999975
20
-3.9000009999999996
40
1.5000010000003334
50
90.00003820
51
179.99996180
0
ARC
8
BLACK
10
130.5
20
4.75
40
1.5
50
-270.00000000
51
-90.00000000
0
ARC
8
BLACK
10
131.0000009999999975
20
-4.8999990000000002
40
1.5000010000003334
50
-179.99996180
51
-90.00003820
0
ARC
8
BLACK
10
135.
20
-3.8999999999999999
40
1.5
50
0.00000000
51
90.00000000
0
ARC
8
BLACK
10
135.5
20
4.75
40
1.5
50
-90.00000000
51
90.00000000
0
ARC
8
BLACK
10
135.
20
-4.8999999999999995
40
1.5
50
-90.00000000
51
-0.00000000
0
LINE
8
BLACK
6
CONTINUOUS
10
281.5
20
-60.8999999999999986
11
281.5
21
-61.8999999999999986
0
LINE
8
BLACK
6
CONTINUOUS
10
282.5
20
-50.75
11
287.5
21
-50.75
0
LINE
8
BLACK
6
CONTINUOUS
10
282.5
20
-53.75
11
287.5
21
-53.75
0
LINE
8
BLACK
6
CONTINUOUS
10
283.
20
-59.3999999999999986
11
287.
21
-59.3999999999999986
0
LINE
8
BLACK
6
CONTINUOUS
10
283.
20
-63.3999999999999986
11
287.
21
-63.3999999999999986
0
LINE
8
BLACK
6
CONTINUOUS
10
288.5
20
-60.8999999999999986
11
288.5
21
-61.8999999999999986
0
ARC
8
BLACK
10
283.0000009999999975
20
-60.9000009999999961
40
1.5000010000003334
50
90.00003820
51
179.99996180
0
ARC
8
BLACK
10
282.5
20
-52.25
40
1.5
50
-270.00000000
51
-90.00000000
0
ARC
8
BLACK
10
283.0000009999999975
20
-61.899998999999994
40
1.5000010000003334
50
-179.99996180
51
-90.00003820
0
ARC
8
BLACK
10
287.
20
-60.8999999999999986
40
1.5
50
0.00000000
51
90.00000000
0
ARC
8
BLACK
10
287.5
20
-52.25
40
1.5
50
-90.00000000
51
90.00000000
0
ARC
8
BLACK
10
287.
20
-61.8999999999999986
40
1.5
50
-90.00000000
51
-0.00000000
0
LINE
8
BLACK
6
CONTINUOUS
10
175.4131429999999909
20
-80.9819710000000015
11
180.1116059999999948
21
-79.2718709999999902
0
LINE
8
BLACK
6
CONTINUOUS
10
176.439202999999992
20
-83.8010489999999919
11
181.1376659999999958
21
-82.0909489999999948
0
LINE
8
BLACK
6
CONTINUOUS
10
177.9449539999999956
20
-90.8618719999999911
11
178.286974999999984
21
-91.8015639999999991
0
LINE
8
BLACK
6
CONTINUOUS
10
178.8414630000000045
20
-88.9393029999999953
11
182.6002340000000004
21
-87.5712219999999917
0
LINE
8
BLACK
6
CONTINUOUS
10
180.209543999999994
20
-92.6980729999999937
11
183.9683139999999923
21
-91.3299919999999901
0
LINE
8
BLACK
6
CONTINUOUS
10
184.5228029999999819
20
-88.4677310000000006
11
184.8648230000000012
21
-89.4074229999999943
0
ARC
8
BLACK
10
175.9261730000000057
20
-82.3915099999999967
40
1.4999999911403332
50
-250.00000862
51
-70.00000862
0
ARC
8
BLACK
10
179.3544949999999858
20
-90.3488419999999905
40
1.5000018705258336
50
-249.99993683
51
-160.00003474
0
ARC
8
BLACK
10
180.6246359999999811
20
-80.6814099999999996
40
1.4999999911403332
50
-70.00000862
51
109.99999138
0
ARC
8
BLACK
10
179.6965139999999792
20
-91.288534999999996
40
1.4999990514477
50
-160.00004451
51
-69.99999555
0
ARC
8
BLACK
10
183.1132639999999867
20
-88.9807610000000011
40
1.4999999911403332
50
19.99999138
51
109.99999138
0
ARC
8
BLACK
10
183.4552839999999776
20
-89.9204539999999923
40
1.5000003331606298
50
-69.99999555
51
20.00002728
0
LINE
8
BLACK
6
CONTINUOUS
10
3.625
20
-60.8999999999999986
11
3.625
21
-61.8999999999999986
0
LINE
8
BLACK
6
CONTINUOUS
10
4.625
20
-50.75
11
9.625
21
-50.75
0
LINE
8
BLACK
6
CONTINUOUS
10
4.625
20
-53.75
11
9.625
21
-53.75
0
LINE
8
BLACK
6
CONTINUOUS
10
5.125
20
-59.3999999999999986
11
9.125
21
-59.3999999999999986
0
LINE
8
BLACK
6
CONTINUOUS
10
5.125
20
-63.3999999999999986
11
9.125
21
-63.3999999999999986
0
LINE
8
BLACK
6
CONTINUOUS
10
10.625
20
-60.8999999999999986
11
10.625
21
-61.8999999999999986
0
ARC
8
BLACK
10
5.1250010000000001
20
-60.9000009999999961
40
1.5000010000003334
50
90.00003820
51
179.99996180
0
ARC
8
BLACK
10
4.625
20
-52.25
40
1.5
50
-270.00000000
51
-90.00000000
0
ARC
8
BLACK
10
5.1250010000000001
20
-61.899998999999994
40
1.5000010000003334
50
-179.99996180
51
-90.00003820
0
ARC
8
BLACK
10
9.125
20
-60.8999999999999986
40
1.5
50
0.00000000
51
90.00000000
0
ARC
8
BLACK
10
9.625
20
-52.25
40
1.5
50
-90.00000000
51
90.00000000
0
ARC
8
BLACK
10
9.125
20
-61.8999999999999986
40
1.5
50
-90.00000000
51
-0.00000000
0
LINE
8
BLACK
6
CONTINUOUS
10
151.7220669999999814
20
-80.7402629999999988
11
153.5005720000000053
21
-85.6266650000000027
0
LINE
8
BLACK
6
CONTINUOUS
10
159.9305509999999799
20
-103.2928859999999958
11
161.7090550000000064
21
-108.1792879999999997
0
LINE
8
BLACK
6
CONTINUOUS
10
165.8967779999999834
20
-75.1554189999999949
11
151.961135999999982
21
-80.2275779999999941
0
LINE
8
BLACK
6
CONTINUOUS
10
166.4752419999999802
20
-75.3705479999999994
11
168.2537449999999808
21
-80.2569489999999917
0
LINE
8
BLACK
6
CONTINUOUS
10
167.9488989999999831
20
-80.7935749999999899
11
154.0132569999999816
21
-85.8657339999999891
0
LINE
8
BLACK
6
CONTINUOUS
10
174.1052609999999845
20
-97.7080419999999918
11
160.1696199999999806
21
-102.780200999999991
0
LINE
8
BLACK
6
CONTINUOUS
10
176.1573819999999841
20
-103.3461980000000011
11
162.2217399999999827
21
-108.4183570000000003
0
LINE
8
BLACK
6
CONTINUOUS
10
176.3964509999999848
20
-102.8335129999999964
11
174.6179459999999892
21
-97.9471109999999925
0
ARC
8
BLACK
10
152.0979429999999866
20
-80.6034549999999967
40
0.3999989952987382
50
-250.00013995
51
-159.99995636
0
ARC
8
BLACK
10
153.8764500000000055
20
-85.4898549999999915
40
0.4000014723597902
50
-159.99978514
51
-70.00023793
0
ARC
8
BLACK
10
160.3064279999999826
20
-103.1560779999999937
40
0.3999999349912447
50
-250.00000535
51
-160.00000535
0
ARC
8
BLACK
10
162.0849319999999807
20
-108.0424799999999976
40
0.3999999349912447
50
-160.00000535
51
-70.00000535
0
ARC
8
BLACK
10
166.09936399999998
20
-75.5073560000000015
40
0.4000008746840436
50
19.99994566
51
109.99994566
0
ARC
8
BLACK
10
167.8778700000000015
20
-80.3937569999999937
40
0.3999989952987382
50
-70.00027455
51
20.00004364
0
ARC
8
BLACK
10
174.2420689999999865
20
-98.0839189999999945
40
0.3999999349912447
50
19.99999465
51
109.99999465
0
ARC
8
BLACK
10
176.0205739999999821
20
-102.9703209999999984
40
0.3999999349912447
50
-70.00000535
51
19.99999465
0
LINE
8
BLACK
6
CONTINUOUS
10
174.2762709999999799
20
-98.1778889999999933
11
156.422111000000001
21
-104.6762709999999998
0
LINE
8
BLACK
6
CONTINUOUS
10
156.422111000000001
20
-104.6762709999999998
11
149.9237289999999803
21
-86.8221109999999925
0
LINE
8
BLACK
6
CONTINUOUS
10
149.9237289999999803
20
-86.8221109999999925
11
167.7778889999999876
21
-80.3237290000000002
0
LINE
8
BLACK
6
CONTINUOUS
10
167.7778889999999876
20
-80.3237290000000002
11
174.2762709999999799
21
-98.1778889999999933
0
LINE
8
BLACK
6
CONTINUOUS
10
96.25
20
-60.8999999999999986
11
96.25
21
-61.8999999999999986
0
LINE
8
BLACK
6
CONTINUOUS
10
97.25
20
-50.75
11
102.25
21
-50.75
0
LINE
8
BLACK
6
CONTINUOUS
10
97.25
20
-53.75
11
102.25
21
-53.75
0
LINE
8
BLACK
6
CONTINUOUS
10
97.75
20
-59.3999999999999986
11
101.75
21
-59.3999999999999986
0
LINE
8
BLACK
6
CONTINUOUS
10
97.75
20
-63.3999999999999986
11
101.75
21
-63.3999999999999986
0
LINE
8
BLACK
6
CONTINUOUS
10
103.25
20
-60.8999999999999986
11
103.25
21
-61.8999999999999986
0
ARC
8
BLACK
10
97.7500009999999975
20
-60.9000009999999961
40
1.5000010000003334
50
90.00003820
51
179.99996180
0
ARC
8
BLACK
10
97.25
20
-52.25
40
1.5
50
-270.00000000
51
-90.00000000
0
ARC
8
BLACK
10
97.7500009999999975
20
-61.899998999999994
40
1.5000010000003334
50
-179.99996180
51
-90.00003820
0
ARC
8
BLACK
10
101.75
20
-60.8999999999999986
40
1.5
50
0.00000000
51
90.00000000
0
ARC
8
BLACK
10
102.25
20
-52.25
40
1.5
50
-90.00000000
51
90.00000000
0
ARC
8
BLACK
10
101.75
20
-61.8999999999999986
40
1.5
50
-90.00000000
51
-0.00000000
0
LINE
8
BLACK
6
CONTINUOUS
10
167.5
20
-3.8999999999999999
11
167.5
21
-4.8999999999999995
0
LINE
8
BLACK
6
CONTINUOUS
10
168.5
20
6.25
11
173.5
21
6.25
0
LINE
8
BLACK
6
CONTINUOUS
10
168.5
20
3.25
11
173.5
21
3.25
0
LINE
8
BLACK
6
CONTINUOUS
10
169.
20
-2.3999999999999999
11
173.
21
-2.3999999999999999
0
LINE
8
BLACK
6
CONTINUOUS
10
169.
20
-6.3999999999999995
11
173.
21
-6.3999999999999995
0
LINE
8
BLACK
6
CONTINUOUS
10
174.5
20
-3.8999999999999999
11
174.5
21
-4.8999999999999995
0
ARC
8
BLACK
10
169.0000009999999975
20
-3.9000009999999996
40
1.5000010000003334
50
90.00003820
51
179.99996180
0
ARC
8
BLACK
10
168.5
20
4.75
40
1.5
50
-270.00000000
51
-90.00000000
0
ARC
8
BLACK
10
169.0000009999999975
20
-4.8999990000000002
40
1.5000010000003334
50
-179.99996180
51
-90.00003820
0
ARC
8
BLACK
10
173.
20
-3.8999999999999999
40
1.5
50
0.00000000
51
90.00000000
0
ARC
8
BLACK
10
173.5
20
4.75
40
1.5
50
-90.00000000
51
90.00000000
0
ARC
8
BLACK
10
173.
20
-4.8999999999999995
40
1.5
50
-90.00000000
51
-0.00000000
0
LINE
8
BLACK
6
CONTINUOUS
10
73.0021969999999953
20
-81.9677310000000006
11
72.6601769999999902
21
-82.9074229999999943
0
LINE
8
BLACK
6
CONTINUOUS
10
73.5566859999999991
20
-84.8299919999999901
11
77.3154559999999975
21
-86.1980729999999937
0
LINE
8
BLACK
6
CONTINUOUS
10
74.9247659999999911
20
-81.0712219999999917
11
78.6835370000000012
21
-82.4393029999999953
0
LINE
8
BLACK
6
CONTINUOUS
10
76.3873339999999956
20
-75.5909489999999948
11
81.0857969999999995
21
-77.3010489999999919
0
LINE
8
BLACK
6
CONTINUOUS
10
77.4133939999999967
20
-72.7718709999999902
11
82.1118570000000005
21
-74.4819710000000015
0
LINE
8
BLACK
6
CONTINUOUS
10
79.5800459999999958
20
-84.3618719999999911
11
79.2380249999999933
21
-85.3015639999999991
0
ARC
8
BLACK
10
74.4117370000000022
20
-82.4807619999999986
40
1.5000012728531265
50
70.00005757
51
159.99998579
0
ARC
8
BLACK
10
74.0697150000000022
20
-83.4204529999999949
40
1.4999996491206256
50
-200.00000445
51
-109.99995549
0
ARC
8
BLACK
10
76.9003639999999962
20
-74.1814099999999996
40
1.4999999911403332
50
-289.99999138
51
-109.99999138
0
ARC
8
BLACK
10
78.1705070000000006
20
-83.8488419999999905
40
1.4999999911403332
50
-19.99999138
51
70.00000862
0
ARC
8
BLACK
10
77.8284869999999955
20
-84.7885339999999985
40
1.4999990514477
50
-110.00002728
51
-20.00000445
0
ARC
8
BLACK
10
81.598827
20
-75.8915099999999967
40
1.4999999911403332
50
-109.99999138
51
70.00000862
0
LINE
8
BLACK
6
CONTINUOUS
10
205.5
20
-3.8999999999999999
11
205.5
21
-4.8999999999999995
0
LINE
8
BLACK
6
CONTINUOUS
10
206.5
20
6.25
11
211.5
21
6.25
0
LINE
8
BLACK
6
CONTINUOUS
10
206.5
20
3.25
11
211.5
21
3.25
0
LINE
8
BLACK
6
CONTINUOUS
10
207.
20
-2.3999999999999999
11
211.
21
-2.3999999999999999
0
LINE
8
BLACK
6
CONTINUOUS
10
207.
20
-6.3999999999999995
11
211.
21
-6.3999999999999995
0
LINE
8
BLACK
6
CONTINUOUS
10
212.5
20
-3.8999999999999999
11
212.5
21
-4.8999999999999995
0
ARC
8
BLACK
10
207.0000009999999975
20
-3.9000009999999996
40
1.5000010000003334
50
90.00003820
51
179.99996180
0
ARC
8
BLACK
10
206.5
20
4.75
40
1.5
50
-270.00000000
51
-90.00000000
0
ARC
8
BLACK
10
207.0000009999999975
20
-4.8999990000000002
40
1.5000010000003334
50
-179.99996180
51
-90.00003820
0
ARC
8
BLACK
10
211.
20
-3.8999999999999999
40
1.5
50
0.00000000
51
90.00000000
0
ARC
8
BLACK
10
211.5
20
4.75
40
1.5
50
-90.00000000
51
90.00000000
0
ARC
8
BLACK
10
211.
20
-4.8999999999999995
40
1.5
50
-90.00000000
51
-0.00000000
0
LINE
8
BLACK
6
CONTINUOUS
10
32.125
20
-60.8999999999999986
11
32.125
21
-61.8999999999999986
0
LINE
8
BLACK
6
CONTINUOUS
10
33.125
20
-50.75
11
38.125
21
-50.75
0
LINE
8
BLACK
6
CONTINUOUS
10
33.125
20
-53.75
11
38.125
21
-53.75
0
LINE
8
BLACK
6
CONTINUOUS
10
33.625
20
-59.3999999999999986
11
37.625
21
-59.3999999999999986
0
LINE
8
BLACK
6
CONTINUOUS
10
33.625
20
-63.3999999999999986
11
37.625
21
-63.3999999999999986
0
LINE
8
BLACK
6
CONTINUOUS
10
39.125
20
-60.8999999999999986
11
39.125
21
-61.8999999999999986
0
ARC
8
BLACK
10
33.6250009999999975
20
-60.9000009999999961
40
1.5000010000003334
50
90.00003820
51
179.99996180
0
ARC
8
BLACK
10
33.125
20
-52.25
40
1.5
50
-270.00000000
51
-90.00000000
0
ARC
8
BLACK
10
33.6250009999999975
20
-61.899998999999994
40
1.5000010000003334
50
-179.99996180
51
-90.00003820
0
ARC
8
BLACK
10
37.625
20
-60.8999999999999986
40
1.5
50
0.00000000
51
90.00000000
0
ARC
8
BLACK
10
38.125
20
-52.25
40
1.5
50
-90.00000000
51
90.00000000
0
ARC
8
BLACK
10
37.625
20
-61.8999999999999986
40
1.5
50
-90.00000000
51
-0.00000000
0
LINE
8
BLACK
6
CONTINUOUS
10
108.777197000000001
20
-94.9677310000000006
11
108.4351769999999959
21
-95.9074229999999943
0
LINE
8
BLACK
6
CONTINUOUS
10
109.3316859999999906
20
-97.8299919999999901
11
113.090455999999989
21
-99.1980729999999937
0
LINE
8
BLACK
6
CONTINUOUS
10
110.6997659999999968
20
-94.0712219999999917
11
114.4585369999999926
21
-95.4393029999999953
0
LINE
8
BLACK
6
CONTINUOUS
10
112.1623340000000013
20
-88.5909489999999948
11
116.8607969999999909
21
-90.3010489999999919
0
LINE
8
BLACK
6
CONTINUOUS
10
113.1883939999999882
20
-85.7718709999999902
11
117.886856999999992
21
-87.4819710000000015
0
LINE
8
BLACK
6
CONTINUOUS
10
115.3550460000000015
20
-97.3618719999999911
11
115.013024999999999
21
-98.3015639999999991
0
ARC
8
BLACK
10
110.1867369999999937
20
-95.4807619999999986
40
1.5000012728531265
50
70.00005757
51
159.99998579
0
ARC
8
BLACK
10
109.8447149999999937
20
-96.4204529999999949
40
1.4999996491206256
50
-200.00000445
51
-109.99995549
0
ARC
8
BLACK
10
112.6753640000000019
20
-87.1814099999999996
40
1.4999999911403332
50
-289.99999138
51
-109.99999138
0
ARC
8
BLACK
10
113.9455069999999921
20
-96.8488419999999905
40
1.4999999911403332
50
-19.99999138
51
70.00000862
0
ARC
8
BLACK
10
113.6034870000000012
20
-97.7885339999999985
40
1.4999990514477
50
-110.00002728
51
-20.00000445
0
ARC
8
BLACK
10
117.3738269999999915
20
-88.8915099999999967
40
1.4999999911403332
50
-109.99999138
51
70.00000862
0
LINE
8
BLACK
6
CONTINUOUS
10
58.25
20
-60.8999999999999986
11
58.25
21
-61.8999999999999986
0
LINE
8
BLACK
6
CONTINUOUS
10
59.25
20
-50.75
11
64.25
21
-50.75
0
LINE
8
BLACK
6
CONTINUOUS
10
59.25
20
-53.75
11
64.25
21
-53.75
0
LINE
8
BLACK
6
CONTINUOUS
10
59.75
20
-59.3999999999999986
11
63.75
21
-59.3999999999999986
0
LINE
8
BLACK
6
CONTINUOUS
10
59.75
20
-63.3999999999999986
11
63.75
21
-63.3999999999999986
0
LINE
8
BLACK
6
CONTINUOUS
10
65.25
20
-60.8999999999999986
11
65.25
21
-61.8999999999999986
0
ARC
8
BLACK
10
59.7500009999999975
20
-60.9000009999999961
40
1.5000010000003334
50
90.00003820
51
179.99996180
0
ARC
8
BLACK
10
59.25
20
-52.25
40
1.5
50
-270.00000000
51
-90.00000000
0
ARC
8
BLACK
10
59.7500009999999975
20
-61.899998999999994
40
1.5000010000003334
50
-179.99996180
51
-90.00003820
0
ARC
8
BLACK
10
63.75
20
-60.8999999999999986
40
1.5
50
0.00000000
51
90.00000000
0
ARC
8
BLACK
10
64.25
20
-52.25
40
1.5
50
-90.00000000
51
90.00000000
0
ARC
8
BLACK
10
63.75
20
-61.8999999999999986
40
1.5
50
-90.00000000
51
-0.00000000
0
LINE
8
BLACK
6
CONTINUOUS
10
219.75
20
-41.8999999999999986
11
219.75
21
-42.8999999999999986
0
LINE
8
BLACK
6
CONTINUOUS
10
220.75
20
-31.75
11
225.75
21
-31.75
0
LINE
8
BLACK
6
CONTINUOUS
10
220.75
20
-34.75
11
225.75
21
-34.75
0
LINE
8
BLACK
6
CONTINUOUS
10
221.25
20
-40.3999999999999986
11
225.25
21
-40.3999999999999986
0
LINE
8
BLACK
6
CONTINUOUS
10
221.25
20
-44.3999999999999986
11
225.25
21
-44.3999999999999986
0
LINE
8
BLACK
6
CONTINUOUS
10
226.75
20
-41.8999999999999986
11
226.75
21
-42.8999999999999986
0
ARC
8
BLACK
10
221.2500009999999975
20
-41.9000009999999961
40
1.5000010000003334
50
90.00003820
51
179.99996180
0
ARC
8
BLACK
10
220.75
20
-33.25
40
1.5
50
-270.00000000
51
-90.00000000
0
ARC
8
BLACK
10
221.2500009999999975
20
-42.8999990000000011
40
1.5000010000003334
50
-179.99996180
51
-90.00003820
0
ARC
8
BLACK
10
225.25
20
-41.8999999999999986
40
1.5
50
0.00000000
51
90.00000000
0
ARC
8
BLACK
10
225.75
20
-33.25
40
1.5
50
-90.00000000
51
90.00000000
0
ARC
8
BLACK
10
225.25
20
-42.8999999999999986
40
1.5
50
-90.00000000
51
-0.00000000
0
LINE
8
BLACK
6
CONTINUOUS
10
63.
20
-22.8999999999999986
11
63.
21
-23.8999999999999986
0
LINE
8
BLACK
6
CONTINUOUS
10
64.
20
-12.75
11
69.
21
-12.75
0
LINE
8
BLACK
6
CONTINUOUS
10
64.
20
-15.75
11
69.
21
-15.75
0
LINE
8
BLACK
6
CONTINUOUS
10
64.5
20
-21.3999999999999986
11
68.5
21
-21.3999999999999986
0
LINE
8
BLACK
6
CONTINUOUS
10
64.5
20
-25.3999999999999986
11
68.5
21
-25.3999999999999986
0
LINE
8
BLACK
6
CONTINUOUS
10
70.
20
-22.8999999999999986
11
70.
21
-23.8999999999999986
0
ARC
8
BLACK
10
64.5000009999999975
20
-22.9000009999999996
40
1.5000010000003334
50
90.00003820
51
179.99996180
0
ARC
8
BLACK
10
64.
20
-14.25
40
1.5
50
-270.00000000
51
-90.00000000
0
ARC
8
BLACK
10
64.5000009999999975
20
-23.8999989999999976
40
1.5000010000003334
50
-179.99996180
51
-90.00003820
0
ARC
8
BLACK
10
68.5
20
-22.8999999999999986
40
1.5
50
0.00000000
51
90.00000000
0
ARC
8
BLACK
10
69.
20
-14.25
40
1.5
50
-90.00000000
51
90.00000000
0
ARC
8
BLACK
10
68.5
20
-23.8999999999999986
40
1.5
50
-90.00000000
51
-0.00000000
0
LINE
8
BLACK
6
CONTINUOUS
10
255.375
20
-60.8999999999999986
11
255.375
21
-61.8999999999999986
0
LINE
8
BLACK
6
CONTINUOUS
10
256.375
20
-50.75
11
261.375
21
-50.75
0
LINE
8
BLACK
6
CONTINUOUS
10
256.375
20
-53.75
11
261.375
21
-53.75
0
LINE
8
BLACK
6
CONTINUOUS
10
256.875
20
-59.3999999999999986
11
260.875
21
-59.3999999999999986
0
LINE
8
BLACK
6
CONTINUOUS
10
256.875
20
-63.3999999999999986
11
260.875
21
-63.3999999999999986
0
LINE
8
BLACK
6
CONTINUOUS
10
262.375
20
-60.8999999999999986
11
262.375
21
-61.8999999999999986
0
ARC
8
BLACK
10
256.8750009999999975
20
-60.9000009999999961
40
1.5000010000003334
50
90.00003820
51
179.99996180
0
ARC
8
BLACK
10
256.375
20
-52.25
40
1.5
50
-270.00000000
51
-90.00000000
0
ARC
8
BLACK
10
256.8750009999999975
20
-61.899998999999994
40
1.5000010000003334
50
-179.99996180
51
-90.00003820
0
ARC
8
BLACK
10
260.875
20
-60.8999999999999986
40
1.5
50
0.00000000
51
90.00000000
0
ARC
8
BLACK
10
261.375
20
-52.25
40
1.5
50
-90.00000000
51
90.00000000
0
ARC
8
BLACK
10
260.875
20
-61.8999999999999986
40
1.5
50
-90.00000000
51
-0.00000000
0
LINE
8
BLACK
6
CONTINUOUS
10
7.7749999999999995
20
-79.8999999999999915
11
7.7749999999999995
21
-80.8999999999999915
0
LINE
8
BLACK
6
CONTINUOUS
10
8.7750000000000004
20
-69.75
11
13.7749999999999986
21
-69.75
0
LINE
8
BLACK
6
CONTINUOUS
10
8.7750000000000004
20
-72.75
11
13.7749999999999986
21
-72.75
0
LINE
8
BLACK
6
CONTINUOUS
10
9.2750000000000004
20
-78.3999999999999915
11
13.2749999999999986
21
-78.3999999999999915
0
LINE
8
BLACK
6
CONTINUOUS
10
9.2750000000000004
20
-82.3999999999999915
11
13.2749999999999986
21
-82.3999999999999915
0
LINE
8
BLACK
6
CONTINUOUS
10
14.7749999999999986
20
-79.8999999999999915
11
14.7749999999999986
21
-80.8999999999999915
0
ARC
8
BLACK
10
9.2750009999999996
20
-79.9000010000000032
40
1.5000010000003334
50
90.00003820
51
179.99996180
0
ARC
8
BLACK
10
8.7750000000000004
20
-71.25
40
1.5
50
-270.00000000
51
-90.00000000
0
ARC
8
BLACK
10
9.2750009999999996
20
-80.899998999999994
40
1.5000010000003334
50
-179.99996180
51
-90.00003820
0
ARC
8
BLACK
10
13.2749999999999986
20
-79.8999999999999915
40
1.5
50
0.00000000
51
90.00000000
0
ARC
8
BLACK
10
13.7749999999999986
20
-71.25
40
1.5
50
-90.00000000
51
90.00000000
0
ARC
8
BLACK
10
13.2749999999999986
20
-80.8999999999999915
40
1.5
50
-90.00000000
51
-0.00000000
0
LINE
8
BLACK
6
CONTINUOUS
10
29.75
20
-41.8999999999999986
11
29.75
21
-42.8999999999999986
0
LINE
8
BLACK
6
CONTINUOUS
10
30.75
20
-31.75
11
35.75
21
-31.75
0
LINE
8
BLACK
6
CONTINUOUS
10
30.75
20
-34.75
11
35.75
21
-34.75
0
LINE
8
BLACK
6
CONTINUOUS
10
31.25
20
-40.3999999999999986
11
35.25
21
-40.3999999999999986
0
LINE
8
BLACK
6
CONTINUOUS
10
31.25
20
-44.3999999999999986
11
35.25
21
-44.3999999999999986
0
LINE
8
BLACK
6
CONTINUOUS
10
36.75
20
-41.8999999999999986
11
36.75
21
-42.8999999999999986
0
ARC
8
BLACK
10
31.2500009999999975
20
-41.9000009999999961
40
1.5000010000003334
50
90.00003820
51
179.99996180
0
ARC
8
BLACK
10
30.75
20
-33.25
40
1.5
50
-270.00000000
51
-90.00000000
0
ARC
8
BLACK
10
31.2500009999999975
20
-42.8999990000000011
40
1.5000010000003334
50
-179.99996180
51
-90.00003820
0
ARC
8
BLACK
10
35.25
20
-41.8999999999999986
40
1.5
50
0.00000000
51
90.00000000
0
ARC
8
BLACK
10
35.75
20
-33.25
40
1.5
50
-90.00000000
51
90.00000000
0
ARC
8
BLACK
10
35.25
20
-42.8999999999999986
40
1.5
50
-90.00000000
51
-0.00000000
0
LINE
8
BLACK
6
CONTINUOUS
10
157.6131429999999796
20
-87.4819710000000015
11
162.3116059999999834
21
-85.7718709999999902
0
LINE
8
BLACK
6
CONTINUOUS
10
158.6392029999999806
20
-90.3010489999999919
11
163.3376659999999845
21
-88.5909489999999948
0
LINE
8
BLACK
6
CONTINUOUS
10
160.1449539999999843
20
-97.3618719999999911
11
160.486975000000001
21
-98.3015639999999991
0
LINE
8
BLACK
6
CONTINUOUS
10
161.0414629999999931
20
-95.4393029999999953
11
164.800233999999989
21
-94.0712219999999917
0
LINE
8
BLACK
6
CONTINUOUS
10
162.4095439999999826
20
-99.1980729999999937
11
166.168313999999981
21
-97.8299919999999901
0
LINE
8
BLACK
6
CONTINUOUS
10
166.722802999999999
20
-94.9677310000000006
11
167.0648229999999899
21
-95.9074229999999943
0
ARC
8
BLACK
10
158.1261729999999943
20
-88.8915099999999967
40
1.4999999911403332
50
-250.00000862
51
-70.00000862
0
ARC
8
BLACK
10
161.5544950000000028
20
-96.8488419999999905
40
1.5000018705258336
50
-249.99993683
51
-160.00003474
0
ARC
8
BLACK
10
162.8246359999999981
20
-87.1814099999999996
40
1.4999999911403332
50
-70.00000862
51
109.99999138
0
ARC
8
BLACK
10
161.8965139999999963
20
-97.788534999999996
40
1.4999990514477
50
-160.00004451
51
-69.99999555
0
ARC
8
BLACK
10
165.3132640000000038
20
-95.4807610000000011
40
1.4999999911403332
50
19.99999138
51
109.99999138
0
ARC
8
BLACK
10
165.6552839999999946
20
-96.4204539999999923
40
1.5000003331606298
50
-69.99999555
51
20.00002728
0
LINE
8
BLACK
6
CONTINUOUS
10
229.25
20
-60.8999999999999986
11
229.25
21
-61.8999999999999986
0
LINE
8
BLACK
6
CONTINUOUS
10
230.25
20
-50.75
11
235.25
21
-50.75
0
LINE
8
BLACK
6
CONTINUOUS
10
230.25
20
-53.75
11
235.25
21
-53.75
0
LINE
8
BLACK
6
CONTINUOUS
10
230.75
20
-59.3999999999999986
11
234.75
21
-59.3999999999999986
0
LINE
8
BLACK
6
CONTINUOUS
10
230.75
20
-63.3999999999999986
11
234.75
21
-63.3999999999999986
0
LINE
8
BLACK
6
CONTINUOUS
10
236.25
20
-60.8999999999999986
11
236.25
21
-61.8999999999999986
0
ARC
8
BLACK
10
230.7500009999999975
20
-60.9000009999999961
40
1.5000010000003334
50
90.00003820
51
179.99996180
0
ARC
8
BLACK
10
230.25
20
-52.25
40
1.5
50
-270.00000000
51
-90.00000000
0
ARC
8
BLACK
10
230.7500009999999975
20
-61.899998999999994
40
1.5000010000003334
50
-179.99996180
51
-90.00003820
0
ARC
8
BLACK
10
234.75
20
-60.8999999999999986
40
1.5
50
0.00000000
51
90.00000000
0
ARC
8
BLACK
10
235.25
20
-52.25
40
1.5
50
-90.00000000
51
90.00000000
0
ARC
8
BLACK
10
234.75
20
-61.8999999999999986
40
1.5
50
-90.00000000
51
-0.00000000
0
LINE
8
BLACK
6
CONTINUOUS
10
53.5
20
-3.8999999999999999
11
53.5
21
-4.8999999999999995
0
LINE
8
BLACK
6
CONTINUOUS
10
54.5
20
6.25
11
59.5
21
6.25
0
LINE
8
BLACK
6
CONTINUOUS
10
54.5
20
3.25
11
59.5
21
3.25
0
LINE
8
BLACK
6
CONTINUOUS
10
55.
20
-2.3999999999999999
11
59.
21
-2.3999999999999999
0
LINE
8
BLACK
6
CONTINUOUS
10
55.
20
-6.3999999999999995
11
59.
21
-6.3999999999999995
0
LINE
8
BLACK
6
CONTINUOUS
10
60.5
20
-3.8999999999999999
11
60.5
21
-4.8999999999999995
0
ARC
8
BLACK
10
55.0000009999999975
20
-3.9000009999999996
40
1.5000010000003334
50
90.00003820
51
179.99996180
0
ARC
8
BLACK
10
54.5
20
4.75
40
1.5
50
-270.00000000
51
-90.00000000
0
ARC
8
BLACK
10
55.0000009999999975
20
-4.8999990000000002
40
1.5000010000003334
50
-179.99996180
51
-90.00003820
0
ARC
8
BLACK
10
59.
20
-3.8999999999999999
40
1.5
50
0.00000000
51
90.00000000
0
ARC
8
BLACK
10
59.5
20
4.75
40
1.5
50
-90.00000000
51
90.00000000
0
ARC
8
BLACK
10
59.
20
-4.8999999999999995
40
1.5
50
-90.00000000
51
-0.00000000
0
LINE
8
BLACK
6
CONTINUOUS
10
181.75
20
-41.8999999999999986
11
181.75
21
-42.8999999999999986
0
LINE
8
BLACK
6
CONTINUOUS
10
182.75
20
-31.75
11
187.75
21
-31.75
0
LINE
8
BLACK
6
CONTINUOUS
10
182.75
20
-34.75
11
187.75
21
-34.75
0
LINE
8
BLACK
6
CONTINUOUS
10
183.25
20
-40.3999999999999986
11
187.25
21
-40.3999999999999986
0
LINE
8
BLACK
6
CONTINUOUS
10
183.25
20
-44.3999999999999986
11
187.25
21
-44.3999999999999986
0
LINE
8
BLACK
6
CONTINUOUS
10
188.75
20
-41.8999999999999986
11
188.75
21
-42.8999999999999986
0
ARC
8
BLACK
10
183.2500009999999975
20
-41.9000009999999961
40
1.5000010000003334
50
90.00003820
51
179.99996180
0
ARC
8
BLACK
10
182.75
20
-33.25
40
1.5
50
-270.00000000
51
-90.00000000
0
ARC
8
BLACK
10
183.2500009999999975
20
-42.8999990000000011
40
1.5000010000003334
50
-179.99996180
51
-90.00003820
0
ARC
8
BLACK
10
187.25
20
-41.8999999999999986
40
1.5
50
0.00000000
51
90.00000000
0
ARC
8
BLACK
10
187.75
20
-33.25
40
1.5
50
-90.00000000
51
90.00000000
0
ARC
8
BLACK
10
187.25
20
-42.8999999999999986
40
1.5
50
-90.00000000
51
-0.00000000
0
LINE
8
BLACK
6
CONTINUOUS
10
115.25
20
-60.8999999999999986
11
115.25
21
-61.8999999999999986
0
LINE
8
BLACK
6
CONTINUOUS
10
116.25
20
-50.75
11
121.25
21
-50.75
0
LINE
8
BLACK
6
CONTINUOUS
10
116.25
20
-53.75
11
121.25
21
-53.75
0
LINE
8
BLACK
6
CONTINUOUS
10
116.75
20
-59.3999999999999986
11
120.75
21
-59.3999999999999986
0
LINE
8
BLACK
6
CONTINUOUS
10
116.75
20
-63.3999999999999986
11
120.75
21
-63.3999999999999986
0
LINE
8
BLACK
6
CONTINUOUS
10
122.25
20
-60.8999999999999986
11
122.25
21
-61.8999999999999986
0
ARC
8
BLACK
10
116.7500009999999975
20
-60.9000009999999961
40
1.5000010000003334
50
90.00003820
51
179.99996180
0
ARC
8
BLACK
10
116.25
20
-52.25
40
1.5
50
-270.00000000
51
-90.00000000
0
ARC
8
BLACK
10
116.7500009999999975
20
-61.899998999999994
40
1.5000010000003334
50
-179.99996180
51
-90.00003820
0
ARC
8
BLACK
10
120.75
20
-60.8999999999999986
40
1.5
50
0.00000000
51
90.00000000
0
ARC
8
BLACK
10
121.25
20
-52.25
40
1.5
50
-90.00000000
51
90.00000000
0
ARC
8
BLACK
10
120.75
20
-61.8999999999999986
40
1.5
50
-90.00000000
51
-0.00000000
0
LINE
8
BLACK
6
CONTINUOUS
10
224.5
20
-3.8999999999999999
11
224.5
21
-4.8999999999999995
0
LINE
8
BLACK
6
CONTINUOUS
10
225.5
20
6.25
11
230.5
21
6.25
0
LINE
8
BLACK
6
CONTINUOUS
10
225.5
20
3.25
11
230.5
21
3.25
0
LINE
8
BLACK
6
CONTINUOUS
10
226.
20
-2.3999999999999999
11
230.
21
-2.3999999999999999
0
LINE
8
BLACK
6
CONTINUOUS
10
226.
20
-6.3999999999999995
11
230.
21
-6.3999999999999995
0
LINE
8
BLACK
6
CONTINUOUS
10
231.5
20
-3.8999999999999999
11
231.5
21
-4.8999999999999995
0
ARC
8
BLACK
10
226.0000009999999975
20
-3.9000009999999996
40
1.5000010000003334
50
90.00003820
51
179.99996180
0
ARC
8
BLACK
10
225.5
20
4.75
40
1.5
50
-270.00000000
51
-90.00000000
0
ARC
8
BLACK
10
226.0000009999999975
20
-4.8999990000000002
40
1.5000010000003334
50
-179.99996180
51
-90.00003820
0
ARC
8
BLACK
10
230.
20
-3.8999999999999999
40
1.5
50
0.00000000
51
90.00000000
0
ARC
8
BLACK
10
230.5
20
4.75
40
1.5
50
-90.00000000
51
90.00000000
0
ARC
8
BLACK
10
230.
20
-4.8999999999999995
40
1.5
50
-90.00000000
51
-0.00000000
0
LINE
8
BLACK
6
CONTINUOUS
10
67.75
20
-41.8999999999999986
11
67.75
21
-42.8999999999999986
0
LINE
8
BLACK
6
CONTINUOUS
10
68.75
20
-31.75
11
73.75
21
-31.75
0
LINE
8
BLACK
6
CONTINUOUS
10
68.75
20
-34.75
11
73.75
21
-34.75
0
LINE
8
BLACK
6
CONTINUOUS
10
69.25
20
-40.3999999999999986
11
73.25
21
-40.3999999999999986
0
LINE
8
BLACK
6
CONTINUOUS
10
69.25
20
-44.3999999999999986
11
73.25
21
-44.3999999999999986
0
LINE
8
BLACK
6
CONTINUOUS
10
74.75
20
-41.8999999999999986
11
74.75
21
-42.8999999999999986
0
ARC
8
BLACK
10
69.2500009999999975
20
-41.9000009999999961
40
1.5000010000003334
50
90.00003820
51
179.99996180
0
ARC
8
BLACK
10
68.75
20
-33.25
40
1.5
50
-270.00000000
51
-90.00000000
0
ARC
8
BLACK
10
69.2500009999999975
20
-42.8999990000000011
40
1.5000010000003334
50
-179.99996180
51
-90.00003820
0
ARC
8
BLACK
10
73.25
20
-41.8999999999999986
40
1.5
50
0.00000000
51
90.00000000
0
ARC
8
BLACK
10
73.75
20
-33.25
40
1.5
50
-90.00000000
51
90.00000000
0
ARC
8
BLACK
10
73.25
20
-42.8999999999999986
40
1.5
50
-90.00000000
51
-0.00000000
0
LINE
8
BLACK
6
CONTINUOUS
10
8.375
20
-41.8999999999999986
11
8.375
21
-42.8999999999999986
0
LINE
8
BLACK
6
CONTINUOUS
10
9.375
20
-31.75
11
14.375
21
-31.75
0
LINE
8
BLACK
6
CONTINUOUS
10
9.375
20
-34.75
11
14.375
21
-34.75
0
LINE
8
BLACK
6
CONTINUOUS
10
9.875
20
-40.3999999999999986
11
13.875
21
-40.3999999999999986
0
LINE
8
BLACK
6
CONTINUOUS
10
9.875
20
-44.3999999999999986
11
13.875
21
-44.3999999999999986
0
LINE
8
BLACK
6
CONTINUOUS
10
15.375
20
-41.8999999999999986
11
15.375
21
-42.8999999999999986
0
ARC
8
BLACK
10
9.8750009999999993
20
-41.9000009999999961
40
1.5000010000003334
50
90.00003820
51
179.99996180
0
ARC
8
BLACK
10
9.375
20
-33.25
40
1.5
50
-270.00000000
51
-90.00000000
0
ARC
8
BLACK
10
9.8750009999999993
20
-42.8999990000000011
40
1.5000010000003334
50
-179.99996180
51
-90.00003820
0
ARC
8
BLACK
10
13.875
20
-41.8999999999999986
40
1.5
50
0.00000000
51
90.00000000
0
ARC
8
BLACK
10
14.375
20
-33.25
40
1.5
50
-90.00000000
51
90.00000000
0
ARC
8
BLACK
10
13.875
20
-42.8999999999999986
40
1.5
50
-90.00000000
51
-0.00000000
0
LINE
8
BLACK
6
CONTINUOUS
10
15.5
20
-3.8999999999999999
11
15.5
21
-4.8999999999999995
0
LINE
8
BLACK
6
CONTINUOUS
10
16.5
20
6.25
11
21.5
21
6.25
0
LINE
8
BLACK
6
CONTINUOUS
10
16.5
20
3.25
11
21.5
21
3.25
0
LINE
8
BLACK
6
CONTINUOUS
10
17.
20
-2.3999999999999999
11
21.
21
-2.3999999999999999
0
LINE
8
BLACK
6
CONTINUOUS
10
17.
20
-6.3999999999999995
11
21.
21
-6.3999999999999995
0
LINE
8
BLACK
6
CONTINUOUS
10
22.5
20
-3.8999999999999999
11
22.5
21
-4.8999999999999995
0
ARC
8
BLACK
10
17.0000009999999975
20
-3.9000009999999996
40
1.5000010000003334
50
90.00003820
51
179.99996180
0
ARC
8
BLACK
10
16.5
20
4.75
40
1.5
50
-270.00000000
51
-90.00000000
0
ARC
8
BLACK
10
17.0000009999999975
20
-4.8999990000000002
40
1.5000010000003334
50
-179.99996180
51
-90.00003820
0
ARC
8
BLACK
10
21.
20
-3.8999999999999999
40
1.5
50
0.00000000
51
90.00000000
0
ARC
8
BLACK
10
21.5
20
4.75
40
1.5
50
-90.00000000
51
90.00000000
0
ARC
8
BLACK
10
21.
20
-4.8999999999999995
40
1.5
50
-90.00000000
51
-0.00000000
0
LINE
8
BLACK
6
CONTINUOUS
10
91.5
20
-3.8999999999999999
11
91.5
21
-4.8999999999999995
0
LINE
8
BLACK
6
CONTINUOUS
10
92.5
20
6.25
11
97.5
21
6.25
0
LINE
8
BLACK
6
CONTINUOUS
10
92.5
20
3.25
11
97.5
21
3.25
0
LINE
8
BLACK
6
CONTINUOUS
10
93.
20
-2.3999999999999999
11
97.
21
-2.3999999999999999
0
LINE
8
BLACK
6
CONTINUOUS
10
93.
20
-6.3999999999999995
11
97.
21
-6.3999999999999995
0
LINE
8
BLACK
6
CONTINUOUS
10
98.5
20
-3.8999999999999999
11
98.5
21
-4.8999999999999995
0
ARC
8
BLACK
10
93.0000009999999975
20
-3.9000009999999996
40
1.5000010000003334
50
90.00003820
51
179.99996180
0
ARC
8
BLACK
10
92.5
20
4.75
40
1.5
50
-270.00000000
51
-90.00000000
0
ARC
8
BLACK
10
93.0000009999999975
20
-4.8999990000000002
40
1.5000010000003334
50
-179.99996180
51
-90.00003820
0
ARC
8
BLACK
10
97.
20
-3.8999999999999999
40
1.5
50
0.00000000
51
90.00000000
0
ARC
8
BLACK
10
97.5
20
4.75
40
1.5
50
-90.00000000
51
90.00000000
0
ARC
8
BLACK
10
97.
20
-4.8999999999999995
40
1.5
50
-90.00000000
51
-0.00000000
0
LINE
8
BLACK
6
CONTINUOUS
10
177.
20
-22.8999999999999986
11
177.
21
-23.8999999999999986
0
LINE
8
BLACK
6
CONTINUOUS
10
178.
20
-12.75
11
183.
21
-12.75
0
LINE
8
BLACK
6
CONTINUOUS
10
178.
20
-15.75
11
183.
21
-15.75
0
LINE
8
BLACK
6
CONTINUOUS
10
178.5
20
-21.3999999999999986
11
182.5
21
-21.3999999999999986
0
LINE
8
BLACK
6
CONTINUOUS
10
178.5
20
-25.3999999999999986
11
182.5
21
-25.3999999999999986
0
LINE
8
BLACK
6
CONTINUOUS
10
184.
20
-22.8999999999999986
11
184.
21
-23.8999999999999986
0
ARC
8
BLACK
10
178.5000009999999975
20
-22.9000009999999996
40
1.5000010000003334
50
90.00003820
51
179.99996180
0
ARC
8
BLACK
10
178.
20
-14.25
40
1.5
50
-270.00000000
51
-90.00000000
0
ARC
8
BLACK
10
178.5000009999999975
20
-23.8999989999999976
40
1.5000010000003334
50
-179.99996180
51
-90.00003820
0
ARC
8
BLACK
10
182.5
20
-22.8999999999999986
40
1.5
50
0.00000000
51
90.00000000
0
ARC
8
BLACK
10
183.
20
-14.25
40
1.5
50
-90.00000000
51
90.00000000
0
ARC
8
BLACK
10
182.5
20
-23.8999999999999986
40
1.5
50
-90.00000000
51
-0.00000000
0
LINE
8
BLACK
6
CONTINUOUS
10
77.25
20
-60.8999999999999986
11
77.25
21
-61.8999999999999986
0
LINE
8
BLACK
6
CONTINUOUS
10
78.25
20
-50.75
11
83.25
21
-50.75
0
LINE
8
BLACK
6
CONTINUOUS
10
78.25
20
-53.75
11
83.25
21
-53.75
0
LINE
8
BLACK
6
CONTINUOUS
10
78.75
20
-59.3999999999999986
11
82.75
21
-59.3999999999999986
0
LINE
8
BLACK
6
CONTINUOUS
10
78.75
20
-63.3999999999999986
11
82.75
21
-63.3999999999999986
0
LINE
8
BLACK
6
CONTINUOUS
10
84.25
20
-60.8999999999999986
11
84.25
21
-61.8999999999999986
0
ARC
8
BLACK
10
78.7500009999999975
20
-60.9000009999999961
40
1.5000010000003334
50
90.00003820
51
179.99996180
0
ARC
8
BLACK
10
78.25
20
-52.25
40
1.5
50
-270.00000000
51
-90.00000000
0
ARC
8
BLACK
10
78.7500009999999975
20
-61.899998999999994
40
1.5000010000003334
50
-179.99996180
51
-90.00003820
0
ARC
8
BLACK
10
82.75
20
-60.8999999999999986
40
1.5
50
0.00000000
51
90.00000000
0
ARC
8
BLACK
10
83.25
20
-52.25
40
1.5
50
-90.00000000
51
90.00000000
0
ARC
8
BLACK
10
82.75
20
-61.8999999999999986
40
1.5
50
-90.00000000
51
-0.00000000
0
LINE
8
BLACK
6
CONTINUOUS
10
134.25
20
-79.8999999999999915
11
134.25
21
-80.8999999999999915
0
LINE
8
BLACK
6
CONTINUOUS
10
135.25
20
-69.75
11
140.25
21
-69.75
0
LINE
8
BLACK
6
CONTINUOUS
10
135.25
20
-72.75
11
140.25
21
-72.75
0
LINE
8
BLACK
6
CONTINUOUS
10
135.75
20
-78.3999999999999915
11
139.75
21
-78.3999999999999915
0
LINE
8
BLACK
6
CONTINUOUS
10
135.75
20
-82.3999999999999915
11
139.75
21
-82.3999999999999915
0
LINE
8
BLACK
6
CONTINUOUS
10
141.25
20
-79.8999999999999915
11
141.25
21
-80.8999999999999915
0
ARC
8
BLACK
10
135.7500009999999975
20
-79.9000010000000032
40
1.5000010000003334
50
90.00003820
51
179.99996180
0
ARC
8
BLACK
10
135.25
20
-71.25
40
1.5
50
-270.00000000
51
-90.00000000
0
ARC
8
BLACK
10
135.7500009999999975
20
-80.899998999999994
40
1.5000010000003334
50
-179.99996180
51
-90.00003820
0
ARC
8
BLACK
10
139.75
20
-79.8999999999999915
40
1.5
50
0.00000000
51
90.00000000
0
ARC
8
BLACK
10
140.25
20
-71.25
40
1.5
50
-90.00000000
51
90.00000000
0
ARC
8
BLACK
10
139.75
20
-80.8999999999999915
40
1.5
50
-90.00000000
51
-0.00000000
0
LINE
8
BLACK
6
CONTINUOUS
10
210.25
20
-60.8999999999999986
11
210.25
21
-61.8999999999999986
0
LINE
8
BLACK
6
CONTINUOUS
10
211.25
20
-50.75
11
216.25
21
-50.75
0
LINE
8
BLACK
6
CONTINUOUS
10
211.25
20
-53.75
11
216.25
21
-53.75
0
LINE
8
BLACK
6
CONTINUOUS
10
211.75
20
-59.3999999999999986
11
215.75
21
-59.3999999999999986
0
LINE
8
BLACK
6
CONTINUOUS
10
211.75
20
-63.3999999999999986
11
215.75
21
-63.3999999999999986
0
LINE
8
BLACK
6
CONTINUOUS
10
217.25
20
-60.8999999999999986
11
217.25
21
-61.8999999999999986
0
ARC
8
BLACK
10
211.7500009999999975
20
-60.9000009999999961
40
1.5000010000003334
50
90.00003820
51
179.99996180
0
ARC
8
BLACK
10
211.25
20
-52.25
40
1.5
50
-270.00000000
51
-90.00000000
0
ARC
8
BLACK
10
211.7500009999999975
20
-61.899998999999994
40
1.5000010000003334
50
-179.99996180
51
-90.00003820
0
ARC
8
BLACK
10
215.75
20
-60.8999999999999986
40
1.5
50
0.00000000
51
90.00000000
0
ARC
8
BLACK
10
216.25
20
-52.25
40
1.5
50
-90.00000000
51
90.00000000
0
ARC
8
BLACK
10
215.75
20
-61.8999999999999986
40
1.5
50
-90.00000000
51
-0.00000000
0
LINE
8
BLACK
6
CONTINUOUS
10
105.75
20
-41.8999999999999986
11
105.75
21
-42.8999999999999986
0
LINE
8
BLACK
6
CONTINUOUS
10
106.75
20
-31.75
11
111.75
21
-31.75
0
LINE
8
BLACK
6
CONTINUOUS
10
106.75
20
-34.75
11
111.75
21
-34.75
0
LINE
8
BLACK
6
CONTINUOUS
10
107.25
20
-40.3999999999999986
11
111.25
21
-40.3999999999999986
0
LINE
8
BLACK
6
CONTINUOUS
10
107.25
20
-44.3999999999999986
11
111.25
21
-44.3999999999999986
0
LINE
8
BLACK
6
CONTINUOUS
10
112.75
20
-41.8999999999999986
11
112.75
21
-42.8999999999999986
0
ARC
8
BLACK
10
107.2500009999999975
20
-41.9000009999999961
40
1.5000010000003334
50
90.00003820
51
179.99996180
0
ARC
8
BLACK
10
106.75
20
-33.25
40
1.5
50
-270.00000000
51
-90.00000000
0
ARC
8
BLACK
10
107.2500009999999975
20
-42.8999990000000011
40
1.5000010000003334
50
-179.99996180
51
-90.00003820
0
ARC
8
BLACK
10
111.25
20
-41.8999999999999986
40
1.5
50
0.00000000
51
90.00000000
0
ARC
8
BLACK
10
111.75
20
-33.25
40
1.5
50
-90.00000000
51
90.00000000
0
ARC
8
BLACK
10
111.25
20
-42.8999999999999986
40
1.5
50
-90.00000000
51
-0.00000000
0
LINE
8
BLACK
6
CONTINUOUS
10
110.5
20
-3.8999999999999999
11
110.5
21
-4.8999999999999995
0
LINE
8
BLACK
6
CONTINUOUS
10
111.5
20
6.25
11
116.5
21
6.25
0
LINE
8
BLACK
6
CONTINUOUS
10
111.5
20
3.25
11
116.5
21
3.25
0
LINE
8
BLACK
6
CONTINUOUS
10
112.
20
-2.3999999999999999
11
116.
21
-2.3999999999999999
0
LINE
8
BLACK
6
CONTINUOUS
10
112.
20
-6.3999999999999995
11
116.
21
-6.3999999999999995
0
LINE
8
BLACK
6
CONTINUOUS
10
117.5
20
-3.8999999999999999
11
117.5
21
-4.8999999999999995
0
ARC
8
BLACK
10
112.0000009999999975
20
-3.9000009999999996
40
1.5000010000003334
50
90.00003820
51
179.99996180
0
ARC
8
BLACK
10
111.5
20
4.75
40
1.5
50
-270.00000000
51
-90.00000000
0
ARC
8
BLACK
10
112.0000009999999975
20
-4.8999990000000002
40
1.5000010000003334
50
-179.99996180
51
-90.00003820
0
ARC
8
BLACK
10
116.
20
-3.8999999999999999
40
1.5
50
0.00000000
51
90.00000000
0
ARC
8
BLACK
10
116.5
20
4.75
40
1.5
50
-90.00000000
51
90.00000000
0
ARC
8
BLACK
10
116.
20
-4.8999999999999995
40
1.5
50
-90.00000000
51
-0.00000000
0
LINE
8
BLACK
6
CONTINUOUS
10
31.5249999999999986
20
-79.8999999999999915
11
31.5249999999999986
21
-80.8999999999999915
0
LINE
8
BLACK
6
CONTINUOUS
10
32.5249999999999986
20
-69.75
11
37.5249999999999986
21
-69.75
0
LINE
8
BLACK
6
CONTINUOUS
10
32.5249999999999986
20
-72.75
11
37.5249999999999986
21
-72.75
0
LINE
8
BLACK
6
CONTINUOUS
10
33.0249999999999986
20
-78.3999999999999915
11
37.0249999999999986
21
-78.3999999999999915
0
LINE
8
BLACK
6
CONTINUOUS
10
33.0249999999999986
20
-82.3999999999999915
11
37.0249999999999986
21
-82.3999999999999915
0
LINE
8
BLACK
6
CONTINUOUS
10
38.5249999999999986
20
-79.8999999999999915
11
38.5249999999999986
21
-80.8999999999999915
0
ARC
8
BLACK
10
33.0250009999999961
20
-79.9000010000000032
40
1.5000010000003334
50
90.00003820
51
179.99996180
0
ARC
8
BLACK
10
32.5249999999999986
20
-71.25
40
1.5
50
-270.00000000
51
-90.00000000
0
ARC
8
BLACK
10
33.0250009999999961
20
-80.899998999999994
40
1.5000010000003334
50
-179.99996180
51
-90.00003820
0
ARC
8
BLACK
10
37.0249999999999986
20
-79.8999999999999915
40
1.5
50
0.00000000
51
90.00000000
0
ARC
8
BLACK
10
37.5249999999999986
20
-71.25
40
1.5
50
-90.00000000
51
90.00000000
0
ARC
8
BLACK
10
37.0249999999999986
20
-80.8999999999999915
40
1.5
50
-90.00000000
51
-0.00000000
0
LINE
8
BLACK
6
CONTINUOUS
10
134.25
20
-60.8999999999999986
11
134.25
21
-61.8999999999999986
0
LINE
8
BLACK
6
CONTINUOUS
10
135.25
20
-50.75
11
140.25
21
-50.75
0
LINE
8
BLACK
6
CONTINUOUS
10
135.25
20
-53.75
11
140.25
21
-53.75
0
LINE
8
BLACK
6
CONTINUOUS
10
135.75
20
-59.3999999999999986
11
139.75
21
-59.3999999999999986
0
LINE
8
BLACK
6
CONTINUOUS
10
135.75
20
-63.3999999999999986
11
139.75
21
-63.3999999999999986
0
LINE
8
BLACK
6
CONTINUOUS
10
141.25
20
-60.8999999999999986
11
141.25
21
-61.8999999999999986
0
ARC
8
BLACK
10
135.7500009999999975
20
-60.9000009999999961
40
1.5000010000003334
50
90.00003820
51
179.99996180
0
ARC
8
BLACK
10
135.25
20
-52.25
40
1.5
50
-270.00000000
51
-90.00000000
0
ARC
8
BLACK
10
135.7500009999999975
20
-61.899998999999994
40
1.5000010000003334
50
-179.99996180
51
-90.00003820
0
ARC
8
BLACK
10
139.75
20
-60.8999999999999986
40
1.5
50
0.00000000
51
90.00000000
0
ARC
8
BLACK
10
140.25
20
-52.25
40
1.5
50
-90.00000000
51
90.00000000
0
ARC
8
BLACK
10
139.75
20
-61.8999999999999986
40
1.5
50
-90.00000000
51
-0.00000000
0
LINE
8
BLACK
6
CONTINUOUS
10
236.9749999999999943
20
-79.8999999999999915
11
236.9749999999999943
21
-80.8999999999999915
0
LINE
8
BLACK
6
CONTINUOUS
10
237.9749999999999943
20
-69.75
11
242.9749999999999943
21
-69.75
0
LINE
8
BLACK
6
CONTINUOUS
10
237.9749999999999943
20
-72.75
11
242.9749999999999943
21
-72.75
0
LINE
8
BLACK
6
CONTINUOUS
10
238.4749999999999943
20
-78.3999999999999915
11
242.4749999999999943
21
-78.3999999999999915
0
LINE
8
BLACK
6
CONTINUOUS
10
238.4749999999999943
20
-82.3999999999999915
11
242.4749999999999943
21
-82.3999999999999915
0
LINE
8
BLACK
6
CONTINUOUS
10
243.9749999999999943
20
-79.8999999999999915
11
243.9749999999999943
21
-80.8999999999999915
0
ARC
8
BLACK
10
238.4750009999999918
20
-79.9000010000000032
40
1.5000010000003334
50
90.00003820
51
179.99996180
0
ARC
8
BLACK
10
237.9749999999999943
20
-71.25
40
1.5
50
-270.00000000
51
-90.00000000
0
ARC
8
BLACK
10
238.4750009999999918
20
-80.899998999999994
40
1.5000010000003334
50
-179.99996180
51
-90.00003820
0
ARC
8
BLACK
10
242.4749999999999943
20
-79.8999999999999915
40
1.5
50
0.00000000
51
90.00000000
0
ARC
8
BLACK
10
242.9749999999999943
20
-71.25
40
1.5
50
-90.00000000
51
90.00000000
0
ARC
8
BLACK
10
242.4749999999999943
20
-80.8999999999999915
40
1.5
50
-90.00000000
51
-0.00000000
0
LINE
8
BLACK
6
CONTINUOUS
10
191.25
20
-60.8999999999999986
11
191.25
21
-61.8999999999999986
0
LINE
8
BLACK
6
CONTINUOUS
10
192.25
20
-50.75
11
197.25
21
-50.75
0
LINE
8
BLACK
6
CONTINUOUS
10
192.25
20
-53.75
11
197.25
21
-53.75
0
LINE
8
BLACK
6
CONTINUOUS
10
192.75
20
-59.3999999999999986
11
196.75
21
-59.3999999999999986
0
LINE
8
BLACK
6
CONTINUOUS
10
192.75
20
-63.3999999999999986
11
196.75
21
-63.3999999999999986
0
LINE
8
BLACK
6
CONTINUOUS
10
198.25
20
-60.8999999999999986
11
198.25
21
-61.8999999999999986
0
ARC
8
BLACK
10
192.7500009999999975
20
-60.9000009999999961
40
1.5000010000003334
50
90.00003820
51
179.99996180
0
ARC
8
BLACK
10
192.25
20
-52.25
40
1.5
50
-270.00000000
51
-90.00000000
0
ARC
8
BLACK
10
192.7500009999999975
20
-61.899998999999994
40
1.5000010000003334
50
-179.99996180
51
-90.00003820
0
ARC
8
BLACK
10
196.75
20
-60.8999999999999986
40
1.5
50
0.00000000
51
90.00000000
0
ARC
8
BLACK
10
197.25
20
-52.25
40
1.5
50
-90.00000000
51
90.00000000
0
ARC
8
BLACK
10
196.75
20
-61.8999999999999986
40
1.5
50
-90.00000000
51
-0.00000000
0
LINE
8
BLACK
6
CONTINUOUS
10
281.5
20
-3.8999999999999999
11
281.5
21
-4.8999999999999995
0
LINE
8
BLACK
6
CONTINUOUS
10
282.5
20
6.25
11
287.5
21
6.25
0
LINE
8
BLACK
6
CONTINUOUS
10
282.5
20
3.25
11
287.5
21
3.25
0
LINE
8
BLACK
6
CONTINUOUS
10
283.
20
-2.3999999999999999
11
287.
21
-2.3999999999999999
0
LINE
8
BLACK
6
CONTINUOUS
10
283.
20
-6.3999999999999995
11
287.
21
-6.3999999999999995
0
LINE
8
BLACK
6
CONTINUOUS
10
288.5
20
-3.8999999999999999
11
288.5
21
-4.8999999999999995
0
ARC
8
BLACK
10
283.0000009999999975
20
-3.9000009999999996
40
1.5000010000003334
50
90.00003820
51
179.99996180
0
ARC
8
BLACK
10
282.5
20
4.75
40
1.5
50
-270.00000000
51
-90.00000000
0
ARC
8
BLACK
10
283.0000009999999975
20
-4.8999990000000002
40
1.5000010000003334
50
-179.99996180
51
-90.00003820
0
ARC
8
BLACK
10
287.
20
-3.8999999999999999
40
1.5
50
0.00000000
51
90.00000000
0
ARC
8
BLACK
10
287.5
20
4.75
40
1.5
50
-90.00000000
51
90.00000000
0
ARC
8
BLACK
10
287.
20
-4.8999999999999995
40
1.5
50
-90.00000000
51
-0.00000000
  0
ENDSEC
  0
EOF
