  0
SECTION
  2
HEADER
  9
$ANGBASE
  50
0.0
  9
$ANGDIR
  70
1
  9
$MEASUREMENT
  70
1
  0
ENDSEC
  0
SECTION
  2
TABLES
  0
TABLE
  2
LTYPE
  70
4
  0
LTYPE
  5
40F
  2
CONTINUOUS
  70
0
  3
Solid line
  72
65
  73
0
  40
0.0
  0
LTYPE
  5
410
  2
DASHDOT
 70
0
  3
Dash Dot ____ _ ____ _
 72
65
 73
4
 40
2.0
 49
1.25
 49
-0.25
 49
0.25
 49
-0.25
  0
LTYPE
  5
411
  2
DASHED
 70
0
  3
Dashed __ __ __ __ __
 72
65
 73
2
 40
0.75
 49
0.5
 49
-0.25
  0
LTYPE
  5
43B
  2
DOTTED
 70
0
  3
Dotted .  .  .  .
 72
65
 73
2
 40
0.2
 49
0.0
 49
-0.2
  0
ENDTAB
  0
TABLE
  2
STYLE
  70
4
  0
STYLE
  2
KICAD
  70
0
  40
0
  41
1
  42
1
  50
0
  71
0
  3
isocp.shx
  0
STYLE
  2
KICADB
  70
0
  40
0
  41
1
  42
1
  50
0
  71
0
  3
isocp.shx
  0
STYLE
  2
KICADI
  70
0
  40
0
  41
1
  42
1
  50
15
  71
0
  3
isocp.shx
  0
STYLE
  2
KICADBI
  70
0
  40
0
  41
1
  42
1
  50
15
  71
0
  3
isocp.shx
  0
ENDTAB
  0
TABLE
  2
LAYER
  70
1
  0
LAYER
  2
BLACK
  70
0
  62
7
  6
CONTINUOUS
  0
ENDTAB
  0
ENDSEC
  0
SECTION
  2
ENTITIES
0
ARC
8
BLACK
10
10.5
20
8.5
40
1.
50
90.00000000
51
180.00000000
0
LINE
8
BLACK
6
CONTINUOUS
10
207.0905199999999979
20
-77.3867259999999959
11
203.6165129999999976
21
-67.8419919999999905
0
LINE
8
BLACK
6
CONTINUOUS
10
147.25
20
-76.2574559999999906
11
147.25
21
-67.5
0
ARC
8
BLACK
10
148.7423000000000002
20
-86.5
40
1.0000000000079998
50
19.99996031
51
89.99977082
0
LINE
8
BLACK
6
CONTINUOUS
10
200.3618999999999915
20
-68.4396529999999927
11
168.7096489999999847
21
-79.9601579999999927
0
LINE
8
BLACK
6
CONTINUOUS
10
293.5
20
9.5
11
10.5
21
9.5
0
LINE
8
BLACK
6
CONTINUOUS
10
127.25
20
-66.5
11
118.75
21
-66.5
0
ARC
8
BLACK
10
127.25
20
-76.2574999999999932
40
1.0000000009245
50
-109.99855147
51
0.00246372
0
LINE
8
BLACK
6
CONTINUOUS
10
137.75
20
-85.5
11
126.7576959999999957
21
-85.5
0
ARC
8
BLACK
10
307.75
20
-46.5
40
1.
50
-90.00000000
51
-0.00000000
0
LINE
8
BLACK
6
CONTINUOUS
10
111.4411529999999999
20
-71.5676539999999903
11
126.908023
21
-77.1971479999999985
0
ARC
8
BLACK
10
164.2298999999999864
20
-72.037399999999991
40
0.4999208560102288
50
19.99331929
51
110.00902533
0
LINE
8
BLACK
6
CONTINUOUS
10
0.
20
-46.5
11
0.
21
-29.5
0
LINE
8
BLACK
6
CONTINUOUS
10
98.3165489999999949
20
-106.1652629999999959
11
100.8885629999999907
21
-99.0987310000000008
0
LINE
8
BLACK
6
CONTINUOUS
10
128.25
20
-76.2574570000000023
11
128.25
21
-67.5
0
ARC
8
BLACK
10
-0.000001
20
-84.5000009999999975
40
0.9999990000004999
50
-180.00005730
51
-89.99994270
0
LINE
8
BLACK
6
CONTINUOUS
10
65.5
20
-67.5
11
65.5
21
-76.530270999999999
0
ARC
8
BLACK
10
253.75
20
-67.5
40
1.
50
90.00000000
51
180.00000000
0
ARC
8
BLACK
10
251.75
20
-84.5
40
1.
50
-90.00000000
51
-0.00000000
0
ARC
8
BLACK
10
115.2310999999999979
20
-112.3217999999999961
40
0.9998588985251868
50
-110.00805991
51
-19.99732392
0
ARC
8
BLACK
10
295.5
20
-27.5
40
1.
50
-180.00000000
51
-90.00000000
0
ARC
8
BLACK
10
-1.9999989999999999
20
-67.4999990000000025
40
0.9999990000004999
50
-0.00005730
51
90.00005730
0
ARC
8
BLACK
10
293.5
20
8.5
40
1.
50
0.00000000
51
90.00000000
0
LINE
8
BLACK
6
CONTINUOUS
10
-2.
20
-66.5
11
-3.75
21
-66.5
0
ARC
8
BLACK
10
303.
20
-65.5
40
1.
50
-90.00000000
51
-0.00000000
0
LINE
8
BLACK
6
CONTINUOUS
10
204.5562029999999822
20
-66.5
11
206.625
21
-66.5
0
LINE
8
BLACK
6
CONTINUOUS
10
75.0130999999999943
20
-68.4396529999999927
11
106.7757280000000009
21
-80.0003310000000027
0
LINE
8
BLACK
6
CONTINUOUS
10
308.75
20
-46.5
11
308.75
21
-29.5
0
LINE
8
BLACK
6
CONTINUOUS
10
206.625
20
-66.5
11
209.
21
-66.5
0
LINE
8
BLACK
6
CONTINUOUS
10
68.4094800000000021
20
-77.0432919999999939
11
71.7584870000000024
21
-67.8419930000000022
0
LINE
8
BLACK
6
CONTINUOUS
10
252.75
20
-84.5
11
252.75
21
-67.5
0
LINE
8
BLACK
6
CONTINUOUS
10
304.
20
-65.5
11
304.
21
-48.5
0
LINE
8
BLACK
6
CONTINUOUS
10
160.6110109999999906
20
-113.2613309999999984
11
176.585821999999979
21
-107.4469610000000017
0
LINE
8
BLACK
6
CONTINUOUS
10
-3.75
20
-47.5
11
-1.
21
-47.5
0
ARC
8
BLACK
10
111.2700999999999993
20
-72.0374999999999943
40
0.4999604805472129
50
69.99536541
51
159.99592117
0
ARC
8
BLACK
10
168.3675999999999817
20
-79.0206000000000017
40
0.999883370081231
50
-160.00665619
51
-69.99580778
0
LINE
8
BLACK
6
CONTINUOUS
10
114.8889889999999951
20
-113.2613309999999984
11
98.9141779999999926
21
-107.4469610000000017
0
ARC
8
BLACK
10
8.5
20
-27.5
40
1.
50
-90.00000000
51
-0.00000000
0
ARC
8
BLACK
10
209.
20
-67.5
40
1.
50
0.00000000
51
90.00000000
0
LINE
8
BLACK
6
CONTINUOUS
10
9.5
20
-27.5
11
9.5
21
8.5
0
ARC
8
BLACK
10
307.75
20
-29.5
40
1.
50
0.00000000
51
90.00000000
0
ARC
8
BLACK
10
1.
20
-29.5
40
1.
50
90.00000000
51
180.00000000
0
LINE
8
BLACK
6
CONTINUOUS
10
175.209116999999992
20
-97.8170360000000016
11
208.8842039999999827
21
-85.5602779999999967
0
LINE
8
BLACK
6
CONTINUOUS
10
167.4280159999999853
20
-79.362456999999992
11
164.6996939999999938
21
-71.86647099999999
0
ARC
8
BLACK
10
176.2437999999999931
20
-106.5073000000000008
40
0.9999666550290565
50
-69.99928036
51
20.00172324
0
LINE
8
BLACK
6
CONTINUOUS
10
66.273769999999999
20
-85.5
11
0.
21
-85.5
0
LINE
8
BLACK
6
CONTINUOUS
10
137.75
20
-85.5
11
148.7423039999999901
21
-85.5
0
LINE
8
BLACK
6
CONTINUOUS
10
210.
20
-67.5
11
210.
21
-76.8737050000000011
0
LINE
8
BLACK
6
CONTINUOUS
10
125.8180029999999903
20
-86.1579789999999974
11
116.1706760000000003
21
-112.6637279999999919
0
LINE
8
BLACK
6
CONTINUOUS
10
156.75
20
-66.5
11
200.0198859999999854
21
-66.5
0
ARC
8
BLACK
10
160.2689000000000021
20
-112.3217999999999961
40
0.9998792108459901
50
-160.00267608
51
-69.99194009
0
LINE
8
BLACK
6
CONTINUOUS
10
70.8187959999999919
20
-66.5
11
68.875
21
-66.5
0
ARC
8
BLACK
10
209.2259999999999991
20
-86.4989999999999952
40
0.9990112606472461
50
89.98680878
51
110.00695950
0
LINE
8
BLACK
6
CONTINUOUS
10
-4.75
20
-65.5
11
-4.75
21
-48.5
0
ARC
8
BLACK
10
126.7576999999999998
20
-86.5
40
1.0000044081152843
50
90.00022918
51
160.00003969
0
ARC
8
BLACK
10
305.
20
-48.5
40
1.
50
90.00000000
51
180.00000000
0
LINE
8
BLACK
6
CONTINUOUS
10
148.25
20
-66.5
11
156.75
21
-66.5
0
ARC
8
BLACK
10
204.5561999999999898
20
-67.5
40
0.9999850929053892
50
-270.00017189
51
-160.00140512
0
ARC
8
BLACK
10
208.5
20
-76.8736999999999995
40
1.5000000000083331
50
-159.99938138
51
-0.00019099
0
LINE
8
BLACK
6
CONTINUOUS
10
305.
20
-47.5
11
307.75
21
-47.5
0
ARC
8
BLACK
10
107.1176999999999992
20
-79.0606999999999971
40
0.9999375786422871
50
-109.99861538
51
-19.99580523
0
ARC
8
BLACK
10
70.818799999999996
20
-67.5
40
1.0000000000079998
50
-19.99864872
51
90.00022918
0
ARC
8
BLACK
10
66.2740000000000009
20
-86.4993999999999943
40
0.9994000264658791
50
70.00088645
51
90.01318594
0
ARC
8
BLACK
10
-3.7500009999999997
20
-65.5000009999999975
40
0.9999990000004999
50
-180.00005730
51
-89.99994270
0
LINE
8
BLACK
6
CONTINUOUS
10
-1.
20
-84.5
11
-1.
21
-67.5
0
LINE
8
BLACK
6
CONTINUOUS
10
307.75
20
-28.5
11
295.5
21
-28.5
0
ARC
8
BLACK
10
75.3550999999999931
20
-67.5
40
0.9999558792311789
50
-270.00080214
51
-109.99969188
0
LINE
8
BLACK
6
CONTINUOUS
10
253.75
20
-66.5
11
303.
21
-66.5
0
ARC
8
BLACK
10
66.5
20
-67.5
40
1.
50
90.00000000
51
180.00000000
0
LINE
8
BLACK
6
CONTINUOUS
10
149.6819969999999955
20
-86.1579789999999974
11
159.3293239999999855
21
-112.6637279999999919
0
ARC
8
BLACK
10
67.
20
-76.5302999999999969
40
1.4999315525929842
50
-180.00110772
51
-19.99939819
0
LINE
8
BLACK
6
CONTINUOUS
10
209.2262299999999868
20
-85.5
11
251.75
21
-85.5
0
LINE
8
BLACK
6
CONTINUOUS
10
108.0573589999999911
20
-79.402630000000002
11
110.8003029999999995
21
-71.8664699999999925
0
ARC
8
BLACK
10
127.25
20
-67.5
40
1.
50
0.00000000
51
90.00000000
0
ARC
8
BLACK
10
148.25
20
-67.5
40
1.
50
90.00000000
51
180.00000000
0
ARC
8
BLACK
10
99.9488999999999947
20
-98.756699999999995
40
0.9999604018084916
50
-20.00116501
51
70.00143901
0
LINE
8
BLACK
6
CONTINUOUS
10
1.
20
-28.5
11
8.5
21
-28.5
0
LINE
8
BLACK
6
CONTINUOUS
10
68.875
20
-66.5
11
66.5
21
-66.5
0
ARC
8
BLACK
10
175.551099999999991
20
-98.756699999999995
40
0.9999758789740879
50
-250.00143901
51
-159.99883499
0
ARC
8
BLACK
10
-0.999999
20
-46.5000009999999975
40
0.9999990000004999
50
-90.00005730
51
0.00005730
0
ARC
8
BLACK
10
148.2498999999999967
20
-76.2574999999999932
40
0.9999769210801817
50
-180.00252127
51
-69.99599088
0
LINE
8
BLACK
6
CONTINUOUS
10
118.75
20
-66.5
11
75.3551140000000004
21
-66.5
0
ARC
8
BLACK
10
99.2560999999999893
20
-106.5073000000000008
40
0.999936722500479
50
-200.00368328
51
-109.99533528
0
LINE
8
BLACK
6
CONTINUOUS
10
294.5
20
-27.5
11
294.5
21
8.5
0
LINE
8
BLACK
6
CONTINUOUS
10
100.2908829999999938
20
-97.8170360000000016
11
66.6157960000000031
21
-85.5602779999999967
0
ARC
8
BLACK
10
200.0198999999999785
20
-67.5
40
1.0000000000980001
50
-70.00030812
51
90.00080214
0
ARC
8
BLACK
10
-3.7500009999999997
20
-48.4999989999999954
40
0.9999990000004999
50
-270.00005730
51
-179.99994270
0
LINE
8
BLACK
6
CONTINUOUS
10
177.1834509999999909
20
-106.1652629999999959
11
174.6114369999999951
21
-99.0987310000000008
0
LINE
8
BLACK
6
CONTINUOUS
10
164.058842999999996
20
-71.567655000000002
11
148.5919779999999832
21
-77.1971470000000011
0
LINE
8
BLACK
6
CONTINUOUS
10
249.5
20
-12.3999999999999986
11
249.5
21
-25.5999999999999979
0
LINE
8
BLACK
6
CONTINUOUS
10
249.8999999999999773
20
-12.
11
263.0999999999999659
21
-12.
0
LINE
8
BLACK
6
CONTINUOUS
10
249.8999999999999773
20
-26.
11
263.0999999999999659
21
-26.
0
LINE
8
BLACK
6
CONTINUOUS
10
263.5
20
-12.3999999999999986
11
263.5
21
-25.5999999999999979
0
ARC
8
BLACK
10
249.8999989999999798
20
-12.3999989999999993
40
0.39999900000125
50
-270.00014324
51
-179.99985676
0
ARC
8
BLACK
10
249.8999989999999798
20
-25.6000009999999989
40
0.39999900000125
50
-180.00014324
51
-89.99985676
0
ARC
8
BLACK
10
263.0999999999999659
20
-12.3999999999999986
40
0.4
50
0.00000000
51
90.00000000
0
ARC
8
BLACK
10
263.0999999999999659
20
-25.5999999999999979
40
0.4
50
-90.00000000
51
-0.00000000
0
LINE
8
BLACK
6
CONTINUOUS
10
12.
20
6.5999999999999996
11
12.
21
-6.5999999999999996
0
LINE
8
BLACK
6
CONTINUOUS
10
12.3999999999999986
20
7.
11
25.5999999999999979
21
7.
0
LINE
8
BLACK
6
CONTINUOUS
10
12.3999999999999986
20
-7.
11
25.5999999999999979
21
-7.
0
LINE
8
BLACK
6
CONTINUOUS
10
26.
20
6.5999999999999996
11
26.
21
-6.5999999999999996
0
ARC
8
BLACK
10
12.3999989999999993
20
6.6000009999999998
40
0.39999900000125
50
-270.00014324
51
-179.99985676
0
ARC
8
BLACK
10
12.3999989999999993
20
-6.6000009999999998
40
0.39999900000125
50
-180.00014324
51
-89.99985676
0
ARC
8
BLACK
10
25.5999999999999979
20
6.5999999999999996
40
0.4
50
0.00000000
51
90.00000000
0
ARC
8
BLACK
10
25.5999999999999979
20
-6.5999999999999996
40
0.4
50
-90.00000000
51
-0.00000000
0
LINE
8
BLACK
6
CONTINUOUS
10
101.3423999999999978
20
-101.3604059999999976
11
101.6502199999999903
21
-100.5146829999999909
0
LINE
8
BLACK
6
CONTINUOUS
10
101.5814689999999985
20
-101.8730910000000023
11
102.6433219999999977
21
-102.2595740000000006
0
LINE
8
BLACK
6
CONTINUOUS
10
102.162904999999995
20
-100.2756139999999903
11
103.2247559999999993
21
-100.6620959999999911
0
LINE
8
BLACK
6
CONTINUOUS
10
102.2838560000000001
20
-104.4167209999999955
11
113.2782599999999888
21
-108.4183570000000003
0
LINE
8
BLACK
6
CONTINUOUS
10
102.6433219999999977
20
-102.2595740000000006
11
102.0447869999999995
21
-103.9040359999999907
0
LINE
8
BLACK
6
CONTINUOUS
10
103.823291999999995
20
-99.017634000000001
11
103.2247559999999993
21
-100.6620959999999911
0
LINE
8
BLACK
6
CONTINUOUS
10
104.3359769999999997
20
-98.7785650000000004
11
108.1605259999999902
21
-100.1705869999999976
0
LINE
8
BLACK
6
CONTINUOUS
10
104.564819
20
-96.3078299999999956
11
109.0794849999999911
21
-83.9038879999999949
0
LINE
8
BLACK
6
CONTINUOUS
10
104.8038880000000006
20
-96.8205150000000003
11
108.8445660000000004
21
-98.2912019999999984
0
LINE
8
BLACK
6
CONTINUOUS
10
108.8445660000000004
20
-98.2912019999999984
11
108.1605259999999902
21
-100.1705869999999976
0
LINE
8
BLACK
6
CONTINUOUS
10
109.5508839999999964
20
-78.8077830000000006
11
109.8587019999999939
21
-77.9620599999999939
0
LINE
8
BLACK
6
CONTINUOUS
10
109.5921699999999959
20
-83.6648189999999943
11
113.6328479999999956
21
-85.1355049999999949
0
LINE
8
BLACK
6
CONTINUOUS
10
109.789952999999997
20
-79.3204679999999911
11
110.8518059999999963
21
-79.7069509999999894
0
LINE
8
BLACK
6
CONTINUOUS
10
110.3218189999999908
20
-100.9572339999999997
11
115.330379999999991
21
-102.780200999999991
0
LINE
8
BLACK
6
CONTINUOUS
10
110.3713869999999986
20
-77.7229909999999933
11
111.4332399999999978
21
-78.1094729999999942
0
LINE
8
BLACK
6
CONTINUOUS
10
110.4923390000000012
20
-81.8640979999999985
11
114.3168879999999916
21
-83.2561199999999957
0
LINE
8
BLACK
6
CONTINUOUS
10
110.8518059999999963
20
-79.7069509999999894
11
110.2532700000000006
21
-81.3514129999999938
0
LINE
8
BLACK
6
CONTINUOUS
10
111.0058590000000009
20
-99.0778479999999888
11
110.3218189999999908
21
-100.9572339999999997
0
LINE
8
BLACK
6
CONTINUOUS
10
112.0317749999999961
20
-76.4650109999999898
11
111.4332399999999978
21
-78.1094729999999942
0
LINE
8
BLACK
6
CONTINUOUS
10
112.5444600000000008
20
-76.2259420000000034
11
123.5388639999999896
21
-80.2275779999999941
0
LINE
8
BLACK
6
CONTINUOUS
10
113.7909449999999936
20
-108.1792879999999997
11
115.5694489999999917
21
-103.2928859999999958
0
LINE
8
BLACK
6
CONTINUOUS
10
114.3168879999999916
20
-83.2561199999999957
11
113.6328479999999956
21
-85.1355049999999949
0
LINE
8
BLACK
6
CONTINUOUS
10
115.7941409999999962
20
-85.922151999999997
11
121.9961119999999966
21
-88.1794849999999997
0
LINE
8
BLACK
6
CONTINUOUS
10
116.4781809999999922
20
-84.0427660000000003
11
115.7941409999999962
21
-85.922151999999997
0
LINE
8
BLACK
6
CONTINUOUS
10
116.4781809999999922
20
-84.0427660000000003
11
121.4867429999999899
21
-85.8657339999999891
0
LINE
8
BLACK
6
CONTINUOUS
10
117.2078300000000013
20
-101.3351809999999915
11
111.0058590000000009
21
-99.0778479999999888
0
LINE
8
BLACK
6
CONTINUOUS
10
117.7205149999999918
20
-101.0961119999999909
11
122.2351809999999972
21
-88.6921699999999902
0
LINE
8
BLACK
6
CONTINUOUS
10
121.9994279999999947
20
-85.6266650000000027
11
123.7779329999999902
21
-80.7402629999999988
0
ARC
8
BLACK
10
101.7182759999999888
20
-101.4972149999999971
40
0.3999986532789829
50
-200.00017824
51
-109.99990904
0
ARC
8
BLACK
10
102.0260959999999955
20
-100.6514899999999955
40
0.3999986532789829
50
69.99982176
51
160.00009096
0
ARC
8
BLACK
10
102.420659999999998
20
-104.0408460000000019
40
0.3999966875375345
50
-200.00045982
51
-109.99955422
0
ARC
8
BLACK
10
104.1991680000000002
20
-99.1544409999999914
40
0.3999986532789829
50
69.99982176
51
160.00009096
0
ARC
8
BLACK
10
104.9406939999999935
20
-96.4446389999999951
40
0.3999983112614352
50
-200.00022723
51
-109.99977444
0
ARC
8
BLACK
10
109.4553619999999938
20
-84.040695999999997
40
0.3999999349912447
50
70.00000535
51
160.00000535
0
ARC
8
BLACK
10
109.9267609999999991
20
-78.9445910000000026
40
0.3999999349912447
50
-199.99999465
51
-109.99999465
0
ARC
8
BLACK
10
110.2345789999999965
20
-78.098867999999996
40
0.3999999349912447
50
70.00000535
51
160.00000535
0
ARC
8
BLACK
10
110.629146999999989
20
-81.4882209999999958
40
0.3999999349912447
50
-199.99999465
51
-109.99999465
0
ARC
8
BLACK
10
112.4076519999999988
20
-76.6018189999999919
40
0.3999999349912447
50
70.00000535
51
160.00000535
0
ARC
8
BLACK
10
113.4150679999999909
20
-108.0424809999999951
40
0.3999995929722929
50
-110.00004364
51
-19.99986005
0
ARC
8
BLACK
10
115.1935739999999981
20
-103.1560769999999962
40
0.3999983112614352
50
-20.00022723
51
70.00022556
0
ARC
8
BLACK
10
117.3446390000000008
20
-100.959305999999998
40
0.3999983112614352
50
-110.00022723
51
-19.99977444
0
ARC
8
BLACK
10
121.8593039999999945
20
-88.5553620000000024
40
0.3999999349912447
50
-19.99999465
51
70.00000535
0
ARC
8
BLACK
10
121.623550999999992
20
-85.4898570000000007
40
0.3999999349912447
50
-109.99999465
51
-19.99999465
0
ARC
8
BLACK
10
123.4020559999999875
20
-80.6034549999999967
40
0.3999999349912447
50
-19.99999465
51
70.00000535
0
LINE
8
BLACK
6
CONTINUOUS
10
206.75
20
-50.3999999999999986
11
206.75
21
-63.5999999999999943
0
LINE
8
BLACK
6
CONTINUOUS
10
207.1499999999999773
20
-50.
11
220.3499999999999943
21
-50.
0
LINE
8
BLACK
6
CONTINUOUS
10
207.1499999999999773
20
-64.
11
220.3499999999999943
21
-64.
0
LINE
8
BLACK
6
CONTINUOUS
10
220.75
20
-50.3999999999999986
11
220.75
21
-63.5999999999999943
0
ARC
8
BLACK
10
207.1499989999999798
20
-50.3999990000000011
40
0.39999900000125
50
-270.00014324
51
-179.99985676
0
ARC
8
BLACK
10
207.1499989999999798
20
-63.6000009999999989
40
0.39999900000125
50
-180.00014324
51
-89.99985676
0
ARC
8
BLACK
10
220.3499999999999943
20
-50.3999999999999986
40
0.4
50
0.00000000
51
90.00000000
0
ARC
8
BLACK
10
220.3499999999999943
20
-63.5999999999999943
40
0.4
50
-90.00000000
51
-0.00000000
0
LINE
8
BLACK
6
CONTINUOUS
10
171.064819
20
-82.1921699999999902
11
175.5794850000000054
21
-94.5961119999999909
0
LINE
8
BLACK
6
CONTINUOUS
10
171.3038880000000006
20
-81.6794849999999997
11
183.7078300000000013
21
-77.1648189999999943
0
LINE
8
BLACK
6
CONTINUOUS
10
176.0921699999999817
20
-94.8351809999999915
11
188.4961119999999823
21
-90.3205150000000003
0
LINE
8
BLACK
6
CONTINUOUS
10
184.2205149999999776
20
-77.4038879999999949
11
188.735180999999983
21
-89.8078299999999956
0
ARC
8
BLACK
10
171.4406939999999793
20
-82.0553609999999907
40
0.3999983976292905
50
-250.00022556
51
-159.99977277
0
ARC
8
BLACK
10
175.9553609999999821
20
-94.459305999999998
40
0.3999983976292905
50
-160.00022556
51
-69.99977277
0
ARC
8
BLACK
10
183.8446380000000033
20
-77.540695999999997
40
0.3999999349912447
50
19.99999465
51
109.99999465
0
ARC
8
BLACK
10
188.3593039999999803
20
-89.9446379999999976
40
0.3999999349912447
50
-70.00000535
51
19.99999465
0
LINE
8
BLACK
6
CONTINUOUS
10
87.0038879999999892
20
-90.3205150000000003
11
99.4078299999999899
21
-94.8351809999999915
0
LINE
8
BLACK
6
CONTINUOUS
10
91.279484999999994
20
-77.4038879999999949
11
86.7648190000000028
21
-89.8078299999999956
0
LINE
8
BLACK
6
CONTINUOUS
10
91.7921699999999987
20
-77.1648189999999943
11
104.1961119999999994
21
-81.6794849999999997
0
LINE
8
BLACK
6
CONTINUOUS
10
104.435181
20
-82.1921699999999902
11
99.9205149999999946
21
-94.5961119999999909
0
ARC
8
BLACK
10
87.1406939999999963
20
-89.9446389999999951
40
0.3999983112614352
50
-200.00022723
51
-109.99977444
0
ARC
8
BLACK
10
91.6553609999999992
20
-77.540694000000002
40
0.3999983112614352
50
69.99977277
51
160.00022556
0
ARC
8
BLACK
10
99.544637999999992
20
-94.4593039999999888
40
0.3999999349912447
50
-109.99999465
51
-19.99999465
0
ARC
8
BLACK
10
104.0593039999999974
20
-82.0553620000000024
40
0.3999999349912447
50
-19.99999465
51
70.00000535
0
LINE
8
BLACK
6
CONTINUOUS
10
40.5
20
-12.3999999999999986
11
40.5
21
-25.5999999999999979
0
LINE
8
BLACK
6
CONTINUOUS
10
40.8999999999999986
20
-12.
11
54.0999999999999943
21
-12.
0
LINE
8
BLACK
6
CONTINUOUS
10
40.8999999999999986
20
-26.
11
54.0999999999999943
21
-26.
0
LINE
8
BLACK
6
CONTINUOUS
10
54.5
20
-12.3999999999999986
11
54.5
21
-25.5999999999999979
0
ARC
8
BLACK
10
40.8999990000000011
20
-12.3999989999999993
40
0.39999900000125
50
-270.00014324
51
-179.99985676
0
ARC
8
BLACK
10
40.8999990000000011
20
-25.6000009999999989
40
0.39999900000125
50
-180.00014324
51
-89.99985676
0
ARC
8
BLACK
10
54.0999999999999943
20
-12.3999999999999986
40
0.4
50
0.00000000
51
90.00000000
0
ARC
8
BLACK
10
54.0999999999999943
20
-25.5999999999999979
40
0.4
50
-90.00000000
51
-0.00000000
0
LINE
8
BLACK
6
CONTINUOUS
10
278.
20
6.5999999999999996
11
278.
21
-6.5999999999999996
0
LINE
8
BLACK
6
CONTINUOUS
10
278.3999999999999773
20
7.
11
291.5999999999999659
21
7.
0
LINE
8
BLACK
6
CONTINUOUS
10
278.3999999999999773
20
-7.
11
291.5999999999999659
21
-7.
0
LINE
8
BLACK
6
CONTINUOUS
10
292.
20
6.5999999999999996
11
292.
21
-6.5999999999999996
0
ARC
8
BLACK
10
278.3999989999999798
20
6.6000009999999998
40
0.39999900000125
50
-270.00014324
51
-179.99985676
0
ARC
8
BLACK
10
278.3999989999999798
20
-6.6000009999999998
40
0.39999900000125
50
-180.00014324
51
-89.99985676
0
ARC
8
BLACK
10
291.5999999999999659
20
6.5999999999999996
40
0.4
50
0.00000000
51
90.00000000
0
ARC
8
BLACK
10
291.5999999999999659
20
-6.5999999999999996
40
0.4
50
-90.00000000
51
-0.00000000
0
LINE
8
BLACK
6
CONTINUOUS
10
50.
20
6.5999999999999996
11
50.
21
-6.5999999999999996
0
LINE
8
BLACK
6
CONTINUOUS
10
50.3999999999999986
20
7.
11
63.5999999999999943
21
7.
0
LINE
8
BLACK
6
CONTINUOUS
10
50.3999999999999986
20
-7.
11
63.5999999999999943
21
-7.
0
LINE
8
BLACK
6
CONTINUOUS
10
64.
20
6.5999999999999996
11
64.
21
-6.5999999999999996
0
ARC
8
BLACK
10
50.3999990000000011
20
6.6000009999999998
40
0.39999900000125
50
-270.00014324
51
-179.99985676
0
ARC
8
BLACK
10
50.3999990000000011
20
-6.6000009999999998
40
0.39999900000125
50
-180.00014324
51
-89.99985676
0
ARC
8
BLACK
10
63.5999999999999943
20
6.5999999999999996
40
0.4
50
0.00000000
51
90.00000000
0
ARC
8
BLACK
10
63.5999999999999943
20
-6.5999999999999996
40
0.4
50
-90.00000000
51
-0.00000000
0
LINE
8
BLACK
6
CONTINUOUS
10
130.75
20
-50.3999999999999986
11
130.75
21
-63.5999999999999943
0
LINE
8
BLACK
6
CONTINUOUS
10
131.1500000000000057
20
-50.
11
144.3499999999999943
21
-50.
0
LINE
8
BLACK
6
CONTINUOUS
10
131.1500000000000057
20
-64.
11
144.3499999999999943
21
-64.
0
LINE
8
BLACK
6
CONTINUOUS
10
144.75
20
-50.3999999999999986
11
144.75
21
-63.5999999999999943
0
ARC
8
BLACK
10
131.1499990000000082
20
-50.3999990000000011
40
0.39999900000125
50
-270.00014324
51
-179.99985676
0
ARC
8
BLACK
10
131.1499990000000082
20
-63.6000009999999989
40
0.39999900000125
50
-180.00014324
51
-89.99985676
0
ARC
8
BLACK
10
144.3499999999999943
20
-50.3999999999999986
40
0.4
50
0.00000000
51
90.00000000
0
ARC
8
BLACK
10
144.3499999999999943
20
-63.5999999999999943
40
0.4
50
-90.00000000
51
-0.00000000
0
LINE
8
BLACK
6
CONTINUOUS
10
83.25
20
-31.3999999999999986
11
83.25
21
-44.6000000000000014
0
LINE
8
BLACK
6
CONTINUOUS
10
83.6499999999999915
20
-31.
11
96.8499999999999943
21
-31.
0
LINE
8
BLACK
6
CONTINUOUS
10
83.6499999999999915
20
-45.
11
96.8499999999999943
21
-45.
0
LINE
8
BLACK
6
CONTINUOUS
10
97.25
20
-31.3999999999999986
11
97.25
21
-44.6000000000000014
0
ARC
8
BLACK
10
83.649998999999994
20
-31.3999989999999976
40
0.39999900000125
50
-270.00014324
51
-179.99985676
0
ARC
8
BLACK
10
83.649998999999994
20
-44.6000009999999989
40
0.39999900000125
50
-180.00014324
51
-89.99985676
0
ARC
8
BLACK
10
96.8499999999999943
20
-31.3999999999999986
40
0.4
50
0.00000000
51
90.00000000
0
ARC
8
BLACK
10
96.8499999999999943
20
-44.6000000000000014
40
0.4
50
-90.00000000
51
-0.00000000
0
LINE
8
BLACK
6
CONTINUOUS
10
73.75
20
-50.3999999999999986
11
73.75
21
-63.5999999999999943
0
LINE
8
BLACK
6
CONTINUOUS
10
74.1499999999999915
20
-50.
11
87.3499999999999943
21
-50.
0
LINE
8
BLACK
6
CONTINUOUS
10
74.1499999999999915
20
-64.
11
87.3499999999999943
21
-64.
0
LINE
8
BLACK
6
CONTINUOUS
10
87.75
20
-50.3999999999999986
11
87.75
21
-63.5999999999999943
0
ARC
8
BLACK
10
74.149998999999994
20
-50.3999990000000011
40
0.39999900000125
50
-270.00014324
51
-179.99985676
0
ARC
8
BLACK
10
74.149998999999994
20
-63.6000009999999989
40
0.39999900000125
50
-180.00014324
51
-89.99985676
0
ARC
8
BLACK
10
87.3499999999999943
20
-50.3999999999999986
40
0.4
50
0.00000000
51
90.00000000
0
ARC
8
BLACK
10
87.3499999999999943
20
-63.5999999999999943
40
0.4
50
-90.00000000
51
-0.00000000
0
LINE
8
BLACK
6
CONTINUOUS
10
159.25
20
-31.3999999999999986
11
159.25
21
-44.6000000000000014
0
LINE
8
BLACK
6
CONTINUOUS
10
159.6500000000000057
20
-31.
11
172.8499999999999943
21
-31.
0
LINE
8
BLACK
6
CONTINUOUS
10
159.6500000000000057
20
-45.
11
172.8499999999999943
21
-45.
0
LINE
8
BLACK
6
CONTINUOUS
10
173.25
20
-31.3999999999999986
11
173.25
21
-44.6000000000000014
0
ARC
8
BLACK
10
159.6499989999999798
20
-31.3999989999999976
40
0.39999900000125
50
-270.00014324
51
-179.99985676
0
ARC
8
BLACK
10
159.6499989999999798
20
-44.6000009999999989
40
0.39999900000125
50
-180.00014324
51
-89.99985676
0
ARC
8
BLACK
10
172.8499999999999943
20
-31.3999999999999986
40
0.4
50
0.00000000
51
90.00000000
0
ARC
8
BLACK
10
172.8499999999999943
20
-44.6000000000000014
40
0.4
50
-90.00000000
51
-0.00000000
0
LINE
8
BLACK
6
CONTINUOUS
10
247.125
20
-50.3999999999999986
11
247.125
21
-63.5999999999999943
0
LINE
8
BLACK
6
CONTINUOUS
10
247.5249999999999773
20
-50.
11
260.7249999999999659
21
-50.
0
LINE
8
BLACK
6
CONTINUOUS
10
247.5249999999999773
20
-64.
11
260.7249999999999659
21
-64.
0
LINE
8
BLACK
6
CONTINUOUS
10
261.125
20
-50.3999999999999986
11
261.125
21
-63.5999999999999943
0
ARC
8
BLACK
10
247.5249989999999798
20
-50.3999990000000011
40
0.39999900000125
50
-270.00014324
51
-179.99985676
0
ARC
8
BLACK
10
247.5249989999999798
20
-63.6000009999999989
40
0.39999900000125
50
-180.00014324
51
-89.99985676
0
ARC
8
BLACK
10
260.7249999999999659
20
-50.3999999999999986
40
0.4
50
0.00000000
51
90.00000000
0
ARC
8
BLACK
10
260.7249999999999659
20
-63.5999999999999943
40
0.4
50
-90.00000000
51
-0.00000000
0
LINE
8
BLACK
6
CONTINUOUS
10
216.25
20
-31.3999999999999986
11
216.25
21
-44.6000000000000014
0
LINE
8
BLACK
6
CONTINUOUS
10
216.6499999999999773
20
-31.
11
229.8499999999999943
21
-31.
0
LINE
8
BLACK
6
CONTINUOUS
10
216.6499999999999773
20
-45.
11
229.8499999999999943
21
-45.
0
LINE
8
BLACK
6
CONTINUOUS
10
230.25
20
-31.3999999999999986
11
230.25
21
-44.6000000000000014
0
ARC
8
BLACK
10
216.6499989999999798
20
-31.3999989999999976
40
0.39999900000125
50
-270.00014324
51
-179.99985676
0
ARC
8
BLACK
10
216.6499989999999798
20
-44.6000009999999989
40
0.39999900000125
50
-180.00014324
51
-89.99985676
0
ARC
8
BLACK
10
229.8499999999999943
20
-31.3999999999999986
40
0.4
50
0.00000000
51
90.00000000
0
ARC
8
BLACK
10
229.8499999999999943
20
-44.6000000000000014
40
0.4
50
-90.00000000
51
-0.00000000
0
LINE
8
BLACK
6
CONTINUOUS
10
140.25
20
-31.3999999999999986
11
140.25
21
-44.6000000000000014
0
LINE
8
BLACK
6
CONTINUOUS
10
140.6500000000000057
20
-31.
11
153.8499999999999943
21
-31.
0
LINE
8
BLACK
6
CONTINUOUS
10
140.6500000000000057
20
-45.
11
153.8499999999999943
21
-45.
0
LINE
8
BLACK
6
CONTINUOUS
10
154.25
20
-31.3999999999999986
11
154.25
21
-44.6000000000000014
0
ARC
8
BLACK
10
140.6499989999999798
20
-31.3999989999999976
40
0.39999900000125
50
-270.00014324
51
-179.99985676
0
ARC
8
BLACK
10
140.6499989999999798
20
-44.6000009999999989
40
0.39999900000125
50
-180.00014324
51
-89.99985676
0
ARC
8
BLACK
10
153.8499999999999943
20
-31.3999999999999986
40
0.4
50
0.00000000
51
90.00000000
0
ARC
8
BLACK
10
153.8499999999999943
20
-44.6000000000000014
40
0.4
50
-90.00000000
51
-0.00000000
0
LINE
8
BLACK
6
CONTINUOUS
10
49.
20
-69.3999999999999915
11
49.
21
-82.5999999999999943
0
LINE
8
BLACK
6
CONTINUOUS
10
49.3999999999999986
20
-69.
11
62.5999999999999943
21
-69.
0
LINE
8
BLACK
6
CONTINUOUS
10
49.3999999999999986
20
-83.
11
62.5999999999999943
21
-83.
0
LINE
8
BLACK
6
CONTINUOUS
10
63.
20
-69.3999999999999915
11
63.
21
-82.5999999999999943
0
ARC
8
BLACK
10
49.3999990000000011
20
-69.399998999999994
40
0.39999900000125
50
-270.00014324
51
-179.99985676
0
ARC
8
BLACK
10
49.3999990000000011
20
-82.6000009999999918
40
0.39999900000125
50
-180.00014324
51
-89.99985676
0
ARC
8
BLACK
10
62.5999999999999943
20
-69.3999999999999915
40
0.4
50
0.00000000
51
90.00000000
0
ARC
8
BLACK
10
62.5999999999999943
20
-82.5999999999999943
40
0.4
50
-90.00000000
51
-0.00000000
0
LINE
8
BLACK
6
CONTINUOUS
10
149.75
20
-50.3999999999999986
11
149.75
21
-63.5999999999999943
0
LINE
8
BLACK
6
CONTINUOUS
10
150.1500000000000057
20
-50.
11
163.3499999999999943
21
-50.
0
LINE
8
BLACK
6
CONTINUOUS
10
150.1500000000000057
20
-64.
11
163.3499999999999943
21
-64.
0
LINE
8
BLACK
6
CONTINUOUS
10
163.75
20
-50.3999999999999986
11
163.75
21
-63.5999999999999943
0
ARC
8
BLACK
10
150.1499989999999798
20
-50.3999990000000011
40
0.39999900000125
50
-270.00014324
51
-179.99985676
0
ARC
8
BLACK
10
150.1499989999999798
20
-63.6000009999999989
40
0.39999900000125
50
-180.00014324
51
-89.99985676
0
ARC
8
BLACK
10
163.3499999999999943
20
-50.3999999999999986
40
0.4
50
0.00000000
51
90.00000000
0
ARC
8
BLACK
10
163.3499999999999943
20
-63.5999999999999943
40
0.4
50
-90.00000000
51
-0.00000000
0
LINE
8
BLACK
6
CONTINUOUS
10
121.25
20
-31.3999999999999986
11
121.25
21
-44.6000000000000014
0
LINE
8
BLACK
6
CONTINUOUS
10
121.6499999999999915
20
-31.
11
134.8499999999999943
21
-31.
0
LINE
8
BLACK
6
CONTINUOUS
10
121.6499999999999915
20
-45.
11
134.8499999999999943
21
-45.
0
LINE
8
BLACK
6
CONTINUOUS
10
135.25
20
-31.3999999999999986
11
135.25
21
-44.6000000000000014
0
ARC
8
BLACK
10
121.649998999999994
20
-31.3999989999999976
40
0.39999900000125
50
-270.00014324
51
-179.99985676
0
ARC
8
BLACK
10
121.649998999999994
20
-44.6000009999999989
40
0.39999900000125
50
-180.00014324
51
-89.99985676
0
ARC
8
BLACK
10
134.8499999999999943
20
-31.3999999999999986
40
0.4
50
0.00000000
51
90.00000000
0
ARC
8
BLACK
10
134.8499999999999943
20
-44.6000000000000014
40
0.4
50
-90.00000000
51
-0.00000000
0
LINE
8
BLACK
6
CONTINUOUS
10
3.875
20
-69.3999999999999915
11
3.875
21
-82.5999999999999943
0
LINE
8
BLACK
6
CONTINUOUS
10
4.2749999999999995
20
-69.
11
17.4749999999999979
21
-69.
0
LINE
8
BLACK
6
CONTINUOUS
10
4.2749999999999995
20
-83.
11
17.4749999999999979
21
-83.
0
LINE
8
BLACK
6
CONTINUOUS
10
17.875
20
-69.3999999999999915
11
17.875
21
-82.5999999999999943
0
ARC
8
BLACK
10
4.2749990000000002
20
-69.399998999999994
40
0.39999900000125
50
-270.00014324
51
-179.99985676
0
ARC
8
BLACK
10
4.2749990000000002
20
-82.6000009999999918
40
0.39999900000125
50
-180.00014324
51
-89.99985676
0
ARC
8
BLACK
10
17.4749999999999979
20
-69.3999999999999915
40
0.4
50
0.00000000
51
90.00000000
0
ARC
8
BLACK
10
17.4749999999999979
20
-82.5999999999999943
40
0.4
50
-90.00000000
51
-0.00000000
0
LINE
8
BLACK
6
CONTINUOUS
10
69.0288879999999949
20
-83.8205150000000003
11
81.4328299999999956
21
-88.3351809999999915
0
LINE
8
BLACK
6
CONTINUOUS
10
73.3044849999999997
20
-70.9038879999999949
11
68.7898189999999943
21
-83.3078299999999956
0
LINE
8
BLACK
6
CONTINUOUS
10
73.8171699999999902
20
-70.6648189999999943
11
86.2211119999999909
21
-75.1794849999999997
0
LINE
8
BLACK
6
CONTINUOUS
10
86.4601809999999915
20
-75.6921699999999902
11
81.9455150000000003
21
-88.0961119999999909
0
ARC
8
BLACK
10
69.165694000000002
20
-83.4446389999999951
40
0.3999983112614352
50
-200.00022723
51
-109.99977444
0
ARC
8
BLACK
10
73.6803609999999907
20
-71.040694000000002
40
0.3999983112614352
50
69.99977277
51
160.00022556
0
ARC
8
BLACK
10
81.5696379999999976
20
-87.959304000000003
40
0.3999999349912447
50
-109.99999465
51
-19.99999465
0
ARC
8
BLACK
10
86.084304000000003
20
-75.5553620000000024
40
0.3999999349912447
50
-19.99999465
51
70.00000535
0
LINE
8
BLACK
6
CONTINUOUS
10
111.75
20
-50.3999999999999986
11
111.75
21
-63.5999999999999943
0
LINE
8
BLACK
6
CONTINUOUS
10
112.1499999999999915
20
-50.
11
125.3499999999999943
21
-50.
0
LINE
8
BLACK
6
CONTINUOUS
10
112.1499999999999915
20
-64.
11
125.3499999999999943
21
-64.
0
LINE
8
BLACK
6
CONTINUOUS
10
125.75
20
-50.3999999999999986
11
125.75
21
-63.5999999999999943
0
ARC
8
BLACK
10
112.149998999999994
20
-50.3999990000000011
40
0.39999900000125
50
-270.00014324
51
-179.99985676
0
ARC
8
BLACK
10
112.149998999999994
20
-63.6000009999999989
40
0.39999900000125
50
-180.00014324
51
-89.99985676
0
ARC
8
BLACK
10
125.3499999999999943
20
-50.3999999999999986
40
0.4
50
0.00000000
51
90.00000000
0
ARC
8
BLACK
10
125.3499999999999943
20
-63.5999999999999943
40
0.4
50
-90.00000000
51
-0.00000000
0
LINE
8
BLACK
6
CONTINUOUS
10
188.9148189999999943
20
-75.6921699999999902
11
193.4294849999999997
21
-88.0961119999999909
0
LINE
8
BLACK
6
CONTINUOUS
10
189.1538879999999949
20
-75.1794849999999997
11
201.5578299999999956
21
-70.6648189999999943
0
LINE
8
BLACK
6
CONTINUOUS
10
193.9421700000000044
20
-88.3351809999999915
11
206.3461119999999767
21
-83.8205150000000003
0
LINE
8
BLACK
6
CONTINUOUS
10
202.0705150000000003
20
-70.9038879999999949
11
206.5851809999999773
21
-83.3078299999999956
0
ARC
8
BLACK
10
189.290694000000002
20
-75.5553609999999907
40
0.3999983976292905
50
-250.00022556
51
-159.99977277
0
ARC
8
BLACK
10
193.8053610000000049
20
-87.959305999999998
40
0.3999983976292905
50
-160.00022556
51
-69.99977277
0
ARC
8
BLACK
10
201.6946379999999976
20
-71.040695999999997
40
0.3999999349912447
50
19.99999465
51
109.99999465
0
ARC
8
BLACK
10
206.209304000000003
20
-83.4446379999999976
40
0.3999999349912447
50
-70.00000535
51
19.99999465
0
LINE
8
BLACK
6
CONTINUOUS
10
259.
20
6.5999999999999996
11
259.
21
-6.5999999999999996
0
LINE
8
BLACK
6
CONTINUOUS
10
259.3999999999999773
20
7.
11
272.5999999999999659
21
7.
0
LINE
8
BLACK
6
CONTINUOUS
10
259.3999999999999773
20
-7.
11
272.5999999999999659
21
-7.
0
LINE
8
BLACK
6
CONTINUOUS
10
273.
20
6.5999999999999996
11
273.
21
-6.5999999999999996
0
ARC
8
BLACK
10
259.3999989999999798
20
6.6000009999999998
40
0.39999900000125
50
-270.00014324
51
-179.99985676
0
ARC
8
BLACK
10
259.3999989999999798
20
-6.6000009999999998
40
0.39999900000125
50
-180.00014324
51
-89.99985676
0
ARC
8
BLACK
10
272.5999999999999659
20
6.5999999999999996
40
0.4
50
0.00000000
51
90.00000000
0
ARC
8
BLACK
10
272.5999999999999659
20
-6.5999999999999996
40
0.4
50
-90.00000000
51
-0.00000000
0
LINE
8
BLACK
6
CONTINUOUS
10
135.5
20
-12.3999999999999986
11
135.5
21
-25.5999999999999979
0
LINE
8
BLACK
6
CONTINUOUS
10
135.9000000000000057
20
-12.
11
149.0999999999999943
21
-12.
0
LINE
8
BLACK
6
CONTINUOUS
10
135.9000000000000057
20
-26.
11
149.0999999999999943
21
-26.
0
LINE
8
BLACK
6
CONTINUOUS
10
149.5
20
-12.3999999999999986
11
149.5
21
-25.5999999999999979
0
ARC
8
BLACK
10
135.8999989999999798
20
-12.3999989999999993
40
0.39999900000125
50
-270.00014324
51
-179.99985676
0
ARC
8
BLACK
10
135.8999989999999798
20
-25.6000009999999989
40
0.39999900000125
50
-180.00014324
51
-89.99985676
0
ARC
8
BLACK
10
149.0999999999999943
20
-12.3999999999999986
40
0.4
50
0.00000000
51
90.00000000
0
ARC
8
BLACK
10
149.0999999999999943
20
-25.5999999999999979
40
0.4
50
-90.00000000
51
-0.00000000
0
LINE
8
BLACK
6
CONTINUOUS
10
287.5
20
-50.3999999999999986
11
287.5
21
-63.5999999999999943
0
LINE
8
BLACK
6
CONTINUOUS
10
287.8999999999999773
20
-50.
11
301.0999999999999659
21
-50.
0
LINE
8
BLACK
6
CONTINUOUS
10
287.8999999999999773
20
-64.
11
301.0999999999999659
21
-64.
0
LINE
8
BLACK
6
CONTINUOUS
10
301.5
20
-50.3999999999999986
11
301.5
21
-63.5999999999999943
0
ARC
8
BLACK
10
287.8999989999999798
20
-50.3999990000000011
40
0.39999900000125
50
-270.00014324
51
-179.99985676
0
ARC
8
BLACK
10
287.8999989999999798
20
-63.6000009999999989
40
0.39999900000125
50
-180.00014324
51
-89.99985676
0
ARC
8
BLACK
10
301.0999999999999659
20
-50.3999999999999986
40
0.4
50
0.00000000
51
90.00000000
0
ARC
8
BLACK
10
301.0999999999999659
20
-63.5999999999999943
40
0.4
50
-90.00000000
51
-0.00000000
0
LINE
8
BLACK
6
CONTINUOUS
10
273.25
20
-12.3999999999999986
11
273.25
21
-25.5999999999999979
0
LINE
8
BLACK
6
CONTINUOUS
10
273.6499999999999773
20
-12.
11
286.8499999999999659
21
-12.
0
LINE
8
BLACK
6
CONTINUOUS
10
273.6499999999999773
20
-26.
11
286.8499999999999659
21
-26.
0
LINE
8
BLACK
6
CONTINUOUS
10
287.25
20
-12.3999999999999986
11
287.25
21
-25.5999999999999979
0
ARC
8
BLACK
10
273.6499989999999798
20
-12.3999989999999993
40
0.39999900000125
50
-270.00014324
51
-179.99985676
0
ARC
8
BLACK
10
273.6499989999999798
20
-25.6000009999999989
40
0.39999900000125
50
-180.00014324
51
-89.99985676
0
ARC
8
BLACK
10
286.8499999999999659
20
-12.3999999999999986
40
0.4
50
0.00000000
51
90.00000000
0
ARC
8
BLACK
10
286.8499999999999659
20
-25.5999999999999979
40
0.4
50
-90.00000000
51
-0.00000000
0
LINE
8
BLACK
6
CONTINUOUS
10
221.
20
6.5999999999999996
11
221.
21
-6.5999999999999996
0
LINE
8
BLACK
6
CONTINUOUS
10
221.3999999999999773
20
7.
11
234.5999999999999943
21
7.
0
LINE
8
BLACK
6
CONTINUOUS
10
221.3999999999999773
20
-7.
11
234.5999999999999943
21
-7.
0
LINE
8
BLACK
6
CONTINUOUS
10
235.
20
6.5999999999999996
11
235.
21
-6.5999999999999996
0
ARC
8
BLACK
10
221.3999989999999798
20
6.6000009999999998
40
0.39999900000125
50
-270.00014324
51
-179.99985676
0
ARC
8
BLACK
10
221.3999989999999798
20
-6.6000009999999998
40
0.39999900000125
50
-180.00014324
51
-89.99985676
0
ARC
8
BLACK
10
234.5999999999999943
20
6.5999999999999996
40
0.4
50
0.00000000
51
90.00000000
0
ARC
8
BLACK
10
234.5999999999999943
20
-6.5999999999999996
40
0.4
50
-90.00000000
51
-0.00000000
0
LINE
8
BLACK
6
CONTINUOUS
10
212.5
20
-69.3999999999999915
11
212.5
21
-82.5999999999999943
0
LINE
8
BLACK
6
CONTINUOUS
10
212.8999999999999773
20
-69.
11
226.0999999999999943
21
-69.
0
LINE
8
BLACK
6
CONTINUOUS
10
212.8999999999999773
20
-83.
11
226.0999999999999943
21
-83.
0
LINE
8
BLACK
6
CONTINUOUS
10
226.5
20
-69.3999999999999915
11
226.5
21
-82.5999999999999943
0
ARC
8
BLACK
10
212.8999989999999798
20
-69.399998999999994
40
0.39999900000125
50
-270.00014324
51
-179.99985676
0
ARC
8
BLACK
10
212.8999989999999798
20
-82.6000009999999918
40
0.39999900000125
50
-180.00014324
51
-89.99985676
0
ARC
8
BLACK
10
226.0999999999999943
20
-69.3999999999999915
40
0.4
50
0.00000000
51
90.00000000
0
ARC
8
BLACK
10
226.0999999999999943
20
-82.5999999999999943
40
0.4
50
-90.00000000
51
-0.00000000
0
LINE
8
BLACK
6
CONTINUOUS
10
59.5
20
-12.3999999999999986
11
59.5
21
-25.5999999999999979
0
LINE
8
BLACK
6
CONTINUOUS
10
59.8999999999999986
20
-12.
11
73.0999999999999943
21
-12.
0
LINE
8
BLACK
6
CONTINUOUS
10
59.8999999999999986
20
-26.
11
73.0999999999999943
21
-26.
0
LINE
8
BLACK
6
CONTINUOUS
10
73.5
20
-12.3999999999999986
11
73.5
21
-25.5999999999999979
0
ARC
8
BLACK
10
59.899998999999994
20
-12.3999989999999993
40
0.39999900000125
50
-270.00014324
51
-179.99985676
0
ARC
8
BLACK
10
59.899998999999994
20
-25.6000009999999989
40
0.39999900000125
50
-180.00014324
51
-89.99985676
0
ARC
8
BLACK
10
73.0999999999999943
20
-12.3999999999999986
40
0.4
50
0.00000000
51
90.00000000
0
ARC
8
BLACK
10
73.0999999999999943
20
-25.5999999999999979
40
0.4
50
-90.00000000
51
-0.00000000
0
LINE
8
BLACK
6
CONTINUOUS
10
187.75
20
-50.3999999999999986
11
187.75
21
-63.5999999999999943
0
LINE
8
BLACK
6
CONTINUOUS
10
188.1500000000000057
20
-50.
11
201.3499999999999943
21
-50.
0
LINE
8
BLACK
6
CONTINUOUS
10
188.1500000000000057
20
-64.
11
201.3499999999999943
21
-64.
0
LINE
8
BLACK
6
CONTINUOUS
10
201.75
20
-50.3999999999999986
11
201.75
21
-63.5999999999999943
0
ARC
8
BLACK
10
188.1499989999999798
20
-50.3999990000000011
40
0.39999900000125
50
-270.00014324
51
-179.99985676
0
ARC
8
BLACK
10
188.1499989999999798
20
-63.6000009999999989
40
0.39999900000125
50
-180.00014324
51
-89.99985676
0
ARC
8
BLACK
10
201.3499999999999943
20
-50.3999999999999986
40
0.4
50
0.00000000
51
90.00000000
0
ARC
8
BLACK
10
201.3499999999999943
20
-63.5999999999999943
40
0.4
50
-90.00000000
51
-0.00000000
0
LINE
8
BLACK
6
CONTINUOUS
10
197.25
20
-31.3999999999999986
11
197.25
21
-44.6000000000000014
0
LINE
8
BLACK
6
CONTINUOUS
10
197.6499999999999773
20
-31.
11
210.8499999999999943
21
-31.
0
LINE
8
BLACK
6
CONTINUOUS
10
197.6499999999999773
20
-45.
11
210.8499999999999943
21
-45.
0
LINE
8
BLACK
6
CONTINUOUS
10
211.25
20
-31.3999999999999986
11
211.25
21
-44.6000000000000014
0
ARC
8
BLACK
10
197.6499989999999798
20
-31.3999989999999976
40
0.39999900000125
50
-270.00014324
51
-179.99985676
0
ARC
8
BLACK
10
197.6499989999999798
20
-44.6000009999999989
40
0.39999900000125
50
-180.00014324
51
-89.99985676
0
ARC
8
BLACK
10
210.8499999999999943
20
-31.3999999999999986
40
0.4
50
0.00000000
51
90.00000000
0
ARC
8
BLACK
10
210.8499999999999943
20
-44.6000000000000014
40
0.4
50
-90.00000000
51
-0.00000000
0
LINE
8
BLACK
6
CONTINUOUS
10
31.
20
6.5999999999999996
11
31.
21
-6.5999999999999996
0
LINE
8
BLACK
6
CONTINUOUS
10
31.3999999999999986
20
7.
11
44.6000000000000014
21
7.
0
LINE
8
BLACK
6
CONTINUOUS
10
31.3999999999999986
20
-7.
11
44.6000000000000014
21
-7.
0
LINE
8
BLACK
6
CONTINUOUS
10
45.
20
6.5999999999999996
11
45.
21
-6.5999999999999996
0
ARC
8
BLACK
10
31.3999989999999976
20
6.6000009999999998
40
0.39999900000125
50
-270.00014324
51
-179.99985676
0
ARC
8
BLACK
10
31.3999989999999976
20
-6.6000009999999998
40
0.39999900000125
50
-180.00014324
51
-89.99985676
0
ARC
8
BLACK
10
44.6000000000000014
20
6.5999999999999996
40
0.4
50
0.00000000
51
90.00000000
0
ARC
8
BLACK
10
44.6000000000000014
20
-6.5999999999999996
40
0.4
50
-90.00000000
51
-0.00000000
0
LINE
8
BLACK
6
CONTINUOUS
10
173.5
20
-12.3999999999999986
11
173.5
21
-25.5999999999999979
0
LINE
8
BLACK
6
CONTINUOUS
10
173.9000000000000057
20
-12.
11
187.0999999999999943
21
-12.
0
LINE
8
BLACK
6
CONTINUOUS
10
173.9000000000000057
20
-26.
11
187.0999999999999943
21
-26.
0
LINE
8
BLACK
6
CONTINUOUS
10
187.5
20
-12.3999999999999986
11
187.5
21
-25.5999999999999979
0
ARC
8
BLACK
10
173.8999989999999798
20
-12.3999989999999993
40
0.39999900000125
50
-270.00014324
51
-179.99985676
0
ARC
8
BLACK
10
173.8999989999999798
20
-25.6000009999999989
40
0.39999900000125
50
-180.00014324
51
-89.99985676
0
ARC
8
BLACK
10
187.0999999999999943
20
-12.3999999999999986
40
0.4
50
0.00000000
51
90.00000000
0
ARC
8
BLACK
10
187.0999999999999943
20
-25.5999999999999979
40
0.4
50
-90.00000000
51
-0.00000000
0
LINE
8
BLACK
6
CONTINUOUS
10
27.625
20
-69.3999999999999915
11
27.625
21
-82.5999999999999943
0
LINE
8
BLACK
6
CONTINUOUS
10
28.0249999999999986
20
-69.
11
41.2250000000000014
21
-69.
0
LINE
8
BLACK
6
CONTINUOUS
10
28.0249999999999986
20
-83.
11
41.2250000000000014
21
-83.
0
LINE
8
BLACK
6
CONTINUOUS
10
41.625
20
-69.3999999999999915
11
41.625
21
-82.5999999999999943
0
ARC
8
BLACK
10
28.0249989999999976
20
-69.399998999999994
40
0.39999900000125
50
-270.00014324
51
-179.99985676
0
ARC
8
BLACK
10
28.0249989999999976
20
-82.6000009999999918
40
0.39999900000125
50
-180.00014324
51
-89.99985676
0
ARC
8
BLACK
10
41.2250000000000014
20
-69.3999999999999915
40
0.4
50
0.00000000
51
90.00000000
0
ARC
8
BLACK
10
41.2250000000000014
20
-82.5999999999999943
40
0.4
50
-90.00000000
51
-0.00000000
0
LINE
8
BLACK
6
CONTINUOUS
10
92.75
20
-50.3999999999999986
11
92.75
21
-63.5999999999999943
0
LINE
8
BLACK
6
CONTINUOUS
10
93.1499999999999915
20
-50.
11
106.3499999999999943
21
-50.
0
LINE
8
BLACK
6
CONTINUOUS
10
93.1499999999999915
20
-64.
11
106.3499999999999943
21
-64.
0
LINE
8
BLACK
6
CONTINUOUS
10
106.75
20
-50.3999999999999986
11
106.75
21
-63.5999999999999943
0
ARC
8
BLACK
10
93.149998999999994
20
-50.3999990000000011
40
0.39999900000125
50
-270.00014324
51
-179.99985676
0
ARC
8
BLACK
10
93.149998999999994
20
-63.6000009999999989
40
0.39999900000125
50
-180.00014324
51
-89.99985676
0
ARC
8
BLACK
10
106.3499999999999943
20
-50.3999999999999986
40
0.4
50
0.00000000
51
90.00000000
0
ARC
8
BLACK
10
106.3499999999999943
20
-63.5999999999999943
40
0.4
50
-90.00000000
51
-0.00000000
0
LINE
8
BLACK
6
CONTINUOUS
10
211.5
20
-12.3999999999999986
11
211.5
21
-25.5999999999999979
0
LINE
8
BLACK
6
CONTINUOUS
10
211.8999999999999773
20
-12.
11
225.0999999999999943
21
-12.
0
LINE
8
BLACK
6
CONTINUOUS
10
211.8999999999999773
20
-26.
11
225.0999999999999943
21
-26.
0
LINE
8
BLACK
6
CONTINUOUS
10
225.5
20
-12.3999999999999986
11
225.5
21
-25.5999999999999979
0
ARC
8
BLACK
10
211.8999989999999798
20
-12.3999989999999993
40
0.39999900000125
50
-270.00014324
51
-179.99985676
0
ARC
8
BLACK
10
211.8999989999999798
20
-25.6000009999999989
40
0.39999900000125
50
-180.00014324
51
-89.99985676
0
ARC
8
BLACK
10
225.0999999999999943
20
-12.3999999999999986
40
0.4
50
0.00000000
51
90.00000000
0
ARC
8
BLACK
10
225.0999999999999943
20
-25.5999999999999979
40
0.4
50
-90.00000000
51
-0.00000000
0
LINE
8
BLACK
6
CONTINUOUS
10
88.
20
6.5999999999999996
11
88.
21
-6.5999999999999996
0
LINE
8
BLACK
6
CONTINUOUS
10
88.3999999999999915
20
7.
11
101.5999999999999943
21
7.
0
LINE
8
BLACK
6
CONTINUOUS
10
88.3999999999999915
20
-7.
11
101.5999999999999943
21
-7.
0
LINE
8
BLACK
6
CONTINUOUS
10
102.
20
6.5999999999999996
11
102.
21
-6.5999999999999996
0
ARC
8
BLACK
10
88.399998999999994
20
6.6000009999999998
40
0.39999900000125
50
-270.00014324
51
-179.99985676
0
ARC
8
BLACK
10
88.399998999999994
20
-6.6000009999999998
40
0.39999900000125
50
-180.00014324
51
-89.99985676
0
ARC
8
BLACK
10
101.5999999999999943
20
6.5999999999999996
40
0.4
50
0.00000000
51
90.00000000
0
ARC
8
BLACK
10
101.5999999999999943
20
-6.5999999999999996
40
0.4
50
-90.00000000
51
-0.00000000
0
LINE
8
BLACK
6
CONTINUOUS
10
130.75
20
-69.3999999999999915
11
130.75
21
-82.5999999999999943
0
LINE
8
BLACK
6
CONTINUOUS
10
131.1500000000000057
20
-69.
11
144.3499999999999943
21
-69.
0
LINE
8
BLACK
6
CONTINUOUS
10
131.1500000000000057
20
-83.
11
144.3499999999999943
21
-83.
0
LINE
8
BLACK
6
CONTINUOUS
10
144.75
20
-69.3999999999999915
11
144.75
21
-82.5999999999999943
0
ARC
8
BLACK
10
131.1499990000000082
20
-69.399998999999994
40
0.39999900000125
50
-270.00014324
51
-179.99985676
0
ARC
8
BLACK
10
131.1499990000000082
20
-82.6000009999999918
40
0.39999900000125
50
-180.00014324
51
-89.99985676
0
ARC
8
BLACK
10
144.3499999999999943
20
-69.3999999999999915
40
0.4
50
0.00000000
51
90.00000000
0
ARC
8
BLACK
10
144.3499999999999943
20
-82.5999999999999943
40
0.4
50
-90.00000000
51
-0.00000000
0
LINE
8
BLACK
6
CONTINUOUS
10
145.
20
6.5999999999999996
11
145.
21
-6.5999999999999996
0
LINE
8
BLACK
6
CONTINUOUS
10
145.4000000000000057
20
7.
11
158.5999999999999943
21
7.
0
LINE
8
BLACK
6
CONTINUOUS
10
145.4000000000000057
20
-7.
11
158.5999999999999943
21
-7.
0
LINE
8
BLACK
6
CONTINUOUS
10
159.
20
6.5999999999999996
11
159.
21
-6.5999999999999996
0
ARC
8
BLACK
10
145.3999989999999798
20
6.6000009999999998
40
0.39999900000125
50
-270.00014324
51
-179.99985676
0
ARC
8
BLACK
10
145.3999989999999798
20
-6.6000009999999998
40
0.39999900000125
50
-180.00014324
51
-89.99985676
0
ARC
8
BLACK
10
158.5999999999999943
20
6.5999999999999996
40
0.4
50
0.00000000
51
90.00000000
0
ARC
8
BLACK
10
158.5999999999999943
20
-6.5999999999999996
40
0.4
50
-90.00000000
51
-0.00000000
0
LINE
8
BLACK
6
CONTINUOUS
10
54.75
20
-50.3999999999999986
11
54.75
21
-63.5999999999999943
0
LINE
8
BLACK
6
CONTINUOUS
10
55.1499999999999986
20
-50.
11
68.3499999999999943
21
-50.
0
LINE
8
BLACK
6
CONTINUOUS
10
55.1499999999999986
20
-64.
11
68.3499999999999943
21
-64.
0
LINE
8
BLACK
6
CONTINUOUS
10
68.75
20
-50.3999999999999986
11
68.75
21
-63.5999999999999943
0
ARC
8
BLACK
10
55.149998999999994
20
-50.3999990000000011
40
0.39999900000125
50
-270.00014324
51
-179.99985676
0
ARC
8
BLACK
10
55.149998999999994
20
-63.6000009999999989
40
0.39999900000125
50
-180.00014324
51
-89.99985676
0
ARC
8
BLACK
10
68.3499999999999943
20
-50.3999999999999986
40
0.4
50
0.00000000
51
90.00000000
0
ARC
8
BLACK
10
68.3499999999999943
20
-63.5999999999999943
40
0.4
50
-90.00000000
51
-0.00000000
0
LINE
8
BLACK
6
CONTINUOUS
10
233.875
20
-69.3999999999999915
11
233.875
21
-82.5999999999999943
0
LINE
8
BLACK
6
CONTINUOUS
10
234.2749999999999773
20
-69.
11
247.4749999999999943
21
-69.
0
LINE
8
BLACK
6
CONTINUOUS
10
234.2749999999999773
20
-83.
11
247.4749999999999943
21
-83.
0
LINE
8
BLACK
6
CONTINUOUS
10
247.875
20
-69.3999999999999915
11
247.875
21
-82.5999999999999943
0
ARC
8
BLACK
10
234.2749989999999798
20
-69.399998999999994
40
0.39999900000125
50
-270.00014324
51
-179.99985676
0
ARC
8
BLACK
10
234.2749989999999798
20
-82.6000009999999918
40
0.39999900000125
50
-180.00014324
51
-89.99985676
0
ARC
8
BLACK
10
247.4749999999999943
20
-69.3999999999999915
40
0.4
50
0.00000000
51
90.00000000
0
ARC
8
BLACK
10
247.4749999999999943
20
-82.5999999999999943
40
0.4
50
-90.00000000
51
-0.00000000
0
LINE
8
BLACK
6
CONTINUOUS
10
178.25
20
-31.3999999999999986
11
178.25
21
-44.6000000000000014
0
LINE
8
BLACK
6
CONTINUOUS
10
178.6500000000000057
20
-31.
11
191.8499999999999943
21
-31.
0
LINE
8
BLACK
6
CONTINUOUS
10
178.6500000000000057
20
-45.
11
191.8499999999999943
21
-45.
0
LINE
8
BLACK
6
CONTINUOUS
10
192.25
20
-31.3999999999999986
11
192.25
21
-44.6000000000000014
0
ARC
8
BLACK
10
178.6499989999999798
20
-31.3999989999999976
40
0.39999900000125
50
-270.00014324
51
-179.99985676
0
ARC
8
BLACK
10
178.6499989999999798
20
-44.6000009999999989
40
0.39999900000125
50
-180.00014324
51
-89.99985676
0
ARC
8
BLACK
10
191.8499999999999943
20
-31.3999999999999986
40
0.4
50
0.00000000
51
90.00000000
0
ARC
8
BLACK
10
191.8499999999999943
20
-44.6000000000000014
40
0.4
50
-90.00000000
51
-0.00000000
0
LINE
8
BLACK
6
CONTINUOUS
10
16.75
20
-12.3999999999999986
11
16.75
21
-25.5999999999999979
0
LINE
8
BLACK
6
CONTINUOUS
10
17.1499999999999986
20
-12.
11
30.3499999999999979
21
-12.
0
LINE
8
BLACK
6
CONTINUOUS
10
17.1499999999999986
20
-26.
11
30.3499999999999979
21
-26.
0
LINE
8
BLACK
6
CONTINUOUS
10
30.75
20
-12.3999999999999986
11
30.75
21
-25.5999999999999979
0
ARC
8
BLACK
10
17.1499989999999976
20
-12.3999989999999993
40
0.39999900000125
50
-270.00014324
51
-179.99985676
0
ARC
8
BLACK
10
17.1499989999999976
20
-25.6000009999999989
40
0.39999900000125
50
-180.00014324
51
-89.99985676
0
ARC
8
BLACK
10
30.3499999999999979
20
-12.3999999999999986
40
0.4
50
0.00000000
51
90.00000000
0
ARC
8
BLACK
10
30.3499999999999979
20
-25.5999999999999979
40
0.4
50
-90.00000000
51
-0.00000000
0
LINE
8
BLACK
6
CONTINUOUS
10
4.875
20
-31.3999999999999986
11
4.875
21
-44.6000000000000014
0
LINE
8
BLACK
6
CONTINUOUS
10
5.2749999999999995
20
-31.
11
18.4749999999999979
21
-31.
0
LINE
8
BLACK
6
CONTINUOUS
10
5.2749999999999995
20
-45.
11
18.4749999999999979
21
-45.
0
LINE
8
BLACK
6
CONTINUOUS
10
18.875
20
-31.3999999999999986
11
18.875
21
-44.6000000000000014
0
ARC
8
BLACK
10
5.2749989999999993
20
-31.3999989999999976
40
0.39999900000125
50
-270.00014324
51
-179.99985676
0
ARC
8
BLACK
10
5.2749989999999993
20
-44.6000009999999989
40
0.39999900000125
50
-180.00014324
51
-89.99985676
0
ARC
8
BLACK
10
18.4749999999999979
20
-31.3999999999999986
40
0.4
50
0.00000000
51
90.00000000
0
ARC
8
BLACK
10
18.4749999999999979
20
-44.6000000000000014
40
0.4
50
-90.00000000
51
-0.00000000
0
LINE
8
BLACK
6
CONTINUOUS
10
183.
20
6.5999999999999996
11
183.
21
-6.5999999999999996
0
LINE
8
BLACK
6
CONTINUOUS
10
183.4000000000000057
20
7.
11
196.5999999999999943
21
7.
0
LINE
8
BLACK
6
CONTINUOUS
10
183.4000000000000057
20
-7.
11
196.5999999999999943
21
-7.
0
LINE
8
BLACK
6
CONTINUOUS
10
197.
20
6.5999999999999996
11
197.
21
-6.5999999999999996
0
ARC
8
BLACK
10
183.3999989999999798
20
6.6000009999999998
40
0.39999900000125
50
-270.00014324
51
-179.99985676
0
ARC
8
BLACK
10
183.3999989999999798
20
-6.6000009999999998
40
0.39999900000125
50
-180.00014324
51
-89.99985676
0
ARC
8
BLACK
10
196.5999999999999943
20
6.5999999999999996
40
0.4
50
0.00000000
51
90.00000000
0
ARC
8
BLACK
10
196.5999999999999943
20
-6.5999999999999996
40
0.4
50
-90.00000000
51
-0.00000000
0
LINE
8
BLACK
6
CONTINUOUS
10
28.625
20
-50.3999999999999986
11
28.625
21
-63.5999999999999943
0
LINE
8
BLACK
6
CONTINUOUS
10
29.0249999999999986
20
-50.
11
42.2250000000000014
21
-50.
0
LINE
8
BLACK
6
CONTINUOUS
10
29.0249999999999986
20
-64.
11
42.2250000000000014
21
-64.
0
LINE
8
BLACK
6
CONTINUOUS
10
42.625
20
-50.3999999999999986
11
42.625
21
-63.5999999999999943
0
ARC
8
BLACK
10
29.0249989999999976
20
-50.3999990000000011
40
0.39999900000125
50
-270.00014324
51
-179.99985676
0
ARC
8
BLACK
10
29.0249989999999976
20
-63.6000009999999989
40
0.39999900000125
50
-180.00014324
51
-89.99985676
0
ARC
8
BLACK
10
42.2250000000000014
20
-50.3999999999999986
40
0.4
50
0.00000000
51
90.00000000
0
ARC
8
BLACK
10
42.2250000000000014
20
-63.5999999999999943
40
0.4
50
-90.00000000
51
-0.00000000
0
LINE
8
BLACK
6
CONTINUOUS
10
45.25
20
-31.3999999999999986
11
45.25
21
-44.6000000000000014
0
LINE
8
BLACK
6
CONTINUOUS
10
45.6499999999999986
20
-31.
11
58.8499999999999943
21
-31.
0
LINE
8
BLACK
6
CONTINUOUS
10
45.6499999999999986
20
-45.
11
58.8499999999999943
21
-45.
0
LINE
8
BLACK
6
CONTINUOUS
10
59.25
20
-31.3999999999999986
11
59.25
21
-44.6000000000000014
0
ARC
8
BLACK
10
45.6499990000000011
20
-31.3999989999999976
40
0.39999900000125
50
-270.00014324
51
-179.99985676
0
ARC
8
BLACK
10
45.6499990000000011
20
-44.6000009999999989
40
0.39999900000125
50
-180.00014324
51
-89.99985676
0
ARC
8
BLACK
10
58.8499999999999943
20
-31.3999999999999986
40
0.4
50
0.00000000
51
90.00000000
0
ARC
8
BLACK
10
58.8499999999999943
20
-44.6000000000000014
40
0.4
50
-90.00000000
51
-0.00000000
0
LINE
8
BLACK
6
CONTINUOUS
10
235.25
20
-31.3999999999999986
11
235.25
21
-44.6000000000000014
0
LINE
8
BLACK
6
CONTINUOUS
10
235.6499999999999773
20
-31.
11
248.8499999999999943
21
-31.
0
LINE
8
BLACK
6
CONTINUOUS
10
235.6499999999999773
20
-45.
11
248.8499999999999943
21
-45.
0
LINE
8
BLACK
6
CONTINUOUS
10
249.25
20
-31.3999999999999986
11
249.25
21
-44.6000000000000014
0
ARC
8
BLACK
10
235.6499989999999798
20
-31.3999989999999976
40
0.39999900000125
50
-270.00014324
51
-179.99985676
0
ARC
8
BLACK
10
235.6499989999999798
20
-44.6000009999999989
40
0.39999900000125
50
-180.00014324
51
-89.99985676
0
ARC
8
BLACK
10
248.8499999999999943
20
-31.3999999999999986
40
0.4
50
0.00000000
51
90.00000000
0
ARC
8
BLACK
10
248.8499999999999943
20
-44.6000000000000014
40
0.4
50
-90.00000000
51
-0.00000000
0
LINE
8
BLACK
6
CONTINUOUS
10
26.25
20
-31.3999999999999986
11
26.25
21
-44.6000000000000014
0
LINE
8
BLACK
6
CONTINUOUS
10
26.6499999999999986
20
-31.
11
39.8500000000000014
21
-31.
0
LINE
8
BLACK
6
CONTINUOUS
10
26.6499999999999986
20
-45.
11
39.8500000000000014
21
-45.
0
LINE
8
BLACK
6
CONTINUOUS
10
40.25
20
-31.3999999999999986
11
40.25
21
-44.6000000000000014
0
ARC
8
BLACK
10
26.6499989999999976
20
-31.3999989999999976
40
0.39999900000125
50
-270.00014324
51
-179.99985676
0
ARC
8
BLACK
10
26.6499989999999976
20
-44.6000009999999989
40
0.39999900000125
50
-180.00014324
51
-89.99985676
0
ARC
8
BLACK
10
39.8500000000000014
20
-31.3999999999999986
40
0.4
50
0.00000000
51
90.00000000
0
ARC
8
BLACK
10
39.8500000000000014
20
-44.6000000000000014
40
0.4
50
-90.00000000
51
-0.00000000
0
LINE
8
BLACK
6
CONTINUOUS
10
273.25
20
-31.3999999999999986
11
273.25
21
-44.6000000000000014
0
LINE
8
BLACK
6
CONTINUOUS
10
273.6499999999999773
20
-31.
11
286.8499999999999659
21
-31.
0
LINE
8
BLACK
6
CONTINUOUS
10
273.6499999999999773
20
-45.
11
286.8499999999999659
21
-45.
0
LINE
8
BLACK
6
CONTINUOUS
10
287.25
20
-31.3999999999999986
11
287.25
21
-44.6000000000000014
0
ARC
8
BLACK
10
273.6499989999999798
20
-31.3999989999999976
40
0.39999900000125
50
-270.00014324
51
-179.99985676
0
ARC
8
BLACK
10
273.6499989999999798
20
-44.6000009999999989
40
0.39999900000125
50
-180.00014324
51
-89.99985676
0
ARC
8
BLACK
10
286.8499999999999659
20
-31.3999999999999986
40
0.4
50
0.00000000
51
90.00000000
0
ARC
8
BLACK
10
286.8499999999999659
20
-44.6000000000000014
40
0.4
50
-90.00000000
51
-0.00000000
0
LINE
8
BLACK
6
CONTINUOUS
10
116.5
20
-12.3999999999999986
11
116.5
21
-25.5999999999999979
0
LINE
8
BLACK
6
CONTINUOUS
10
116.8999999999999915
20
-12.
11
130.0999999999999943
21
-12.
0
LINE
8
BLACK
6
CONTINUOUS
10
116.8999999999999915
20
-26.
11
130.0999999999999943
21
-26.
0
LINE
8
BLACK
6
CONTINUOUS
10
130.5
20
-12.3999999999999986
11
130.5
21
-25.5999999999999979
0
ARC
8
BLACK
10
116.899998999999994
20
-12.3999989999999993
40
0.39999900000125
50
-270.00014324
51
-179.99985676
0
ARC
8
BLACK
10
116.899998999999994
20
-25.6000009999999989
40
0.39999900000125
50
-180.00014324
51
-89.99985676
0
ARC
8
BLACK
10
130.0999999999999943
20
-12.3999999999999986
40
0.4
50
0.00000000
51
90.00000000
0
ARC
8
BLACK
10
130.0999999999999943
20
-25.5999999999999979
40
0.4
50
-90.00000000
51
-0.00000000
0
LINE
8
BLACK
6
CONTINUOUS
10
151.7220669999999814
20
-80.7402629999999988
11
153.5005720000000053
21
-85.6266650000000027
0
LINE
8
BLACK
6
CONTINUOUS
10
153.2648189999999886
20
-88.6921699999999902
11
157.779484999999994
21
-101.0961119999999909
0
LINE
8
BLACK
6
CONTINUOUS
10
153.5038879999999892
20
-88.1794849999999997
11
159.7058590000000038
21
-85.922151999999997
0
LINE
8
BLACK
6
CONTINUOUS
10
159.0218189999999936
20
-84.0427660000000003
11
154.0132569999999816
21
-85.8657339999999891
0
LINE
8
BLACK
6
CONTINUOUS
10
159.7058590000000038
20
-85.922151999999997
11
159.0218189999999936
21
-84.0427660000000003
0
LINE
8
BLACK
6
CONTINUOUS
10
159.9305509999999799
20
-103.2928859999999958
11
161.7090550000000064
21
-108.1792879999999997
0
LINE
8
BLACK
6
CONTINUOUS
10
161.8671520000000044
20
-85.1355049999999949
11
161.1831119999999942
21
-83.2561199999999957
0
LINE
8
BLACK
6
CONTINUOUS
10
162.955539999999985
20
-76.2259420000000034
11
151.961135999999982
21
-80.2275779999999941
0
LINE
8
BLACK
6
CONTINUOUS
10
164.0667599999999879
20
-78.1094729999999942
11
163.4682249999999897
21
-76.4650109999999898
0
LINE
8
BLACK
6
CONTINUOUS
10
164.4941409999999848
20
-99.0778479999999888
11
158.2921699999999987
21
-101.3351809999999915
0
LINE
8
BLACK
6
CONTINUOUS
10
165.0076609999999846
20
-81.8640979999999985
11
161.1831119999999942
21
-83.2561199999999957
0
LINE
8
BLACK
6
CONTINUOUS
10
165.1286139999999989
20
-77.7229899999999958
11
164.0667599999999879
21
-78.1094729999999942
0
LINE
8
BLACK
6
CONTINUOUS
10
165.178180999999995
20
-100.9572339999999997
11
160.1696199999999806
21
-102.780200999999991
0
LINE
8
BLACK
6
CONTINUOUS
10
165.178180999999995
20
-100.9572339999999997
11
164.4941409999999848
21
-99.0778479999999888
0
LINE
8
BLACK
6
CONTINUOUS
10
165.2467299999999852
20
-81.3514129999999938
11
164.6481939999999895
21
-79.7069509999999894
0
LINE
8
BLACK
6
CONTINUOUS
10
165.6412980000000061
20
-77.9620599999999939
11
165.9491160000000036
21
-78.8077830000000006
0
LINE
8
BLACK
6
CONTINUOUS
10
165.7100460000000055
20
-79.3204679999999911
11
164.6481939999999895
21
-79.7069509999999894
0
LINE
8
BLACK
6
CONTINUOUS
10
165.9078299999999899
20
-83.6648189999999943
11
161.8671520000000044
21
-85.1355049999999949
0
LINE
8
BLACK
6
CONTINUOUS
10
166.4205149999999946
20
-83.9038879999999949
11
170.935181
21
-96.3078299999999956
0
LINE
8
BLACK
6
CONTINUOUS
10
167.3394739999999956
20
-100.1705869999999976
11
166.6554339999999854
21
-98.2912019999999984
0
LINE
8
BLACK
6
CONTINUOUS
10
170.6961119999999994
20
-96.8205150000000003
11
166.6554339999999854
21
-98.2912019999999984
0
LINE
8
BLACK
6
CONTINUOUS
10
171.164022999999986
20
-98.7785650000000004
11
167.3394739999999956
21
-100.1705869999999976
0
LINE
8
BLACK
6
CONTINUOUS
10
172.2752439999999865
20
-100.6620959999999911
11
171.6767079999999908
21
-99.017634000000001
0
LINE
8
BLACK
6
CONTINUOUS
10
173.2161439999999857
20
-104.4167209999999955
11
162.2217399999999827
21
-108.4183570000000003
0
LINE
8
BLACK
6
CONTINUOUS
10
173.3370960000000025
20
-100.2756139999999903
11
172.2752439999999865
21
-100.6620959999999911
0
LINE
8
BLACK
6
CONTINUOUS
10
173.4552129999999863
20
-103.9040359999999907
11
172.8566779999999881
21
-102.2595740000000006
0
LINE
8
BLACK
6
CONTINUOUS
10
173.8497799999999813
20
-100.5146829999999909
11
174.1576000000000022
21
-101.3604059999999976
0
LINE
8
BLACK
6
CONTINUOUS
10
173.9185310000000015
20
-101.8730910000000023
11
172.8566779999999881
21
-102.2595740000000006
0
ARC
8
BLACK
10
152.0979429999999866
20
-80.6034549999999967
40
0.3999989952987382
50
-250.00013995
51
-159.99995636
0
ARC
8
BLACK
10
153.6406939999999963
20
-88.5553609999999907
40
0.3999983976292905
50
-250.00022556
51
-159.99977277
0
ARC
8
BLACK
10
153.8764500000000055
20
-85.4898549999999915
40
0.4000014723597902
50
-159.99978514
51
-70.00023793
0
ARC
8
BLACK
10
158.1553619999999967
20
-100.9593039999999888
40
0.3999999349912447
50
-160.00000535
51
-70.00000535
0
ARC
8
BLACK
10
160.3064279999999826
20
-103.1560779999999937
40
0.3999999349912447
50
-250.00000535
51
-160.00000535
0
ARC
8
BLACK
10
162.0849319999999807
20
-108.0424799999999976
40
0.3999999349912447
50
-160.00000535
51
-70.00000535
0
ARC
8
BLACK
10
163.092347999999987
20
-76.6018179999999944
40
0.3999989952987382
50
19.99986005
51
110.00004364
0
ARC
8
BLACK
10
165.2654220000000009
20
-78.098866000000001
40
0.3999983976292905
50
19.99977444
51
110.00022723
0
ARC
8
BLACK
10
164.87085399999998
20
-81.4882219999999933
40
0.399999337320701
50
-70.00009096
51
20.00017824
0
ARC
8
BLACK
10
166.0446389999999894
20
-84.040694000000002
40
0.3999983976292905
50
19.99977444
51
110.00022723
0
ARC
8
BLACK
10
165.5732399999999984
20
-78.9445910000000026
40
0.3999989952987382
50
-70.00027455
51
20.00004364
0
ARC
8
BLACK
10
170.5593039999999974
20
-96.4446379999999976
40
0.3999999349912447
50
-70.00000535
51
19.99999465
0
ARC
8
BLACK
10
171.3008309999999881
20
-99.1544419999999889
40
0.3999999349912447
50
19.99999465
51
109.99999465
0
ARC
8
BLACK
10
173.4739040000000045
20
-100.6514909999999929
40
0.3999999349912447
50
20.00004364
51
109.99999465
0
ARC
8
BLACK
10
173.0793359999999836
20
-104.0408439999999928
40
0.3999999349912447
50
-70.00000535
51
19.99999465
0
ARC
8
BLACK
10
173.781722000000002
20
-101.4972139999999996
40
0.4000008746840436
50
-69.99987075
51
19.99994566
0
LINE
8
BLACK
6
CONTINUOUS
10
268.5
20
-50.3999999999999986
11
268.5
21
-63.5999999999999943
0
LINE
8
BLACK
6
CONTINUOUS
10
268.8999999999999773
20
-50.
11
282.0999999999999659
21
-50.
0
LINE
8
BLACK
6
CONTINUOUS
10
268.8999999999999773
20
-64.
11
282.0999999999999659
21
-64.
0
LINE
8
BLACK
6
CONTINUOUS
10
282.5
20
-50.3999999999999986
11
282.5
21
-63.5999999999999943
0
ARC
8
BLACK
10
268.8999989999999798
20
-50.3999990000000011
40
0.39999900000125
50
-270.00014324
51
-179.99985676
0
ARC
8
BLACK
10
268.8999989999999798
20
-63.6000009999999989
40
0.39999900000125
50
-180.00014324
51
-89.99985676
0
ARC
8
BLACK
10
282.0999999999999659
20
-50.3999999999999986
40
0.4
50
0.00000000
51
90.00000000
0
ARC
8
BLACK
10
282.0999999999999659
20
-63.5999999999999943
40
0.4
50
-90.00000000
51
-0.00000000
0
LINE
8
BLACK
6
CONTINUOUS
10
126.
20
6.5999999999999996
11
126.
21
-6.5999999999999996
0
LINE
8
BLACK
6
CONTINUOUS
10
126.3999999999999915
20
7.
11
139.5999999999999943
21
7.
0
LINE
8
BLACK
6
CONTINUOUS
10
126.3999999999999915
20
-7.
11
139.5999999999999943
21
-7.
0
LINE
8
BLACK
6
CONTINUOUS
10
140.
20
6.5999999999999996
11
140.
21
-6.5999999999999996
0
ARC
8
BLACK
10
126.399998999999994
20
6.6000009999999998
40
0.39999900000125
50
-270.00014324
51
-179.99985676
0
ARC
8
BLACK
10
126.399998999999994
20
-6.6000009999999998
40
0.39999900000125
50
-180.00014324
51
-89.99985676
0
ARC
8
BLACK
10
139.5999999999999943
20
6.5999999999999996
40
0.4
50
0.00000000
51
90.00000000
0
ARC
8
BLACK
10
139.5999999999999943
20
-6.5999999999999996
40
0.4
50
-90.00000000
51
-0.00000000
0
LINE
8
BLACK
6
CONTINUOUS
10
168.75
20
-50.3999999999999986
11
168.75
21
-63.5999999999999943
0
LINE
8
BLACK
6
CONTINUOUS
10
169.1500000000000057
20
-50.
11
182.3499999999999943
21
-50.
0
LINE
8
BLACK
6
CONTINUOUS
10
169.1500000000000057
20
-64.
11
182.3499999999999943
21
-64.
0
LINE
8
BLACK
6
CONTINUOUS
10
182.75
20
-50.3999999999999986
11
182.75
21
-63.5999999999999943
0
ARC
8
BLACK
10
169.1499989999999798
20
-50.3999990000000011
40
0.39999900000125
50
-270.00014324
51
-179.99985676
0
ARC
8
BLACK
10
169.1499989999999798
20
-63.6000009999999989
40
0.39999900000125
50
-180.00014324
51
-89.99985676
0
ARC
8
BLACK
10
182.3499999999999943
20
-50.3999999999999986
40
0.4
50
0.00000000
51
90.00000000
0
ARC
8
BLACK
10
182.3499999999999943
20
-63.5999999999999943
40
0.4
50
-90.00000000
51
-0.00000000
0
LINE
8
BLACK
6
CONTINUOUS
10
154.5
20
-12.3999999999999986
11
154.5
21
-25.5999999999999979
0
LINE
8
BLACK
6
CONTINUOUS
10
154.9000000000000057
20
-12.
11
168.0999999999999943
21
-12.
0
LINE
8
BLACK
6
CONTINUOUS
10
154.9000000000000057
20
-26.
11
168.0999999999999943
21
-26.
0
LINE
8
BLACK
6
CONTINUOUS
10
168.5
20
-12.3999999999999986
11
168.5
21
-25.5999999999999979
0
ARC
8
BLACK
10
154.8999989999999798
20
-12.3999989999999993
40
0.39999900000125
50
-270.00014324
51
-179.99985676
0
ARC
8
BLACK
10
154.8999989999999798
20
-25.6000009999999989
40
0.39999900000125
50
-180.00014324
51
-89.99985676
0
ARC
8
BLACK
10
168.0999999999999943
20
-12.3999999999999986
40
0.4
50
0.00000000
51
90.00000000
0
ARC
8
BLACK
10
168.0999999999999943
20
-25.5999999999999979
40
0.4
50
-90.00000000
51
-0.00000000
0
LINE
8
BLACK
6
CONTINUOUS
10
240.
20
6.5999999999999996
11
240.
21
-6.5999999999999996
0
LINE
8
BLACK
6
CONTINUOUS
10
240.3999999999999773
20
7.
11
253.5999999999999943
21
7.
0
LINE
8
BLACK
6
CONTINUOUS
10
240.3999999999999773
20
-7.
11
253.5999999999999943
21
-7.
0
LINE
8
BLACK
6
CONTINUOUS
10
254.
20
6.5999999999999996
11
254.
21
-6.5999999999999996
0
ARC
8
BLACK
10
240.3999989999999798
20
6.6000009999999998
40
0.39999900000125
50
-270.00014324
51
-179.99985676
0
ARC
8
BLACK
10
240.3999989999999798
20
-6.6000009999999998
40
0.39999900000125
50
-180.00014324
51
-89.99985676
0
ARC
8
BLACK
10
253.5999999999999943
20
6.5999999999999996
40
0.4
50
0.00000000
51
90.00000000
0
ARC
8
BLACK
10
253.5999999999999943
20
-6.5999999999999996
40
0.4
50
-90.00000000
51
-0.00000000
0
LINE
8
BLACK
6
CONTINUOUS
10
202.
20
6.5999999999999996
11
202.
21
-6.5999999999999996
0
LINE
8
BLACK
6
CONTINUOUS
10
202.3999999999999773
20
7.
11
215.5999999999999943
21
7.
0
LINE
8
BLACK
6
CONTINUOUS
10
202.3999999999999773
20
-7.
11
215.5999999999999943
21
-7.
0
LINE
8
BLACK
6
CONTINUOUS
10
216.
20
6.5999999999999996
11
216.
21
-6.5999999999999996
0
ARC
8
BLACK
10
202.3999989999999798
20
6.6000009999999998
40
0.39999900000125
50
-270.00014324
51
-179.99985676
0
ARC
8
BLACK
10
202.3999989999999798
20
-6.6000009999999998
40
0.39999900000125
50
-180.00014324
51
-89.99985676
0
ARC
8
BLACK
10
215.5999999999999943
20
6.5999999999999996
40
0.4
50
0.00000000
51
90.00000000
0
ARC
8
BLACK
10
215.5999999999999943
20
-6.5999999999999996
40
0.4
50
-90.00000000
51
-0.00000000
0
LINE
8
BLACK
6
CONTINUOUS
10
64.25
20
-31.3999999999999986
11
64.25
21
-44.6000000000000014
0
LINE
8
BLACK
6
CONTINUOUS
10
64.6499999999999915
20
-31.
11
77.8499999999999943
21
-31.
0
LINE
8
BLACK
6
CONTINUOUS
10
64.6499999999999915
20
-45.
11
77.8499999999999943
21
-45.
0
LINE
8
BLACK
6
CONTINUOUS
10
78.25
20
-31.3999999999999986
11
78.25
21
-44.6000000000000014
0
ARC
8
BLACK
10
64.649998999999994
20
-31.3999989999999976
40
0.39999900000125
50
-270.00014324
51
-179.99985676
0
ARC
8
BLACK
10
64.649998999999994
20
-44.6000009999999989
40
0.39999900000125
50
-180.00014324
51
-89.99985676
0
ARC
8
BLACK
10
77.8499999999999943
20
-31.3999999999999986
40
0.4
50
0.00000000
51
90.00000000
0
ARC
8
BLACK
10
77.8499999999999943
20
-44.6000000000000014
40
0.4
50
-90.00000000
51
-0.00000000
0
LINE
8
BLACK
6
CONTINUOUS
10
0.125
20
-50.3999999999999986
11
0.125
21
-63.5999999999999943
0
LINE
8
BLACK
6
CONTINUOUS
10
0.525
20
-50.
11
13.7249999999999996
21
-50.
0
LINE
8
BLACK
6
CONTINUOUS
10
0.525
20
-64.
11
13.7249999999999996
21
-64.
0
LINE
8
BLACK
6
CONTINUOUS
10
14.125
20
-50.3999999999999986
11
14.125
21
-63.5999999999999943
0
ARC
8
BLACK
10
0.524999
20
-50.3999990000000011
40
0.39999900000125
50
-270.00014324
51
-179.99985676
0
ARC
8
BLACK
10
0.524999
20
-63.6000009999999989
40
0.39999900000125
50
-180.00014324
51
-89.99985676
0
ARC
8
BLACK
10
13.7249999999999996
20
-50.3999999999999986
40
0.4
50
0.00000000
51
90.00000000
0
ARC
8
BLACK
10
13.7249999999999996
20
-63.5999999999999943
40
0.4
50
-90.00000000
51
-0.00000000
0
LINE
8
BLACK
6
CONTINUOUS
10
225.75
20
-50.3999999999999986
11
225.75
21
-63.5999999999999943
0
LINE
8
BLACK
6
CONTINUOUS
10
226.1499999999999773
20
-50.
11
239.3499999999999943
21
-50.
0
LINE
8
BLACK
6
CONTINUOUS
10
226.1499999999999773
20
-64.
11
239.3499999999999943
21
-64.
0
LINE
8
BLACK
6
CONTINUOUS
10
239.75
20
-50.3999999999999986
11
239.75
21
-63.5999999999999943
0
ARC
8
BLACK
10
226.1499989999999798
20
-50.3999990000000011
40
0.39999900000125
50
-270.00014324
51
-179.99985676
0
ARC
8
BLACK
10
226.1499989999999798
20
-63.6000009999999989
40
0.39999900000125
50
-180.00014324
51
-89.99985676
0
ARC
8
BLACK
10
239.3499999999999943
20
-50.3999999999999986
40
0.4
50
0.00000000
51
90.00000000
0
ARC
8
BLACK
10
239.3499999999999943
20
-63.5999999999999943
40
0.4
50
-90.00000000
51
-0.00000000
0
LINE
8
BLACK
6
CONTINUOUS
10
254.25
20
-31.3999999999999986
11
254.25
21
-44.6000000000000014
0
LINE
8
BLACK
6
CONTINUOUS
10
254.6499999999999773
20
-31.
11
267.8499999999999659
21
-31.
0
LINE
8
BLACK
6
CONTINUOUS
10
254.6499999999999773
20
-45.
11
267.8499999999999659
21
-45.
0
LINE
8
BLACK
6
CONTINUOUS
10
268.25
20
-31.3999999999999986
11
268.25
21
-44.6000000000000014
0
ARC
8
BLACK
10
254.6499989999999798
20
-31.3999989999999976
40
0.39999900000125
50
-270.00014324
51
-179.99985676
0
ARC
8
BLACK
10
254.6499989999999798
20
-44.6000009999999989
40
0.39999900000125
50
-180.00014324
51
-89.99985676
0
ARC
8
BLACK
10
267.8499999999999659
20
-31.3999999999999986
40
0.4
50
0.00000000
51
90.00000000
0
ARC
8
BLACK
10
267.8499999999999659
20
-44.6000000000000014
40
0.4
50
-90.00000000
51
-0.00000000
0
LINE
8
BLACK
6
CONTINUOUS
10
107.
20
6.5999999999999996
11
107.
21
-6.5999999999999996
0
LINE
8
BLACK
6
CONTINUOUS
10
107.3999999999999915
20
7.
11
120.5999999999999943
21
7.
0
LINE
8
BLACK
6
CONTINUOUS
10
107.3999999999999915
20
-7.
11
120.5999999999999943
21
-7.
0
LINE
8
BLACK
6
CONTINUOUS
10
121.
20
6.5999999999999996
11
121.
21
-6.5999999999999996
0
ARC
8
BLACK
10
107.399998999999994
20
6.6000009999999998
40
0.39999900000125
50
-270.00014324
51
-179.99985676
0
ARC
8
BLACK
10
107.399998999999994
20
-6.6000009999999998
40
0.39999900000125
50
-180.00014324
51
-89.99985676
0
ARC
8
BLACK
10
120.5999999999999943
20
6.5999999999999996
40
0.4
50
0.00000000
51
90.00000000
0
ARC
8
BLACK
10
120.5999999999999943
20
-6.5999999999999996
40
0.4
50
-90.00000000
51
-0.00000000
0
LINE
8
BLACK
6
CONTINUOUS
10
97.5
20
-12.3999999999999986
11
97.5
21
-25.5999999999999979
0
LINE
8
BLACK
6
CONTINUOUS
10
97.8999999999999915
20
-12.
11
111.0999999999999943
21
-12.
0
LINE
8
BLACK
6
CONTINUOUS
10
97.8999999999999915
20
-26.
11
111.0999999999999943
21
-26.
0
LINE
8
BLACK
6
CONTINUOUS
10
111.5
20
-12.3999999999999986
11
111.5
21
-25.5999999999999979
0
ARC
8
BLACK
10
97.899998999999994
20
-12.3999989999999993
40
0.39999900000125
50
-270.00014324
51
-179.99985676
0
ARC
8
BLACK
10
97.899998999999994
20
-25.6000009999999989
40
0.39999900000125
50
-180.00014324
51
-89.99985676
0
ARC
8
BLACK
10
111.0999999999999943
20
-12.3999999999999986
40
0.4
50
0.00000000
51
90.00000000
0
ARC
8
BLACK
10
111.0999999999999943
20
-25.5999999999999979
40
0.4
50
-90.00000000
51
-0.00000000
0
LINE
8
BLACK
6
CONTINUOUS
10
192.5
20
-12.3999999999999986
11
192.5
21
-25.5999999999999979
0
LINE
8
BLACK
6
CONTINUOUS
10
192.8999999999999773
20
-12.
11
206.0999999999999943
21
-12.
0
LINE
8
BLACK
6
CONTINUOUS
10
192.8999999999999773
20
-26.
11
206.0999999999999943
21
-26.
0
LINE
8
BLACK
6
CONTINUOUS
10
206.5
20
-12.3999999999999986
11
206.5
21
-25.5999999999999979
0
ARC
8
BLACK
10
192.8999989999999798
20
-12.3999989999999993
40
0.39999900000125
50
-270.00014324
51
-179.99985676
0
ARC
8
BLACK
10
192.8999989999999798
20
-25.6000009999999989
40
0.39999900000125
50
-180.00014324
51
-89.99985676
0
ARC
8
BLACK
10
206.0999999999999943
20
-12.3999999999999986
40
0.4
50
0.00000000
51
90.00000000
0
ARC
8
BLACK
10
206.0999999999999943
20
-25.5999999999999979
40
0.4
50
-90.00000000
51
-0.00000000
0
LINE
8
BLACK
6
CONTINUOUS
10
69.
20
6.5999999999999996
11
69.
21
-6.5999999999999996
0
LINE
8
BLACK
6
CONTINUOUS
10
69.3999999999999915
20
7.
11
82.5999999999999943
21
7.
0
LINE
8
BLACK
6
CONTINUOUS
10
69.3999999999999915
20
-7.
11
82.5999999999999943
21
-7.
0
LINE
8
BLACK
6
CONTINUOUS
10
83.
20
6.5999999999999996
11
83.
21
-6.5999999999999996
0
ARC
8
BLACK
10
69.399998999999994
20
6.6000009999999998
40
0.39999900000125
50
-270.00014324
51
-179.99985676
0
ARC
8
BLACK
10
69.399998999999994
20
-6.6000009999999998
40
0.39999900000125
50
-180.00014324
51
-89.99985676
0
ARC
8
BLACK
10
82.5999999999999943
20
6.5999999999999996
40
0.4
50
0.00000000
51
90.00000000
0
ARC
8
BLACK
10
82.5999999999999943
20
-6.5999999999999996
40
0.4
50
-90.00000000
51
-0.00000000
0
LINE
8
BLACK
6
CONTINUOUS
10
164.
20
6.5999999999999996
11
164.
21
-6.5999999999999996
0
LINE
8
BLACK
6
CONTINUOUS
10
164.4000000000000057
20
7.
11
177.5999999999999943
21
7.
0
LINE
8
BLACK
6
CONTINUOUS
10
164.4000000000000057
20
-7.
11
177.5999999999999943
21
-7.
0
LINE
8
BLACK
6
CONTINUOUS
10
178.
20
6.5999999999999996
11
178.
21
-6.5999999999999996
0
ARC
8
BLACK
10
164.3999989999999798
20
6.6000009999999998
40
0.39999900000125
50
-270.00014324
51
-179.99985676
0
ARC
8
BLACK
10
164.3999989999999798
20
-6.6000009999999998
40
0.39999900000125
50
-180.00014324
51
-89.99985676
0
ARC
8
BLACK
10
177.5999999999999943
20
6.5999999999999996
40
0.4
50
0.00000000
51
90.00000000
0
ARC
8
BLACK
10
177.5999999999999943
20
-6.5999999999999996
40
0.4
50
-90.00000000
51
-0.00000000
0
LINE
8
BLACK
6
CONTINUOUS
10
102.25
20
-31.3999999999999986
11
102.25
21
-44.6000000000000014
0
LINE
8
BLACK
6
CONTINUOUS
10
102.6499999999999915
20
-31.
11
115.8499999999999943
21
-31.
0
LINE
8
BLACK
6
CONTINUOUS
10
102.6499999999999915
20
-45.
11
115.8499999999999943
21
-45.
0
LINE
8
BLACK
6
CONTINUOUS
10
116.25
20
-31.3999999999999986
11
116.25
21
-44.6000000000000014
0
ARC
8
BLACK
10
102.649998999999994
20
-31.3999989999999976
40
0.39999900000125
50
-270.00014324
51
-179.99985676
0
ARC
8
BLACK
10
102.649998999999994
20
-44.6000009999999989
40
0.39999900000125
50
-180.00014324
51
-89.99985676
0
ARC
8
BLACK
10
115.8499999999999943
20
-31.3999999999999986
40
0.4
50
0.00000000
51
90.00000000
0
ARC
8
BLACK
10
115.8499999999999943
20
-44.6000000000000014
40
0.4
50
-90.00000000
51
-0.00000000
0
LINE
8
BLACK
6
CONTINUOUS
10
78.5
20
-12.3999999999999986
11
78.5
21
-25.5999999999999979
0
LINE
8
BLACK
6
CONTINUOUS
10
78.8999999999999915
20
-12.
11
92.0999999999999943
21
-12.
0
LINE
8
BLACK
6
CONTINUOUS
10
78.8999999999999915
20
-26.
11
92.0999999999999943
21
-26.
0
LINE
8
BLACK
6
CONTINUOUS
10
92.5
20
-12.3999999999999986
11
92.5
21
-25.5999999999999979
0
ARC
8
BLACK
10
78.899998999999994
20
-12.3999989999999993
40
0.39999900000125
50
-270.00014324
51
-179.99985676
0
ARC
8
BLACK
10
78.899998999999994
20
-25.6000009999999989
40
0.39999900000125
50
-180.00014324
51
-89.99985676
0
ARC
8
BLACK
10
92.0999999999999943
20
-12.3999999999999986
40
0.4
50
0.00000000
51
90.00000000
0
ARC
8
BLACK
10
92.0999999999999943
20
-25.5999999999999979
40
0.4
50
-90.00000000
51
-0.00000000
0
LINE
8
BLACK
6
CONTINUOUS
10
230.5
20
-12.3999999999999986
11
230.5
21
-25.5999999999999979
0
LINE
8
BLACK
6
CONTINUOUS
10
230.8999999999999773
20
-12.
11
244.0999999999999943
21
-12.
0
LINE
8
BLACK
6
CONTINUOUS
10
230.8999999999999773
20
-26.
11
244.0999999999999943
21
-26.
0
LINE
8
BLACK
6
CONTINUOUS
10
244.5
20
-12.3999999999999986
11
244.5
21
-25.5999999999999979
0
ARC
8
BLACK
10
230.8999989999999798
20
-12.3999989999999993
40
0.39999900000125
50
-270.00014324
51
-179.99985676
0
ARC
8
BLACK
10
230.8999989999999798
20
-25.6000009999999989
40
0.39999900000125
50
-180.00014324
51
-89.99985676
0
ARC
8
BLACK
10
244.0999999999999943
20
-12.3999999999999986
40
0.4
50
0.00000000
51
90.00000000
0
ARC
8
BLACK
10
244.0999999999999943
20
-25.5999999999999979
40
0.4
50
-90.00000000
51
-0.00000000
0
LINE
8
BLACK
6
CONTINUOUS
10
292.25
20
-31.3999999999999986
11
292.25
21
-44.6000000000000014
0
LINE
8
BLACK
6
CONTINUOUS
10
292.6499999999999773
20
-31.
11
305.8499999999999659
21
-31.
0
LINE
8
BLACK
6
CONTINUOUS
10
292.6499999999999773
20
-45.
11
305.8499999999999659
21
-45.
0
LINE
8
BLACK
6
CONTINUOUS
10
306.25
20
-31.3999999999999986
11
306.25
21
-44.6000000000000014
0
ARC
8
BLACK
10
292.6499989999999798
20
-31.3999989999999976
40
0.39999900000125
50
-270.00014324
51
-179.99985676
0
ARC
8
BLACK
10
292.6499989999999798
20
-44.6000009999999989
40
0.39999900000125
50
-180.00014324
51
-89.99985676
0
ARC
8
BLACK
10
305.8499999999999659
20
-31.3999999999999986
40
0.4
50
0.00000000
51
90.00000000
0
ARC
8
BLACK
10
305.8499999999999659
20
-44.6000000000000014
40
0.4
50
-90.00000000
51
-0.00000000
  0
ENDSEC
  0
EOF
