  0
SECTION
  2
HEADER
  9
$ANGBASE
  50
0.0
  9
$ANGDIR
  70
1
  9
$MEASUREMENT
  70
1
  0
ENDSEC
  0
SECTION
  2
TABLES
  0
TABLE
  2
LTYPE
  70
4
  0
LTYPE
  5
40F
  2
CONTINUOUS
  70
0
  3
Solid line
  72
65
  73
0
  40
0.0
  0
LTYPE
  5
410
  2
DASHDOT
 70
0
  3
Dash Dot ____ _ ____ _
 72
65
 73
4
 40
2.0
 49
1.25
 49
-0.25
 49
0.25
 49
-0.25
  0
LTYPE
  5
411
  2
DASHED
 70
0
  3
Dashed __ __ __ __ __
 72
65
 73
2
 40
0.75
 49
0.5
 49
-0.25
  0
LTYPE
  5
43B
  2
DOTTED
 70
0
  3
Dotted .  .  .  .
 72
65
 73
2
 40
0.2
 49
0.0
 49
-0.2
  0
ENDTAB
  0
TABLE
  2
STYLE
  70
4
  0
STYLE
  2
KICAD
  70
0
  40
0
  41
1
  42
1
  50
0
  71
0
  3
isocp.shx
  0
STYLE
  2
KICADB
  70
0
  40
0
  41
1
  42
1
  50
0
  71
0
  3
isocp.shx
  0
STYLE
  2
KICADI
  70
0
  40
0
  41
1
  42
1
  50
15
  71
0
  3
isocp.shx
  0
STYLE
  2
KICADBI
  70
0
  40
0
  41
1
  42
1
  50
15
  71
0
  3
isocp.shx
  0
ENDTAB
  0
TABLE
  2
LAYER
  70
1
  0
LAYER
  2
BLACK
  70
0
  62
7
  6
CONTINUOUS
  0
ENDTAB
  0
ENDSEC
  0
SECTION
  2
ENTITIES
0
ARC
8
BLACK
10
282.75
20
-127.5
40
12.
50
0.00000000
51
90.00000000
0
LINE
8
BLACK
6
CONTINUOUS
10
213.75
20
-115.5
11
282.75
21
-115.5
0
ARC
8
BLACK
10
213.75
20
-127.5
40
12.
50
90.00000000
51
180.00000000
0
LINE
8
BLACK
6
CONTINUOUS
10
201.75
20
-168.5
11
201.75
21
-127.5
0
ARC
8
BLACK
10
213.75
20
-168.5
40
12.
50
-180.00000000
51
-90.00000000
0
LINE
8
BLACK
6
CONTINUOUS
10
282.75
20
-180.5
11
213.75
21
-180.5
0
ARC
8
BLACK
10
282.75
20
-168.5
40
12.
50
-90.00000000
51
-0.00000000
0
LINE
8
BLACK
6
CONTINUOUS
10
294.75
20
-127.5
11
294.75
21
-168.5
0
ARC
8
BLACK
10
61.75
20
-127.5
40
12.
50
0.00000000
51
90.00000000
0
LINE
8
BLACK
6
CONTINUOUS
10
-2.25
20
-115.5
11
61.75
21
-115.5
0
ARC
8
BLACK
10
-2.2500019999999998
20
-127.4999979999999908
40
11.9999980000001649
50
-270.00000955
51
-179.99999045
0
LINE
8
BLACK
6
CONTINUOUS
10
-14.25
20
-168.5
11
-14.25
21
-127.5
0
ARC
8
BLACK
10
-2.2500019999999998
20
-168.500001999999995
40
11.9999980000001649
50
-180.00000955
51
-89.99999045
0
LINE
8
BLACK
6
CONTINUOUS
10
61.75
20
-180.5
11
-2.25
21
-180.5
0
ARC
8
BLACK
10
61.75
20
-168.5
40
12.
50
-90.00000000
51
-0.00000000
0
LINE
8
BLACK
6
CONTINUOUS
10
73.75
20
-127.5
11
73.75
21
-168.5
0
ARC
8
BLACK
10
208.3688999999999965
20
-85.5668999999999897
40
1.9998970723647254
50
-70.00290283
51
20.00054624
0
LINE
8
BLACK
6
CONTINUOUS
10
204.7977520000000027
20
-69.9079789999999974
11
210.2481819999999857
21
-84.8828769999999935
0
ARC
8
BLACK
10
203.858099999999979
20
-70.25
40
1.0000000008404999
50
20.00084217
51
90.00234913
0
LINE
8
BLACK
6
CONTINUOUS
10
200.7469679999999812
20
-69.25
11
203.8580589999999972
21
-69.25
0
ARC
8
BLACK
10
200.7467000000000041
20
-70.2490999999999985
40
0.9990906898179964
50
89.98463090
51
110.00304285
0
LINE
8
BLACK
6
CONTINUOUS
10
169.4644279999999981
20
-80.5717329999999947
11
200.4049409999999796
21
-69.3102799999999917
0
ARC
8
BLACK
10
169.122399999999999
20
-79.6320999999999941
40
0.9999466623140455
50
-160.00165950
51
-69.99840856
0
LINE
8
BLACK
6
CONTINUOUS
10
165.1695489999999893
20
-71.6954789999999917
11
168.1827219999999841
21
-79.9740839999999906
0
ARC
8
BLACK
10
164.2298999999999864
20
-72.037399999999991
40
0.9999212044326292
50
19.99551655
51
110.00193949
0
LINE
8
BLACK
6
CONTINUOUS
10
149.0920199999999909
20
-76.4830570000000023
11
163.8878749999999798
21
-71.0977929999999958
0
ARC
8
BLACK
10
148.75
20
-75.5433999999999912
40
0.9999664784626532
50
-180.00194806
51
-69.99930966
0
LINE
8
BLACK
6
CONTINUOUS
10
147.75
20
-67.75
11
147.75
21
-75.5433659999999918
0
ARC
8
BLACK
10
148.75
20
-67.75
40
1.
50
90.00000000
51
180.00000000
0
LINE
8
BLACK
6
CONTINUOUS
10
212.5
20
-66.75
11
148.75
21
-66.75
0
ARC
8
BLACK
10
212.5
20
-67.75
40
1.
50
0.00000000
51
90.00000000
0
LINE
8
BLACK
6
CONTINUOUS
10
213.5
20
-84.
11
213.5
21
-67.75
0
ARC
8
BLACK
10
215.5
20
-84.
40
2.
50
-180.00000000
51
-90.00000000
0
LINE
8
BLACK
6
CONTINUOUS
10
223.25
20
-86.
11
215.5
21
-86.
0
ARC
8
BLACK
10
67.2060999999999922
20
-85.5668999999999897
40
1.9999383902560597
50
-200.00054624
51
-109.99709717
0
LINE
8
BLACK
6
CONTINUOUS
10
70.7772480000000002
20
-69.9079789999999974
11
65.3268180000000029
21
-84.8828769999999935
0
ARC
8
BLACK
10
71.7168999999999954
20
-70.25
40
0.9999621220551306
50
89.99765087
51
159.99915783
0
LINE
8
BLACK
6
CONTINUOUS
10
74.8280309999999957
20
-69.25
11
71.7169409999999914
21
-69.25
0
ARC
8
BLACK
10
74.8282999999999987
20
-70.2490999999999985
40
0.9991000362130911
50
69.99706493
51
90.01542645
0
LINE
8
BLACK
6
CONTINUOUS
10
106.0443459999999902
20
-80.5476290000000006
11
75.1700569999999999
21
-69.3102799999999917
0
ARC
8
BLACK
10
106.3863999999999947
20
-79.6079999999999899
40
0.9999471597044515
50
-110.00306974
51
-19.99865421
0
LINE
8
BLACK
6
CONTINUOUS
10
110.3304509999999965
20
-71.6954789999999917
11
107.3260509999999925
21
-79.9499799999999965
0
ARC
8
BLACK
10
111.2700999999999993
20
-72.037399999999991
40
0.9999251039162883
50
69.99806051
51
160.00448345
0
LINE
8
BLACK
6
CONTINUOUS
10
126.4079799999999949
20
-76.4830570000000023
11
111.6121249999999918
21
-71.0977929999999958
0
ARC
8
BLACK
10
126.75
20
-75.5433999999999912
40
1.0000000005779999
50
-110.00069034
51
0.00194806
0
LINE
8
BLACK
6
CONTINUOUS
10
127.75
20
-67.75
11
127.75
21
-75.5433659999999918
0
ARC
8
BLACK
10
126.75
20
-67.75
40
1.
50
0.00000000
51
90.00000000
0
LINE
8
BLACK
6
CONTINUOUS
10
63.
20
-66.75
11
126.75
21
-66.75
0
ARC
8
BLACK
10
63.
20
-67.75
40
1.
50
90.00000000
51
180.00000000
0
LINE
8
BLACK
6
CONTINUOUS
10
62.
20
-84.
11
62.
21
-67.75
0
ARC
8
BLACK
10
60.
20
-84.
40
2.
50
-90.00000000
51
-0.00000000
0
LINE
8
BLACK
6
CONTINUOUS
10
52.25
20
-86.
11
60.
21
-86.
  0
ENDSEC
  0
EOF
