  0
SECTION
  2
HEADER
  9
$ANGBASE
  50
0.0
  9
$ANGDIR
  70
1
  9
$MEASUREMENT
  70
1
  0
ENDSEC
  0
SECTION
  2
TABLES
  0
TABLE
  2
LTYPE
  70
4
  0
LTYPE
  5
40F
  2
CONTINUOUS
  70
0
  3
Solid line
  72
65
  73
0
  40
0.0
  0
LTYPE
  5
410
  2
DASHDOT
 70
0
  3
Dash Dot ____ _ ____ _
 72
65
 73
4
 40
2.0
 49
1.25
 49
-0.25
 49
0.25
 49
-0.25
  0
LTYPE
  5
411
  2
DASHED
 70
0
  3
Dashed __ __ __ __ __
 72
65
 73
2
 40
0.75
 49
0.5
 49
-0.25
  0
LTYPE
  5
43B
  2
DOTTED
 70
0
  3
Dotted .  .  .  .
 72
65
 73
2
 40
0.2
 49
0.0
 49
-0.2
  0
ENDTAB
  0
TABLE
  2
STYLE
  70
4
  0
STYLE
  2
KICAD
  70
0
  40
0
  41
1
  42
1
  50
0
  71
0
  3
isocp.shx
  0
STYLE
  2
KICADB
  70
0
  40
0
  41
1
  42
1
  50
0
  71
0
  3
isocp.shx
  0
STYLE
  2
KICADI
  70
0
  40
0
  41
1
  42
1
  50
15
  71
0
  3
isocp.shx
  0
STYLE
  2
KICADBI
  70
0
  40
0
  41
1
  42
1
  50
15
  71
0
  3
isocp.shx
  0
ENDTAB
  0
TABLE
  2
LAYER
  70
1
  0
LAYER
  2
BLACK
  70
0
  62
7
  6
CONTINUOUS
  0
ENDTAB
  0
ENDSEC
  0
SECTION
  2
ENTITIES
0
CIRCLE
8
BLACK
10
165.9249999999999829
20
0.
40
0.95
0
CIRCLE
8
BLACK
10
171.
20
0.
40
2.6999999999999997
0
CIRCLE
8
BLACK
10
176.0749999999999886
20
0.
40
0.95
0
CIRCLE
8
BLACK
10
146.9249999999999829
20
0.
40
0.95
0
CIRCLE
8
BLACK
10
152.
20
0.
40
2.6999999999999997
0
CIRCLE
8
BLACK
10
157.0749999999999886
20
0.
40
0.95
0
CIRCLE
8
BLACK
10
214.4249999999999829
20
-76.
40
0.95
0
CIRCLE
8
BLACK
10
219.5
20
-76.
40
2.6999999999999997
0
CIRCLE
8
BLACK
10
224.5749999999999886
20
-76.
40
0.95
0
CIRCLE
8
BLACK
10
260.9250000000000114
20
0.
40
0.95
0
CIRCLE
8
BLACK
10
266.
20
0.
40
2.6999999999999997
0
CIRCLE
8
BLACK
10
271.0749999999999886
20
0.
40
0.95
0
CIRCLE
8
BLACK
10
156.4249999999999829
20
-19.
40
0.95
0
CIRCLE
8
BLACK
10
161.5
20
-19.
40
2.6999999999999997
0
CIRCLE
8
BLACK
10
166.5749999999999886
20
-19.
40
0.95
0
CIRCLE
8
BLACK
10
256.1750000000000114
20
-38.
40
0.95
0
CIRCLE
8
BLACK
10
261.25
20
-38.
40
2.6999999999999997
0
CIRCLE
8
BLACK
10
266.3249999999999886
20
-38.
40
0.95
0
CIRCLE
8
BLACK
10
184.9249999999999829
20
0.
40
0.95
0
CIRCLE
8
BLACK
10
190.
20
0.
40
2.6999999999999997
0
CIRCLE
8
BLACK
10
195.0749999999999886
20
0.
40
0.95
0
CIRCLE
8
BLACK
10
170.6749999999999829
20
-57.
40
0.95
0
CIRCLE
8
BLACK
10
175.75
20
-57.
40
2.6999999999999997
0
CIRCLE
8
BLACK
10
180.8249999999999886
20
-57.
40
0.95
0
CIRCLE
8
BLACK
10
289.4250000000000114
20
-57.
40
0.95
0
CIRCLE
8
BLACK
10
294.5
20
-57.
40
2.6999999999999997
0
CIRCLE
8
BLACK
10
299.5749999999999886
20
-57.
40
0.95
0
CIRCLE
8
BLACK
10
85.1749999999999972
20
-38.
40
0.95
0
CIRCLE
8
BLACK
10
90.25
20
-38.
40
2.6999999999999997
0
CIRCLE
8
BLACK
10
95.3249999999999886
20
-38.
40
0.95
0
CIRCLE
8
BLACK
10
161.1749999999999829
20
-38.
40
0.95
0
CIRCLE
8
BLACK
10
166.25
20
-38.
40
2.6999999999999997
0
CIRCLE
8
BLACK
10
171.3249999999999886
20
-38.
40
0.95
0
CIRCLE
8
BLACK
10
42.4249999999999972
20
-19.
40
0.95
0
CIRCLE
8
BLACK
10
47.5
20
-19.
40
2.6999999999999997
0
CIRCLE
8
BLACK
10
52.5749999999999957
20
-19.
40
0.95
0
CIRCLE
8
BLACK
10
251.4249999999999829
20
-19.
40
0.95
0
CIRCLE
8
BLACK
10
256.5
20
-19.
40
2.6999999999999997
0
CIRCLE
8
BLACK
10
261.5749999999999886
20
-19.
40
0.95
0
CIRCLE
8
BLACK
10
47.1749999999999972
20
-38.
40
0.95
0
CIRCLE
8
BLACK
10
52.25
20
-38.
40
2.6999999999999997
0
CIRCLE
8
BLACK
10
57.3249999999999957
20
-38.
40
0.95
0
CIRCLE
8
BLACK
10
80.4249999999999972
20
-19.
40
0.95
0
CIRCLE
8
BLACK
10
85.5
20
-19.
40
2.6999999999999997
0
CIRCLE
8
BLACK
10
90.5750000000000028
20
-19.
40
0.95
0
CIRCLE
8
BLACK
10
123.1749999999999972
20
-38.
40
0.95
0
CIRCLE
8
BLACK
10
128.25
20
-38.
40
2.6999999999999997
0
CIRCLE
8
BLACK
10
133.3249999999999886
20
-38.
40
0.95
0
CIRCLE
8
BLACK
10
70.9249999999999972
20
0.
40
0.95
0
CIRCLE
8
BLACK
10
76.
20
0.
40
2.6999999999999997
0
CIRCLE
8
BLACK
10
81.0750000000000028
20
0.
40
0.95
0
CIRCLE
8
BLACK
10
18.6750000000000007
20
-19.
40
0.95
0
CIRCLE
8
BLACK
10
23.75
20
-19.
40
2.6999999999999997
0
CIRCLE
8
BLACK
10
28.8249999999999993
20
-19.
40
0.95
0
CIRCLE
8
BLACK
10
294.1750000000000114
20
-38.
40
0.95
0
CIRCLE
8
BLACK
10
299.25
20
-38.
40
2.6999999999999997
0
CIRCLE
8
BLACK
10
304.3249999999999886
20
-38.
40
0.95
0
CIRCLE
8
BLACK
10
32.9249999999999972
20
0.
40
0.95
0
CIRCLE
8
BLACK
10
38.
20
0.
40
2.6999999999999997
0
CIRCLE
8
BLACK
10
43.0749999999999957
20
0.
40
0.95
0
CIRCLE
8
BLACK
10
118.4249999999999972
20
-19.
40
0.95
0
CIRCLE
8
BLACK
10
123.5
20
-19.
40
2.6999999999999997
0
CIRCLE
8
BLACK
10
128.5749999999999886
20
-19.
40
0.95
0
CIRCLE
8
BLACK
10
241.9249999999999829
20
0.
40
0.95
0
CIRCLE
8
BLACK
10
247.
20
0.
40
2.6999999999999997
0
CIRCLE
8
BLACK
10
252.0749999999999886
20
0.
40
0.95
0
CIRCLE
8
BLACK
10
151.6749999999999829
20
-57.
40
0.95
0
CIRCLE
8
BLACK
10
156.75
20
-57.
40
2.6999999999999997
0
CIRCLE
8
BLACK
10
161.8249999999999886
20
-57.
40
0.95
0
CIRCLE
8
BLACK
10
137.4249999999999829
20
-19.
40
0.95
0
CIRCLE
8
BLACK
10
142.5
20
-19.
40
2.6999999999999997
0
CIRCLE
8
BLACK
10
147.5749999999999886
20
-19.
40
0.95
0
CIRCLE
8
BLACK
10
99.4249999999999972
20
-19.
40
0.95
0
CIRCLE
8
BLACK
10
104.5
20
-19.
40
2.6999999999999997
0
CIRCLE
8
BLACK
10
109.5749999999999886
20
-19.
40
0.95
0
CIRCLE
8
BLACK
10
213.4249999999999829
20
-19.
40
0.95
0
CIRCLE
8
BLACK
10
218.5
20
-19.
40
2.6999999999999997
0
CIRCLE
8
BLACK
10
223.5749999999999886
20
-19.
40
0.95
0
CIRCLE
8
BLACK
10
199.1749999999999829
20
-38.
40
0.95
0
CIRCLE
8
BLACK
10
204.25
20
-38.
40
2.6999999999999997
0
CIRCLE
8
BLACK
10
209.3249999999999886
20
-38.
40
0.95
0
CIRCLE
8
BLACK
10
90.8310599999999937
20
-84.2642479999999949
40
0.95
0
CIRCLE
8
BLACK
10
95.5999999999999943
20
-86.
40
2.6999999999999997
0
CIRCLE
8
BLACK
10
100.3689399999999949
20
-87.7357519999999909
40
0.95
0
CIRCLE
8
BLACK
10
194.4249999999999829
20
-19.
40
0.95
0
CIRCLE
8
BLACK
10
199.5
20
-19.
40
2.6999999999999997
0
CIRCLE
8
BLACK
10
204.5749999999999886
20
-19.
40
0.95
0
CIRCLE
8
BLACK
10
237.1749999999999829
20
-38.
40
0.95
0
CIRCLE
8
BLACK
10
242.25
20
-38.
40
2.6999999999999997
0
CIRCLE
8
BLACK
10
247.3249999999999886
20
-38.
40
0.95
0
CIRCLE
8
BLACK
10
232.4249999999999829
20
-19.
40
0.95
0
CIRCLE
8
BLACK
10
237.5
20
-19.
40
2.6999999999999997
0
CIRCLE
8
BLACK
10
242.5749999999999886
20
-19.
40
0.95
0
CIRCLE
8
BLACK
10
275.1750000000000114
20
-38.
40
0.95
0
CIRCLE
8
BLACK
10
280.25
20
-38.
40
2.6999999999999997
0
CIRCLE
8
BLACK
10
285.3249999999999886
20
-38.
40
0.95
0
CIRCLE
8
BLACK
10
275.1750000000000114
20
-19.
40
0.95
0
CIRCLE
8
BLACK
10
280.25
20
-19.
40
2.6999999999999997
0
CIRCLE
8
BLACK
10
285.3249999999999886
20
-19.
40
0.95
0
CIRCLE
8
BLACK
10
142.1749999999999829
20
-38.
40
0.95
0
CIRCLE
8
BLACK
10
147.25
20
-38.
40
2.6999999999999997
0
CIRCLE
8
BLACK
10
152.3249999999999886
20
-38.
40
0.95
0
CIRCLE
8
BLACK
10
50.9249999999999972
20
-76.
40
0.95
0
CIRCLE
8
BLACK
10
56.
20
-76.
40
2.6999999999999997
0
CIRCLE
8
BLACK
10
61.0749999999999957
20
-76.
40
0.95
0
CIRCLE
8
BLACK
10
192.9810599999999852
20
-81.2357519999999909
40
0.95
0
CIRCLE
8
BLACK
10
197.75
20
-79.5
40
2.6999999999999997
0
CIRCLE
8
BLACK
10
202.5189399999999864
20
-77.7642479999999949
40
0.95
0
CIRCLE
8
BLACK
10
127.9249999999999972
20
0.
40
0.95
0
CIRCLE
8
BLACK
10
133.
20
0.
40
2.6999999999999997
0
CIRCLE
8
BLACK
10
138.0749999999999886
20
0.
40
0.95
0
CIRCLE
8
BLACK
10
270.4250000000000114
20
-57.
40
0.95
0
CIRCLE
8
BLACK
10
275.5
20
-57.
40
2.6999999999999997
0
CIRCLE
8
BLACK
10
280.5749999999999886
20
-57.
40
0.95
0
CIRCLE
8
BLACK
10
175.1310599999999909
20
-87.7357519999999909
40
0.95
0
CIRCLE
8
BLACK
10
179.9000000000000057
20
-86.
40
2.6999999999999997
0
CIRCLE
8
BLACK
10
184.6689399999999921
20
-84.2642479999999949
40
0.95
0
CIRCLE
8
BLACK
10
2.0499999999999998
20
-57.
40
0.95
0
CIRCLE
8
BLACK
10
7.125
20
-57.
40
2.6999999999999997
0
CIRCLE
8
BLACK
10
12.1999999999999993
20
-57.
40
0.95
0
CIRCLE
8
BLACK
10
94.6749999999999972
20
-57.
40
0.95
0
CIRCLE
8
BLACK
10
99.75
20
-57.
40
2.6999999999999997
0
CIRCLE
8
BLACK
10
104.8249999999999886
20
-57.
40
0.95
0
CIRCLE
8
BLACK
10
72.8560599999999994
20
-77.7642479999999949
40
0.95
0
CIRCLE
8
BLACK
10
77.625
20
-79.5
40
2.6999999999999997
0
CIRCLE
8
BLACK
10
82.3939400000000006
20
-81.2357519999999909
40
0.95
0
CIRCLE
8
BLACK
10
203.9249999999999829
20
0.
40
0.95
0
CIRCLE
8
BLACK
10
209.
20
0.
40
2.6999999999999997
0
CIRCLE
8
BLACK
10
214.0749999999999886
20
0.
40
0.95
0
CIRCLE
8
BLACK
10
30.5499999999999972
20
-57.
40
0.95
0
CIRCLE
8
BLACK
10
35.625
20
-57.
40
2.6999999999999997
0
CIRCLE
8
BLACK
10
40.6999999999999957
20
-57.
40
0.95
0
CIRCLE
8
BLACK
10
108.6310599999999909
20
-90.7642479999999949
40
0.95
0
CIRCLE
8
BLACK
10
113.3999999999999915
20
-92.5
40
2.6999999999999997
0
CIRCLE
8
BLACK
10
118.1689399999999921
20
-94.2357519999999909
40
0.95
0
CIRCLE
8
BLACK
10
56.6749999999999972
20
-57.
40
0.95
0
CIRCLE
8
BLACK
10
61.75
20
-57.
40
2.6999999999999997
0
CIRCLE
8
BLACK
10
66.8250000000000028
20
-57.
40
0.95
0
CIRCLE
8
BLACK
10
218.1749999999999829
20
-38.
40
0.95
0
CIRCLE
8
BLACK
10
223.25
20
-38.
40
2.6999999999999997
0
CIRCLE
8
BLACK
10
228.3249999999999886
20
-38.
40
0.95
0
CIRCLE
8
BLACK
10
61.4249999999999972
20
-19.
40
0.95
0
CIRCLE
8
BLACK
10
66.5
20
-19.
40
2.6999999999999997
0
CIRCLE
8
BLACK
10
71.5750000000000028
20
-19.
40
0.95
0
CIRCLE
8
BLACK
10
249.0499999999999829
20
-57.
40
0.95
0
CIRCLE
8
BLACK
10
254.125
20
-57.
40
2.6999999999999997
0
CIRCLE
8
BLACK
10
259.1999999999999886
20
-57.
40
0.95
0
CIRCLE
8
BLACK
10
5.7999999999999998
20
-76.
40
0.95
0
CIRCLE
8
BLACK
10
10.875
20
-76.
40
2.6999999999999997
0
CIRCLE
8
BLACK
10
15.9499999999999993
20
-76.
40
0.95
0
CIRCLE
8
BLACK
10
28.1749999999999972
20
-38.
40
0.95
0
CIRCLE
8
BLACK
10
33.25
20
-38.
40
2.6999999999999997
0
CIRCLE
8
BLACK
10
38.3249999999999957
20
-38.
40
0.95
0
CIRCLE
8
BLACK
10
157.3310599999999795
20
-94.2357519999999909
40
0.95
0
CIRCLE
8
BLACK
10
162.0999999999999943
20
-92.5
40
2.6999999999999997
0
CIRCLE
8
BLACK
10
166.8689399999999807
20
-90.7642479999999949
40
0.95
0
CIRCLE
8
BLACK
10
227.6749999999999829
20
-57.
40
0.95
0
CIRCLE
8
BLACK
10
232.75
20
-57.
40
2.6999999999999997
0
CIRCLE
8
BLACK
10
237.8249999999999886
20
-57.
40
0.95
0
CIRCLE
8
BLACK
10
51.9249999999999972
20
0.
40
0.95
0
CIRCLE
8
BLACK
10
57.
20
0.
40
2.6999999999999997
0
CIRCLE
8
BLACK
10
62.0749999999999957
20
0.
40
0.95
0
CIRCLE
8
BLACK
10
180.1749999999999829
20
-38.
40
0.95
0
CIRCLE
8
BLACK
10
185.25
20
-38.
40
2.6999999999999997
0
CIRCLE
8
BLACK
10
190.3249999999999886
20
-38.
40
0.95
0
CIRCLE
8
BLACK
10
113.6749999999999972
20
-57.
40
0.95
0
CIRCLE
8
BLACK
10
118.75
20
-57.
40
2.6999999999999997
0
CIRCLE
8
BLACK
10
123.8249999999999886
20
-57.
40
0.95
0
CIRCLE
8
BLACK
10
222.9249999999999829
20
0.
40
0.95
0
CIRCLE
8
BLACK
10
228.
20
0.
40
2.6999999999999997
0
CIRCLE
8
BLACK
10
233.0749999999999886
20
0.
40
0.95
0
CIRCLE
8
BLACK
10
66.1749999999999972
20
-38.
40
0.95
0
CIRCLE
8
BLACK
10
71.25
20
-38.
40
2.6999999999999997
0
CIRCLE
8
BLACK
10
76.3250000000000028
20
-38.
40
0.95
0
CIRCLE
8
BLACK
10
6.7999999999999998
20
-38.
40
0.95
0
CIRCLE
8
BLACK
10
11.875
20
-38.
40
2.6999999999999997
0
CIRCLE
8
BLACK
10
16.9499999999999993
20
-38.
40
0.95
0
CIRCLE
8
BLACK
10
13.9249999999999989
20
0.
40
0.95
0
CIRCLE
8
BLACK
10
19.
20
0.
40
2.6999999999999997
0
CIRCLE
8
BLACK
10
24.0749999999999993
20
0.
40
0.95
0
CIRCLE
8
BLACK
10
89.9249999999999972
20
0.
40
0.95
0
CIRCLE
8
BLACK
10
95.
20
0.
40
2.6999999999999997
0
CIRCLE
8
BLACK
10
100.0749999999999886
20
0.
40
0.95
0
CIRCLE
8
BLACK
10
175.4249999999999829
20
-19.
40
0.95
0
CIRCLE
8
BLACK
10
180.5
20
-19.
40
2.6999999999999997
0
CIRCLE
8
BLACK
10
185.5749999999999886
20
-19.
40
0.95
0
CIRCLE
8
BLACK
10
75.6749999999999972
20
-57.
40
0.95
0
CIRCLE
8
BLACK
10
80.75
20
-57.
40
2.6999999999999997
0
CIRCLE
8
BLACK
10
85.8250000000000028
20
-57.
40
0.95
0
CIRCLE
8
BLACK
10
132.6749999999999829
20
-76.
40
0.95
0
CIRCLE
8
BLACK
10
137.75
20
-76.
40
2.6999999999999997
0
CIRCLE
8
BLACK
10
142.8249999999999886
20
-76.
40
0.95
0
CIRCLE
8
BLACK
10
208.6749999999999829
20
-57.
40
0.95
0
CIRCLE
8
BLACK
10
213.75
20
-57.
40
2.6999999999999997
0
CIRCLE
8
BLACK
10
218.8249999999999886
20
-57.
40
0.95
0
CIRCLE
8
BLACK
10
104.1749999999999972
20
-38.
40
0.95
0
CIRCLE
8
BLACK
10
109.25
20
-38.
40
2.6999999999999997
0
CIRCLE
8
BLACK
10
114.3249999999999886
20
-38.
40
0.95
0
CIRCLE
8
BLACK
10
108.9249999999999972
20
0.
40
0.95
0
CIRCLE
8
BLACK
10
114.
20
0.
40
2.6999999999999997
0
CIRCLE
8
BLACK
10
119.0749999999999886
20
0.
40
0.95
0
CIRCLE
8
BLACK
10
29.5499999999999972
20
-76.
40
0.95
0
CIRCLE
8
BLACK
10
34.625
20
-76.
40
2.6999999999999997
0
CIRCLE
8
BLACK
10
39.6999999999999957
20
-76.
40
0.95
0
CIRCLE
8
BLACK
10
132.6749999999999829
20
-57.
40
0.95
0
CIRCLE
8
BLACK
10
137.75
20
-57.
40
2.6999999999999997
0
CIRCLE
8
BLACK
10
142.8249999999999886
20
-57.
40
0.95
0
CIRCLE
8
BLACK
10
235.7999999999999829
20
-76.
40
0.95
0
CIRCLE
8
BLACK
10
240.875
20
-76.
40
2.6999999999999997
0
CIRCLE
8
BLACK
10
245.9499999999999886
20
-76.
40
0.95
0
CIRCLE
8
BLACK
10
189.6749999999999829
20
-57.
40
0.95
0
CIRCLE
8
BLACK
10
194.75
20
-57.
40
2.6999999999999997
0
CIRCLE
8
BLACK
10
199.8249999999999886
20
-57.
40
0.95
0
CIRCLE
8
BLACK
10
279.9250000000000114
20
0.
40
0.95
0
CIRCLE
8
BLACK
10
285.
20
0.
40
2.6999999999999997
0
CIRCLE
8
BLACK
10
290.0749999999999886
20
0.
40
0.95
  0
ENDSEC
  0
EOF
