  0
SECTION
  2
HEADER
  9
$ANGBASE
  50
0.0
  9
$ANGDIR
  70
1
  9
$MEASUREMENT
  70
1
  0
ENDSEC
  0
SECTION
  2
TABLES
  0
TABLE
  2
LTYPE
  70
4
  0
LTYPE
  5
40F
  2
CONTINUOUS
  70
0
  3
Solid line
  72
65
  73
0
  40
0.0
  0
LTYPE
  5
410
  2
DASHDOT
 70
0
  3
Dash Dot ____ _ ____ _
 72
65
 73
4
 40
2.0
 49
1.25
 49
-0.25
 49
0.25
 49
-0.25
  0
LTYPE
  5
411
  2
DASHED
 70
0
  3
Dashed __ __ __ __ __
 72
65
 73
2
 40
0.75
 49
0.5
 49
-0.25
  0
LTYPE
  5
43B
  2
DOTTED
 70
0
  3
Dotted .  .  .  .
 72
65
 73
2
 40
0.2
 49
0.0
 49
-0.2
  0
ENDTAB
  0
TABLE
  2
STYLE
  70
4
  0
STYLE
  2
KICAD
  70
0
  40
0
  41
1
  42
1
  50
0
  71
0
  3
isocp.shx
  0
STYLE
  2
KICADB
  70
0
  40
0
  41
1
  42
1
  50
0
  71
0
  3
isocp.shx
  0
STYLE
  2
KICADI
  70
0
  40
0
  41
1
  42
1
  50
15
  71
0
  3
isocp.shx
  0
STYLE
  2
KICADBI
  70
0
  40
0
  41
1
  42
1
  50
15
  71
0
  3
isocp.shx
  0
ENDTAB
  0
TABLE
  2
LAYER
  70
1
  0
LAYER
  2
BLACK
  70
0
  62
7
  6
CONTINUOUS
  0
ENDTAB
  0
ENDSEC
  0
SECTION
  2
ENTITIES
0
LINE
8
BLACK
6
CONTINUOUS
10
168.5
20
6.
11
173.5
21
6.
0
LINE
8
BLACK
6
CONTINUOUS
10
173.5
20
6.
11
173.5
21
3.5
0
LINE
8
BLACK
6
CONTINUOUS
10
173.5
20
3.5
11
168.5
21
3.5
0
LINE
8
BLACK
6
CONTINUOUS
10
168.5
20
3.5
11
168.5
21
6.
0
CIRCLE
8
BLACK
10
171.
20
-4.2999999999999998
40
2.6999999999999997
0
LINE
8
BLACK
6
CONTINUOUS
10
149.5
20
6.
11
154.5
21
6.
0
LINE
8
BLACK
6
CONTINUOUS
10
154.5
20
6.
11
154.5
21
3.5
0
LINE
8
BLACK
6
CONTINUOUS
10
154.5
20
3.5
11
149.5
21
3.5
0
LINE
8
BLACK
6
CONTINUOUS
10
149.5
20
3.5
11
149.5
21
6.
0
CIRCLE
8
BLACK
10
152.
20
-4.2999999999999998
40
2.6999999999999997
0
LINE
8
BLACK
6
CONTINUOUS
10
217.
20
-70.
11
222.
21
-70.
0
LINE
8
BLACK
6
CONTINUOUS
10
222.
20
-70.
11
222.
21
-72.5
0
LINE
8
BLACK
6
CONTINUOUS
10
222.
20
-72.5
11
217.
21
-72.5
0
LINE
8
BLACK
6
CONTINUOUS
10
217.
20
-72.5
11
217.
21
-70.
0
CIRCLE
8
BLACK
10
219.5
20
-80.2999999999999972
40
2.6999999999999997
0
LINE
8
BLACK
6
CONTINUOUS
10
263.5
20
6.
11
268.5
21
6.
0
LINE
8
BLACK
6
CONTINUOUS
10
268.5
20
6.
11
268.5
21
3.5
0
LINE
8
BLACK
6
CONTINUOUS
10
268.5
20
3.5
11
263.5
21
3.5
0
LINE
8
BLACK
6
CONTINUOUS
10
263.5
20
3.5
11
263.5
21
6.
0
CIRCLE
8
BLACK
10
266.
20
-4.2999999999999998
40
2.6999999999999997
0
LINE
8
BLACK
6
CONTINUOUS
10
159.
20
-13.
11
164.
21
-13.
0
LINE
8
BLACK
6
CONTINUOUS
10
164.
20
-13.
11
164.
21
-15.5
0
LINE
8
BLACK
6
CONTINUOUS
10
164.
20
-15.5
11
159.
21
-15.5
0
LINE
8
BLACK
6
CONTINUOUS
10
159.
20
-15.5
11
159.
21
-13.
0
CIRCLE
8
BLACK
10
161.5
20
-23.3000000000000007
40
2.6999999999999997
0
LINE
8
BLACK
6
CONTINUOUS
10
258.75
20
-32.
11
263.75
21
-32.
0
LINE
8
BLACK
6
CONTINUOUS
10
263.75
20
-32.
11
263.75
21
-34.5
0
LINE
8
BLACK
6
CONTINUOUS
10
263.75
20
-34.5
11
258.75
21
-34.5
0
LINE
8
BLACK
6
CONTINUOUS
10
258.75
20
-34.5
11
258.75
21
-32.
0
CIRCLE
8
BLACK
10
261.25
20
-42.2999999999999972
40
2.6999999999999997
0
LINE
8
BLACK
6
CONTINUOUS
10
187.5
20
6.
11
192.5
21
6.
0
LINE
8
BLACK
6
CONTINUOUS
10
192.5
20
6.
11
192.5
21
3.5
0
LINE
8
BLACK
6
CONTINUOUS
10
192.5
20
3.5
11
187.5
21
3.5
0
LINE
8
BLACK
6
CONTINUOUS
10
187.5
20
3.5
11
187.5
21
6.
0
CIRCLE
8
BLACK
10
190.
20
-4.2999999999999998
40
2.6999999999999997
0
LINE
8
BLACK
6
CONTINUOUS
10
173.25
20
-51.
11
178.25
21
-51.
0
LINE
8
BLACK
6
CONTINUOUS
10
178.25
20
-51.
11
178.25
21
-53.5
0
LINE
8
BLACK
6
CONTINUOUS
10
178.25
20
-53.5
11
173.25
21
-53.5
0
LINE
8
BLACK
6
CONTINUOUS
10
173.25
20
-53.5
11
173.25
21
-51.
0
CIRCLE
8
BLACK
10
175.75
20
-61.2999999999999972
40
2.6999999999999997
0
LINE
8
BLACK
6
CONTINUOUS
10
292.
20
-51.
11
297.
21
-51.
0
LINE
8
BLACK
6
CONTINUOUS
10
297.
20
-51.
11
297.
21
-53.5
0
LINE
8
BLACK
6
CONTINUOUS
10
297.
20
-53.5
11
292.
21
-53.5
0
LINE
8
BLACK
6
CONTINUOUS
10
292.
20
-53.5
11
292.
21
-51.
0
CIRCLE
8
BLACK
10
294.5
20
-61.2999999999999972
40
2.6999999999999997
0
LINE
8
BLACK
6
CONTINUOUS
10
87.75
20
-32.
11
92.75
21
-32.
0
LINE
8
BLACK
6
CONTINUOUS
10
92.75
20
-32.
11
92.75
21
-34.5
0
LINE
8
BLACK
6
CONTINUOUS
10
92.75
20
-34.5
11
87.75
21
-34.5
0
LINE
8
BLACK
6
CONTINUOUS
10
87.75
20
-34.5
11
87.75
21
-32.
0
CIRCLE
8
BLACK
10
90.25
20
-42.2999999999999972
40
2.6999999999999997
0
LINE
8
BLACK
6
CONTINUOUS
10
163.75
20
-32.
11
168.75
21
-32.
0
LINE
8
BLACK
6
CONTINUOUS
10
168.75
20
-32.
11
168.75
21
-34.5
0
LINE
8
BLACK
6
CONTINUOUS
10
168.75
20
-34.5
11
163.75
21
-34.5
0
LINE
8
BLACK
6
CONTINUOUS
10
163.75
20
-34.5
11
163.75
21
-32.
0
CIRCLE
8
BLACK
10
166.25
20
-42.2999999999999972
40
2.6999999999999997
0
LINE
8
BLACK
6
CONTINUOUS
10
45.
20
-13.
11
50.
21
-13.
0
LINE
8
BLACK
6
CONTINUOUS
10
50.
20
-13.
11
50.
21
-15.5
0
LINE
8
BLACK
6
CONTINUOUS
10
50.
20
-15.5
11
45.
21
-15.5
0
LINE
8
BLACK
6
CONTINUOUS
10
45.
20
-15.5
11
45.
21
-13.
0
CIRCLE
8
BLACK
10
47.5
20
-23.3000000000000007
40
2.6999999999999997
0
LINE
8
BLACK
6
CONTINUOUS
10
254.
20
-13.
11
259.
21
-13.
0
LINE
8
BLACK
6
CONTINUOUS
10
259.
20
-13.
11
259.
21
-15.5
0
LINE
8
BLACK
6
CONTINUOUS
10
259.
20
-15.5
11
254.
21
-15.5
0
LINE
8
BLACK
6
CONTINUOUS
10
254.
20
-15.5
11
254.
21
-13.
0
CIRCLE
8
BLACK
10
256.5
20
-23.3000000000000007
40
2.6999999999999997
0
LINE
8
BLACK
6
CONTINUOUS
10
49.75
20
-32.
11
54.75
21
-32.
0
LINE
8
BLACK
6
CONTINUOUS
10
54.75
20
-32.
11
54.75
21
-34.5
0
LINE
8
BLACK
6
CONTINUOUS
10
54.75
20
-34.5
11
49.75
21
-34.5
0
LINE
8
BLACK
6
CONTINUOUS
10
49.75
20
-34.5
11
49.75
21
-32.
0
CIRCLE
8
BLACK
10
52.25
20
-42.2999999999999972
40
2.6999999999999997
0
LINE
8
BLACK
6
CONTINUOUS
10
83.
20
-13.
11
88.
21
-13.
0
LINE
8
BLACK
6
CONTINUOUS
10
88.
20
-13.
11
88.
21
-15.5
0
LINE
8
BLACK
6
CONTINUOUS
10
88.
20
-15.5
11
83.
21
-15.5
0
LINE
8
BLACK
6
CONTINUOUS
10
83.
20
-15.5
11
83.
21
-13.
0
CIRCLE
8
BLACK
10
85.5
20
-23.3000000000000007
40
2.6999999999999997
0
LINE
8
BLACK
6
CONTINUOUS
10
125.75
20
-32.
11
130.75
21
-32.
0
LINE
8
BLACK
6
CONTINUOUS
10
130.75
20
-32.
11
130.75
21
-34.5
0
LINE
8
BLACK
6
CONTINUOUS
10
130.75
20
-34.5
11
125.75
21
-34.5
0
LINE
8
BLACK
6
CONTINUOUS
10
125.75
20
-34.5
11
125.75
21
-32.
0
CIRCLE
8
BLACK
10
128.25
20
-42.2999999999999972
40
2.6999999999999997
0
LINE
8
BLACK
6
CONTINUOUS
10
73.5
20
6.
11
78.5
21
6.
0
LINE
8
BLACK
6
CONTINUOUS
10
78.5
20
6.
11
78.5
21
3.5
0
LINE
8
BLACK
6
CONTINUOUS
10
78.5
20
3.5
11
73.5
21
3.5
0
LINE
8
BLACK
6
CONTINUOUS
10
73.5
20
3.5
11
73.5
21
6.
0
CIRCLE
8
BLACK
10
76.
20
-4.2999999999999998
40
2.6999999999999997
0
LINE
8
BLACK
6
CONTINUOUS
10
21.25
20
-13.
11
26.25
21
-13.
0
LINE
8
BLACK
6
CONTINUOUS
10
26.25
20
-13.
11
26.25
21
-15.5
0
LINE
8
BLACK
6
CONTINUOUS
10
26.25
20
-15.5
11
21.25
21
-15.5
0
LINE
8
BLACK
6
CONTINUOUS
10
21.25
20
-15.5
11
21.25
21
-13.
0
CIRCLE
8
BLACK
10
23.75
20
-23.3000000000000007
40
2.6999999999999997
0
LINE
8
BLACK
6
CONTINUOUS
10
296.75
20
-32.
11
301.75
21
-32.
0
LINE
8
BLACK
6
CONTINUOUS
10
301.75
20
-32.
11
301.75
21
-34.5
0
LINE
8
BLACK
6
CONTINUOUS
10
301.75
20
-34.5
11
296.75
21
-34.5
0
LINE
8
BLACK
6
CONTINUOUS
10
296.75
20
-34.5
11
296.75
21
-32.
0
CIRCLE
8
BLACK
10
299.25
20
-42.2999999999999972
40
2.6999999999999997
0
LINE
8
BLACK
6
CONTINUOUS
10
35.5
20
6.
11
40.5
21
6.
0
LINE
8
BLACK
6
CONTINUOUS
10
40.5
20
6.
11
40.5
21
3.5
0
LINE
8
BLACK
6
CONTINUOUS
10
40.5
20
3.5
11
35.5
21
3.5
0
LINE
8
BLACK
6
CONTINUOUS
10
35.5
20
3.5
11
35.5
21
6.
0
CIRCLE
8
BLACK
10
38.
20
-4.2999999999999998
40
2.6999999999999997
0
LINE
8
BLACK
6
CONTINUOUS
10
121.
20
-13.
11
126.
21
-13.
0
LINE
8
BLACK
6
CONTINUOUS
10
126.
20
-13.
11
126.
21
-15.5
0
LINE
8
BLACK
6
CONTINUOUS
10
126.
20
-15.5
11
121.
21
-15.5
0
LINE
8
BLACK
6
CONTINUOUS
10
121.
20
-15.5
11
121.
21
-13.
0
CIRCLE
8
BLACK
10
123.5
20
-23.3000000000000007
40
2.6999999999999997
0
LINE
8
BLACK
6
CONTINUOUS
10
244.5
20
6.
11
249.5
21
6.
0
LINE
8
BLACK
6
CONTINUOUS
10
249.5
20
6.
11
249.5
21
3.5
0
LINE
8
BLACK
6
CONTINUOUS
10
249.5
20
3.5
11
244.5
21
3.5
0
LINE
8
BLACK
6
CONTINUOUS
10
244.5
20
3.5
11
244.5
21
6.
0
CIRCLE
8
BLACK
10
247.
20
-4.2999999999999998
40
2.6999999999999997
0
LINE
8
BLACK
6
CONTINUOUS
10
154.25
20
-51.
11
159.25
21
-51.
0
LINE
8
BLACK
6
CONTINUOUS
10
159.25
20
-51.
11
159.25
21
-53.5
0
LINE
8
BLACK
6
CONTINUOUS
10
159.25
20
-53.5
11
154.25
21
-53.5
0
LINE
8
BLACK
6
CONTINUOUS
10
154.25
20
-53.5
11
154.25
21
-51.
0
CIRCLE
8
BLACK
10
156.75
20
-61.2999999999999972
40
2.6999999999999997
0
LINE
8
BLACK
6
CONTINUOUS
10
140.
20
-13.
11
145.
21
-13.
0
LINE
8
BLACK
6
CONTINUOUS
10
145.
20
-13.
11
145.
21
-15.5
0
LINE
8
BLACK
6
CONTINUOUS
10
145.
20
-15.5
11
140.
21
-15.5
0
LINE
8
BLACK
6
CONTINUOUS
10
140.
20
-15.5
11
140.
21
-13.
0
CIRCLE
8
BLACK
10
142.5
20
-23.3000000000000007
40
2.6999999999999997
0
LINE
8
BLACK
6
CONTINUOUS
10
102.
20
-13.
11
107.
21
-13.
0
LINE
8
BLACK
6
CONTINUOUS
10
107.
20
-13.
11
107.
21
-15.5
0
LINE
8
BLACK
6
CONTINUOUS
10
107.
20
-15.5
11
102.
21
-15.5
0
LINE
8
BLACK
6
CONTINUOUS
10
102.
20
-15.5
11
102.
21
-13.
0
CIRCLE
8
BLACK
10
104.5
20
-23.3000000000000007
40
2.6999999999999997
0
LINE
8
BLACK
6
CONTINUOUS
10
216.
20
-13.
11
221.
21
-13.
0
LINE
8
BLACK
6
CONTINUOUS
10
221.
20
-13.
11
221.
21
-15.5
0
LINE
8
BLACK
6
CONTINUOUS
10
221.
20
-15.5
11
216.
21
-15.5
0
LINE
8
BLACK
6
CONTINUOUS
10
216.
20
-15.5
11
216.
21
-13.
0
CIRCLE
8
BLACK
10
218.5
20
-23.3000000000000007
40
2.6999999999999997
0
LINE
8
BLACK
6
CONTINUOUS
10
201.75
20
-32.
11
206.75
21
-32.
0
LINE
8
BLACK
6
CONTINUOUS
10
206.75
20
-32.
11
206.75
21
-34.5
0
LINE
8
BLACK
6
CONTINUOUS
10
206.75
20
-34.5
11
201.75
21
-34.5
0
LINE
8
BLACK
6
CONTINUOUS
10
201.75
20
-34.5
11
201.75
21
-32.
0
CIRCLE
8
BLACK
10
204.25
20
-42.2999999999999972
40
2.6999999999999997
0
LINE
8
BLACK
6
CONTINUOUS
10
100.0013519999999971
20
-81.2168949999999938
11
99.1463019999999915
21
-83.566125999999997
0
LINE
8
BLACK
6
CONTINUOUS
10
99.1463019999999915
20
-83.566125999999997
11
94.4478390000000019
21
-81.8560250000000025
0
LINE
8
BLACK
6
CONTINUOUS
10
94.4478390000000019
20
-81.8560250000000025
11
95.3028889999999933
21
-79.5067939999999993
0
LINE
8
BLACK
6
CONTINUOUS
10
95.3028889999999933
20
-79.5067939999999993
11
100.0013519999999971
21
-81.2168949999999938
0
CIRCLE
8
BLACK
10
94.1293129999999962
20
-90.0406779999999998
40
2.6999999999999997
0
LINE
8
BLACK
6
CONTINUOUS
10
197.
20
-13.
11
202.
21
-13.
0
LINE
8
BLACK
6
CONTINUOUS
10
202.
20
-13.
11
202.
21
-15.5
0
LINE
8
BLACK
6
CONTINUOUS
10
202.
20
-15.5
11
197.
21
-15.5
0
LINE
8
BLACK
6
CONTINUOUS
10
197.
20
-15.5
11
197.
21
-13.
0
CIRCLE
8
BLACK
10
199.5
20
-23.3000000000000007
40
2.6999999999999997
0
LINE
8
BLACK
6
CONTINUOUS
10
128.825462999999985
20
-77.8950320000000005
11
115.8286969999999911
21
-113.6033509999999893
0
LINE
8
BLACK
6
CONTINUOUS
10
115.8286969999999911
20
-113.6033509999999893
11
97.974536999999998
21
-107.1049679999999995
0
LINE
8
BLACK
6
CONTINUOUS
10
97.974536999999998
20
-107.1049679999999995
11
110.9713029999999918
21
-71.3966489999999965
0
LINE
8
BLACK
6
CONTINUOUS
10
110.9713029999999918
20
-71.3966489999999965
11
128.825462999999985
21
-77.8950320000000005
0
LINE
8
BLACK
6
CONTINUOUS
10
239.75
20
-32.
11
244.75
21
-32.
0
LINE
8
BLACK
6
CONTINUOUS
10
244.75
20
-32.
11
244.75
21
-34.5
0
LINE
8
BLACK
6
CONTINUOUS
10
244.75
20
-34.5
11
239.75
21
-34.5
0
LINE
8
BLACK
6
CONTINUOUS
10
239.75
20
-34.5
11
239.75
21
-32.
0
CIRCLE
8
BLACK
10
242.25
20
-42.2999999999999972
40
2.6999999999999997
0
LINE
8
BLACK
6
CONTINUOUS
10
235.
20
-13.
11
240.
21
-13.
0
LINE
8
BLACK
6
CONTINUOUS
10
240.
20
-13.
11
240.
21
-15.5
0
LINE
8
BLACK
6
CONTINUOUS
10
240.
20
-15.5
11
235.
21
-15.5
0
LINE
8
BLACK
6
CONTINUOUS
10
235.
20
-15.5
11
235.
21
-13.
0
CIRCLE
8
BLACK
10
237.5
20
-23.3000000000000007
40
2.6999999999999997
0
LINE
8
BLACK
6
CONTINUOUS
10
277.75
20
-32.
11
282.75
21
-32.
0
LINE
8
BLACK
6
CONTINUOUS
10
282.75
20
-32.
11
282.75
21
-34.5
0
LINE
8
BLACK
6
CONTINUOUS
10
282.75
20
-34.5
11
277.75
21
-34.5
0
LINE
8
BLACK
6
CONTINUOUS
10
277.75
20
-34.5
11
277.75
21
-32.
0
CIRCLE
8
BLACK
10
280.25
20
-42.2999999999999972
40
2.6999999999999997
0
LINE
8
BLACK
6
CONTINUOUS
10
277.75
20
-13.
11
282.75
21
-13.
0
LINE
8
BLACK
6
CONTINUOUS
10
282.75
20
-13.
11
282.75
21
-15.5
0
LINE
8
BLACK
6
CONTINUOUS
10
282.75
20
-15.5
11
277.75
21
-15.5
0
LINE
8
BLACK
6
CONTINUOUS
10
277.75
20
-15.5
11
277.75
21
-13.
0
CIRCLE
8
BLACK
10
280.25
20
-23.3000000000000007
40
2.6999999999999997
0
LINE
8
BLACK
6
CONTINUOUS
10
144.75
20
-32.
11
149.75
21
-32.
0
LINE
8
BLACK
6
CONTINUOUS
10
149.75
20
-32.
11
149.75
21
-34.5
0
LINE
8
BLACK
6
CONTINUOUS
10
149.75
20
-34.5
11
144.75
21
-34.5
0
LINE
8
BLACK
6
CONTINUOUS
10
144.75
20
-34.5
11
144.75
21
-32.
0
CIRCLE
8
BLACK
10
147.25
20
-42.2999999999999972
40
2.6999999999999997
0
LINE
8
BLACK
6
CONTINUOUS
10
53.5
20
-70.
11
58.5
21
-70.
0
LINE
8
BLACK
6
CONTINUOUS
10
58.5
20
-70.
11
58.5
21
-72.5
0
LINE
8
BLACK
6
CONTINUOUS
10
58.5
20
-72.5
11
53.5
21
-72.5
0
LINE
8
BLACK
6
CONTINUOUS
10
53.5
20
-72.5
11
53.5
21
-70.
0
CIRCLE
8
BLACK
10
56.
20
-80.2999999999999972
40
2.6999999999999997
0
LINE
8
BLACK
6
CONTINUOUS
10
198.9021609999999782
20
-75.3560250000000025
11
194.2036980000000028
21
-77.066125999999997
0
LINE
8
BLACK
6
CONTINUOUS
10
194.2036980000000028
20
-77.066125999999997
11
193.3486479999999972
21
-74.7168949999999938
0
LINE
8
BLACK
6
CONTINUOUS
10
193.3486479999999972
20
-74.7168949999999938
11
198.047111000000001
21
-73.0067939999999993
0
LINE
8
BLACK
6
CONTINUOUS
10
198.047111000000001
20
-73.0067939999999993
11
198.9021609999999782
21
-75.3560250000000025
0
CIRCLE
8
BLACK
10
199.2206869999999981
20
-83.5406779999999998
40
2.6999999999999997
0
LINE
8
BLACK
6
CONTINUOUS
10
130.5
20
6.
11
135.5
21
6.
0
LINE
8
BLACK
6
CONTINUOUS
10
135.5
20
6.
11
135.5
21
3.5
0
LINE
8
BLACK
6
CONTINUOUS
10
135.5
20
3.5
11
130.5
21
3.5
0
LINE
8
BLACK
6
CONTINUOUS
10
130.5
20
3.5
11
130.5
21
6.
0
CIRCLE
8
BLACK
10
133.
20
-4.2999999999999998
40
2.6999999999999997
0
LINE
8
BLACK
6
CONTINUOUS
10
273.
20
-51.
11
278.
21
-51.
0
LINE
8
BLACK
6
CONTINUOUS
10
278.
20
-51.
11
278.
21
-53.5
0
LINE
8
BLACK
6
CONTINUOUS
10
278.
20
-53.5
11
273.
21
-53.5
0
LINE
8
BLACK
6
CONTINUOUS
10
273.
20
-53.5
11
273.
21
-51.
0
CIRCLE
8
BLACK
10
275.5
20
-61.2999999999999972
40
2.6999999999999997
0
LINE
8
BLACK
6
CONTINUOUS
10
181.0521609999999839
20
-81.8560250000000025
11
176.3536979999999801
21
-83.566125999999997
0
LINE
8
BLACK
6
CONTINUOUS
10
176.3536979999999801
20
-83.566125999999997
11
175.4986480000000029
21
-81.2168949999999938
0
LINE
8
BLACK
6
CONTINUOUS
10
175.4986480000000029
20
-81.2168949999999938
11
180.1971109999999783
21
-79.5067939999999993
0
LINE
8
BLACK
6
CONTINUOUS
10
180.1971109999999783
20
-79.5067939999999993
11
181.0521609999999839
21
-81.8560250000000025
0
CIRCLE
8
BLACK
10
181.3706870000000038
20
-90.0406779999999998
40
2.6999999999999997
0
LINE
8
BLACK
6
CONTINUOUS
10
4.625
20
-51.
11
9.625
21
-51.
0
LINE
8
BLACK
6
CONTINUOUS
10
9.625
20
-51.
11
9.625
21
-53.5
0
LINE
8
BLACK
6
CONTINUOUS
10
9.625
20
-53.5
11
4.625
21
-53.5
0
LINE
8
BLACK
6
CONTINUOUS
10
4.625
20
-53.5
11
4.625
21
-51.
0
CIRCLE
8
BLACK
10
7.125
20
-61.2999999999999972
40
2.6999999999999997
0
LINE
8
BLACK
6
CONTINUOUS
10
177.525463000000002
20
-107.1049679999999995
11
159.6713029999999947
21
-113.6033509999999893
0
LINE
8
BLACK
6
CONTINUOUS
10
159.6713029999999947
20
-113.6033509999999893
11
146.6745369999999866
21
-77.8950320000000005
0
LINE
8
BLACK
6
CONTINUOUS
10
146.6745369999999866
20
-77.8950320000000005
11
164.528696999999994
21
-71.3966489999999965
0
LINE
8
BLACK
6
CONTINUOUS
10
164.528696999999994
20
-71.3966489999999965
11
177.525463000000002
21
-107.1049679999999995
0
LINE
8
BLACK
6
CONTINUOUS
10
97.25
20
-51.
11
102.25
21
-51.
0
LINE
8
BLACK
6
CONTINUOUS
10
102.25
20
-51.
11
102.25
21
-53.5
0
LINE
8
BLACK
6
CONTINUOUS
10
102.25
20
-53.5
11
97.25
21
-53.5
0
LINE
8
BLACK
6
CONTINUOUS
10
97.25
20
-53.5
11
97.25
21
-51.
0
CIRCLE
8
BLACK
10
99.75
20
-61.2999999999999972
40
2.6999999999999997
0
LINE
8
BLACK
6
CONTINUOUS
10
82.0263520000000028
20
-74.7168949999999938
11
81.1713019999999972
21
-77.066125999999997
0
LINE
8
BLACK
6
CONTINUOUS
10
81.1713019999999972
20
-77.066125999999997
11
76.4728389999999933
21
-75.3560250000000025
0
LINE
8
BLACK
6
CONTINUOUS
10
76.4728389999999933
20
-75.3560250000000025
11
77.327888999999999
21
-73.0067939999999993
0
LINE
8
BLACK
6
CONTINUOUS
10
77.327888999999999
20
-73.0067939999999993
11
82.0263520000000028
21
-74.7168949999999938
0
CIRCLE
8
BLACK
10
76.1543130000000019
20
-83.5406779999999998
40
2.6999999999999997
0
LINE
8
BLACK
6
CONTINUOUS
10
206.5
20
6.
11
211.5
21
6.
0
LINE
8
BLACK
6
CONTINUOUS
10
211.5
20
6.
11
211.5
21
3.5
0
LINE
8
BLACK
6
CONTINUOUS
10
211.5
20
3.5
11
206.5
21
3.5
0
LINE
8
BLACK
6
CONTINUOUS
10
206.5
20
3.5
11
206.5
21
6.
0
CIRCLE
8
BLACK
10
209.
20
-4.2999999999999998
40
2.6999999999999997
0
LINE
8
BLACK
6
CONTINUOUS
10
33.125
20
-51.
11
38.125
21
-51.
0
LINE
8
BLACK
6
CONTINUOUS
10
38.125
20
-51.
11
38.125
21
-53.5
0
LINE
8
BLACK
6
CONTINUOUS
10
38.125
20
-53.5
11
33.125
21
-53.5
0
LINE
8
BLACK
6
CONTINUOUS
10
33.125
20
-53.5
11
33.125
21
-51.
0
CIRCLE
8
BLACK
10
35.625
20
-61.2999999999999972
40
2.6999999999999997
0
LINE
8
BLACK
6
CONTINUOUS
10
117.8013519999999943
20
-87.7168949999999938
11
116.9463019999999887
21
-90.066125999999997
0
LINE
8
BLACK
6
CONTINUOUS
10
116.9463019999999887
20
-90.066125999999997
11
112.247838999999999
21
-88.3560250000000025
0
LINE
8
BLACK
6
CONTINUOUS
10
112.247838999999999
20
-88.3560250000000025
11
113.1028889999999905
21
-86.0067939999999993
0
LINE
8
BLACK
6
CONTINUOUS
10
113.1028889999999905
20
-86.0067939999999993
11
117.8013519999999943
21
-87.7168949999999938
0
CIRCLE
8
BLACK
10
111.9293129999999934
20
-96.5406779999999998
40
2.6999999999999997
0
LINE
8
BLACK
6
CONTINUOUS
10
59.25
20
-51.
11
64.25
21
-51.
0
LINE
8
BLACK
6
CONTINUOUS
10
64.25
20
-51.
11
64.25
21
-53.5
0
LINE
8
BLACK
6
CONTINUOUS
10
64.25
20
-53.5
11
59.25
21
-53.5
0
LINE
8
BLACK
6
CONTINUOUS
10
59.25
20
-53.5
11
59.25
21
-51.
0
CIRCLE
8
BLACK
10
61.75
20
-61.2999999999999972
40
2.6999999999999997
0
LINE
8
BLACK
6
CONTINUOUS
10
220.75
20
-32.
11
225.75
21
-32.
0
LINE
8
BLACK
6
CONTINUOUS
10
225.75
20
-32.
11
225.75
21
-34.5
0
LINE
8
BLACK
6
CONTINUOUS
10
225.75
20
-34.5
11
220.75
21
-34.5
0
LINE
8
BLACK
6
CONTINUOUS
10
220.75
20
-34.5
11
220.75
21
-32.
0
CIRCLE
8
BLACK
10
223.25
20
-42.2999999999999972
40
2.6999999999999997
0
LINE
8
BLACK
6
CONTINUOUS
10
64.
20
-13.
11
69.
21
-13.
0
LINE
8
BLACK
6
CONTINUOUS
10
69.
20
-13.
11
69.
21
-15.5
0
LINE
8
BLACK
6
CONTINUOUS
10
69.
20
-15.5
11
64.
21
-15.5
0
LINE
8
BLACK
6
CONTINUOUS
10
64.
20
-15.5
11
64.
21
-13.
0
CIRCLE
8
BLACK
10
66.5
20
-23.3000000000000007
40
2.6999999999999997
0
LINE
8
BLACK
6
CONTINUOUS
10
251.625
20
-51.
11
256.625
21
-51.
0
LINE
8
BLACK
6
CONTINUOUS
10
256.625
20
-51.
11
256.625
21
-53.5
0
LINE
8
BLACK
6
CONTINUOUS
10
256.625
20
-53.5
11
251.625
21
-53.5
0
LINE
8
BLACK
6
CONTINUOUS
10
251.625
20
-53.5
11
251.625
21
-51.
0
CIRCLE
8
BLACK
10
254.125
20
-61.2999999999999972
40
2.6999999999999997
0
LINE
8
BLACK
6
CONTINUOUS
10
8.375
20
-70.
11
13.375
21
-70.
0
LINE
8
BLACK
6
CONTINUOUS
10
13.375
20
-70.
11
13.375
21
-72.5
0
LINE
8
BLACK
6
CONTINUOUS
10
13.375
20
-72.5
11
8.375
21
-72.5
0
LINE
8
BLACK
6
CONTINUOUS
10
8.375
20
-72.5
11
8.375
21
-70.
0
CIRCLE
8
BLACK
10
10.875
20
-80.2999999999999972
40
2.6999999999999997
0
LINE
8
BLACK
6
CONTINUOUS
10
30.75
20
-32.
11
35.75
21
-32.
0
LINE
8
BLACK
6
CONTINUOUS
10
35.75
20
-32.
11
35.75
21
-34.5
0
LINE
8
BLACK
6
CONTINUOUS
10
35.75
20
-34.5
11
30.75
21
-34.5
0
LINE
8
BLACK
6
CONTINUOUS
10
30.75
20
-34.5
11
30.75
21
-32.
0
CIRCLE
8
BLACK
10
33.25
20
-42.2999999999999972
40
2.6999999999999997
0
LINE
8
BLACK
6
CONTINUOUS
10
163.252161000000001
20
-88.3560250000000025
11
158.5536979999999971
21
-90.066125999999997
0
LINE
8
BLACK
6
CONTINUOUS
10
158.5536979999999971
20
-90.066125999999997
11
157.6986479999999915
21
-87.7168949999999938
0
LINE
8
BLACK
6
CONTINUOUS
10
157.6986479999999915
20
-87.7168949999999938
11
162.3971109999999953
21
-86.0067939999999993
0
LINE
8
BLACK
6
CONTINUOUS
10
162.3971109999999953
20
-86.0067939999999993
11
163.252161000000001
21
-88.3560250000000025
0
CIRCLE
8
BLACK
10
163.5706869999999924
20
-96.5406779999999998
40
2.6999999999999997
0
LINE
8
BLACK
6
CONTINUOUS
10
230.25
20
-51.
11
235.25
21
-51.
0
LINE
8
BLACK
6
CONTINUOUS
10
235.25
20
-51.
11
235.25
21
-53.5
0
LINE
8
BLACK
6
CONTINUOUS
10
235.25
20
-53.5
11
230.25
21
-53.5
0
LINE
8
BLACK
6
CONTINUOUS
10
230.25
20
-53.5
11
230.25
21
-51.
0
CIRCLE
8
BLACK
10
232.75
20
-61.2999999999999972
40
2.6999999999999997
0
LINE
8
BLACK
6
CONTINUOUS
10
54.5
20
6.
11
59.5
21
6.
0
LINE
8
BLACK
6
CONTINUOUS
10
59.5
20
6.
11
59.5
21
3.5
0
LINE
8
BLACK
6
CONTINUOUS
10
59.5
20
3.5
11
54.5
21
3.5
0
LINE
8
BLACK
6
CONTINUOUS
10
54.5
20
3.5
11
54.5
21
6.
0
CIRCLE
8
BLACK
10
57.
20
-4.2999999999999998
40
2.6999999999999997
0
LINE
8
BLACK
6
CONTINUOUS
10
182.75
20
-32.
11
187.75
21
-32.
0
LINE
8
BLACK
6
CONTINUOUS
10
187.75
20
-32.
11
187.75
21
-34.5
0
LINE
8
BLACK
6
CONTINUOUS
10
187.75
20
-34.5
11
182.75
21
-34.5
0
LINE
8
BLACK
6
CONTINUOUS
10
182.75
20
-34.5
11
182.75
21
-32.
0
CIRCLE
8
BLACK
10
185.25
20
-42.2999999999999972
40
2.6999999999999997
0
LINE
8
BLACK
6
CONTINUOUS
10
116.25
20
-51.
11
121.25
21
-51.
0
LINE
8
BLACK
6
CONTINUOUS
10
121.25
20
-51.
11
121.25
21
-53.5
0
LINE
8
BLACK
6
CONTINUOUS
10
121.25
20
-53.5
11
116.25
21
-53.5
0
LINE
8
BLACK
6
CONTINUOUS
10
116.25
20
-53.5
11
116.25
21
-51.
0
CIRCLE
8
BLACK
10
118.75
20
-61.2999999999999972
40
2.6999999999999997
0
LINE
8
BLACK
6
CONTINUOUS
10
225.5
20
6.
11
230.5
21
6.
0
LINE
8
BLACK
6
CONTINUOUS
10
230.5
20
6.
11
230.5
21
3.5
0
LINE
8
BLACK
6
CONTINUOUS
10
230.5
20
3.5
11
225.5
21
3.5
0
LINE
8
BLACK
6
CONTINUOUS
10
225.5
20
3.5
11
225.5
21
6.
0
CIRCLE
8
BLACK
10
228.
20
-4.2999999999999998
40
2.6999999999999997
0
LINE
8
BLACK
6
CONTINUOUS
10
68.75
20
-32.
11
73.75
21
-32.
0
LINE
8
BLACK
6
CONTINUOUS
10
73.75
20
-32.
11
73.75
21
-34.5
0
LINE
8
BLACK
6
CONTINUOUS
10
73.75
20
-34.5
11
68.75
21
-34.5
0
LINE
8
BLACK
6
CONTINUOUS
10
68.75
20
-34.5
11
68.75
21
-32.
0
CIRCLE
8
BLACK
10
71.25
20
-42.2999999999999972
40
2.6999999999999997
0
LINE
8
BLACK
6
CONTINUOUS
10
9.375
20
-32.
11
14.375
21
-32.
0
LINE
8
BLACK
6
CONTINUOUS
10
14.375
20
-32.
11
14.375
21
-34.5
0
LINE
8
BLACK
6
CONTINUOUS
10
14.375
20
-34.5
11
9.375
21
-34.5
0
LINE
8
BLACK
6
CONTINUOUS
10
9.375
20
-34.5
11
9.375
21
-32.
0
CIRCLE
8
BLACK
10
11.875
20
-42.2999999999999972
40
2.6999999999999997
0
LINE
8
BLACK
6
CONTINUOUS
10
16.5
20
6.
11
21.5
21
6.
0
LINE
8
BLACK
6
CONTINUOUS
10
21.5
20
6.
11
21.5
21
3.5
0
LINE
8
BLACK
6
CONTINUOUS
10
21.5
20
3.5
11
16.5
21
3.5
0
LINE
8
BLACK
6
CONTINUOUS
10
16.5
20
3.5
11
16.5
21
6.
0
CIRCLE
8
BLACK
10
19.
20
-4.2999999999999998
40
2.6999999999999997
0
LINE
8
BLACK
6
CONTINUOUS
10
92.5
20
6.
11
97.5
21
6.
0
LINE
8
BLACK
6
CONTINUOUS
10
97.5
20
6.
11
97.5
21
3.5
0
LINE
8
BLACK
6
CONTINUOUS
10
97.5
20
3.5
11
92.5
21
3.5
0
LINE
8
BLACK
6
CONTINUOUS
10
92.5
20
3.5
11
92.5
21
6.
0
CIRCLE
8
BLACK
10
95.
20
-4.2999999999999998
40
2.6999999999999997
0
LINE
8
BLACK
6
CONTINUOUS
10
178.
20
-13.
11
183.
21
-13.
0
LINE
8
BLACK
6
CONTINUOUS
10
183.
20
-13.
11
183.
21
-15.5
0
LINE
8
BLACK
6
CONTINUOUS
10
183.
20
-15.5
11
178.
21
-15.5
0
LINE
8
BLACK
6
CONTINUOUS
10
178.
20
-15.5
11
178.
21
-13.
0
CIRCLE
8
BLACK
10
180.5
20
-23.3000000000000007
40
2.6999999999999997
0
LINE
8
BLACK
6
CONTINUOUS
10
78.25
20
-51.
11
83.25
21
-51.
0
LINE
8
BLACK
6
CONTINUOUS
10
83.25
20
-51.
11
83.25
21
-53.5
0
LINE
8
BLACK
6
CONTINUOUS
10
83.25
20
-53.5
11
78.25
21
-53.5
0
LINE
8
BLACK
6
CONTINUOUS
10
78.25
20
-53.5
11
78.25
21
-51.
0
CIRCLE
8
BLACK
10
80.75
20
-61.2999999999999972
40
2.6999999999999997
0
LINE
8
BLACK
6
CONTINUOUS
10
135.25
20
-70.
11
140.25
21
-70.
0
LINE
8
BLACK
6
CONTINUOUS
10
140.25
20
-70.
11
140.25
21
-72.5
0
LINE
8
BLACK
6
CONTINUOUS
10
140.25
20
-72.5
11
135.25
21
-72.5
0
LINE
8
BLACK
6
CONTINUOUS
10
135.25
20
-72.5
11
135.25
21
-70.
0
CIRCLE
8
BLACK
10
137.75
20
-80.2999999999999972
40
2.6999999999999997
0
LINE
8
BLACK
6
CONTINUOUS
10
211.25
20
-51.
11
216.25
21
-51.
0
LINE
8
BLACK
6
CONTINUOUS
10
216.25
20
-51.
11
216.25
21
-53.5
0
LINE
8
BLACK
6
CONTINUOUS
10
216.25
20
-53.5
11
211.25
21
-53.5
0
LINE
8
BLACK
6
CONTINUOUS
10
211.25
20
-53.5
11
211.25
21
-51.
0
CIRCLE
8
BLACK
10
213.75
20
-61.2999999999999972
40
2.6999999999999997
0
LINE
8
BLACK
6
CONTINUOUS
10
106.75
20
-32.
11
111.75
21
-32.
0
LINE
8
BLACK
6
CONTINUOUS
10
111.75
20
-32.
11
111.75
21
-34.5
0
LINE
8
BLACK
6
CONTINUOUS
10
111.75
20
-34.5
11
106.75
21
-34.5
0
LINE
8
BLACK
6
CONTINUOUS
10
106.75
20
-34.5
11
106.75
21
-32.
0
CIRCLE
8
BLACK
10
109.25
20
-42.2999999999999972
40
2.6999999999999997
0
LINE
8
BLACK
6
CONTINUOUS
10
111.5
20
6.
11
116.5
21
6.
0
LINE
8
BLACK
6
CONTINUOUS
10
116.5
20
6.
11
116.5
21
3.5
0
LINE
8
BLACK
6
CONTINUOUS
10
116.5
20
3.5
11
111.5
21
3.5
0
LINE
8
BLACK
6
CONTINUOUS
10
111.5
20
3.5
11
111.5
21
6.
0
CIRCLE
8
BLACK
10
114.
20
-4.2999999999999998
40
2.6999999999999997
0
LINE
8
BLACK
6
CONTINUOUS
10
32.125
20
-70.
11
37.125
21
-70.
0
LINE
8
BLACK
6
CONTINUOUS
10
37.125
20
-70.
11
37.125
21
-72.5
0
LINE
8
BLACK
6
CONTINUOUS
10
37.125
20
-72.5
11
32.125
21
-72.5
0
LINE
8
BLACK
6
CONTINUOUS
10
32.125
20
-72.5
11
32.125
21
-70.
0
CIRCLE
8
BLACK
10
34.625
20
-80.2999999999999972
40
2.6999999999999997
0
LINE
8
BLACK
6
CONTINUOUS
10
135.25
20
-51.
11
140.25
21
-51.
0
LINE
8
BLACK
6
CONTINUOUS
10
140.25
20
-51.
11
140.25
21
-53.5
0
LINE
8
BLACK
6
CONTINUOUS
10
140.25
20
-53.5
11
135.25
21
-53.5
0
LINE
8
BLACK
6
CONTINUOUS
10
135.25
20
-53.5
11
135.25
21
-51.
0
CIRCLE
8
BLACK
10
137.75
20
-61.2999999999999972
40
2.6999999999999997
0
LINE
8
BLACK
6
CONTINUOUS
10
238.375
20
-70.
11
243.375
21
-70.
0
LINE
8
BLACK
6
CONTINUOUS
10
243.375
20
-70.
11
243.375
21
-72.5
0
LINE
8
BLACK
6
CONTINUOUS
10
243.375
20
-72.5
11
238.375
21
-72.5
0
LINE
8
BLACK
6
CONTINUOUS
10
238.375
20
-72.5
11
238.375
21
-70.
0
CIRCLE
8
BLACK
10
240.875
20
-80.2999999999999972
40
2.6999999999999997
0
LINE
8
BLACK
6
CONTINUOUS
10
192.25
20
-51.
11
197.25
21
-51.
0
LINE
8
BLACK
6
CONTINUOUS
10
197.25
20
-51.
11
197.25
21
-53.5
0
LINE
8
BLACK
6
CONTINUOUS
10
197.25
20
-53.5
11
192.25
21
-53.5
0
LINE
8
BLACK
6
CONTINUOUS
10
192.25
20
-53.5
11
192.25
21
-51.
0
CIRCLE
8
BLACK
10
194.75
20
-61.2999999999999972
40
2.6999999999999997
0
LINE
8
BLACK
6
CONTINUOUS
10
282.5
20
6.
11
287.5
21
6.
0
LINE
8
BLACK
6
CONTINUOUS
10
287.5
20
6.
11
287.5
21
3.5
0
LINE
8
BLACK
6
CONTINUOUS
10
287.5
20
3.5
11
282.5
21
3.5
0
LINE
8
BLACK
6
CONTINUOUS
10
282.5
20
3.5
11
282.5
21
6.
0
CIRCLE
8
BLACK
10
285.
20
-4.2999999999999998
40
2.6999999999999997
  0
ENDSEC
  0
EOF
