  0
SECTION
  2
HEADER
  9
$ANGBASE
  50
0.0
  9
$ANGDIR
  70
1
  9
$MEASUREMENT
  70
1
  0
ENDSEC
  0
SECTION
  2
TABLES
  0
TABLE
  2
LTYPE
  70
4
  0
LTYPE
  5
40F
  2
CONTINUOUS
  70
0
  3
Solid line
  72
65
  73
0
  40
0.0
  0
LTYPE
  5
410
  2
DASHDOT
 70
0
  3
Dash Dot ____ _ ____ _
 72
65
 73
4
 40
2.0
 49
1.25
 49
-0.25
 49
0.25
 49
-0.25
  0
LTYPE
  5
411
  2
DASHED
 70
0
  3
Dashed __ __ __ __ __
 72
65
 73
2
 40
0.75
 49
0.5
 49
-0.25
  0
LTYPE
  5
43B
  2
DOTTED
 70
0
  3
Dotted .  .  .  .
 72
65
 73
2
 40
0.2
 49
0.0
 49
-0.2
  0
ENDTAB
  0
TABLE
  2
STYLE
  70
4
  0
STYLE
  2
KICAD
  70
0
  40
0
  41
1
  42
1
  50
0
  71
0
  3
isocp.shx
  0
STYLE
  2
KICADB
  70
0
  40
0
  41
1
  42
1
  50
0
  71
0
  3
isocp.shx
  0
STYLE
  2
KICADI
  70
0
  40
0
  41
1
  42
1
  50
15
  71
0
  3
isocp.shx
  0
STYLE
  2
KICADBI
  70
0
  40
0
  41
1
  42
1
  50
15
  71
0
  3
isocp.shx
  0
ENDTAB
  0
TABLE
  2
LAYER
  70
1
  0
LAYER
  2
BLACK
  70
0
  62
7
  6
CONTINUOUS
  0
ENDTAB
  0
ENDSEC
  0
SECTION
  2
ENTITIES
0
LINE
8
BLACK
6
CONTINUOUS
10
119.7947109999999924
20
-86.4196139999999957
11
116.3178479999999979
21
-85.1541409999999956
0
LINE
8
BLACK
6
CONTINUOUS
10
119.0540089999999935
20
-77.6366000000000014
11
112.4761609999999905
21
-75.2424589999999966
0
ARC
8
BLACK
10
121.6073999999999984
20
-81.4391999999999996
40
2.6999646061865326
50
-20.00075953
51
69.99932887
0
ARC
8
BLACK
10
120.7181700000000006
20
-83.8824400000000026
40
2.699997149780903
50
-110.00005625
51
-20.00014877
0
ARC
8
BLACK
10
111.5527069999999981
20
-77.7796289999999999
40
2.7000001381342553
50
70.00000716
51
159.99998722
0
LINE
8
BLACK
6
CONTINUOUS
10
124.1445879999999988
20
-82.3626989999999921
11
123.2553349999999881
21
-84.8058999999999941
0
ARC
8
BLACK
10
110.6634600000000006
20
-80.2228300000000019
40
2.7000018482401082
50
-199.99996923
51
-110.00011248
0
LINE
8
BLACK
6
CONTINUOUS
10
116.3178479999999979
20
-85.1541409999999956
11
109.7399999999999949
21
-82.7599999999999909
0
LINE
8
BLACK
6
CONTINUOUS
10
108.1262839999999983
20
-79.2993749999999977
11
109.0155369999999948
21
-76.8561739999999958
0
LINE
8
BLACK
6
CONTINUOUS
10
122.530871999999988
20
-78.9020739999999989
11
119.0540089999999935
21
-77.6366000000000014
0
LINE
8
BLACK
6
CONTINUOUS
10
111.5847109999999986
20
-108.979613999999998
11
108.10784799999999
21
-107.7141409999999979
0
LINE
8
BLACK
6
CONTINUOUS
10
110.8440089999999998
20
-100.1965999999999894
11
104.2661609999999968
21
-97.8024589999999989
0
ARC
8
BLACK
10
113.3973999999999904
20
-103.9992000000000019
40
2.6999646061865326
50
-20.00075953
51
69.99932887
0
ARC
8
BLACK
10
112.5081699999999927
20
-106.4424399999999906
40
2.699997149780903
50
-110.00005625
51
-20.00014877
0
ARC
8
BLACK
10
103.3427069999999901
20
-100.3396290000000022
40
2.7000001381342553
50
70.00000716
51
159.99998722
0
LINE
8
BLACK
6
CONTINUOUS
10
115.9345879999999909
20
-104.9226989999999944
11
115.0453349999999944
21
-107.3658999999999963
0
ARC
8
BLACK
10
102.4534599999999926
20
-102.7828299999999899
40
2.7000018482401082
50
-199.99996923
51
-110.00011248
0
LINE
8
BLACK
6
CONTINUOUS
10
108.10784799999999
20
-107.7141409999999979
11
101.5300000000000011
21
-105.3199999999999932
0
LINE
8
BLACK
6
CONTINUOUS
10
99.9162839999999903
20
-101.859375
11
100.8055370000000011
21
-99.416173999999998
0
LINE
8
BLACK
6
CONTINUOUS
10
114.3208719999999943
20
-101.4620740000000012
11
110.8440089999999998
21
-100.1965999999999894
0
ARC
8
BLACK
10
153.8479189999999903
20
-81.5533449999999931
40
2.7000003937870081
50
-249.99998722
51
-160.00003436
0
LINE
8
BLACK
6
CONTINUOUS
10
162.238472999999999
20
-84.1395749999999936
11
155.6606249999999818
21
-86.5337159999999983
0
ARC
8
BLACK
10
163.9026299999999878
20
-77.8937299999999908
40
2.7000010778268217
50
20.00001278
51
110.00000552
0
LINE
8
BLACK
6
CONTINUOUS
10
165.7153349999999818
20
-82.8740990000000011
11
162.238472999999999
21
-84.1395749999999936
0
LINE
8
BLACK
6
CONTINUOUS
10
162.9791749999999979
20
-75.3565589999999901
11
159.5023119999999892
21
-76.6220339999999993
0
LINE
8
BLACK
6
CONTINUOUS
10
166.4397999999999911
20
-76.9702750000000009
11
167.3290519999999901
21
-79.4134760000000028
0
ARC
8
BLACK
10
154.7371719999999868
20
-83.9965419999999909
40
2.7000032128656808
50
-159.99994192
51
-70.00005614
0
ARC
8
BLACK
10
164.7918799999999919
20
-80.3369299999999953
40
2.7000016754994802
50
-69.99996728
51
19.99997832
0
LINE
8
BLACK
6
CONTINUOUS
10
152.1999999999999886
20
-84.9200000000000017
11
151.3107479999999896
21
-82.4767980000000023
0
LINE
8
BLACK
6
CONTINUOUS
10
159.5023119999999892
20
-76.6220339999999993
11
152.9244640000000004
21
-79.0161749999999898
0
ARC
8
BLACK
10
161.9679189999999949
20
-103.8533449999999903
40
2.7000003937870081
50
-249.99998722
51
-160.00003436
0
LINE
8
BLACK
6
CONTINUOUS
10
170.3584730000000036
20
-106.4395749999999907
11
163.7806249999999864
21
-108.8337159999999955
0
ARC
8
BLACK
10
172.0226299999999924
20
-100.1937300000000022
40
2.7000010778268217
50
20.00001278
51
110.00000552
0
LINE
8
BLACK
6
CONTINUOUS
10
173.8353349999999864
20
-105.1740989999999982
11
170.3584730000000036
21
-106.4395749999999907
0
LINE
8
BLACK
6
CONTINUOUS
10
171.0991750000000025
20
-97.6565590000000014
11
167.6223119999999938
21
-98.9220339999999965
0
LINE
8
BLACK
6
CONTINUOUS
10
174.5597999999999956
20
-99.270274999999998
11
175.4490519999999947
21
-101.713476
0
ARC
8
BLACK
10
162.8571719999999914
20
-106.2965419999999881
40
2.7000032128656808
50
-159.99994192
51
-70.00005614
0
ARC
8
BLACK
10
172.9118799999999965
20
-102.6369299999999924
40
2.7000016754994802
50
-69.99996728
51
19.99997832
0
LINE
8
BLACK
6
CONTINUOUS
10
160.3199999999999932
20
-107.2199999999999989
11
159.4307479999999941
21
-104.7767979999999994
0
LINE
8
BLACK
6
CONTINUOUS
10
167.6223119999999938
20
-98.9220339999999965
11
161.0444640000000049
21
-101.3161750000000012
0
ARC
8
BLACK
10
133.0507999999999811
20
-59.4007999999999967
40
2.6999880000266665
50
-0.00025465
51
89.99974535
0
LINE
8
BLACK
6
CONTINUOUS
10
150.1099999999999852
20
-6.8999999999999995
11
150.1099999999999852
21
-13.5
0
LINE
8
BLACK
6
CONTINUOUS
10
169.7999999999999829
20
6.7949999999999999
11
169.7999999999999829
21
-4.3549999999999995
0
ARC
8
BLACK
10
167.0999999999999943
20
-4.3549999999999995
40
2.6999999999999997
50
-90.00000000
51
-0.00000000
0
ARC
8
BLACK
10
183.430800000000005
20
-5.1907999999999994
40
2.7000120000266663
50
-89.99974535
51
-0.00025465
0
LINE
8
BLACK
6
CONTINUOUS
10
152.1999999999999886
20
-4.3549999999999995
11
152.1999999999999886
21
6.7949999999999999
0
ARC
8
BLACK
10
154.9000000000000057
20
-4.3549999999999995
40
2.6999999999999997
50
-180.00000000
51
-90.00000000
0
ARC
8
BLACK
10
143.9008000000000038
20
-63.1308000000000007
40
2.7000120000266663
50
-179.99974535
51
-89.99974535
0
LINE
8
BLACK
6
CONTINUOUS
10
169.8100000000000023
20
-4.2000000000000002
11
152.8100000000000023
21
-4.2000000000000002
0
LINE
8
BLACK
6
CONTINUOUS
10
173.730811999999986
20
-5.1908120000000002
11
173.730811999999986
21
-2.5908119999999997
0
ARC
8
BLACK
10
29.8999999999999986
20
-15.
40
2.6999990000001852
50
89.99997878
51
179.99997878
0
LINE
8
BLACK
6
CONTINUOUS
10
117.3708120000000008
20
-27.4808120000000002
11
110.3708120000000008
21
-27.4808120000000002
0
ARC
8
BLACK
10
126.0507999999999953
20
-62.0007999999999981
40
2.7000120000266663
50
-179.99974535
51
-89.99974535
0
LINE
8
BLACK
6
CONTINUOUS
10
124.5208119999999923
20
-41.180811999999996
11
124.5208119999999923
21
-43.7808119999999974
0
LINE
8
BLACK
6
CONTINUOUS
10
121.8208119999999894
20
-46.4808120000000002
11
114.8208119999999894
21
-46.4808120000000002
0
LINE
8
BLACK
6
CONTINUOUS
10
135.7508119999999963
20
-59.4008119999999948
11
135.7508119999999963
21
-62.0008119999999963
0
LINE
8
BLACK
6
CONTINUOUS
10
127.0008119999999963
20
-0.310812
11
120.0008119999999963
21
-0.310812
0
ARC
8
BLACK
10
117.3707999999999885
20
-24.7807999999999993
40
2.7000120000266663
50
-89.99974535
51
-0.00025465
0
LINE
8
BLACK
6
CONTINUOUS
10
183.4308120000000031
20
-7.8908119999999995
11
176.4308120000000031
21
-7.8908119999999995
0
LINE
8
BLACK
6
CONTINUOUS
10
152.8100000000000023
20
-16.1999999999999993
11
169.8100000000000023
21
-16.1999999999999993
0
ARC
8
BLACK
10
26.2007999999999974
20
-79.3007999999999953
40
2.6999880000266665
50
-0.00025465
51
89.99974535
0
LINE
8
BLACK
6
CONTINUOUS
10
26.2008119999999991
20
-76.6008119999999906
11
19.2008119999999991
21
-76.6008119999999906
0
LINE
8
BLACK
6
CONTINUOUS
10
26.2008119999999991
20
-84.6008119999999906
11
19.2008119999999991
21
-84.6008119999999906
0
ARC
8
BLACK
10
26.2007999999999974
20
-81.9007999999999896
40
2.7000120000266663
50
-89.99974535
51
-0.00025465
0
LINE
8
BLACK
6
CONTINUOUS
10
153.6008119999999906
20
-60.5308119999999974
11
153.6008119999999906
21
-63.1308119999999988
0
LINE
8
BLACK
6
CONTINUOUS
10
143.1999999999999886
20
-29.
11
143.2000009999999861
21
-37.
0
LINE
8
BLACK
6
CONTINUOUS
10
236.2708119999999781
20
-78.3008119999999934
11
236.2708119999999781
21
-80.9008120000000019
0
LINE
8
BLACK
6
CONTINUOUS
10
41.5000009999999975
20
-12.2999999999999989
11
29.9000009999999996
21
-12.2999989999999997
0
LINE
8
BLACK
6
CONTINUOUS
10
29.9000009999999996
20
-27.1999979999999972
11
41.5000009999999975
21
-27.1999989999999983
0
ARC
8
BLACK
10
41.5
20
-15.
40
2.7000010000001851
50
0.00002122
51
89.99997878
0
ARC
8
BLACK
10
19.2008100000000006
20
-79.3008099999999985
40
2.6999980000007406
50
-270.00004244
51
-179.99995756
0
ARC
8
BLACK
10
152.8100000000000023
20
-6.8999999999999995
40
2.6999999999999997
50
90.00000000
51
180.00000000
0
LINE
8
BLACK
6
CONTINUOUS
10
182.0108119999999872
20
-40.9908119999999982
11
182.0108119999999872
21
-43.5908119999999997
0
LINE
8
BLACK
6
CONTINUOUS
10
196.5108119999999872
20
-22.3408119999999997
11
196.5108119999999872
21
-24.9408119999999975
0
ARC
8
BLACK
10
29.8999999999999986
20
-24.5
40
2.6999990000001852
50
-180.00002122
51
-89.99997878
0
LINE
8
BLACK
6
CONTINUOUS
10
27.2000019999999978
20
-14.999998999999999
11
27.2000010000000003
21
-24.4999979999999979
0
LINE
8
BLACK
6
CONTINUOUS
10
120.0708119999999894
20
-22.1808119999999995
11
120.0708119999999894
21
-24.7808119999999974
0
LINE
8
BLACK
6
CONTINUOUS
10
129.7008119999999849
20
-3.010812
11
129.7008119999999849
21
-5.6108120000000001
0
ARC
8
BLACK
10
143.9008000000000038
20
-60.5307999999999993
40
2.6999880000266665
50
-270.00025465
51
-179.99974535
0
LINE
8
BLACK
6
CONTINUOUS
10
233.5708119999999894
20
-83.6008119999999906
11
226.5708119999999894
21
-83.6008119999999906
0
ARC
8
BLACK
10
133.0507999999999811
20
-62.0007999999999981
40
2.7000120000266663
50
-89.99974535
51
-0.00025465
0
LINE
8
BLACK
6
CONTINUOUS
10
16.5008119999999998
20
-81.9008120000000019
11
16.5008119999999998
21
-79.3008119999999934
0
ARC
8
BLACK
10
152.8100000000000023
20
-13.5
40
2.6999999999999997
50
-180.00000000
51
-90.00000000
0
LINE
8
BLACK
6
CONTINUOUS
10
123.3508119999999906
20
-62.0008119999999963
11
123.3508119999999906
21
-59.4008119999999948
0
LINE
8
BLACK
6
CONTINUOUS
10
133.2000019999999836
20
-37.
11
133.2000009999999861
21
-29.
0
LINE
8
BLACK
6
CONTINUOUS
10
107.670811999999998
20
-24.7808119999999974
11
107.670811999999998
21
-22.1808119999999995
0
LINE
8
BLACK
6
CONTINUOUS
10
223.8708120000000008
20
-80.9008120000000019
11
223.8708120000000008
21
-78.3008119999999934
0
LINE
8
BLACK
6
CONTINUOUS
10
133.0508120000000076
20
-56.7008119999999991
11
126.0508119999999934
21
-56.7008119999999991
0
ARC
8
BLACK
10
226.5707999999999913
20
-78.3007999999999953
40
2.6999880000266665
50
-270.00025465
51
-179.99974535
0
LINE
8
BLACK
6
CONTINUOUS
10
140.5000009999999975
20
-39.6999989999999983
11
135.9000020000000006
21
-39.6999999999999957
0
LINE
8
BLACK
6
CONTINUOUS
10
141.2008119999999849
20
-63.1308119999999988
11
141.2008119999999849
21
-60.5308119999999974
0
ARC
8
BLACK
10
172.3108000000000004
20
-43.5908000000000015
40
2.7000120000266663
50
-179.99974535
51
-89.99974535
0
ARC
8
BLACK
10
172.3108000000000004
20
-40.9908000000000001
40
2.6999880000266665
50
-270.00025465
51
-179.99974535
0
ARC
8
BLACK
10
110.3707999999999885
20
-24.7807999999999993
40
2.7000120000266663
50
-179.99974535
51
-89.99974535
0
ARC
8
BLACK
10
169.8100000000000023
20
-6.8999999999999995
40
2.6999999999999997
50
0.00000000
51
90.00000000
0
ARC
8
BLACK
10
121.8207999999999913
20
-43.7807999999999993
40
2.7000120000266663
50
-89.99974535
51
-0.00025465
0
LINE
8
BLACK
6
CONTINUOUS
10
179.3108119999999985
20
-46.2908119999999954
11
172.3108119999999985
21
-46.2908119999999954
0
ARC
8
BLACK
10
135.9000000000000057
20
-29.
40
2.699999
50
89.99997878
51
180.00000000
0
LINE
8
BLACK
6
CONTINUOUS
10
44.1999999999999957
20
-24.499998999999999
11
44.2000010000000003
21
-14.999998999999999
0
ARC
8
BLACK
10
114.8207999999999913
20
-43.7807999999999993
40
2.7000120000266663
50
-179.99974535
51
-89.99974535
0
ARC
8
BLACK
10
193.8108000000000004
20
-24.9407999999999994
40
2.7000120000266663
50
-89.99974535
51
-0.00025465
0
ARC
8
BLACK
10
154.9000000000000057
20
6.7949999999999999
40
2.6999999999999997
50
90.00000000
51
180.00000000
0
LINE
8
BLACK
6
CONTINUOUS
10
193.8108119999999985
20
-27.6408120000000004
11
186.8108119999999985
21
-27.6408120000000004
0
ARC
8
BLACK
10
150.9008000000000038
20
-63.1308000000000007
40
2.7000120000266663
50
-89.99974535
51
-0.00025465
0
LINE
8
BLACK
6
CONTINUOUS
10
193.8108119999999985
20
-19.6408120000000004
11
186.8108119999999985
21
-19.6408120000000004
0
ARC
8
BLACK
10
41.5
20
-24.5
40
2.7000010000001851
50
-89.99997878
51
0.00002122
0
LINE
8
BLACK
6
CONTINUOUS
10
112.1208120000000008
20
-43.7808119999999974
11
112.1208120000000008
21
-41.180811999999996
0
LINE
8
BLACK
6
CONTINUOUS
10
28.9008119999999984
20
-79.3008119999999934
11
28.9008119999999984
21
-81.9008120000000019
0
ARC
8
BLACK
10
120.0007999999999981
20
-5.6107999999999993
40
2.7000120000266663
50
-179.99974535
51
-89.99974535
0
ARC
8
BLACK
10
150.9008000000000038
20
-60.5307999999999993
40
2.6999880000266665
50
-0.00025465
51
89.99974535
0
LINE
8
BLACK
6
CONTINUOUS
10
117.3708120000000008
20
-19.4808120000000002
11
110.3708120000000008
21
-19.4808120000000002
0
LINE
8
BLACK
6
CONTINUOUS
10
135.9000020000000006
20
-26.2999999999999972
11
140.5
21
-26.2999999999999972
0
ARC
8
BLACK
10
135.9000000000000057
20
-37.
40
2.7000000000007409
50
-180.00000000
51
-89.99995756
0
ARC
8
BLACK
10
186.8108000000000004
20
-24.9407999999999994
40
2.7000120000266663
50
-179.99974535
51
-89.99974535
0
ARC
8
BLACK
10
193.8108000000000004
20
-22.340799999999998
40
2.6999880000266665
50
-0.00025465
51
89.99974535
0
ARC
8
BLACK
10
233.5707999999999913
20
-80.9007999999999896
40
2.7000120000266663
50
-89.99974535
51
-0.00025465
0
LINE
8
BLACK
6
CONTINUOUS
10
121.8208119999999894
20
-38.4808120000000002
11
114.8208119999999894
21
-38.4808120000000002
0
ARC
8
BLACK
10
176.430800000000005
20
-2.5907999999999998
40
2.6999880000266665
50
-270.00025465
51
-179.99974535
0
ARC
8
BLACK
10
183.430800000000005
20
-2.5907999999999998
40
2.6999880000266665
50
-0.00025465
51
89.99974535
0
ARC
8
BLACK
10
179.3108000000000004
20
-40.9908000000000001
40
2.6999880000266665
50
-0.00025465
51
89.99974535
0
ARC
8
BLACK
10
117.3707999999999885
20
-22.1807999999999979
40
2.6999880000266665
50
-0.00025465
51
89.99974535
0
LINE
8
BLACK
6
CONTINUOUS
10
150.9008120000000019
20
-57.8308119999999946
11
143.9008120000000019
21
-57.8308119999999946
0
ARC
8
BLACK
10
179.3108000000000004
20
-43.5908000000000015
40
2.7000120000266663
50
-89.99974535
51
-0.00025465
0
ARC
8
BLACK
10
19.2007999999999974
20
-81.9007999999999896
40
2.7000120000266663
50
-179.99974535
51
-89.99974535
0
LINE
8
BLACK
6
CONTINUOUS
10
233.5708119999999894
20
-75.6008119999999906
11
226.5708119999999894
21
-75.6008119999999906
0
LINE
8
BLACK
6
CONTINUOUS
10
179.3108119999999985
20
-38.2908119999999954
11
172.3108119999999985
21
-38.2908119999999954
0
LINE
8
BLACK
6
CONTINUOUS
10
150.9008120000000019
20
-65.8308119999999946
11
143.9008120000000019
21
-65.8308119999999946
0
ARC
8
BLACK
10
176.430800000000005
20
-5.1907999999999994
40
2.7000120000266663
50
-179.99974535
51
-89.99974535
0
ARC
8
BLACK
10
120.0007999999999981
20
-3.0107999999999997
40
2.6999880000266665
50
-270.00025465
51
-179.99974535
0
ARC
8
BLACK
10
169.8100000000000023
20
-13.5
40
2.6999999999999997
50
-90.00000000
51
-0.00000000
0
ARC
8
BLACK
10
186.8108000000000004
20
-22.340799999999998
40
2.6999880000266665
50
-270.00025465
51
-179.99974535
0
ARC
8
BLACK
10
233.5707999999999913
20
-78.3007999999999953
40
2.6999880000266665
50
-0.00025465
51
89.99974535
0
LINE
8
BLACK
6
CONTINUOUS
10
186.1308119999999917
20
-2.5908119999999997
11
186.1308119999999917
21
-5.1908120000000002
0
ARC
8
BLACK
10
110.3707999999999885
20
-22.1807999999999979
40
2.6999880000266665
50
-270.00025465
51
-179.99974535
0
ARC
8
BLACK
10
226.5707999999999913
20
-80.9007999999999896
40
2.7000120000266663
50
-179.99974535
51
-89.99974535
0
ARC
8
BLACK
10
127.0007999999999981
20
-5.6107999999999993
40
2.7000120000266663
50
-89.99974535
51
-0.00025465
0
ARC
8
BLACK
10
140.5
20
-37.
40
2.7000009999999999
50
-89.99997878
51
-0.00000000
0
ARC
8
BLACK
10
126.0507999999999953
20
-59.4007999999999967
40
2.6999880000266665
50
-270.00025465
51
-179.99974535
0
ARC
8
BLACK
10
121.8207999999999913
20
-41.1807999999999979
40
2.6999880000266665
50
-0.00025465
51
89.99974535
0
LINE
8
BLACK
6
CONTINUOUS
10
127.0008119999999963
20
-8.3108120000000003
11
120.0008119999999963
21
-8.3108120000000003
0
LINE
8
BLACK
6
CONTINUOUS
10
183.4308120000000031
20
0.109188
11
176.4308120000000031
21
0.109188
0
ARC
8
BLACK
10
114.8207999999999913
20
-41.1807999999999979
40
2.6999880000266665
50
-270.00025465
51
-179.99974535
0
LINE
8
BLACK
6
CONTINUOUS
10
184.1108119999999815
20
-24.9408119999999975
11
184.1108119999999815
21
-22.3408119999999997
0
ARC
8
BLACK
10
167.0999999999999943
20
6.7949999999999999
40
2.6999999999999997
50
0.00000000
51
90.00000000
0
ARC
8
BLACK
10
140.5
20
-29.
40
2.6999999999999997
50
0.00000000
51
90.00000000
0
LINE
8
BLACK
6
CONTINUOUS
10
117.3008119999999934
20
-5.6108120000000001
11
117.3008119999999934
21
-3.010812
0
LINE
8
BLACK
6
CONTINUOUS
10
172.5099999999999909
20
-13.5
11
172.5099999999999909
21
-6.8999999999999995
0
LINE
8
BLACK
6
CONTINUOUS
10
154.9000000000000057
20
9.4949999999999992
11
167.0999999999999943
21
9.4949999999999992
0
LINE
8
BLACK
6
CONTINUOUS
10
167.0999999999999943
20
-7.0549999999999997
11
154.9000000000000057
21
-7.0549999999999997
0
ARC
8
BLACK
10
127.0007999999999981
20
-3.0107999999999997
40
2.6999880000266665
50
-0.00025465
51
89.99974535
0
LINE
8
BLACK
6
CONTINUOUS
10
133.0508120000000076
20
-64.7008119999999991
11
126.0508119999999934
21
-64.7008119999999991
0
LINE
8
BLACK
6
CONTINUOUS
10
169.6108119999999815
20
-43.5908119999999997
11
169.6108119999999815
21
-40.9908119999999982
0
CIRCLE
8
BLACK
10
218.1999999999999886
20
-80.2999999999999972
40
2.6999999999999997
0
CIRCLE
8
BLACK
10
219.5
20
-71.25
40
2.6999999999999997
0
CIRCLE
8
BLACK
10
220.7999999999999829
20
-80.2999999999999972
40
2.6999999999999997
0
CIRCLE
8
BLACK
10
264.6999999999999886
20
-4.2999999999999998
40
2.6999999999999997
0
CIRCLE
8
BLACK
10
266.
20
4.75
40
2.6999999999999997
0
CIRCLE
8
BLACK
10
267.3000000000000114
20
-4.2999999999999998
40
2.6999999999999997
0
CIRCLE
8
BLACK
10
160.1999999999999886
20
-23.3000000000000007
40
2.6999999999999997
0
CIRCLE
8
BLACK
10
161.5
20
-14.25
40
2.6999999999999997
0
CIRCLE
8
BLACK
10
162.7999999999999829
20
-23.3000000000000007
40
2.6999999999999997
0
CIRCLE
8
BLACK
10
259.9499999999999886
20
-42.2999999999999972
40
2.6999999999999997
0
CIRCLE
8
BLACK
10
261.25
20
-33.25
40
2.6999999999999997
0
CIRCLE
8
BLACK
10
262.5500000000000114
20
-42.2999999999999972
40
2.6999999999999997
0
CIRCLE
8
BLACK
10
188.6999999999999886
20
-4.2999999999999998
40
2.6999999999999997
0
CIRCLE
8
BLACK
10
190.
20
4.75
40
2.6999999999999997
0
CIRCLE
8
BLACK
10
191.2999999999999829
20
-4.2999999999999998
40
2.6999999999999997
0
CIRCLE
8
BLACK
10
174.4499999999999886
20
-61.2999999999999972
40
2.6999999999999997
0
CIRCLE
8
BLACK
10
175.75
20
-52.25
40
2.6999999999999997
0
CIRCLE
8
BLACK
10
177.0499999999999829
20
-61.2999999999999972
40
2.6999999999999997
0
CIRCLE
8
BLACK
10
293.1999999999999886
20
-61.2999999999999972
40
2.6999999999999997
0
CIRCLE
8
BLACK
10
294.5
20
-52.25
40
2.6999999999999997
0
CIRCLE
8
BLACK
10
295.8000000000000114
20
-61.2999999999999972
40
2.6999999999999997
0
CIRCLE
8
BLACK
10
88.9500000000000028
20
-42.2999999999999972
40
2.6999999999999997
0
CIRCLE
8
BLACK
10
90.25
20
-33.25
40
2.6999999999999997
0
CIRCLE
8
BLACK
10
91.5499999999999972
20
-42.2999999999999972
40
2.6999999999999997
0
CIRCLE
8
BLACK
10
164.9499999999999886
20
-42.2999999999999972
40
2.6999999999999997
0
CIRCLE
8
BLACK
10
166.25
20
-33.25
40
2.6999999999999997
0
CIRCLE
8
BLACK
10
167.5499999999999829
20
-42.2999999999999972
40
2.6999999999999997
0
CIRCLE
8
BLACK
10
46.1999999999999957
20
-23.3000000000000007
40
2.6999999999999997
0
CIRCLE
8
BLACK
10
47.5
20
-14.25
40
2.6999999999999997
0
CIRCLE
8
BLACK
10
48.7999999999999972
20
-23.3000000000000007
40
2.6999999999999997
0
CIRCLE
8
BLACK
10
150.6999999999999886
20
-4.2999999999999998
40
2.6999999999999997
0
CIRCLE
8
BLACK
10
152.
20
4.75
40
2.6999999999999997
0
CIRCLE
8
BLACK
10
153.2999999999999829
20
-4.2999999999999998
40
2.6999999999999997
0
CIRCLE
8
BLACK
10
255.1999999999999886
20
-23.3000000000000007
40
2.6999999999999997
0
CIRCLE
8
BLACK
10
256.5
20
-14.25
40
2.6999999999999997
0
CIRCLE
8
BLACK
10
257.8000000000000114
20
-23.3000000000000007
40
2.6999999999999997
0
CIRCLE
8
BLACK
10
50.9499999999999957
20
-42.2999999999999972
40
2.6999999999999997
0
CIRCLE
8
BLACK
10
52.25
20
-33.25
40
2.6999999999999997
0
CIRCLE
8
BLACK
10
53.5499999999999972
20
-42.2999999999999972
40
2.6999999999999997
0
CIRCLE
8
BLACK
10
84.2000000000000028
20
-23.3000000000000007
40
2.6999999999999997
0
CIRCLE
8
BLACK
10
85.5
20
-14.25
40
2.6999999999999997
0
CIRCLE
8
BLACK
10
86.7999999999999972
20
-23.3000000000000007
40
2.6999999999999997
0
CIRCLE
8
BLACK
10
126.9499999999999886
20
-42.2999999999999972
40
2.6999999999999997
0
CIRCLE
8
BLACK
10
128.25
20
-33.25
40
2.6999999999999997
0
CIRCLE
8
BLACK
10
129.5499999999999829
20
-42.2999999999999972
40
2.6999999999999997
0
CIRCLE
8
BLACK
10
74.7000000000000028
20
-4.2999999999999998
40
2.6999999999999997
0
CIRCLE
8
BLACK
10
76.
20
4.75
40
2.6999999999999997
0
CIRCLE
8
BLACK
10
77.2999999999999972
20
-4.2999999999999998
40
2.6999999999999997
0
CIRCLE
8
BLACK
10
22.4499999999999993
20
-23.3000000000000007
40
2.6999999999999997
0
CIRCLE
8
BLACK
10
23.75
20
-14.25
40
2.6999999999999997
0
CIRCLE
8
BLACK
10
25.0499999999999972
20
-23.3000000000000007
40
2.6999999999999997
0
CIRCLE
8
BLACK
10
297.9499999999999886
20
-42.2999999999999972
40
2.6999999999999997
0
CIRCLE
8
BLACK
10
299.25
20
-33.25
40
2.6999999999999997
0
CIRCLE
8
BLACK
10
300.5500000000000114
20
-42.2999999999999972
40
2.6999999999999997
0
CIRCLE
8
BLACK
10
36.6999999999999957
20
-4.2999999999999998
40
2.6999999999999997
0
CIRCLE
8
BLACK
10
38.
20
4.75
40
2.6999999999999997
0
CIRCLE
8
BLACK
10
39.2999999999999972
20
-4.2999999999999998
40
2.6999999999999997
0
CIRCLE
8
BLACK
10
122.1999999999999886
20
-23.3000000000000007
40
2.6999999999999997
0
CIRCLE
8
BLACK
10
123.5
20
-14.25
40
2.6999999999999997
0
CIRCLE
8
BLACK
10
124.7999999999999972
20
-23.3000000000000007
40
2.6999999999999997
0
CIRCLE
8
BLACK
10
245.6999999999999886
20
-4.2999999999999998
40
2.6999999999999997
0
CIRCLE
8
BLACK
10
247.
20
4.75
40
2.6999999999999997
0
CIRCLE
8
BLACK
10
248.2999999999999829
20
-4.2999999999999998
40
2.6999999999999997
0
CIRCLE
8
BLACK
10
155.4499999999999886
20
-61.2999999999999972
40
2.6999999999999997
0
CIRCLE
8
BLACK
10
156.75
20
-52.25
40
2.6999999999999997
0
CIRCLE
8
BLACK
10
158.0499999999999829
20
-61.2999999999999972
40
2.6999999999999997
0
CIRCLE
8
BLACK
10
141.1999999999999886
20
-23.3000000000000007
40
2.6999999999999997
0
CIRCLE
8
BLACK
10
142.5
20
-14.25
40
2.6999999999999997
0
CIRCLE
8
BLACK
10
143.7999999999999829
20
-23.3000000000000007
40
2.6999999999999997
0
CIRCLE
8
BLACK
10
103.1999999999999886
20
-23.3000000000000007
40
2.6999999999999997
0
CIRCLE
8
BLACK
10
104.5
20
-14.25
40
2.6999999999999997
0
CIRCLE
8
BLACK
10
105.7999999999999972
20
-23.3000000000000007
40
2.6999999999999997
0
CIRCLE
8
BLACK
10
217.1999999999999886
20
-23.3000000000000007
40
2.6999999999999997
0
CIRCLE
8
BLACK
10
218.5
20
-14.25
40
2.6999999999999997
0
CIRCLE
8
BLACK
10
219.7999999999999829
20
-23.3000000000000007
40
2.6999999999999997
0
CIRCLE
8
BLACK
10
202.9499999999999886
20
-42.2999999999999972
40
2.6999999999999997
0
CIRCLE
8
BLACK
10
204.25
20
-33.25
40
2.6999999999999997
0
CIRCLE
8
BLACK
10
205.5499999999999829
20
-42.2999999999999972
40
2.6999999999999997
0
CIRCLE
8
BLACK
10
92.9077130000000011
20
-89.5960520000000002
40
2.6999999999999997
0
CIRCLE
8
BLACK
10
95.3509139999999888
20
-90.4853039999999993
40
2.6999999999999997
0
CIRCLE
8
BLACK
10
97.2245959999999911
20
-81.5364599999999911
40
2.6999999999999997
0
CIRCLE
8
BLACK
10
198.1999999999999886
20
-23.3000000000000007
40
2.6999999999999997
0
CIRCLE
8
BLACK
10
199.5
20
-14.25
40
2.6999999999999997
0
CIRCLE
8
BLACK
10
200.7999999999999829
20
-23.3000000000000007
40
2.6999999999999997
0
LINE
8
BLACK
6
CONTINUOUS
10
99.0377709999999922
20
-102.8095699999999937
11
100.816276000000002
21
-97.9231699999999989
0
LINE
8
BLACK
6
CONTINUOUS
10
99.3426180000000016
20
-103.3461980000000011
11
113.2782599999999888
21
-108.4183570000000003
0
LINE
8
BLACK
6
CONTINUOUS
10
101.3947390000000013
20
-97.7080419999999918
11
115.330379999999991
21
-102.780200999999991
0
LINE
8
BLACK
6
CONTINUOUS
10
107.5511009999999885
20
-80.7935749999999899
11
121.4867429999999899
21
-85.8657339999999891
0
LINE
8
BLACK
6
CONTINUOUS
10
109.0905369999999976
20
-75.3944879999999955
11
107.3120320000000021
21
-80.2808899999999994
0
LINE
8
BLACK
6
CONTINUOUS
10
109.6032219999999882
20
-75.1554189999999949
11
123.5388639999999896
21
-80.2275779999999941
0
LINE
8
BLACK
6
CONTINUOUS
10
113.7909449999999936
20
-108.1792879999999997
11
115.5694489999999917
21
-103.2928859999999958
0
LINE
8
BLACK
6
CONTINUOUS
10
121.9994279999999947
20
-85.6266650000000027
11
123.7779329999999902
21
-80.7402629999999988
0
ARC
8
BLACK
10
99.4136499999999899
20
-102.9463789999999932
40
0.4000019007517339
50
-200.00003127
51
-110.00034946
0
ARC
8
BLACK
10
101.1921529999999905
20
-98.0599789999999985
40
0.4000012167043995
50
70.00005434
51
159.99991974
0
ARC
8
BLACK
10
107.6879089999999906
20
-80.4176980000000015
40
0.3999999349912447
50
-199.99999465
51
-109.99999465
0
ARC
8
BLACK
10
109.4664140000000003
20
-75.5312959999999975
40
0.3999999349912447
50
70.00000535
51
160.00000535
0
ARC
8
BLACK
10
113.4150679999999909
20
-108.0424809999999951
40
0.3999995929722929
50
-110.00004364
51
-19.99986005
0
ARC
8
BLACK
10
115.1935739999999981
20
-103.1560769999999962
40
0.3999983112614352
50
-20.00022723
51
70.00022556
0
ARC
8
BLACK
10
121.623550999999992
20
-85.4898570000000007
40
0.3999999349912447
50
-109.99999465
51
-19.99999465
0
ARC
8
BLACK
10
123.4020559999999875
20
-80.6034549999999967
40
0.3999999349912447
50
-19.99999465
51
70.00000535
0
LINE
8
BLACK
6
CONTINUOUS
10
125.5762709999999913
20
-86.8221109999999925
11
119.077888999999999
21
-104.6762709999999998
0
LINE
8
BLACK
6
CONTINUOUS
10
119.077888999999999
20
-104.6762709999999998
11
101.2237289999999916
21
-98.1778889999999933
0
LINE
8
BLACK
6
CONTINUOUS
10
101.2237289999999916
20
-98.1778889999999933
11
107.7221109999999982
21
-80.3237290000000002
0
LINE
8
BLACK
6
CONTINUOUS
10
107.7221109999999982
20
-80.3237290000000002
11
125.5762709999999913
21
-86.8221109999999925
0
CIRCLE
8
BLACK
10
240.9499999999999886
20
-42.2999999999999972
40
2.6999999999999997
0
CIRCLE
8
BLACK
10
242.25
20
-33.25
40
2.6999999999999997
0
CIRCLE
8
BLACK
10
243.5499999999999829
20
-42.2999999999999972
40
2.6999999999999997
0
CIRCLE
8
BLACK
10
236.1999999999999886
20
-23.3000000000000007
40
2.6999999999999997
0
CIRCLE
8
BLACK
10
237.5
20
-14.25
40
2.6999999999999997
0
CIRCLE
8
BLACK
10
238.7999999999999829
20
-23.3000000000000007
40
2.6999999999999997
0
CIRCLE
8
BLACK
10
278.9499999999999886
20
-42.2999999999999972
40
2.6999999999999997
0
CIRCLE
8
BLACK
10
280.25
20
-33.25
40
2.6999999999999997
0
CIRCLE
8
BLACK
10
281.5500000000000114
20
-42.2999999999999972
40
2.6999999999999997
0
CIRCLE
8
BLACK
10
278.9499999999999886
20
-23.3000000000000007
40
2.6999999999999997
0
CIRCLE
8
BLACK
10
280.25
20
-14.25
40
2.6999999999999997
0
CIRCLE
8
BLACK
10
281.5500000000000114
20
-23.3000000000000007
40
2.6999999999999997
0
CIRCLE
8
BLACK
10
145.9499999999999886
20
-42.2999999999999972
40
2.6999999999999997
0
CIRCLE
8
BLACK
10
147.25
20
-33.25
40
2.6999999999999997
0
CIRCLE
8
BLACK
10
148.5499999999999829
20
-42.2999999999999972
40
2.6999999999999997
0
CIRCLE
8
BLACK
10
54.6999999999999957
20
-80.2999999999999972
40
2.6999999999999997
0
CIRCLE
8
BLACK
10
56.
20
-71.25
40
2.6999999999999997
0
CIRCLE
8
BLACK
10
57.2999999999999972
20
-80.2999999999999972
40
2.6999999999999997
0
CIRCLE
8
BLACK
10
196.1254040000000032
20
-75.0364599999999911
40
2.6999999999999997
0
CIRCLE
8
BLACK
10
197.999085999999977
20
-83.9853039999999993
40
2.6999999999999997
0
CIRCLE
8
BLACK
10
200.4422869999999932
20
-83.0960520000000002
40
2.6999999999999997
0
CIRCLE
8
BLACK
10
131.6999999999999886
20
-4.2999999999999998
40
2.6999999999999997
0
CIRCLE
8
BLACK
10
133.
20
4.75
40
2.6999999999999997
0
CIRCLE
8
BLACK
10
134.2999999999999829
20
-4.2999999999999998
40
2.6999999999999997
0
CIRCLE
8
BLACK
10
274.1999999999999886
20
-61.2999999999999972
40
2.6999999999999997
0
CIRCLE
8
BLACK
10
275.5
20
-52.25
40
2.6999999999999997
0
CIRCLE
8
BLACK
10
276.8000000000000114
20
-61.2999999999999972
40
2.6999999999999997
0
CIRCLE
8
BLACK
10
178.2754039999999804
20
-81.5364599999999911
40
2.6999999999999997
0
CIRCLE
8
BLACK
10
180.1490859999999827
20
-90.4853039999999993
40
2.6999999999999997
0
CIRCLE
8
BLACK
10
182.5922869999999989
20
-89.5960520000000002
40
2.6999999999999997
0
CIRCLE
8
BLACK
10
5.8250000000000002
20
-61.2999999999999972
40
2.6999999999999997
0
CIRCLE
8
BLACK
10
7.125
20
-52.25
40
2.6999999999999997
0
CIRCLE
8
BLACK
10
8.4249999999999989
20
-61.2999999999999972
40
2.6999999999999997
0
LINE
8
BLACK
6
CONTINUOUS
10
151.7220669999999814
20
-80.7402629999999988
11
153.5005720000000053
21
-85.6266650000000027
0
LINE
8
BLACK
6
CONTINUOUS
10
159.9305509999999799
20
-103.2928859999999958
11
161.7090550000000064
21
-108.1792879999999997
0
LINE
8
BLACK
6
CONTINUOUS
10
165.8967779999999834
20
-75.1554189999999949
11
151.961135999999982
21
-80.2275779999999941
0
LINE
8
BLACK
6
CONTINUOUS
10
166.4752419999999802
20
-75.3705479999999994
11
168.2537449999999808
21
-80.2569489999999917
0
LINE
8
BLACK
6
CONTINUOUS
10
167.9488989999999831
20
-80.7935749999999899
11
154.0132569999999816
21
-85.8657339999999891
0
LINE
8
BLACK
6
CONTINUOUS
10
174.1052609999999845
20
-97.7080419999999918
11
160.1696199999999806
21
-102.780200999999991
0
LINE
8
BLACK
6
CONTINUOUS
10
176.1573819999999841
20
-103.3461980000000011
11
162.2217399999999827
21
-108.4183570000000003
0
LINE
8
BLACK
6
CONTINUOUS
10
176.3964509999999848
20
-102.8335129999999964
11
174.6179459999999892
21
-97.9471109999999925
0
ARC
8
BLACK
10
152.0979429999999866
20
-80.6034549999999967
40
0.3999989952987382
50
-250.00013995
51
-159.99995636
0
ARC
8
BLACK
10
153.8764500000000055
20
-85.4898549999999915
40
0.4000014723597902
50
-159.99978514
51
-70.00023793
0
ARC
8
BLACK
10
160.3064279999999826
20
-103.1560779999999937
40
0.3999999349912447
50
-250.00000535
51
-160.00000535
0
ARC
8
BLACK
10
162.0849319999999807
20
-108.0424799999999976
40
0.3999999349912447
50
-160.00000535
51
-70.00000535
0
ARC
8
BLACK
10
166.09936399999998
20
-75.5073560000000015
40
0.4000008746840436
50
19.99994566
51
109.99994566
0
ARC
8
BLACK
10
167.8778700000000015
20
-80.3937569999999937
40
0.3999989952987382
50
-70.00027455
51
20.00004364
0
ARC
8
BLACK
10
174.2420689999999865
20
-98.0839189999999945
40
0.3999999349912447
50
19.99999465
51
109.99999465
0
ARC
8
BLACK
10
176.0205739999999821
20
-102.9703209999999984
40
0.3999999349912447
50
-70.00000535
51
19.99999465
0
LINE
8
BLACK
6
CONTINUOUS
10
174.2762709999999799
20
-98.1778889999999933
11
156.422111000000001
21
-104.6762709999999998
0
LINE
8
BLACK
6
CONTINUOUS
10
156.422111000000001
20
-104.6762709999999998
11
149.9237289999999803
21
-86.8221109999999925
0
LINE
8
BLACK
6
CONTINUOUS
10
149.9237289999999803
20
-86.8221109999999925
11
167.7778889999999876
21
-80.3237290000000002
0
LINE
8
BLACK
6
CONTINUOUS
10
167.7778889999999876
20
-80.3237290000000002
11
174.2762709999999799
21
-98.1778889999999933
0
CIRCLE
8
BLACK
10
98.4499999999999886
20
-61.2999999999999972
40
2.6999999999999997
0
CIRCLE
8
BLACK
10
99.75
20
-52.25
40
2.6999999999999997
0
CIRCLE
8
BLACK
10
101.0499999999999972
20
-61.2999999999999972
40
2.6999999999999997
0
CIRCLE
8
BLACK
10
169.6999999999999886
20
-4.2999999999999998
40
2.6999999999999997
0
CIRCLE
8
BLACK
10
171.
20
4.75
40
2.6999999999999997
0
CIRCLE
8
BLACK
10
172.2999999999999829
20
-4.2999999999999998
40
2.6999999999999997
0
CIRCLE
8
BLACK
10
74.9327129999999926
20
-83.0960520000000002
40
2.6999999999999997
0
CIRCLE
8
BLACK
10
77.3759139999999945
20
-83.9853039999999993
40
2.6999999999999997
0
CIRCLE
8
BLACK
10
79.2495959999999968
20
-75.0364599999999911
40
2.6999999999999997
0
CIRCLE
8
BLACK
10
207.6999999999999886
20
-4.2999999999999998
40
2.6999999999999997
0
CIRCLE
8
BLACK
10
209.
20
4.75
40
2.6999999999999997
0
CIRCLE
8
BLACK
10
210.2999999999999829
20
-4.2999999999999998
40
2.6999999999999997
0
CIRCLE
8
BLACK
10
34.3249999999999957
20
-61.2999999999999972
40
2.6999999999999997
0
CIRCLE
8
BLACK
10
35.625
20
-52.25
40
2.6999999999999997
0
CIRCLE
8
BLACK
10
36.9249999999999972
20
-61.2999999999999972
40
2.6999999999999997
0
CIRCLE
8
BLACK
10
110.7077129999999983
20
-96.0960520000000002
40
2.6999999999999997
0
CIRCLE
8
BLACK
10
113.1509140000000002
20
-96.9853039999999993
40
2.6999999999999997
0
CIRCLE
8
BLACK
10
115.0245959999999883
20
-88.0364599999999911
40
2.6999999999999997
0
CIRCLE
8
BLACK
10
60.4499999999999957
20
-61.2999999999999972
40
2.6999999999999997
0
CIRCLE
8
BLACK
10
61.75
20
-52.25
40
2.6999999999999997
0
CIRCLE
8
BLACK
10
63.0499999999999972
20
-61.2999999999999972
40
2.6999999999999997
0
CIRCLE
8
BLACK
10
221.9499999999999886
20
-42.2999999999999972
40
2.6999999999999997
0
CIRCLE
8
BLACK
10
223.25
20
-33.25
40
2.6999999999999997
0
CIRCLE
8
BLACK
10
224.5499999999999829
20
-42.2999999999999972
40
2.6999999999999997
0
CIRCLE
8
BLACK
10
65.2000000000000028
20
-23.3000000000000007
40
2.6999999999999997
0
CIRCLE
8
BLACK
10
66.5
20
-14.25
40
2.6999999999999997
0
CIRCLE
8
BLACK
10
67.7999999999999972
20
-23.3000000000000007
40
2.6999999999999997
0
CIRCLE
8
BLACK
10
252.8249999999999886
20
-61.2999999999999972
40
2.6999999999999997
0
CIRCLE
8
BLACK
10
254.125
20
-52.25
40
2.6999999999999997
0
CIRCLE
8
BLACK
10
255.4249999999999829
20
-61.2999999999999972
40
2.6999999999999997
0
CIRCLE
8
BLACK
10
9.5749999999999993
20
-80.2999999999999972
40
2.6999999999999997
0
CIRCLE
8
BLACK
10
10.875
20
-71.25
40
2.6999999999999997
0
CIRCLE
8
BLACK
10
12.1749999999999989
20
-80.2999999999999972
40
2.6999999999999997
0
CIRCLE
8
BLACK
10
31.9499999999999993
20
-42.2999999999999972
40
2.6999999999999997
0
CIRCLE
8
BLACK
10
33.25
20
-33.25
40
2.6999999999999997
0
CIRCLE
8
BLACK
10
34.5499999999999972
20
-42.2999999999999972
40
2.6999999999999997
0
CIRCLE
8
BLACK
10
160.4754039999999975
20
-88.0364599999999911
40
2.6999999999999997
0
CIRCLE
8
BLACK
10
162.3490859999999998
20
-96.9853039999999993
40
2.6999999999999997
0
CIRCLE
8
BLACK
10
164.7922869999999875
20
-96.0960520000000002
40
2.6999999999999997
0
CIRCLE
8
BLACK
10
231.4499999999999886
20
-61.2999999999999972
40
2.6999999999999997
0
CIRCLE
8
BLACK
10
232.75
20
-52.25
40
2.6999999999999997
0
CIRCLE
8
BLACK
10
234.0499999999999829
20
-61.2999999999999972
40
2.6999999999999997
0
CIRCLE
8
BLACK
10
55.6999999999999957
20
-4.2999999999999998
40
2.6999999999999997
0
CIRCLE
8
BLACK
10
57.
20
4.75
40
2.6999999999999997
0
CIRCLE
8
BLACK
10
58.2999999999999972
20
-4.2999999999999998
40
2.6999999999999997
0
CIRCLE
8
BLACK
10
183.9499999999999886
20
-42.2999999999999972
40
2.6999999999999997
0
CIRCLE
8
BLACK
10
185.25
20
-33.25
40
2.6999999999999997
0
CIRCLE
8
BLACK
10
186.5499999999999829
20
-42.2999999999999972
40
2.6999999999999997
0
CIRCLE
8
BLACK
10
117.4499999999999886
20
-61.2999999999999972
40
2.6999999999999997
0
CIRCLE
8
BLACK
10
118.75
20
-52.25
40
2.6999999999999997
0
CIRCLE
8
BLACK
10
120.0499999999999972
20
-61.2999999999999972
40
2.6999999999999997
0
CIRCLE
8
BLACK
10
226.6999999999999886
20
-4.2999999999999998
40
2.6999999999999997
0
CIRCLE
8
BLACK
10
228.
20
4.75
40
2.6999999999999997
0
CIRCLE
8
BLACK
10
229.2999999999999829
20
-4.2999999999999998
40
2.6999999999999997
0
CIRCLE
8
BLACK
10
69.9500000000000028
20
-42.2999999999999972
40
2.6999999999999997
0
CIRCLE
8
BLACK
10
71.25
20
-33.25
40
2.6999999999999997
0
CIRCLE
8
BLACK
10
72.5499999999999972
20
-42.2999999999999972
40
2.6999999999999997
0
CIRCLE
8
BLACK
10
10.5749999999999993
20
-42.2999999999999972
40
2.6999999999999997
0
CIRCLE
8
BLACK
10
11.875
20
-33.25
40
2.6999999999999997
0
CIRCLE
8
BLACK
10
13.1749999999999989
20
-42.2999999999999972
40
2.6999999999999997
0
CIRCLE
8
BLACK
10
17.6999999999999993
20
-4.2999999999999998
40
2.6999999999999997
0
CIRCLE
8
BLACK
10
19.
20
4.75
40
2.6999999999999997
0
CIRCLE
8
BLACK
10
20.3000000000000007
20
-4.2999999999999998
40
2.6999999999999997
0
CIRCLE
8
BLACK
10
93.7000000000000028
20
-4.2999999999999998
40
2.6999999999999997
0
CIRCLE
8
BLACK
10
95.
20
4.75
40
2.6999999999999997
0
CIRCLE
8
BLACK
10
96.2999999999999972
20
-4.2999999999999998
40
2.6999999999999997
0
CIRCLE
8
BLACK
10
179.1999999999999886
20
-23.3000000000000007
40
2.6999999999999997
0
CIRCLE
8
BLACK
10
180.5
20
-14.25
40
2.6999999999999997
0
CIRCLE
8
BLACK
10
181.7999999999999829
20
-23.3000000000000007
40
2.6999999999999997
0
CIRCLE
8
BLACK
10
79.4500000000000028
20
-61.2999999999999972
40
2.6999999999999997
0
CIRCLE
8
BLACK
10
80.75
20
-52.25
40
2.6999999999999997
0
CIRCLE
8
BLACK
10
82.0499999999999972
20
-61.2999999999999972
40
2.6999999999999997
0
CIRCLE
8
BLACK
10
136.4499999999999886
20
-80.2999999999999972
40
2.6999999999999997
0
CIRCLE
8
BLACK
10
137.75
20
-71.25
40
2.6999999999999997
0
CIRCLE
8
BLACK
10
139.0499999999999829
20
-80.2999999999999972
40
2.6999999999999997
0
CIRCLE
8
BLACK
10
212.4499999999999886
20
-61.2999999999999972
40
2.6999999999999997
0
CIRCLE
8
BLACK
10
213.75
20
-52.25
40
2.6999999999999997
0
CIRCLE
8
BLACK
10
215.0499999999999829
20
-61.2999999999999972
40
2.6999999999999997
0
CIRCLE
8
BLACK
10
107.9499999999999886
20
-42.2999999999999972
40
2.6999999999999997
0
CIRCLE
8
BLACK
10
109.25
20
-33.25
40
2.6999999999999997
0
CIRCLE
8
BLACK
10
110.5499999999999972
20
-42.2999999999999972
40
2.6999999999999997
0
CIRCLE
8
BLACK
10
112.6999999999999886
20
-4.2999999999999998
40
2.6999999999999997
0
CIRCLE
8
BLACK
10
114.
20
4.75
40
2.6999999999999997
0
CIRCLE
8
BLACK
10
115.2999999999999972
20
-4.2999999999999998
40
2.6999999999999997
0
CIRCLE
8
BLACK
10
33.3249999999999957
20
-80.2999999999999972
40
2.6999999999999997
0
CIRCLE
8
BLACK
10
34.625
20
-71.25
40
2.6999999999999997
0
CIRCLE
8
BLACK
10
35.9249999999999972
20
-80.2999999999999972
40
2.6999999999999997
0
CIRCLE
8
BLACK
10
136.4499999999999886
20
-61.2999999999999972
40
2.6999999999999997
0
CIRCLE
8
BLACK
10
137.75
20
-52.25
40
2.6999999999999997
0
CIRCLE
8
BLACK
10
139.0499999999999829
20
-61.2999999999999972
40
2.6999999999999997
0
CIRCLE
8
BLACK
10
239.5749999999999886
20
-80.2999999999999972
40
2.6999999999999997
0
CIRCLE
8
BLACK
10
240.875
20
-71.25
40
2.6999999999999997
0
CIRCLE
8
BLACK
10
242.1749999999999829
20
-80.2999999999999972
40
2.6999999999999997
0
CIRCLE
8
BLACK
10
193.4499999999999886
20
-61.2999999999999972
40
2.6999999999999997
0
CIRCLE
8
BLACK
10
194.75
20
-52.25
40
2.6999999999999997
0
CIRCLE
8
BLACK
10
196.0499999999999829
20
-61.2999999999999972
40
2.6999999999999997
0
CIRCLE
8
BLACK
10
283.6999999999999886
20
-4.2999999999999998
40
2.6999999999999997
0
CIRCLE
8
BLACK
10
285.
20
4.75
40
2.6999999999999997
0
CIRCLE
8
BLACK
10
286.3000000000000114
20
-4.2999999999999998
40
2.6999999999999997
  0
ENDSEC
  0
EOF
