  0
SECTION
  2
HEADER
  9
$ANGBASE
  50
0.0
  9
$ANGDIR
  70
1
  9
$MEASUREMENT
  70
1
  0
ENDSEC
  0
SECTION
  2
TABLES
  0
TABLE
  2
LTYPE
  70
4
  0
LTYPE
  5
40F
  2
CONTINUOUS
  70
0
  3
Solid line
  72
65
  73
0
  40
0.0
  0
LTYPE
  5
410
  2
DASHDOT
 70
0
  3
Dash Dot ____ _ ____ _
 72
65
 73
4
 40
2.0
 49
1.25
 49
-0.25
 49
0.25
 49
-0.25
  0
LTYPE
  5
411
  2
DASHED
 70
0
  3
Dashed __ __ __ __ __
 72
65
 73
2
 40
0.75
 49
0.5
 49
-0.25
  0
LTYPE
  5
43B
  2
DOTTED
 70
0
  3
Dotted .  .  .  .
 72
65
 73
2
 40
0.2
 49
0.0
 49
-0.2
  0
ENDTAB
  0
TABLE
  2
STYLE
  70
4
  0
STYLE
  2
KICAD
  70
0
  40
0
  41
1
  42
1
  50
0
  71
0
  3
isocp.shx
  0
STYLE
  2
KICADB
  70
0
  40
0
  41
1
  42
1
  50
0
  71
0
  3
isocp.shx
  0
STYLE
  2
KICADI
  70
0
  40
0
  41
1
  42
1
  50
15
  71
0
  3
isocp.shx
  0
STYLE
  2
KICADBI
  70
0
  40
0
  41
1
  42
1
  50
15
  71
0
  3
isocp.shx
  0
ENDTAB
  0
TABLE
  2
LAYER
  70
1
  0
LAYER
  2
BLACK
  70
0
  62
7
  6
CONTINUOUS
  0
ENDTAB
  0
ENDSEC
  0
SECTION
  2
ENTITIES
0
LINE
8
BLACK
6
CONTINUOUS
10
29.1400059999999996
20
-79.2800000000000011
11
29.1400059999999996
21
-81.8799999999999955
0
ARC
8
BLACK
10
179.4099999999999966
20
-41.1499999999999986
40
2.7500000000065454
50
0.00000000
51
89.99987499
0
ARC
8
BLACK
10
121.6073999999999984
20
-81.4391999999999996
40
2.6999646061865326
50
-20.00075953
51
69.99932887
0
LINE
8
BLACK
6
CONTINUOUS
10
119.7947109999999924
20
-86.4196139999999957
11
116.3178479999999979
21
-85.1541409999999956
0
ARC
8
BLACK
10
117.1700000000000017
20
-22.4100000000000001
40
2.7500000000065454
50
0.00000000
51
89.99987499
0
LINE
8
BLACK
6
CONTINUOUS
10
182.1600059999999814
20
-41.1499999999999986
11
182.1600059999999814
21
-43.75
0
LINE
8
BLACK
6
CONTINUOUS
10
18.4699989999999978
20
-23.3999999999999986
11
18.4699999999999989
21
-16.5000110000000006
0
LINE
8
BLACK
6
CONTINUOUS
10
100.3999999999999915
20
2.23
11
100.3999999999999915
21
-4.6699999999999999
0
ARC
8
BLACK
10
186.8599999999999852
20
-22.6999999999999993
40
2.749994
50
89.99987499
51
180.00000000
0
LINE
8
BLACK
6
CONTINUOUS
10
179.4100059999999814
20
-38.3999999999999986
11
172.5100060000000042
21
-38.3999999999999986
0
LINE
8
BLACK
6
CONTINUOUS
10
172.5100060000000042
20
-46.4999989999999954
11
179.4099939999999833
21
-46.5
0
ARC
8
BLACK
10
155.5600000000000023
20
6.6899999999999995
40
2.7500010000001813
50
90.00002083
51
179.99997917
0
LINE
8
BLACK
6
CONTINUOUS
10
108.10784799999999
20
-107.7141409999999979
11
101.5300000000000011
21
-105.3199999999999932
0
LINE
8
BLACK
6
CONTINUOUS
10
150.2954560000000015
20
-7.3554559999999993
11
150.2954560000000015
21
-13.9554559999999999
0
LINE
8
BLACK
6
CONTINUOUS
10
169.9454559999999788
20
-16.7054559999999981
11
153.0454560000000015
21
-16.7054559999999981
0
LINE
8
BLACK
6
CONTINUOUS
10
173.9200060000000008
20
-5.1699999999999999
11
173.9200060000000008
21
-2.5699999999999998
0
LINE
8
BLACK
6
CONTINUOUS
10
142.7499990000000025
20
-29.0499999999999972
11
142.75
21
-37.0499999999999972
0
LINE
8
BLACK
6
CONTINUOUS
10
43.8599989999999949
20
-14.3900009999999998
11
43.8599989999999949
21
-23.7899999999999991
0
LINE
8
BLACK
6
CONTINUOUS
10
141.3700059999999894
20
-63.3200000000000003
11
141.3700059999999894
21
-60.7199999999999989
0
ARC
8
BLACK
10
164.7918999999999983
20
-80.3369
40
2.699972621135259
50
-70.00058383
51
19.99952525
0
LINE
8
BLACK
6
CONTINUOUS
10
120.3100060000000013
20
-8.4899989999999992
11
127.2099939999999947
21
-8.4900000000000002
0
ARC
8
BLACK
10
135.5
20
-37.0499999999999972
40
2.7500000000001816
50
-180.00000000
51
-89.99997917
0
LINE
8
BLACK
6
CONTINUOUS
10
166.4397999999999911
20
-76.9702750000000009
11
167.3290519999999901
21
-79.4134760000000028
0
LINE
8
BLACK
6
CONTINUOUS
10
174.5597999999999956
20
-99.270274999999998
11
175.4490519999999947
21
-101.713476
0
LINE
8
BLACK
6
CONTINUOUS
10
105.75
20
-7.4199999999999999
11
103.1499999999999915
21
-7.4199999999999999
0
ARC
8
BLACK
10
227.
20
-78.3799999999999955
40
2.749994
50
89.99987499
51
180.00000000
0
LINE
8
BLACK
6
CONTINUOUS
10
129.9600059999999928
20
-3.1399999999999997
11
129.9600059999999928
21
-5.7399999999999993
0
ARC
8
BLACK
10
127.2099999999999937
20
-5.7399999999999993
40
2.750006
50
-89.99987499
51
-0.00000000
0
ARC
8
BLACK
10
167.7599999999999909
20
6.6899999999999995
40
2.7500010000001813
50
0.00002083
51
90.00002083
0
LINE
8
BLACK
6
CONTINUOUS
10
114.4900059999999939
20
-46.3999990000000011
11
121.3899940000000015
21
-46.3999999999999986
0
ARC
8
BLACK
10
183.5699999999999932
20
-5.1699999999999999
40
2.750006
50
-89.99987499
51
-0.00000000
0
LINE
8
BLACK
6
CONTINUOUS
10
162.238472999999999
20
-84.1395749999999936
11
155.6606249999999818
21
-86.5337159999999983
0
ARC
8
BLACK
10
26.3900000000000006
20
-81.8799999999999955
40
2.750006
50
-89.99987499
51
-0.00000000
0
LINE
8
BLACK
6
CONTINUOUS
10
15.7199999999999989
20
-26.1499999999999986
11
13.1199999999999992
21
-26.1499999999999986
0
ARC
8
BLACK
10
120.3099999999999881
20
-3.1399999999999997
40
2.749994
50
89.99987499
51
180.00000000
0
LINE
8
BLACK
6
CONTINUOUS
10
124.1445879999999988
20
-82.3626989999999921
11
123.2553349999999881
21
-84.8058999999999941
0
ARC
8
BLACK
10
183.5699999999999932
20
-2.5699999999999998
40
2.7500000000065454
50
0.00000000
51
89.99987499
0
LINE
8
BLACK
6
CONTINUOUS
10
99.9162839999999903
20
-101.859375
11
100.8055370000000011
21
-99.416173999999998
0
LINE
8
BLACK
6
CONTINUOUS
10
110.2700059999999951
20
-27.759998999999997
11
117.1699939999999884
21
-27.759999999999998
0
ARC
8
BLACK
10
29.509999999999998
20
-14.3899999999999988
40
2.75
50
90.00000000
51
180.00000000
0
ARC
8
BLACK
10
233.8999999999999773
20
-78.3799999999999955
40
2.7500000000065454
50
0.00000000
51
89.99987499
0
ARC
8
BLACK
10
15.7199999999999989
20
-16.5
40
2.75
50
0.00000000
51
90.00000000
0
LINE
8
BLACK
6
CONTINUOUS
10
16.7400059999999975
20
-81.8799999999999955
11
16.7400059999999975
21
-79.2800000000000011
0
LINE
8
BLACK
6
CONTINUOUS
10
224.2500059999999849
20
-80.9799999999999898
11
224.2500059999999849
21
-78.3799999999999955
0
ARC
8
BLACK
10
127.2099999999999937
20
-3.1399999999999997
40
2.7500000000065454
50
0.00000000
51
89.99987499
0
ARC
8
BLACK
10
163.9026000000000067
20
-77.8936999999999955
40
2.6999626265017076
50
19.99919682
51
109.99962502
0
LINE
8
BLACK
6
CONTINUOUS
10
170.3584730000000036
20
-106.4395749999999907
11
163.7806249999999864
21
-108.8337159999999955
0
ARC
8
BLACK
10
161.967899999999986
20
-103.8532999999999902
40
2.6999979309451332
50
-250.00003950
51
-159.99899912
0
LINE
8
BLACK
6
CONTINUOUS
10
186.8600059999999985
20
-28.0499989999999997
11
193.7599939999999776
21
-28.0499999999999972
0
LINE
8
BLACK
6
CONTINUOUS
10
193.7600060000000042
20
-19.9499999999999993
11
186.8600059999999985
21
-19.9499999999999993
0
ARC
8
BLACK
10
155.5600000000000023
20
-4.3599999999999994
40
2.7499990000001815
50
-180.00002083
51
-90.00002083
0
ARC
8
BLACK
10
193.7599999999999909
20
-22.6999999999999993
40
2.7500000000065454
50
0.00000000
51
89.99987499
0
LINE
8
BLACK
6
CONTINUOUS
10
108.1262839999999983
20
-79.2993749999999977
11
109.0155369999999948
21
-76.8561739999999958
0
LINE
8
BLACK
6
CONTINUOUS
10
108.4999989999999883
20
-4.6699999999999999
11
108.5
21
2.2299889999999998
0
LINE
8
BLACK
6
CONTINUOUS
10
29.509999999999998
20
-26.5399989999999981
11
41.1099999999999994
21
-26.5399999999999991
0
ARC
8
BLACK
10
19.4899999999999984
20
-79.2800000000000011
40
2.749994
50
89.99987499
51
180.00000000
0
ARC
8
BLACK
10
112.508199999999988
20
-106.4423999999999921
40
2.6999826403562301
50
-110.00036415
51
-20.00116415
0
LINE
8
BLACK
6
CONTINUOUS
10
127.2100059999999928
20
-0.39
11
120.3100060000000013
21
-0.39
0
LINE
8
BLACK
6
CONTINUOUS
10
107.5200059999999951
20
-25.009999999999998
11
107.5200059999999951
21
-22.4100000000000001
0
LINE
8
BLACK
6
CONTINUOUS
10
152.8099990000000048
20
6.6900009999999996
11
152.8099990000000048
21
-4.3599990000000002
0
LINE
8
BLACK
6
CONTINUOUS
10
111.5847109999999986
20
-108.979613999999998
11
108.10784799999999
21
-107.7141409999999979
0
LINE
8
BLACK
6
CONTINUOUS
10
173.8353349999999864
20
-105.1740989999999982
11
170.3584730000000036
21
-106.4395749999999907
0
ARC
8
BLACK
10
193.7599999999999909
20
-25.2999999999999972
40
2.750006
50
-89.99987499
51
-0.00000000
0
LINE
8
BLACK
6
CONTINUOUS
10
171.0991750000000025
20
-97.6565590000000014
11
167.6223119999999938
21
-98.9220339999999965
0
LINE
8
BLACK
6
CONTINUOUS
10
135.5000009999999975
20
-39.7999999999999972
11
139.9999990000000025
21
-39.7999999999999972
0
ARC
8
BLACK
10
102.4534999999999911
20
-102.7827999999999946
40
2.7000437200163998
50
-199.99908070
51
-110.00069237
0
ARC
8
BLACK
10
169.9454999999999814
20
-7.3554999999999993
40
2.7500440003519944
50
0.00091675
51
90.00091672
0
ARC
8
BLACK
10
103.1499999999999915
20
2.23
40
2.75
50
90.00000000
51
180.00000000
0
ARC
8
BLACK
10
172.0225999999999829
20
-100.1936999999999927
40
2.6999626265017076
50
19.99919682
51
109.99962502
0
ARC
8
BLACK
10
153.8478999999999814
20
-81.553299999999993
40
2.6999979309451332
50
-250.00003950
51
-159.99899912
0
LINE
8
BLACK
6
CONTINUOUS
10
155.5599990000000048
20
9.4400009999999988
11
167.7599989999999934
21
9.4400009999999988
0
ARC
8
BLACK
10
114.4899999999999949
20
-43.6499999999999986
40
2.7500000000065454
50
-180.00000000
51
-89.99987499
0
LINE
8
BLACK
6
CONTINUOUS
10
117.5600060000000013
20
-5.7399999999999993
11
117.5600060000000013
21
-3.1399999999999997
0
LINE
8
BLACK
6
CONTINUOUS
10
153.7700059999999951
20
-60.7199999999999989
11
153.7700059999999951
21
-63.3200000000000003
0
LINE
8
BLACK
6
CONTINUOUS
10
162.9791749999999979
20
-75.3565589999999901
11
159.5023119999999892
21
-76.6220339999999993
0
LINE
8
BLACK
6
CONTINUOUS
10
172.6954559999999788
20
-13.9554559999999999
11
172.6954559999999788
21
-7.3554559999999993
0
LINE
8
BLACK
6
CONTINUOUS
10
236.6500059999999905
20
-78.3799999999999955
11
236.6500059999999905
21
-80.9799999999999898
0
LINE
8
BLACK
6
CONTINUOUS
10
170.5099989999999934
20
6.6900009999999996
11
170.5099989999999934
21
-4.3599990000000002
0
ARC
8
BLACK
10
120.3099999999999881
20
-5.7399999999999993
40
2.7500000000065454
50
-180.00000000
51
-89.99987499
0
LINE
8
BLACK
6
CONTINUOUS
10
160.3199999999999932
20
-107.2199999999999989
11
159.4307479999999941
21
-104.7767979999999994
0
ARC
8
BLACK
10
172.5099999999999909
20
-41.1499999999999986
40
2.749994
50
89.99987499
51
180.00000000
0
LINE
8
BLACK
6
CONTINUOUS
10
114.3208719999999943
20
-101.4620740000000012
11
110.8440089999999998
21
-100.1965999999999894
0
LINE
8
BLACK
6
CONTINUOUS
10
186.320005999999978
20
-2.5699999999999998
11
186.320005999999978
21
-5.1699999999999999
0
LINE
8
BLACK
6
CONTINUOUS
10
227.0000059999999849
20
-83.7299989999999923
11
233.8999939999999924
21
-83.7299999999999898
0
LINE
8
BLACK
6
CONTINUOUS
10
144.1200059999999894
20
-66.0699989999999957
11
151.019993999999997
21
-66.0699999999999932
0
ARC
8
BLACK
10
110.269999999999996
20
-25.009999999999998
40
2.7500000000065454
50
-180.00000000
51
-89.99987499
0
ARC
8
BLACK
10
151.0199999999999818
20
-60.7199999999999989
40
2.7500000000065454
50
0.00000000
51
89.99987499
0
ARC
8
BLACK
10
113.3973999999999904
20
-103.9992000000000019
40
2.6999646061865326
50
-20.00075953
51
69.99932887
0
LINE
8
BLACK
6
CONTINUOUS
10
135.7400059999999939
20
-59.2299999999999969
11
135.7400059999999939
21
-61.8299999999999983
0
LINE
8
BLACK
6
CONTINUOUS
10
132.9900059999999939
20
-56.4799999999999969
11
126.0900059999999883
21
-56.4799999999999969
0
LINE
8
BLACK
6
CONTINUOUS
10
41.1099999999999994
20
-11.6400009999999998
11
29.509999999999998
21
-11.6399999999999988
0
ARC
8
BLACK
10
233.8999999999999773
20
-80.9799999999999898
40
2.750006
50
-89.99987499
51
-0.00000000
0
ARC
8
BLACK
10
117.1700000000000017
20
-25.009999999999998
40
2.750006
50
-89.99987499
51
-0.00000000
0
ARC
8
BLACK
10
132.9899999999999807
20
-59.2299999999999969
40
2.7500000000065454
50
0.00000000
51
89.99987499
0
LINE
8
BLACK
6
CONTINUOUS
10
123.3400059999999883
20
-61.8299999999999983
11
123.3400059999999883
21
-59.2299999999999969
0
LINE
8
BLACK
6
CONTINUOUS
10
116.3178479999999979
20
-85.1541409999999956
11
109.7399999999999949
21
-82.7599999999999909
0
ARC
8
BLACK
10
153.0455000000000041
20
-13.9554999999999989
40
2.7499560003520052
50
-180.00091672
51
-90.00091675
0
ARC
8
BLACK
10
144.1200000000000045
20
-63.3200000000000003
40
2.7500000000065454
50
-180.00000000
51
-89.99987499
0
LINE
8
BLACK
6
CONTINUOUS
10
169.7600060000000042
20
-43.75
11
169.7600060000000042
21
-41.1499999999999986
0
LINE
8
BLACK
6
CONTINUOUS
10
126.0900059999999883
20
-64.5799990000000008
11
132.9899939999999958
21
-64.5799999999999983
0
LINE
8
BLACK
6
CONTINUOUS
10
196.5100060000000042
20
-22.6999999999999993
11
196.5100060000000042
21
-25.2999999999999972
0
ARC
8
BLACK
10
121.3900000000000006
20
-43.6499999999999986
40
2.750006
50
-89.99987499
51
-0.00000000
0
LINE
8
BLACK
6
CONTINUOUS
10
121.3900059999999996
20
-38.2999999999999972
11
114.4900059999999939
21
-38.2999999999999972
0
LINE
8
BLACK
6
CONTINUOUS
10
26.3900059999999996
20
-76.5300000000000011
11
19.4900059999999975
21
-76.5300000000000011
0
LINE
8
BLACK
6
CONTINUOUS
10
184.1100059999999985
20
-25.2999999999999972
11
184.1100059999999985
21
-22.6999999999999993
0
LINE
8
BLACK
6
CONTINUOUS
10
152.1999999999999886
20
-84.9200000000000017
11
151.3107479999999896
21
-82.4767980000000023
0
ARC
8
BLACK
10
140.
20
-37.0499999999999972
40
2.75
50
-90.00000000
51
-0.00000000
0
ARC
8
BLACK
10
105.75
20
2.23
40
2.75
50
0.00000000
51
90.00000000
0
LINE
8
BLACK
6
CONTINUOUS
10
183.570005999999978
20
0.18
11
176.6700060000000008
21
0.18
0
LINE
8
BLACK
6
CONTINUOUS
10
135.5
20
-26.3000019999999992
11
139.9999990000000025
21
-26.2999999999999972
0
LINE
8
BLACK
6
CONTINUOUS
10
110.8440089999999998
20
-100.1965999999999894
11
104.2661609999999968
21
-97.8024589999999989
0
ARC
8
BLACK
10
29.509999999999998
20
-23.7899999999999991
40
2.7499989999999999
50
-180.00002083
51
-90.00000000
0
ARC
8
BLACK
10
154.7372000000000014
20
-83.9964999999999975
40
2.7000331037379892
50
-159.99930763
51
-70.00091930
0
ARC
8
BLACK
10
176.6699999999999875
20
-2.5699999999999998
40
2.749994
50
89.99987499
51
180.00000000
0
LINE
8
BLACK
6
CONTINUOUS
10
165.7153349999999818
20
-82.8740990000000011
11
162.238472999999999
21
-84.1395749999999936
0
LINE
8
BLACK
6
CONTINUOUS
10
167.7599989999999934
20
-7.1099989999999993
11
155.5599990000000048
21
-7.1099989999999993
0
ARC
8
BLACK
10
132.9899999999999807
20
-61.8299999999999983
40
2.750006
50
-89.99987499
51
-0.00000000
0
ARC
8
BLACK
10
167.7599999999999909
20
-4.3599999999999994
40
2.7499990000001815
50
-90.00002083
51
0.00002083
0
LINE
8
BLACK
6
CONTINUOUS
10
176.6700060000000008
20
-7.9199989999999998
11
183.5699939999999799
21
-7.9199999999999999
0
ARC
8
BLACK
10
153.0455000000000041
20
-7.3554999999999993
40
2.7500440003519944
50
90.00091672
51
179.99908328
0
ARC
8
BLACK
10
26.3900000000000006
20
-79.2800000000000011
40
2.7500000000065454
50
0.00000000
51
89.99987499
0
LINE
8
BLACK
6
CONTINUOUS
10
115.9345879999999909
20
-104.9226989999999944
11
115.0453349999999944
21
-107.3658999999999963
0
ARC
8
BLACK
10
121.3900000000000006
20
-41.0499999999999972
40
2.7500000000065454
50
0.00000000
51
89.99987499
0
ARC
8
BLACK
10
114.4899999999999949
20
-41.0499999999999972
40
2.749994
50
89.99987499
51
180.00000000
0
LINE
8
BLACK
6
CONTINUOUS
10
132.7500009999999975
20
-37.0499999999999972
11
132.75
21
-29.0499999999999972
0
LINE
8
BLACK
6
CONTINUOUS
10
124.1400059999999996
20
-41.0499999999999972
11
124.1400059999999996
21
-43.6499999999999986
0
ARC
8
BLACK
10
103.1499999999999915
20
-4.6699999999999999
40
2.75
50
-180.00000000
51
-90.00000000
0
ARC
8
BLACK
10
135.5
20
-29.0499999999999972
40
2.75
50
90.00000000
51
180.00000000
0
ARC
8
BLACK
10
126.0899999999999892
20
-59.2299999999999969
40
2.749994
50
89.99987499
51
180.00000000
0
LINE
8
BLACK
6
CONTINUOUS
10
13.1199999999999992
20
-13.75
11
15.7199999999999989
21
-13.75
0
ARC
8
BLACK
10
162.857200000000006
20
-106.2964999999999947
40
2.7000331037379892
50
-159.99930763
51
-70.00091930
0
ARC
8
BLACK
10
19.4899999999999984
20
-81.8799999999999955
40
2.7500000000065454
50
-180.00000000
51
-89.99987499
0
ARC
8
BLACK
10
186.8599999999999852
20
-25.2999999999999972
40
2.7500000000065454
50
-180.00000000
51
-89.99987499
0
ARC
8
BLACK
10
172.9119000000000028
20
-102.6368999999999971
40
2.699972621135259
50
-70.00058383
51
19.99952525
0
LINE
8
BLACK
6
CONTINUOUS
10
233.9000059999999905
20
-75.6299999999999955
11
227.0000059999999849
21
-75.6299999999999955
0
ARC
8
BLACK
10
172.5099999999999909
20
-43.75
40
2.7500000000065454
50
-180.00000000
51
-89.99987499
0
LINE
8
BLACK
6
CONTINUOUS
10
151.0200059999999951
20
-57.9699999999999989
11
144.1200059999999894
21
-57.9699999999999989
0
ARC
8
BLACK
10
120.718199999999996
20
-83.8823999999999899
40
2.6999826403562301
50
-110.00036415
51
-20.00116415
0
ARC
8
BLACK
10
169.9454999999999814
20
-13.9554999999999989
40
2.7499560003520052
50
-90.00091675
51
0.00091675
0
ARC
8
BLACK
10
126.0899999999999892
20
-61.8299999999999983
40
2.7500000000065454
50
-180.00000000
51
-89.99987499
0
ARC
8
BLACK
10
41.1099999999999994
20
-23.7899999999999991
40
2.75
50
-90.00000000
51
-0.00000000
0
ARC
8
BLACK
10
105.75
20
-4.6699999999999999
40
2.75
50
-90.00000000
51
-0.00000000
0
LINE
8
BLACK
6
CONTINUOUS
10
119.9200060000000008
20
-22.4100000000000001
11
119.9200060000000008
21
-25.009999999999998
0
LINE
8
BLACK
6
CONTINUOUS
10
111.7400059999999939
20
-43.6499999999999986
11
111.7400059999999939
21
-41.0499999999999972
0
ARC
8
BLACK
10
176.6699999999999875
20
-5.1699999999999999
40
2.7500000000065454
50
-180.00000000
51
-89.99987499
0
LINE
8
BLACK
6
CONTINUOUS
10
159.5023119999999892
20
-76.6220339999999993
11
152.9244640000000004
21
-79.0161749999999898
0
ARC
8
BLACK
10
179.4099999999999966
20
-43.75
40
2.750006
50
-89.99987499
51
-0.00000000
0
ARC
8
BLACK
10
144.1200000000000045
20
-60.7199999999999989
40
2.749994
50
89.99987499
51
180.00000000
0
LINE
8
BLACK
6
CONTINUOUS
10
167.6223119999999938
20
-98.9220339999999965
11
161.0444640000000049
21
-101.3161750000000012
0
ARC
8
BLACK
10
15.7199999999999989
20
-23.3999999999999986
40
2.75
50
-90.00000000
51
-0.00000000
0
ARC
8
BLACK
10
13.1199999999999992
20
-23.3999999999999986
40
2.75
50
-180.00000000
51
-90.00000000
0
LINE
8
BLACK
6
CONTINUOUS
10
117.1700060000000008
20
-19.6600000000000001
11
110.2700059999999951
21
-19.6600000000000001
0
LINE
8
BLACK
6
CONTINUOUS
10
26.759999999999998
20
-14.3900009999999998
11
26.759999999999998
21
-23.7899989999999981
0
LINE
8
BLACK
6
CONTINUOUS
10
122.530871999999988
20
-78.9020739999999989
11
119.0540089999999935
21
-77.6366000000000014
0
ARC
8
BLACK
10
110.269999999999996
20
-22.4100000000000001
40
2.749994
50
89.99987499
51
180.00000000
0
LINE
8
BLACK
6
CONTINUOUS
10
103.1499999999999915
20
4.9799999999999995
11
105.75
21
4.9799999999999995
0
ARC
8
BLACK
10
110.6634999999999991
20
-80.2227999999999923
40
2.7000437200163998
50
-199.99908070
51
-110.00069237
0
ARC
8
BLACK
10
103.3426999999999936
20
-100.3395999999999901
40
2.6999836418106313
50
69.99965710
51
160.00051471
0
LINE
8
BLACK
6
CONTINUOUS
10
19.4900059999999975
20
-84.629998999999998
11
26.389993999999998
21
-84.6299999999999955
0
ARC
8
BLACK
10
140.
20
-29.0499999999999972
40
2.7500000000001816
50
0.00000000
51
90.00002083
0
ARC
8
BLACK
10
227.
20
-80.9799999999999898
40
2.7500000000065454
50
-180.00000000
51
-89.99987499
0
LINE
8
BLACK
6
CONTINUOUS
10
153.0454560000000015
20
-4.6054560000000002
11
169.9454559999999788
21
-4.6054560000000002
0
ARC
8
BLACK
10
111.5527000000000015
20
-77.7796000000000021
40
2.6999836418106313
50
69.99965710
51
160.00051471
0
ARC
8
BLACK
10
151.0199999999999818
20
-63.3200000000000003
40
2.750006
50
-89.99987499
51
-0.00000000
0
ARC
8
BLACK
10
41.1099999999999994
20
-14.3899999999999988
40
2.7499989999999999
50
-0.00002083
51
90.00000000
0
LINE
8
BLACK
6
CONTINUOUS
10
10.3699999999999992
20
-16.5
11
10.3699999999999992
21
-23.3999999999999986
0
LINE
8
BLACK
6
CONTINUOUS
10
119.0540089999999935
20
-77.6366000000000014
11
112.4761609999999905
21
-75.2424589999999966
0
ARC
8
BLACK
10
13.1199999999999992
20
-16.5
40
2.75
50
90.00000000
51
180.00000000
0
CIRCLE
8
BLACK
10
218.5
20
-80.2999999999999972
40
2.75
0
CIRCLE
8
BLACK
10
219.5
20
-71.25
40
2.75
0
CIRCLE
8
BLACK
10
220.5
20
-80.2999999999999972
40
2.75
0
CIRCLE
8
BLACK
10
265.
20
-4.2999999999999998
40
2.75
0
CIRCLE
8
BLACK
10
266.
20
4.75
40
2.75
0
CIRCLE
8
BLACK
10
267.
20
-4.2999999999999998
40
2.75
0
CIRCLE
8
BLACK
10
160.5
20
-23.3000000000000007
40
2.75
0
CIRCLE
8
BLACK
10
161.5
20
-14.25
40
2.75
0
CIRCLE
8
BLACK
10
162.5
20
-23.3000000000000007
40
2.75
0
CIRCLE
8
BLACK
10
260.25
20
-42.2999999999999972
40
2.75
0
CIRCLE
8
BLACK
10
261.25
20
-33.25
40
2.75
0
CIRCLE
8
BLACK
10
262.25
20
-42.2999999999999972
40
2.75
0
CIRCLE
8
BLACK
10
189.
20
-4.2999999999999998
40
2.75
0
CIRCLE
8
BLACK
10
190.
20
4.75
40
2.75
0
CIRCLE
8
BLACK
10
191.
20
-4.2999999999999998
40
2.75
0
CIRCLE
8
BLACK
10
174.75
20
-61.2999999999999972
40
2.75
0
CIRCLE
8
BLACK
10
175.75
20
-52.25
40
2.75
0
CIRCLE
8
BLACK
10
176.75
20
-61.2999999999999972
40
2.75
0
CIRCLE
8
BLACK
10
293.5
20
-61.2999999999999972
40
2.75
0
CIRCLE
8
BLACK
10
294.5
20
-52.25
40
2.75
0
CIRCLE
8
BLACK
10
295.5
20
-61.2999999999999972
40
2.75
0
CIRCLE
8
BLACK
10
89.25
20
-42.2999999999999972
40
2.75
0
CIRCLE
8
BLACK
10
90.25
20
-33.25
40
2.75
0
CIRCLE
8
BLACK
10
91.25
20
-42.2999999999999972
40
2.75
0
CIRCLE
8
BLACK
10
165.25
20
-42.2999999999999972
40
2.75
0
CIRCLE
8
BLACK
10
166.25
20
-33.25
40
2.75
0
CIRCLE
8
BLACK
10
167.25
20
-42.2999999999999972
40
2.75
0
CIRCLE
8
BLACK
10
46.5
20
-23.3000000000000007
40
2.75
0
CIRCLE
8
BLACK
10
47.5
20
-14.25
40
2.75
0
CIRCLE
8
BLACK
10
48.5
20
-23.3000000000000007
40
2.75
0
CIRCLE
8
BLACK
10
151.
20
-4.2999999999999998
40
2.75
0
CIRCLE
8
BLACK
10
152.
20
4.75
40
2.75
0
CIRCLE
8
BLACK
10
153.
20
-4.2999999999999998
40
2.75
0
CIRCLE
8
BLACK
10
255.5
20
-23.3000000000000007
40
2.75
0
CIRCLE
8
BLACK
10
256.5
20
-14.25
40
2.75
0
CIRCLE
8
BLACK
10
257.5
20
-23.3000000000000007
40
2.75
0
CIRCLE
8
BLACK
10
51.25
20
-42.2999999999999972
40
2.75
0
CIRCLE
8
BLACK
10
52.25
20
-33.25
40
2.75
0
CIRCLE
8
BLACK
10
53.25
20
-42.2999999999999972
40
2.75
0
CIRCLE
8
BLACK
10
84.5
20
-23.3000000000000007
40
2.75
0
CIRCLE
8
BLACK
10
85.5
20
-14.25
40
2.75
0
CIRCLE
8
BLACK
10
86.5
20
-23.3000000000000007
40
2.75
0
CIRCLE
8
BLACK
10
127.25
20
-42.2999999999999972
40
2.75
0
CIRCLE
8
BLACK
10
128.25
20
-33.25
40
2.75
0
CIRCLE
8
BLACK
10
129.25
20
-42.2999999999999972
40
2.75
0
CIRCLE
8
BLACK
10
75.
20
-4.2999999999999998
40
2.75
0
CIRCLE
8
BLACK
10
76.
20
4.75
40
2.75
0
CIRCLE
8
BLACK
10
77.
20
-4.2999999999999998
40
2.75
0
CIRCLE
8
BLACK
10
22.75
20
-23.3000000000000007
40
2.75
0
CIRCLE
8
BLACK
10
23.75
20
-14.25
40
2.75
0
CIRCLE
8
BLACK
10
24.75
20
-23.3000000000000007
40
2.75
0
CIRCLE
8
BLACK
10
298.25
20
-42.2999999999999972
40
2.75
0
CIRCLE
8
BLACK
10
299.25
20
-33.25
40
2.75
0
CIRCLE
8
BLACK
10
300.25
20
-42.2999999999999972
40
2.75
0
CIRCLE
8
BLACK
10
37.
20
-4.2999999999999998
40
2.75
0
CIRCLE
8
BLACK
10
38.
20
4.75
40
2.75
0
CIRCLE
8
BLACK
10
39.
20
-4.2999999999999998
40
2.75
0
CIRCLE
8
BLACK
10
122.5
20
-23.3000000000000007
40
2.75
0
CIRCLE
8
BLACK
10
123.5
20
-14.25
40
2.75
0
CIRCLE
8
BLACK
10
124.5
20
-23.3000000000000007
40
2.75
0
CIRCLE
8
BLACK
10
246.
20
-4.2999999999999998
40
2.75
0
CIRCLE
8
BLACK
10
247.
20
4.75
40
2.75
0
CIRCLE
8
BLACK
10
248.
20
-4.2999999999999998
40
2.75
0
CIRCLE
8
BLACK
10
155.75
20
-61.2999999999999972
40
2.75
0
CIRCLE
8
BLACK
10
156.75
20
-52.25
40
2.75
0
CIRCLE
8
BLACK
10
157.75
20
-61.2999999999999972
40
2.75
0
CIRCLE
8
BLACK
10
141.5
20
-23.3000000000000007
40
2.75
0
CIRCLE
8
BLACK
10
142.5
20
-14.25
40
2.75
0
CIRCLE
8
BLACK
10
143.5
20
-23.3000000000000007
40
2.75
0
CIRCLE
8
BLACK
10
103.5
20
-23.3000000000000007
40
2.75
0
CIRCLE
8
BLACK
10
104.5
20
-14.25
40
2.75
0
CIRCLE
8
BLACK
10
105.5
20
-23.3000000000000007
40
2.75
0
CIRCLE
8
BLACK
10
217.5
20
-23.3000000000000007
40
2.75
0
CIRCLE
8
BLACK
10
218.5
20
-14.25
40
2.75
0
CIRCLE
8
BLACK
10
219.5
20
-23.3000000000000007
40
2.75
0
CIRCLE
8
BLACK
10
203.25
20
-42.2999999999999972
40
2.75
0
CIRCLE
8
BLACK
10
204.25
20
-33.25
40
2.75
0
CIRCLE
8
BLACK
10
205.25
20
-42.2999999999999972
40
2.75
0
CIRCLE
8
BLACK
10
93.1896210000000025
20
-89.6986579999999947
40
2.75
0
CIRCLE
8
BLACK
10
95.0690060000000017
20
-90.3826979999999907
40
2.75
0
CIRCLE
8
BLACK
10
97.2245959999999911
20
-81.5364599999999911
40
2.7499979999999997
0
CIRCLE
8
BLACK
10
198.5
20
-23.3000000000000007
40
2.75
0
CIRCLE
8
BLACK
10
199.5
20
-14.25
40
2.75
0
CIRCLE
8
BLACK
10
200.5
20
-23.3000000000000007
40
2.75
0
LINE
8
BLACK
6
CONTINUOUS
10
99.0377709999999922
20
-102.8095699999999937
11
100.816276000000002
21
-97.9231699999999989
0
LINE
8
BLACK
6
CONTINUOUS
10
99.3426180000000016
20
-103.3461980000000011
11
113.2782599999999888
21
-108.4183570000000003
0
LINE
8
BLACK
6
CONTINUOUS
10
101.3947390000000013
20
-97.7080419999999918
11
115.330379999999991
21
-102.780200999999991
0
LINE
8
BLACK
6
CONTINUOUS
10
107.5511009999999885
20
-80.7935749999999899
11
121.4867429999999899
21
-85.8657339999999891
0
LINE
8
BLACK
6
CONTINUOUS
10
109.0905369999999976
20
-75.3944879999999955
11
107.3120320000000021
21
-80.2808899999999994
0
LINE
8
BLACK
6
CONTINUOUS
10
109.6032219999999882
20
-75.1554189999999949
11
123.5388639999999896
21
-80.2275779999999941
0
LINE
8
BLACK
6
CONTINUOUS
10
113.7909449999999936
20
-108.1792879999999997
11
115.5694489999999917
21
-103.2928859999999958
0
LINE
8
BLACK
6
CONTINUOUS
10
121.9994279999999947
20
-85.6266650000000027
11
123.7779329999999902
21
-80.7402629999999988
0
ARC
8
BLACK
10
99.4136499999999899
20
-102.9463789999999932
40
0.4000019007517339
50
-200.00003127
51
-110.00034946
0
ARC
8
BLACK
10
101.1921529999999905
20
-98.0599789999999985
40
0.4000012167043995
50
70.00005434
51
159.99991974
0
ARC
8
BLACK
10
107.6879089999999906
20
-80.4176980000000015
40
0.3999999349912447
50
-199.99999465
51
-109.99999465
0
ARC
8
BLACK
10
109.4664140000000003
20
-75.5312959999999975
40
0.3999999349912447
50
70.00000535
51
160.00000535
0
ARC
8
BLACK
10
113.4150679999999909
20
-108.0424809999999951
40
0.3999995929722929
50
-110.00004364
51
-19.99986005
0
ARC
8
BLACK
10
115.1935739999999981
20
-103.1560769999999962
40
0.3999983112614352
50
-20.00022723
51
70.00022556
0
ARC
8
BLACK
10
121.623550999999992
20
-85.4898570000000007
40
0.3999999349912447
50
-109.99999465
51
-19.99999465
0
ARC
8
BLACK
10
123.4020559999999875
20
-80.6034549999999967
40
0.3999999349912447
50
-19.99999465
51
70.00000535
0
LINE
8
BLACK
6
CONTINUOUS
10
125.5762709999999913
20
-86.8221109999999925
11
119.077888999999999
21
-104.6762709999999998
0
LINE
8
BLACK
6
CONTINUOUS
10
119.077888999999999
20
-104.6762709999999998
11
101.2237289999999916
21
-98.1778889999999933
0
LINE
8
BLACK
6
CONTINUOUS
10
101.2237289999999916
20
-98.1778889999999933
11
107.7221109999999982
21
-80.3237290000000002
0
LINE
8
BLACK
6
CONTINUOUS
10
107.7221109999999982
20
-80.3237290000000002
11
125.5762709999999913
21
-86.8221109999999925
0
CIRCLE
8
BLACK
10
241.25
20
-42.2999999999999972
40
2.75
0
CIRCLE
8
BLACK
10
242.25
20
-33.25
40
2.75
0
CIRCLE
8
BLACK
10
243.25
20
-42.2999999999999972
40
2.75
0
CIRCLE
8
BLACK
10
236.5
20
-23.3000000000000007
40
2.75
0
CIRCLE
8
BLACK
10
237.5
20
-14.25
40
2.75
0
CIRCLE
8
BLACK
10
238.5
20
-23.3000000000000007
40
2.75
0
CIRCLE
8
BLACK
10
279.25
20
-42.2999999999999972
40
2.75
0
CIRCLE
8
BLACK
10
280.25
20
-33.25
40
2.75
0
CIRCLE
8
BLACK
10
281.25
20
-42.2999999999999972
40
2.75
0
CIRCLE
8
BLACK
10
279.25
20
-23.3000000000000007
40
2.75
0
CIRCLE
8
BLACK
10
280.25
20
-14.25
40
2.75
0
CIRCLE
8
BLACK
10
281.25
20
-23.3000000000000007
40
2.75
0
CIRCLE
8
BLACK
10
146.25
20
-42.2999999999999972
40
2.75
0
CIRCLE
8
BLACK
10
147.25
20
-33.25
40
2.75
0
CIRCLE
8
BLACK
10
148.25
20
-42.2999999999999972
40
2.75
0
CIRCLE
8
BLACK
10
55.
20
-80.2999999999999972
40
2.75
0
CIRCLE
8
BLACK
10
56.
20
-71.25
40
2.75
0
CIRCLE
8
BLACK
10
57.
20
-80.2999999999999972
40
2.75
0
CIRCLE
8
BLACK
10
196.1254040000000032
20
-75.0364599999999911
40
2.75
0
CIRCLE
8
BLACK
10
198.2809939999999926
20
-83.8826979999999907
40
2.75
0
CIRCLE
8
BLACK
10
200.1603789999999776
20
-83.1986579999999947
40
2.75
0
CIRCLE
8
BLACK
10
132.
20
-4.2999999999999998
40
2.75
0
CIRCLE
8
BLACK
10
133.
20
4.75
40
2.75
0
CIRCLE
8
BLACK
10
134.
20
-4.2999999999999998
40
2.75
0
CIRCLE
8
BLACK
10
274.5
20
-61.2999999999999972
40
2.75
0
CIRCLE
8
BLACK
10
275.5
20
-52.25
40
2.75
0
CIRCLE
8
BLACK
10
276.5
20
-61.2999999999999972
40
2.75
0
CIRCLE
8
BLACK
10
178.2754039999999804
20
-81.5364599999999911
40
2.75
0
CIRCLE
8
BLACK
10
180.4309939999999983
20
-90.3826979999999907
40
2.75
0
CIRCLE
8
BLACK
10
182.3103789999999833
20
-89.6986579999999947
40
2.75
0
CIRCLE
8
BLACK
10
6.125
20
-61.2999999999999972
40
2.75
0
CIRCLE
8
BLACK
10
7.125
20
-52.25
40
2.75
0
CIRCLE
8
BLACK
10
8.125
20
-61.2999999999999972
40
2.75
0
LINE
8
BLACK
6
CONTINUOUS
10
151.7220669999999814
20
-80.7402629999999988
11
153.5005720000000053
21
-85.6266650000000027
0
LINE
8
BLACK
6
CONTINUOUS
10
159.9305509999999799
20
-103.2928859999999958
11
161.7090550000000064
21
-108.1792879999999997
0
LINE
8
BLACK
6
CONTINUOUS
10
165.8967779999999834
20
-75.1554189999999949
11
151.961135999999982
21
-80.2275779999999941
0
LINE
8
BLACK
6
CONTINUOUS
10
166.4752419999999802
20
-75.3705479999999994
11
168.2537449999999808
21
-80.2569489999999917
0
LINE
8
BLACK
6
CONTINUOUS
10
167.9488989999999831
20
-80.7935749999999899
11
154.0132569999999816
21
-85.8657339999999891
0
LINE
8
BLACK
6
CONTINUOUS
10
174.1052609999999845
20
-97.7080419999999918
11
160.1696199999999806
21
-102.780200999999991
0
LINE
8
BLACK
6
CONTINUOUS
10
176.1573819999999841
20
-103.3461980000000011
11
162.2217399999999827
21
-108.4183570000000003
0
LINE
8
BLACK
6
CONTINUOUS
10
176.3964509999999848
20
-102.8335129999999964
11
174.6179459999999892
21
-97.9471109999999925
0
ARC
8
BLACK
10
152.0979429999999866
20
-80.6034549999999967
40
0.3999989952987382
50
-250.00013995
51
-159.99995636
0
ARC
8
BLACK
10
153.8764500000000055
20
-85.4898549999999915
40
0.4000014723597902
50
-159.99978514
51
-70.00023793
0
ARC
8
BLACK
10
160.3064279999999826
20
-103.1560779999999937
40
0.3999999349912447
50
-250.00000535
51
-160.00000535
0
ARC
8
BLACK
10
162.0849319999999807
20
-108.0424799999999976
40
0.3999999349912447
50
-160.00000535
51
-70.00000535
0
ARC
8
BLACK
10
166.09936399999998
20
-75.5073560000000015
40
0.4000008746840436
50
19.99994566
51
109.99994566
0
ARC
8
BLACK
10
167.8778700000000015
20
-80.3937569999999937
40
0.3999989952987382
50
-70.00027455
51
20.00004364
0
ARC
8
BLACK
10
174.2420689999999865
20
-98.0839189999999945
40
0.3999999349912447
50
19.99999465
51
109.99999465
0
ARC
8
BLACK
10
176.0205739999999821
20
-102.9703209999999984
40
0.3999999349912447
50
-70.00000535
51
19.99999465
0
LINE
8
BLACK
6
CONTINUOUS
10
174.2762709999999799
20
-98.1778889999999933
11
156.422111000000001
21
-104.6762709999999998
0
LINE
8
BLACK
6
CONTINUOUS
10
156.422111000000001
20
-104.6762709999999998
11
149.9237289999999803
21
-86.8221109999999925
0
LINE
8
BLACK
6
CONTINUOUS
10
149.9237289999999803
20
-86.8221109999999925
11
167.7778889999999876
21
-80.3237290000000002
0
LINE
8
BLACK
6
CONTINUOUS
10
167.7778889999999876
20
-80.3237290000000002
11
174.2762709999999799
21
-98.1778889999999933
0
CIRCLE
8
BLACK
10
98.75
20
-61.2999999999999972
40
2.75
0
CIRCLE
8
BLACK
10
99.75
20
-52.25
40
2.75
0
CIRCLE
8
BLACK
10
100.75
20
-61.2999999999999972
40
2.75
0
CIRCLE
8
BLACK
10
170.
20
-4.2999999999999998
40
2.75
0
CIRCLE
8
BLACK
10
171.
20
4.75
40
2.75
0
CIRCLE
8
BLACK
10
172.
20
-4.2999999999999998
40
2.75
0
CIRCLE
8
BLACK
10
75.214620999999994
20
-83.1986579999999947
40
2.75
0
CIRCLE
8
BLACK
10
77.0940059999999932
20
-83.8826979999999907
40
2.75
0
CIRCLE
8
BLACK
10
79.2495959999999968
20
-75.0364599999999911
40
2.7499979999999997
0
CIRCLE
8
BLACK
10
208.
20
-4.2999999999999998
40
2.75
0
CIRCLE
8
BLACK
10
209.
20
4.75
40
2.75
0
CIRCLE
8
BLACK
10
210.
20
-4.2999999999999998
40
2.75
0
CIRCLE
8
BLACK
10
34.625
20
-61.2999999999999972
40
2.75
0
CIRCLE
8
BLACK
10
35.625
20
-52.25
40
2.75
0
CIRCLE
8
BLACK
10
36.625
20
-61.2999999999999972
40
2.75
0
CIRCLE
8
BLACK
10
110.9896209999999996
20
-96.1986579999999947
40
2.75
0
CIRCLE
8
BLACK
10
112.8690059999999988
20
-96.8826979999999907
40
2.75
0
CIRCLE
8
BLACK
10
115.0245959999999883
20
-88.0364599999999911
40
2.7499979999999997
0
CIRCLE
8
BLACK
10
60.75
20
-61.2999999999999972
40
2.75
0
CIRCLE
8
BLACK
10
61.75
20
-52.25
40
2.75
0
CIRCLE
8
BLACK
10
62.75
20
-61.2999999999999972
40
2.75
0
CIRCLE
8
BLACK
10
222.25
20
-42.2999999999999972
40
2.75
0
CIRCLE
8
BLACK
10
223.25
20
-33.25
40
2.75
0
CIRCLE
8
BLACK
10
224.25
20
-42.2999999999999972
40
2.75
0
CIRCLE
8
BLACK
10
65.5
20
-23.3000000000000007
40
2.75
0
CIRCLE
8
BLACK
10
66.5
20
-14.25
40
2.75
0
CIRCLE
8
BLACK
10
67.5
20
-23.3000000000000007
40
2.75
0
CIRCLE
8
BLACK
10
253.125
20
-61.2999999999999972
40
2.75
0
CIRCLE
8
BLACK
10
254.125
20
-52.25
40
2.75
0
CIRCLE
8
BLACK
10
255.125
20
-61.2999999999999972
40
2.75
0
CIRCLE
8
BLACK
10
9.875
20
-80.2999999999999972
40
2.75
0
CIRCLE
8
BLACK
10
10.875
20
-71.25
40
2.75
0
CIRCLE
8
BLACK
10
11.875
20
-80.2999999999999972
40
2.75
0
CIRCLE
8
BLACK
10
32.25
20
-42.2999999999999972
40
2.75
0
CIRCLE
8
BLACK
10
33.25
20
-33.25
40
2.75
0
CIRCLE
8
BLACK
10
34.25
20
-42.2999999999999972
40
2.75
0
CIRCLE
8
BLACK
10
160.4754039999999975
20
-88.0364599999999911
40
2.75
0
CIRCLE
8
BLACK
10
162.630993999999987
20
-96.8826979999999907
40
2.75
0
CIRCLE
8
BLACK
10
164.5103790000000004
20
-96.1986579999999947
40
2.75
0
CIRCLE
8
BLACK
10
231.75
20
-61.2999999999999972
40
2.75
0
CIRCLE
8
BLACK
10
232.75
20
-52.25
40
2.75
0
CIRCLE
8
BLACK
10
233.75
20
-61.2999999999999972
40
2.75
0
CIRCLE
8
BLACK
10
56.
20
-4.2999999999999998
40
2.75
0
CIRCLE
8
BLACK
10
57.
20
4.75
40
2.75
0
CIRCLE
8
BLACK
10
58.
20
-4.2999999999999998
40
2.75
0
CIRCLE
8
BLACK
10
184.25
20
-42.2999999999999972
40
2.75
0
CIRCLE
8
BLACK
10
185.25
20
-33.25
40
2.75
0
CIRCLE
8
BLACK
10
186.25
20
-42.2999999999999972
40
2.75
0
CIRCLE
8
BLACK
10
117.75
20
-61.2999999999999972
40
2.75
0
CIRCLE
8
BLACK
10
118.75
20
-52.25
40
2.75
0
CIRCLE
8
BLACK
10
119.75
20
-61.2999999999999972
40
2.75
0
CIRCLE
8
BLACK
10
227.
20
-4.2999999999999998
40
2.75
0
CIRCLE
8
BLACK
10
228.
20
4.75
40
2.75
0
CIRCLE
8
BLACK
10
229.
20
-4.2999999999999998
40
2.75
0
CIRCLE
8
BLACK
10
70.25
20
-42.2999999999999972
40
2.75
0
CIRCLE
8
BLACK
10
71.25
20
-33.25
40
2.75
0
CIRCLE
8
BLACK
10
72.25
20
-42.2999999999999972
40
2.75
0
CIRCLE
8
BLACK
10
10.875
20
-42.2999999999999972
40
2.75
0
CIRCLE
8
BLACK
10
11.875
20
-33.25
40
2.75
0
CIRCLE
8
BLACK
10
12.875
20
-42.2999999999999972
40
2.75
0
CIRCLE
8
BLACK
10
18.
20
-4.2999999999999998
40
2.75
0
CIRCLE
8
BLACK
10
19.
20
4.75
40
2.75
0
CIRCLE
8
BLACK
10
20.
20
-4.2999999999999998
40
2.75
0
CIRCLE
8
BLACK
10
94.
20
-4.2999999999999998
40
2.75
0
CIRCLE
8
BLACK
10
95.
20
4.75
40
2.75
0
CIRCLE
8
BLACK
10
96.
20
-4.2999999999999998
40
2.75
0
CIRCLE
8
BLACK
10
179.5
20
-23.3000000000000007
40
2.75
0
CIRCLE
8
BLACK
10
180.5
20
-14.25
40
2.75
0
CIRCLE
8
BLACK
10
181.5
20
-23.3000000000000007
40
2.75
0
CIRCLE
8
BLACK
10
79.75
20
-61.2999999999999972
40
2.75
0
CIRCLE
8
BLACK
10
80.75
20
-52.25
40
2.75
0
CIRCLE
8
BLACK
10
81.75
20
-61.2999999999999972
40
2.75
0
CIRCLE
8
BLACK
10
136.75
20
-80.2999999999999972
40
2.75
0
CIRCLE
8
BLACK
10
137.75
20
-71.25
40
2.75
0
CIRCLE
8
BLACK
10
138.75
20
-80.2999999999999972
40
2.75
0
CIRCLE
8
BLACK
10
212.75
20
-61.2999999999999972
40
2.75
0
CIRCLE
8
BLACK
10
213.75
20
-52.25
40
2.75
0
CIRCLE
8
BLACK
10
214.75
20
-61.2999999999999972
40
2.75
0
CIRCLE
8
BLACK
10
108.25
20
-42.2999999999999972
40
2.75
0
CIRCLE
8
BLACK
10
109.25
20
-33.25
40
2.75
0
CIRCLE
8
BLACK
10
110.25
20
-42.2999999999999972
40
2.75
0
CIRCLE
8
BLACK
10
113.
20
-4.2999999999999998
40
2.75
0
CIRCLE
8
BLACK
10
114.
20
4.75
40
2.75
0
CIRCLE
8
BLACK
10
115.
20
-4.2999999999999998
40
2.75
0
CIRCLE
8
BLACK
10
33.625
20
-80.2999999999999972
40
2.75
0
CIRCLE
8
BLACK
10
34.625
20
-71.25
40
2.75
0
CIRCLE
8
BLACK
10
35.625
20
-80.2999999999999972
40
2.75
0
CIRCLE
8
BLACK
10
136.75
20
-61.2999999999999972
40
2.75
0
CIRCLE
8
BLACK
10
137.75
20
-52.25
40
2.75
0
CIRCLE
8
BLACK
10
138.75
20
-61.2999999999999972
40
2.75
0
CIRCLE
8
BLACK
10
239.875
20
-80.2999999999999972
40
2.75
0
CIRCLE
8
BLACK
10
240.875
20
-71.25
40
2.75
0
CIRCLE
8
BLACK
10
241.875
20
-80.2999999999999972
40
2.75
0
CIRCLE
8
BLACK
10
193.75
20
-61.2999999999999972
40
2.75
0
CIRCLE
8
BLACK
10
194.75
20
-52.25
40
2.75
0
CIRCLE
8
BLACK
10
195.75
20
-61.2999999999999972
40
2.75
0
CIRCLE
8
BLACK
10
284.
20
-4.2999999999999998
40
2.75
0
CIRCLE
8
BLACK
10
285.
20
4.75
40
2.75
0
CIRCLE
8
BLACK
10
286.
20
-4.2999999999999998
40
2.75
0
CIRCLE
8
BLACK
10
104.5
20
-1.5
40
1.0999999999999999
0
CIRCLE
8
BLACK
10
14.
20
-20.
40
1.0999999999999999
  0
ENDSEC
  0
EOF
