  0
SECTION
  2
HEADER
  9
$ANGBASE
  50
0.0
  9
$ANGDIR
  70
1
  9
$MEASUREMENT
  70
1
  0
ENDSEC
  0
SECTION
  2
TABLES
  0
TABLE
  2
LTYPE
  70
4
  0
LTYPE
  5
40F
  2
CONTINUOUS
  70
0
  3
Solid line
  72
65
  73
0
  40
0.0
  0
LTYPE
  5
410
  2
DASHDOT
 70
0
  3
Dash Dot ____ _ ____ _
 72
65
 73
4
 40
2.0
 49
1.25
 49
-0.25
 49
0.25
 49
-0.25
  0
LTYPE
  5
411
  2
DASHED
 70
0
  3
Dashed __ __ __ __ __
 72
65
 73
2
 40
0.75
 49
0.5
 49
-0.25
  0
LTYPE
  5
43B
  2
DOTTED
 70
0
  3
Dotted .  .  .  .
 72
65
 73
2
 40
0.2
 49
0.0
 49
-0.2
  0
ENDTAB
  0
TABLE
  2
STYLE
  70
4
  0
STYLE
  2
KICAD
  70
0
  40
0
  41
1
  42
1
  50
0
  71
0
  3
isocp.shx
  0
STYLE
  2
KICADB
  70
0
  40
0
  41
1
  42
1
  50
0
  71
0
  3
isocp.shx
  0
STYLE
  2
KICADI
  70
0
  40
0
  41
1
  42
1
  50
15
  71
0
  3
isocp.shx
  0
STYLE
  2
KICADBI
  70
0
  40
0
  41
1
  42
1
  50
15
  71
0
  3
isocp.shx
  0
ENDTAB
  0
TABLE
  2
LAYER
  70
1
  0
LAYER
  2
BLACK
  70
0
  62
7
  6
CONTINUOUS
  0
ENDTAB
  0
ENDSEC
  0
SECTION
  2
ENTITIES
0
LINE
8
BLACK
6
CONTINUOUS
10
312.25
20
-66.5
11
312.25
21
9.5
0
ARC
8
BLACK
10
210.2753999999999905
20
-92.4992000000000019
40
3.4991967616748845
50
89.99611937
51
110.00111906
0
ARC
8
BLACK
10
282.75
20
-166.5
40
12.
50
-90.00000000
51
-0.00000000
0
LINE
8
BLACK
6
CONTINUOUS
10
180.8143989999999803
20
-105.9078899999999948
11
179.0964349999999854
21
-101.1878349999999926
0
ARC
8
BLACK
10
213.75
20
-125.5
40
12.
50
90.00000000
51
180.00000000
0
ARC
8
BLACK
10
95.4492999999999938
20
-100.8859999999999957
40
0.9999786784351954
50
-20.00044588
51
70.00291764
0
ARC
8
BLACK
10
61.75
20
-166.5
40
12.
50
-90.00000000
51
-0.00000000
0
LINE
8
BLACK
6
CONTINUOUS
10
308.75
20
13.
11
-4.25
21
13.
0
ARC
8
BLACK
10
61.75
20
-125.5
40
12.
50
0.00000000
51
90.00000000
0
ARC
8
BLACK
10
115.8288000000000011
20
-113.6034999999999968
40
3.499846558487957
50
-110.00255040
51
-19.99961635
0
ARC
8
BLACK
10
177.5254999999999939
20
-107.1049999999999898
40
3.4999898548854391
50
-69.99920094
51
20.00074855
0
ARC
8
BLACK
10
180.0361000000000047
20
-100.845799999999997
40
0.9999791265071486
50
-250.00122364
51
-159.99865882
0
LINE
8
BLACK
6
CONTINUOUS
10
213.75
20
-113.5
11
282.75
21
-113.5
0
LINE
8
BLACK
6
CONTINUOUS
10
114.631613999999999
20
-116.8922859999999986
11
96.7773979999999909
21
-110.3938679999999977
0
LINE
8
BLACK
6
CONTINUOUS
10
160.8683859999999868
20
-116.8922859999999986
11
178.7226019999999949
21
-110.3938679999999977
0
ARC
8
BLACK
10
159.6711999999999989
20
-113.6036000000000001
40
3.4998156987464353
50
-160.00192203
51
-69.99688961
0
LINE
8
BLACK
6
CONTINUOUS
10
210.275636999999989
20
-89.
11
252.75
21
-89.
0
ARC
8
BLACK
10
252.75
20
-85.5
40
3.5
50
-90.00000000
51
-0.00000000
0
ARC
8
BLACK
10
130.2309999999999945
20
-94.5
40
3.4999953096542855
50
89.99988541
51
159.99996337
0
LINE
8
BLACK
6
CONTINUOUS
10
148.5579189999999983
20
-93.3029289999999918
11
156.382411999999988
21
-114.8004959999999954
0
ARC
8
BLACK
10
-4.2500010000000001
20
3.0000009999999997
40
9.9999990000000505
50
-270.00000573
51
-179.99999427
0
LINE
8
BLACK
6
CONTINUOUS
10
65.0993639999999942
20
-89.
11
-10.75
21
-89.
0
ARC
8
BLACK
10
-2.2500019999999998
20
-125.4999979999999908
40
11.9999980000001649
50
-270.00000955
51
-179.99999045
0
LINE
8
BLACK
6
CONTINUOUS
10
73.75
20
-125.5
11
73.75
21
-166.5
0
LINE
8
BLACK
6
CONTINUOUS
10
-2.25
20
-113.5
11
61.75
21
-113.5
0
LINE
8
BLACK
6
CONTINUOUS
10
94.6856009999999912
20
-105.9078899999999948
11
96.3889420000000001
21
-101.2280099999999976
0
LINE
8
BLACK
6
CONTINUOUS
10
126.9420809999999875
20
-93.3029289999999918
11
119.1175879999999978
21
-114.8004959999999954
0
ARC
8
BLACK
10
308.75
20
-66.5
40
3.5
50
-90.00000000
51
-0.00000000
0
LINE
8
BLACK
6
CONTINUOUS
10
201.75
20
-166.5
11
201.75
21
-125.5
0
ARC
8
BLACK
10
97.9743999999999886
20
-107.1049999999999898
40
3.4999237862313515
50
-200.00130848
51
-109.99926073
0
LINE
8
BLACK
6
CONTINUOUS
10
137.75
20
-91.
11
130.2310070000000053
21
-91.
0
LINE
8
BLACK
6
CONTINUOUS
10
179.6941129999999873
20
-99.9061359999999894
11
209.0785400000000038
21
-89.2110539999999901
0
LINE
8
BLACK
6
CONTINUOUS
10
61.75
20
-178.5
11
-2.25
21
-178.5
0
LINE
8
BLACK
6
CONTINUOUS
10
294.75
20
-125.5
11
294.75
21
-166.5
0
ARC
8
BLACK
10
213.75
20
-166.5
40
12.
50
-180.00000000
51
-90.00000000
0
ARC
8
BLACK
10
259.75
20
-73.5
40
3.5
50
90.00000000
51
180.00000000
0
LINE
8
BLACK
6
CONTINUOUS
10
282.75
20
-178.5
11
213.75
21
-178.5
0
ARC
8
BLACK
10
-2.2500019999999998
20
-166.500001999999995
40
11.9999980000001649
50
-180.00000955
51
-89.99999045
0
LINE
8
BLACK
6
CONTINUOUS
10
259.75
20
-70.
11
308.75
21
-70.
0
LINE
8
BLACK
6
CONTINUOUS
10
95.7912649999999957
20
-99.9463099999999969
11
66.2964609999999936
21
-89.2110539999999901
0
ARC
8
BLACK
10
65.0995999999999952
20
-92.4990999999999985
40
3.4991000079586176
50
69.99830548
51
90.00386437
0
ARC
8
BLACK
10
308.75
20
9.5
40
3.5
50
0.00000000
51
90.00000000
0
ARC
8
BLACK
10
145.2690000000000055
20
-94.5
40
3.5000000000069997
50
20.00003663
51
90.00011459
0
ARC
8
BLACK
10
-10.7500009999999993
20
-85.5000009999999975
40
3.4999990000001429
50
-180.00001637
51
-89.99998363
0
LINE
8
BLACK
6
CONTINUOUS
10
-14.25
20
-166.5
11
-14.25
21
-125.5
0
LINE
8
BLACK
6
CONTINUOUS
10
256.25
20
-85.5
11
256.25
21
-73.5
0
LINE
8
BLACK
6
CONTINUOUS
10
-14.25
20
3.
11
-14.25
21
-85.5
0
LINE
8
BLACK
6
CONTINUOUS
10
137.75
20
-91.
11
145.2689929999999947
21
-91.
0
ARC
8
BLACK
10
282.75
20
-125.5
40
12.
50
0.00000000
51
90.00000000
  0
ENDSEC
  0
EOF
