  0
SECTION
  2
HEADER
  9
$ANGBASE
  50
0.0
  9
$ANGDIR
  70
1
  9
$MEASUREMENT
  70
1
  0
ENDSEC
  0
SECTION
  2
TABLES
  0
TABLE
  2
LTYPE
  70
4
  0
LTYPE
  5
40F
  2
CONTINUOUS
  70
0
  3
Solid line
  72
65
  73
0
  40
0.0
  0
LTYPE
  5
410
  2
DASHDOT
 70
0
  3
Dash Dot ____ _ ____ _
 72
65
 73
4
 40
2.0
 49
1.25
 49
-0.25
 49
0.25
 49
-0.25
  0
LTYPE
  5
411
  2
DASHED
 70
0
  3
Dashed __ __ __ __ __
 72
65
 73
2
 40
0.75
 49
0.5
 49
-0.25
  0
LTYPE
  5
43B
  2
DOTTED
 70
0
  3
Dotted .  .  .  .
 72
65
 73
2
 40
0.2
 49
0.0
 49
-0.2
  0
ENDTAB
  0
TABLE
  2
STYLE
  70
4
  0
STYLE
  2
KICAD
  70
0
  40
0
  41
1
  42
1
  50
0
  71
0
  3
isocp.shx
  0
STYLE
  2
KICADB
  70
0
  40
0
  41
1
  42
1
  50
0
  71
0
  3
isocp.shx
  0
STYLE
  2
KICADI
  70
0
  40
0
  41
1
  42
1
  50
15
  71
0
  3
isocp.shx
  0
STYLE
  2
KICADBI
  70
0
  40
0
  41
1
  42
1
  50
15
  71
0
  3
isocp.shx
  0
ENDTAB
  0
TABLE
  2
LAYER
  70
1
  0
LAYER
  2
BLACK
  70
0
  62
7
  6
CONTINUOUS
  0
ENDTAB
  0
ENDSEC
  0
SECTION
  2
ENTITIES
0
LINE
8
BLACK
6
CONTINUOUS
10
253.75
20
-66.5
11
303.
21
-66.5
0
LINE
8
BLACK
6
CONTINUOUS
10
149.9634619999999927
20
-76.6979619999999898
11
148.5920119999999827
21
-77.1971300000000014
0
LINE
8
BLACK
6
CONTINUOUS
10
308.75
20
-46.5
11
308.75
21
-29.5
0
LINE
8
BLACK
6
CONTINUOUS
10
153.2058109999999829
20
-85.6062220000000025
11
149.9634619999999927
21
-76.6979619999999898
0
LINE
8
BLACK
6
CONTINUOUS
10
122.2941889999999887
20
-85.6062220000000025
11
125.5365379999999931
21
-76.6979619999999898
0
ARC
8
BLACK
10
305.
20
-48.5
40
1.
50
90.00000000
51
180.00000000
0
LINE
8
BLACK
6
CONTINUOUS
10
252.75
20
-84.5
11
252.75
21
-67.5
0
LINE
8
BLACK
6
CONTINUOUS
10
155.5
20
6.5999999999999996
11
155.5
21
9.5
0
ARC
8
BLACK
10
127.25
20
-67.5
40
1.
50
0.00000000
51
90.00000000
0
LINE
8
BLACK
6
CONTINUOUS
10
72.5584130000000016
20
-68.5680150000000026
11
121.0125989999999945
21
-86.2039379999999937
0
LINE
8
BLACK
6
CONTINUOUS
10
127.25
20
-66.5
11
118.75
21
-66.5
0
ARC
8
BLACK
10
253.75
20
-67.5
40
1.
50
90.00000000
51
180.00000000
0
LINE
8
BLACK
6
CONTINUOUS
10
304.
20
-65.5
11
304.
21
-48.5
0
LINE
8
BLACK
6
CONTINUOUS
10
156.75
20
-66.5
11
209.
21
-66.5
0
LINE
8
BLACK
6
CONTINUOUS
10
149.6819969999999955
20
-86.1579789999999974
11
155.9012549999999919
21
-103.245207999999991
0
LINE
8
BLACK
6
CONTINUOUS
10
128.25
20
-76.2574389999999909
11
128.25
21
-67.5
0
ARC
8
BLACK
10
203.1732999999999834
20
-69.5476999999999919
40
0.9998529774741883
50
19.99297143
51
110.00744858
0
LINE
8
BLACK
6
CONTINUOUS
10
67.7356269999999938
20
-85.5
11
0.
21
-85.5
0
LINE
8
BLACK
6
CONTINUOUS
10
125.5365379999999931
20
-76.6979619999999898
11
126.9079879999999889
21
-77.1971300000000014
0
LINE
8
BLACK
6
CONTINUOUS
10
168.
20
9.5
11
168.
21
6.5999999999999996
0
LINE
8
BLACK
6
CONTINUOUS
10
147.25
20
-76.2574389999999909
11
147.25
21
-67.5
0
ARC
8
BLACK
10
-0.999999
20
-46.5000009999999975
40
0.9999990000004999
50
-90.00005730
51
0.00005730
0
ARC
8
BLACK
10
-3.7500009999999997
20
-65.5000009999999975
40
0.9999990000004999
50
-180.00005730
51
-89.99994270
0
LINE
8
BLACK
6
CONTINUOUS
10
167.5
20
6.0999999999999996
11
156.
21
6.0999999999999996
0
ARC
8
BLACK
10
8.5
20
-5.5
40
1.
50
0.00000000
51
90.00000000
0
LINE
8
BLACK
6
CONTINUOUS
10
202.8312080000000037
20
-68.6081899999999933
11
154.4874010000000055
21
-86.2039379999999937
0
LINE
8
BLACK
6
CONTINUOUS
10
155.5
20
9.5
11
10.5
21
9.5
0
LINE
8
BLACK
6
CONTINUOUS
10
9.5
20
-27.5
11
9.5
21
-5.5
0
ARC
8
BLACK
10
303.
20
-65.5
40
1.
50
-90.00000000
51
-0.00000000
0
LINE
8
BLACK
6
CONTINUOUS
10
294.5
20
-27.5
11
294.5
21
8.5
0
LINE
8
BLACK
6
CONTINUOUS
10
118.75
20
-66.5
11
66.5
21
-66.5
0
ARC
8
BLACK
10
118.6580999999999904
20
-102.9059999999999917
40
0.9999337419729368
50
-110.00385873
51
-19.99771449
0
ARC
8
BLACK
10
67.73599999999999
20
-86.4986999999999995
40
0.9987000696550491
50
69.99515529
51
90.02139914
0
ARC
8
BLACK
10
66.5
20
-67.5
40
1.
50
90.00000000
51
180.00000000
0
LINE
8
BLACK
6
CONTINUOUS
10
137.75
20
-85.5
11
126.7576959999999957
21
-85.5
0
ARC
8
BLACK
10
251.75
20
-84.5
40
1.
50
-90.00000000
51
-0.00000000
0
LINE
8
BLACK
6
CONTINUOUS
10
137.75
20
-85.5
11
148.7423039999999901
21
-85.5
0
ARC
8
BLACK
10
307.75
20
-46.5
40
1.
50
-90.00000000
51
-0.00000000
0
LINE
8
BLACK
6
CONTINUOUS
10
-2.
20
-66.5
11
-3.75
21
-66.5
0
ARC
8
BLACK
10
126.7576999999999998
20
-86.5
40
1.0000044081152843
50
90.00022918
51
160.00003969
0
ARC
8
BLACK
10
208.5
20
-76.8736999999999995
40
1.5000000000083331
50
-159.99938138
51
-0.00019099
0
LINE
8
BLACK
6
CONTINUOUS
10
210.
20
-67.5
11
210.
21
-76.8737050000000011
0
ARC
8
BLACK
10
8.5
20
7.5
40
1.
50
-90.00000000
51
-0.00000000
0
ARC
8
BLACK
10
72.216399999999993
20
-69.5076999999999998
40
1.0000041560013639
50
70.00023526
51
159.99924179
0
ARC
8
BLACK
10
121.354699999999994
20
-85.2646000000000015
40
0.9996725323849806
50
-110.01130607
51
-19.98254830
0
LINE
8
BLACK
6
CONTINUOUS
10
2.6999999999999997
20
6.5
11
8.5
21
6.5
0
LINE
8
BLACK
6
CONTINUOUS
10
9.5
20
7.5
11
9.5
21
8.5
0
LINE
8
BLACK
6
CONTINUOUS
10
1.
20
-28.5
11
8.5
21
-28.5
0
ARC
8
BLACK
10
67.
20
-76.5302999999999969
40
1.4999315525929842
50
-180.00110772
51
-19.99939819
0
ARC
8
BLACK
10
207.7553999999999803
20
-86.4984999999999928
40
0.998492577194743
50
89.97624391
51
110.00656008
0
ARC
8
BLACK
10
154.1453999999999951
20
-85.2644999999999982
40
0.9997541897111509
50
-160.01402437
51
-69.99604008
0
ARC
8
BLACK
10
167.5
20
6.5999999999999996
40
0.5
50
-90.00000000
51
-0.00000000
0
ARC
8
BLACK
10
156.
20
6.5999999999999996
40
0.5
50
-180.00000000
51
-90.00000000
0
LINE
8
BLACK
6
CONTINUOUS
10
65.5
20
-67.5
11
65.5
21
-76.530270999999999
0
ARC
8
BLACK
10
-1.9999989999999999
20
-67.4999990000000025
40
0.9999990000004999
50
-0.00005730
51
90.00005730
0
LINE
8
BLACK
6
CONTINUOUS
10
-4.75
20
-65.5
11
-4.75
21
-48.5
0
LINE
8
BLACK
6
CONTINUOUS
10
293.5
20
9.5
11
168.
21
9.5
0
ARC
8
BLACK
10
10.5
20
8.5
40
1.
50
90.00000000
51
180.00000000
0
LINE
8
BLACK
6
CONTINUOUS
10
207.0905199999999979
20
-77.3867259999999959
11
204.1129139999999893
21
-69.2058389999999974
0
ARC
8
BLACK
10
8.5
20
-27.5
40
1.
50
-90.00000000
51
-0.00000000
0
LINE
8
BLACK
6
CONTINUOUS
10
-3.75
20
-47.5
11
-1.
21
-47.5
0
LINE
8
BLACK
6
CONTINUOUS
10
-1.
20
-84.5
11
-1.
21
-67.5
0
LINE
8
BLACK
6
CONTINUOUS
10
0.
20
-46.5
11
0.
21
-29.5
0
LINE
8
BLACK
6
CONTINUOUS
10
305.
20
-47.5
11
307.75
21
-47.5
0
ARC
8
BLACK
10
-3.7500009999999997
20
-48.4999989999999954
40
0.9999990000004999
50
-270.00005730
51
-179.99994270
0
ARC
8
BLACK
10
148.7423000000000002
20
-86.5
40
1.0000000000079998
50
19.99996031
51
89.99977082
0
LINE
8
BLACK
6
CONTINUOUS
10
207.7558139999999867
20
-85.5
11
251.75
21
-85.5
0
ARC
8
BLACK
10
148.25
20
-76.2574999999999932
40
0.9999383706229099
50
-180.00349504
51
-69.99921126
0
ARC
8
BLACK
10
307.75
20
-29.5
40
1.
50
0.00000000
51
90.00000000
0
ARC
8
BLACK
10
127.2500999999999891
20
-76.2574999999999932
40
0.9999000018606861
50
-110.00617291
51
0.00349539
0
ARC
8
BLACK
10
295.5
20
-27.5
40
1.
50
-180.00000000
51
-90.00000000
0
ARC
8
BLACK
10
209.
20
-67.5
40
1.
50
0.00000000
51
90.00000000
0
LINE
8
BLACK
6
CONTINUOUS
10
118.3160469999999975
20
-103.8455859999999973
11
68.077652999999998
21
-85.560262999999992
0
ARC
8
BLACK
10
-0.000001
20
-84.5000009999999975
40
0.9999990000004999
50
-180.00005730
51
-89.99994270
0
LINE
8
BLACK
6
CONTINUOUS
10
2.6999999999999997
20
-4.5
11
2.6999999999999997
21
6.5
0
LINE
8
BLACK
6
CONTINUOUS
10
68.4094800000000021
20
-77.0432919999999939
11
71.2767079999999993
21
-69.1656660000000016
0
ARC
8
BLACK
10
156.8409000000000049
20
-102.9031999999999982
40
0.9999567510292632
50
-159.99972060
51
-69.99715555
0
ARC
8
BLACK
10
148.25
20
-67.5
40
1.
50
90.00000000
51
180.00000000
0
LINE
8
BLACK
6
CONTINUOUS
10
8.5
20
-4.5
11
2.6999999999999997
21
-4.5
0
LINE
8
BLACK
6
CONTINUOUS
10
125.8180029999999903
20
-86.1579789999999974
11
119.5977439999999916
21
-103.247959999999992
0
LINE
8
BLACK
6
CONTINUOUS
10
148.25
20
-66.5
11
156.75
21
-66.5
0
ARC
8
BLACK
10
1.
20
-29.5
40
1.
50
90.00000000
51
180.00000000
0
LINE
8
BLACK
6
CONTINUOUS
10
307.75
20
-28.5
11
295.5
21
-28.5
0
ARC
8
BLACK
10
293.5
20
8.5
40
1.
50
0.00000000
51
90.00000000
0
LINE
8
BLACK
6
CONTINUOUS
10
157.1829520000000002
20
-103.8428349999999938
11
207.4137879999999825
21
-85.560262999999992
0
CIRCLE
8
BLACK
10
214.4249999999999829
20
-76.
40
0.8999999999999999
0
CIRCLE
8
BLACK
10
219.5
20
-76.
40
2.6000000000000001
0
CIRCLE
8
BLACK
10
224.5749999999999886
20
-76.
40
0.8999999999999999
0
CIRCLE
8
BLACK
10
260.9250000000000114
20
0.
40
0.8999999999999999
0
CIRCLE
8
BLACK
10
266.
20
0.
40
2.6000000000000001
0
CIRCLE
8
BLACK
10
271.0749999999999886
20
0.
40
0.8999999999999999
0
CIRCLE
8
BLACK
10
156.4249999999999829
20
-19.
40
0.8999999999999999
0
CIRCLE
8
BLACK
10
161.5
20
-19.
40
2.6000000000000001
0
CIRCLE
8
BLACK
10
166.5749999999999886
20
-19.
40
0.8999999999999999
0
CIRCLE
8
BLACK
10
256.1750000000000114
20
-38.
40
0.8999999999999999
0
CIRCLE
8
BLACK
10
261.25
20
-38.
40
2.6000000000000001
0
CIRCLE
8
BLACK
10
266.3249999999999886
20
-38.
40
0.8999999999999999
0
CIRCLE
8
BLACK
10
184.9249999999999829
20
0.
40
0.8999999999999999
0
CIRCLE
8
BLACK
10
190.
20
0.
40
2.6000000000000001
0
CIRCLE
8
BLACK
10
195.0749999999999886
20
0.
40
0.8999999999999999
0
CIRCLE
8
BLACK
10
170.6749999999999829
20
-57.
40
0.8999999999999999
0
CIRCLE
8
BLACK
10
175.75
20
-57.
40
2.6000000000000001
0
CIRCLE
8
BLACK
10
180.8249999999999886
20
-57.
40
0.8999999999999999
0
CIRCLE
8
BLACK
10
289.4250000000000114
20
-57.
40
0.8999999999999999
0
CIRCLE
8
BLACK
10
294.5
20
-57.
40
2.6000000000000001
0
CIRCLE
8
BLACK
10
299.5749999999999886
20
-57.
40
0.8999999999999999
0
CIRCLE
8
BLACK
10
85.1749999999999972
20
-38.
40
0.8999999999999999
0
CIRCLE
8
BLACK
10
90.25
20
-38.
40
2.6000000000000001
0
CIRCLE
8
BLACK
10
95.3249999999999886
20
-38.
40
0.8999999999999999
0
CIRCLE
8
BLACK
10
161.1749999999999829
20
-38.
40
0.8999999999999999
0
CIRCLE
8
BLACK
10
166.25
20
-38.
40
2.6000000000000001
0
CIRCLE
8
BLACK
10
171.3249999999999886
20
-38.
40
0.8999999999999999
0
CIRCLE
8
BLACK
10
42.4249999999999972
20
-19.
40
0.8999999999999999
0
CIRCLE
8
BLACK
10
47.5
20
-19.
40
2.6000000000000001
0
CIRCLE
8
BLACK
10
52.5749999999999957
20
-19.
40
0.8999999999999999
0
CIRCLE
8
BLACK
10
146.9249999999999829
20
0.
40
0.8999999999999999
0
CIRCLE
8
BLACK
10
152.
20
0.
40
2.6000000000000001
0
CIRCLE
8
BLACK
10
251.4249999999999829
20
-19.
40
0.8999999999999999
0
CIRCLE
8
BLACK
10
256.5
20
-19.
40
2.6000000000000001
0
CIRCLE
8
BLACK
10
261.5749999999999886
20
-19.
40
0.8999999999999999
0
CIRCLE
8
BLACK
10
47.1749999999999972
20
-38.
40
0.8999999999999999
0
CIRCLE
8
BLACK
10
52.25
20
-38.
40
2.6000000000000001
0
CIRCLE
8
BLACK
10
57.3249999999999957
20
-38.
40
0.8999999999999999
0
CIRCLE
8
BLACK
10
80.4249999999999972
20
-19.
40
0.8999999999999999
0
CIRCLE
8
BLACK
10
85.5
20
-19.
40
2.6000000000000001
0
CIRCLE
8
BLACK
10
90.5750000000000028
20
-19.
40
0.8999999999999999
0
CIRCLE
8
BLACK
10
123.1749999999999972
20
-38.
40
0.8999999999999999
0
CIRCLE
8
BLACK
10
128.25
20
-38.
40
2.6000000000000001
0
CIRCLE
8
BLACK
10
133.3249999999999886
20
-38.
40
0.8999999999999999
0
CIRCLE
8
BLACK
10
70.9249999999999972
20
0.
40
0.8999999999999999
0
CIRCLE
8
BLACK
10
76.
20
0.
40
2.6000000000000001
0
CIRCLE
8
BLACK
10
81.0750000000000028
20
0.
40
0.8999999999999999
0
CIRCLE
8
BLACK
10
18.6750000000000007
20
-19.
40
0.8999999999999999
0
CIRCLE
8
BLACK
10
23.75
20
-19.
40
2.6000000000000001
0
CIRCLE
8
BLACK
10
28.8249999999999993
20
-19.
40
0.8999999999999999
0
CIRCLE
8
BLACK
10
294.1750000000000114
20
-38.
40
0.8999999999999999
0
CIRCLE
8
BLACK
10
299.25
20
-38.
40
2.6000000000000001
0
CIRCLE
8
BLACK
10
304.3249999999999886
20
-38.
40
0.8999999999999999
0
CIRCLE
8
BLACK
10
32.9249999999999972
20
0.
40
0.8999999999999999
0
CIRCLE
8
BLACK
10
38.
20
0.
40
2.6000000000000001
0
CIRCLE
8
BLACK
10
43.0749999999999957
20
0.
40
0.8999999999999999
0
CIRCLE
8
BLACK
10
118.4249999999999972
20
-19.
40
0.8999999999999999
0
CIRCLE
8
BLACK
10
123.5
20
-19.
40
2.6000000000000001
0
CIRCLE
8
BLACK
10
128.5749999999999886
20
-19.
40
0.8999999999999999
0
CIRCLE
8
BLACK
10
241.9249999999999829
20
0.
40
0.8999999999999999
0
CIRCLE
8
BLACK
10
247.
20
0.
40
2.6000000000000001
0
CIRCLE
8
BLACK
10
252.0749999999999886
20
0.
40
0.8999999999999999
0
CIRCLE
8
BLACK
10
151.6749999999999829
20
-57.
40
0.8999999999999999
0
CIRCLE
8
BLACK
10
156.75
20
-57.
40
2.6000000000000001
0
CIRCLE
8
BLACK
10
161.8249999999999886
20
-57.
40
0.8999999999999999
0
CIRCLE
8
BLACK
10
137.4249999999999829
20
-19.
40
0.8999999999999999
0
CIRCLE
8
BLACK
10
142.5
20
-19.
40
2.6000000000000001
0
CIRCLE
8
BLACK
10
147.5749999999999886
20
-19.
40
0.8999999999999999
0
CIRCLE
8
BLACK
10
99.4249999999999972
20
-19.
40
0.8999999999999999
0
CIRCLE
8
BLACK
10
104.5
20
-19.
40
2.6000000000000001
0
CIRCLE
8
BLACK
10
109.5749999999999886
20
-19.
40
0.8999999999999999
0
CIRCLE
8
BLACK
10
213.4249999999999829
20
-19.
40
0.8999999999999999
0
CIRCLE
8
BLACK
10
218.5
20
-19.
40
2.6000000000000001
0
CIRCLE
8
BLACK
10
223.5749999999999886
20
-19.
40
0.8999999999999999
0
CIRCLE
8
BLACK
10
199.1749999999999829
20
-38.
40
0.8999999999999999
0
CIRCLE
8
BLACK
10
204.25
20
-38.
40
2.6000000000000001
0
CIRCLE
8
BLACK
10
209.3249999999999886
20
-38.
40
0.8999999999999999
0
CIRCLE
8
BLACK
10
90.8310599999999937
20
-84.2642479999999949
40
0.8999999999999999
0
CIRCLE
8
BLACK
10
95.5999999999999943
20
-86.
40
2.6000000000000001
0
CIRCLE
8
BLACK
10
100.3689399999999949
20
-87.7357519999999909
40
0.899999
0
CIRCLE
8
BLACK
10
194.4249999999999829
20
-19.
40
0.8999999999999999
0
CIRCLE
8
BLACK
10
199.5
20
-19.
40
2.6000000000000001
0
CIRCLE
8
BLACK
10
204.5749999999999886
20
-19.
40
0.8999999999999999
0
CIRCLE
8
BLACK
10
237.1749999999999829
20
-38.
40
0.8999999999999999
0
CIRCLE
8
BLACK
10
242.25
20
-38.
40
2.6000000000000001
0
CIRCLE
8
BLACK
10
247.3249999999999886
20
-38.
40
0.8999999999999999
0
CIRCLE
8
BLACK
10
232.4249999999999829
20
-19.
40
0.8999999999999999
0
CIRCLE
8
BLACK
10
237.5
20
-19.
40
2.6000000000000001
0
CIRCLE
8
BLACK
10
242.5749999999999886
20
-19.
40
0.8999999999999999
0
CIRCLE
8
BLACK
10
275.1750000000000114
20
-38.
40
0.8999999999999999
0
CIRCLE
8
BLACK
10
280.25
20
-38.
40
2.6000000000000001
0
CIRCLE
8
BLACK
10
285.3249999999999886
20
-38.
40
0.8999999999999999
0
CIRCLE
8
BLACK
10
275.1750000000000114
20
-19.
40
0.8999999999999999
0
CIRCLE
8
BLACK
10
280.25
20
-19.
40
2.6000000000000001
0
CIRCLE
8
BLACK
10
285.3249999999999886
20
-19.
40
0.8999999999999999
0
CIRCLE
8
BLACK
10
142.1749999999999829
20
-38.
40
0.8999999999999999
0
CIRCLE
8
BLACK
10
147.25
20
-38.
40
2.6000000000000001
0
CIRCLE
8
BLACK
10
152.3249999999999886
20
-38.
40
0.8999999999999999
0
CIRCLE
8
BLACK
10
50.9249999999999972
20
-76.
40
0.8999999999999999
0
CIRCLE
8
BLACK
10
56.
20
-76.
40
2.6000000000000001
0
CIRCLE
8
BLACK
10
61.0749999999999957
20
-76.
40
0.8999999999999999
0
CIRCLE
8
BLACK
10
192.9810599999999852
20
-81.2357519999999909
40
0.8999999999999999
0
CIRCLE
8
BLACK
10
197.75
20
-79.5
40
2.6000000000000001
0
CIRCLE
8
BLACK
10
202.5189399999999864
20
-77.7642479999999949
40
0.899999
0
CIRCLE
8
BLACK
10
127.9249999999999972
20
0.
40
0.8999999999999999
0
CIRCLE
8
BLACK
10
133.
20
0.
40
2.6000000000000001
0
CIRCLE
8
BLACK
10
138.0749999999999886
20
0.
40
0.8999999999999999
0
CIRCLE
8
BLACK
10
270.4250000000000114
20
-57.
40
0.8999999999999999
0
CIRCLE
8
BLACK
10
275.5
20
-57.
40
2.6000000000000001
0
CIRCLE
8
BLACK
10
280.5749999999999886
20
-57.
40
0.8999999999999999
0
CIRCLE
8
BLACK
10
175.1310599999999909
20
-87.7357519999999909
40
0.8999999999999999
0
CIRCLE
8
BLACK
10
179.9000000000000057
20
-86.
40
2.6000000000000001
0
CIRCLE
8
BLACK
10
184.6689399999999921
20
-84.2642479999999949
40
0.899999
0
CIRCLE
8
BLACK
10
2.0499999999999998
20
-57.
40
0.8999999999999999
0
CIRCLE
8
BLACK
10
7.125
20
-57.
40
2.6000000000000001
0
CIRCLE
8
BLACK
10
12.1999999999999993
20
-57.
40
0.8999999999999999
0
CIRCLE
8
BLACK
10
94.6749999999999972
20
-57.
40
0.8999999999999999
0
CIRCLE
8
BLACK
10
99.75
20
-57.
40
2.6000000000000001
0
CIRCLE
8
BLACK
10
104.8249999999999886
20
-57.
40
0.8999999999999999
0
CIRCLE
8
BLACK
10
171.
20
0.
40
2.6000000000000001
0
CIRCLE
8
BLACK
10
176.0749999999999886
20
0.
40
0.8999999999999999
0
CIRCLE
8
BLACK
10
72.8560599999999994
20
-77.7642479999999949
40
0.8999999999999999
0
CIRCLE
8
BLACK
10
77.625
20
-79.5
40
2.6000000000000001
0
CIRCLE
8
BLACK
10
82.3939400000000006
20
-81.2357519999999909
40
0.899999
0
CIRCLE
8
BLACK
10
203.9249999999999829
20
0.
40
0.8999999999999999
0
CIRCLE
8
BLACK
10
209.
20
0.
40
2.6000000000000001
0
CIRCLE
8
BLACK
10
214.0749999999999886
20
0.
40
0.8999999999999999
0
CIRCLE
8
BLACK
10
30.5499999999999972
20
-57.
40
0.8999999999999999
0
CIRCLE
8
BLACK
10
35.625
20
-57.
40
2.6000000000000001
0
CIRCLE
8
BLACK
10
40.6999999999999957
20
-57.
40
0.8999999999999999
0
CIRCLE
8
BLACK
10
108.6310599999999909
20
-90.7642479999999949
40
0.8999999999999999
0
CIRCLE
8
BLACK
10
113.3999999999999915
20
-92.5
40
2.6000000000000001
0
CIRCLE
8
BLACK
10
118.1689399999999921
20
-94.2357519999999909
40
0.899999
0
CIRCLE
8
BLACK
10
56.6749999999999972
20
-57.
40
0.8999999999999999
0
CIRCLE
8
BLACK
10
61.75
20
-57.
40
2.6000000000000001
0
CIRCLE
8
BLACK
10
66.8250000000000028
20
-57.
40
0.8999999999999999
0
CIRCLE
8
BLACK
10
218.1749999999999829
20
-38.
40
0.8999999999999999
0
CIRCLE
8
BLACK
10
223.25
20
-38.
40
2.6000000000000001
0
CIRCLE
8
BLACK
10
228.3249999999999886
20
-38.
40
0.8999999999999999
0
CIRCLE
8
BLACK
10
61.4249999999999972
20
-19.
40
0.8999999999999999
0
CIRCLE
8
BLACK
10
66.5
20
-19.
40
2.6000000000000001
0
CIRCLE
8
BLACK
10
71.5750000000000028
20
-19.
40
0.8999999999999999
0
CIRCLE
8
BLACK
10
249.0499999999999829
20
-57.
40
0.8999999999999999
0
CIRCLE
8
BLACK
10
254.125
20
-57.
40
2.6000000000000001
0
CIRCLE
8
BLACK
10
259.1999999999999886
20
-57.
40
0.8999999999999999
0
CIRCLE
8
BLACK
10
5.7999999999999998
20
-76.
40
0.8999999999999999
0
CIRCLE
8
BLACK
10
10.875
20
-76.
40
2.6000000000000001
0
CIRCLE
8
BLACK
10
15.9499999999999993
20
-76.
40
0.8999999999999999
0
CIRCLE
8
BLACK
10
28.1749999999999972
20
-38.
40
0.8999999999999999
0
CIRCLE
8
BLACK
10
33.25
20
-38.
40
2.6000000000000001
0
CIRCLE
8
BLACK
10
38.3249999999999957
20
-38.
40
0.8999999999999999
0
CIRCLE
8
BLACK
10
157.3310599999999795
20
-94.2357519999999909
40
0.8999999999999999
0
CIRCLE
8
BLACK
10
162.0999999999999943
20
-92.5
40
2.6000000000000001
0
CIRCLE
8
BLACK
10
166.8689399999999807
20
-90.7642479999999949
40
0.899999
0
CIRCLE
8
BLACK
10
227.6749999999999829
20
-57.
40
0.8999999999999999
0
CIRCLE
8
BLACK
10
232.75
20
-57.
40
2.6000000000000001
0
CIRCLE
8
BLACK
10
237.8249999999999886
20
-57.
40
0.8999999999999999
0
CIRCLE
8
BLACK
10
51.9249999999999972
20
0.
40
0.8999999999999999
0
CIRCLE
8
BLACK
10
57.
20
0.
40
2.6000000000000001
0
CIRCLE
8
BLACK
10
62.0749999999999957
20
0.
40
0.8999999999999999
0
CIRCLE
8
BLACK
10
180.1749999999999829
20
-38.
40
0.8999999999999999
0
CIRCLE
8
BLACK
10
185.25
20
-38.
40
2.6000000000000001
0
CIRCLE
8
BLACK
10
190.3249999999999886
20
-38.
40
0.8999999999999999
0
CIRCLE
8
BLACK
10
113.6749999999999972
20
-57.
40
0.8999999999999999
0
CIRCLE
8
BLACK
10
118.75
20
-57.
40
2.6000000000000001
0
CIRCLE
8
BLACK
10
123.8249999999999886
20
-57.
40
0.8999999999999999
0
CIRCLE
8
BLACK
10
222.9249999999999829
20
0.
40
0.8999999999999999
0
CIRCLE
8
BLACK
10
228.
20
0.
40
2.6000000000000001
0
CIRCLE
8
BLACK
10
233.0749999999999886
20
0.
40
0.8999999999999999
0
CIRCLE
8
BLACK
10
66.1749999999999972
20
-38.
40
0.8999999999999999
0
CIRCLE
8
BLACK
10
71.25
20
-38.
40
2.6000000000000001
0
CIRCLE
8
BLACK
10
76.3250000000000028
20
-38.
40
0.8999999999999999
0
CIRCLE
8
BLACK
10
6.7999999999999998
20
-38.
40
0.8999999999999999
0
CIRCLE
8
BLACK
10
11.875
20
-38.
40
2.6000000000000001
0
CIRCLE
8
BLACK
10
16.9499999999999993
20
-38.
40
0.8999999999999999
0
CIRCLE
8
BLACK
10
13.9249999999999989
20
0.
40
0.8999999999999999
0
CIRCLE
8
BLACK
10
19.
20
0.
40
2.6000000000000001
0
CIRCLE
8
BLACK
10
24.0749999999999993
20
0.
40
0.8999999999999999
0
CIRCLE
8
BLACK
10
89.9249999999999972
20
0.
40
0.8999999999999999
0
CIRCLE
8
BLACK
10
95.
20
0.
40
2.6000000000000001
0
CIRCLE
8
BLACK
10
100.0749999999999886
20
0.
40
0.8999999999999999
0
CIRCLE
8
BLACK
10
175.4249999999999829
20
-19.
40
0.8999999999999999
0
CIRCLE
8
BLACK
10
180.5
20
-19.
40
2.6000000000000001
0
CIRCLE
8
BLACK
10
185.5749999999999886
20
-19.
40
0.8999999999999999
0
CIRCLE
8
BLACK
10
75.6749999999999972
20
-57.
40
0.8999999999999999
0
CIRCLE
8
BLACK
10
80.75
20
-57.
40
2.6000000000000001
0
CIRCLE
8
BLACK
10
85.8250000000000028
20
-57.
40
0.8999999999999999
0
CIRCLE
8
BLACK
10
132.6749999999999829
20
-76.
40
0.8999999999999999
0
CIRCLE
8
BLACK
10
137.75
20
-76.
40
2.6000000000000001
0
CIRCLE
8
BLACK
10
142.8249999999999886
20
-76.
40
0.8999999999999999
0
CIRCLE
8
BLACK
10
208.6749999999999829
20
-57.
40
0.8999999999999999
0
CIRCLE
8
BLACK
10
213.75
20
-57.
40
2.6000000000000001
0
CIRCLE
8
BLACK
10
218.8249999999999886
20
-57.
40
0.8999999999999999
0
CIRCLE
8
BLACK
10
104.1749999999999972
20
-38.
40
0.8999999999999999
0
CIRCLE
8
BLACK
10
109.25
20
-38.
40
2.6000000000000001
0
CIRCLE
8
BLACK
10
114.3249999999999886
20
-38.
40
0.8999999999999999
0
CIRCLE
8
BLACK
10
108.9249999999999972
20
0.
40
0.8999999999999999
0
CIRCLE
8
BLACK
10
114.
20
0.
40
2.6000000000000001
0
CIRCLE
8
BLACK
10
119.0749999999999886
20
0.
40
0.8999999999999999
0
CIRCLE
8
BLACK
10
29.5499999999999972
20
-76.
40
0.8999999999999999
0
CIRCLE
8
BLACK
10
34.625
20
-76.
40
2.6000000000000001
0
CIRCLE
8
BLACK
10
39.6999999999999957
20
-76.
40
0.8999999999999999
0
CIRCLE
8
BLACK
10
132.6749999999999829
20
-57.
40
0.8999999999999999
0
CIRCLE
8
BLACK
10
137.75
20
-57.
40
2.6000000000000001
0
CIRCLE
8
BLACK
10
142.8249999999999886
20
-57.
40
0.8999999999999999
0
CIRCLE
8
BLACK
10
235.7999999999999829
20
-76.
40
0.8999999999999999
0
CIRCLE
8
BLACK
10
240.875
20
-76.
40
2.6000000000000001
0
CIRCLE
8
BLACK
10
245.9499999999999886
20
-76.
40
0.8999999999999999
0
CIRCLE
8
BLACK
10
189.6749999999999829
20
-57.
40
0.8999999999999999
0
CIRCLE
8
BLACK
10
194.75
20
-57.
40
2.6000000000000001
0
CIRCLE
8
BLACK
10
199.8249999999999886
20
-57.
40
0.8999999999999999
0
CIRCLE
8
BLACK
10
279.9250000000000114
20
0.
40
0.8999999999999999
0
CIRCLE
8
BLACK
10
285.
20
0.
40
2.6000000000000001
0
CIRCLE
8
BLACK
10
290.0749999999999886
20
0.
40
0.8999999999999999
  0
ENDSEC
  0
EOF
