  0
SECTION
  2
HEADER
  9
$ANGBASE
  50
0.0
  9
$ANGDIR
  70
1
  9
$MEASUREMENT
  70
0
  0
ENDSEC
  0
SECTION
  2
TABLES
  0
TABLE
  2
LTYPE
  70
4
  0
LTYPE
  5
40F
  2
CONTINUOUS
  70
0
  3
Solid line
  72
65
  73
0
  40
0.0
  0
LTYPE
  5
410
  2
DASHDOT
 70
0
  3
Dash Dot ____ _ ____ _
 72
65
 73
4
 40
2.0
 49
1.25
 49
-0.25
 49
0.25
 49
-0.25
  0
LTYPE
  5
411
  2
DASHED
 70
0
  3
Dashed __ __ __ __ __
 72
65
 73
2
 40
0.75
 49
0.5
 49
-0.25
  0
LTYPE
  5
43B
  2
DOTTED
 70
0
  3
Dotted .  .  .  .
 72
65
 73
2
 40
0.2
 49
0.0
 49
-0.2
  0
ENDTAB
  0
TABLE
  2
STYLE
  70
4
  0
STYLE
  2
KICAD
  70
0
  40
0
  41
1
  42
1
  50
0
  71
0
  3
isocp.shx
  0
STYLE
  2
KICADB
  70
0
  40
0
  41
1
  42
1
  50
0
  71
0
  3
isocp.shx
  0
STYLE
  2
KICADI
  70
0
  40
0
  41
1
  42
1
  50
15
  71
0
  3
isocp.shx
  0
STYLE
  2
KICADBI
  70
0
  40
0
  41
1
  42
1
  50
15
  71
0
  3
isocp.shx
  0
ENDTAB
  0
TABLE
  2
LAYER
  70
1
  0
LAYER
  2
BLACK
  70
0
  62
7
  6
CONTINUOUS
  0
ENDTAB
  0
ENDSEC
  0
SECTION
  2
ENTITIES
0
LINE
8
BLACK
6
CONTINUOUS
10
5.8366141732283463
20
-2.6181102362204722
11
6.1712598425196852
21
-2.6181102362204722
0
ARC
8
BLACK
10
5.8366141732283463
20
-2.6574803149606296
40
0.0393700787401575
50
90.00000000
51
180.00000000
0
LINE
8
BLACK
6
CONTINUOUS
10
5.7972440944881889
20
-3.002261377952756
11
5.7972440944881889
21
-2.6574803149606296
0
ARC
8
BLACK
10
5.8366141732283463
20
-3.0022637795275591
40
0.0393676523867287
50
-180.00349504
51
-69.99921126
0
LINE
8
BLACK
6
CONTINUOUS
10
5.9040733070866143
20
-3.0196048031496061
11
5.8500792125984251
21
-3.0392570866141733
0
LINE
8
BLACK
6
CONTINUOUS
10
6.0317248425196848
20
-3.3703237007874014
11
5.9040733070866143
21
-3.0196048031496061
0
ARC
8
BLACK
10
6.0687165354330705
20
-3.3568700787401573
40
0.0393604011697304
50
-160.01402437
51
-69.99604008
0
LINE
8
BLACK
6
CONTINUOUS
10
7.98548062992126
20
-2.7011098425196849
11
6.0821811417322831
21
-3.3938558267716536
0
ARC
8
BLACK
10
7.9989488188976372
20
-2.7381023622047245
40
0.0393679898769477
50
19.99861080
51
110.00548815
0
LINE
8
BLACK
6
CONTINUOUS
10
8.1756042125984258
20
-3.1083586220472439
11
8.0359414173228352
21
-2.7246391732283466
0
ARC
8
BLACK
10
8.21259842519685
20
-3.0948937007874013
40
0.0393700787406496
50
-159.99982353
51
0.00028648
0
LINE
8
BLACK
6
CONTINUOUS
10
8.2519685039370074
20
-2.6574803149606296
11
8.2519685039370074
21
-3.094893503937008
0
ARC
8
BLACK
10
8.21259842519685
20
-2.6574803149606296
40
0.0393700787401575
50
0.00000000
51
90.00000000
0
LINE
8
BLACK
6
CONTINUOUS
10
6.1712598425196852
20
-2.6181102362204722
11
8.21259842519685
21
-2.6181102362204722
0
LINE
8
BLACK
6
CONTINUOUS
10
5.0098425196850389
20
-2.6181102362204722
11
4.6751968503937009
21
-2.6181102362204722
0
ARC
8
BLACK
10
5.0098425196850389
20
-2.6574803149606296
40
0.0393700787401575
50
0.00000000
51
90.00000000
0
LINE
8
BLACK
6
CONTINUOUS
10
5.0492125984251963
20
-3.002261377952756
11
5.0492125984251963
21
-2.6574803149606296
0
ARC
8
BLACK
10
5.0098425196850389
20
-3.0022637795275591
40
0.0393700788134055
50
-110.00078874
51
0.00349504
0
LINE
8
BLACK
6
CONTINUOUS
10
4.9423833858267718
20
-3.0196048031496061
11
4.9963774803149601
21
-3.0392570866141733
0
LINE
8
BLACK
6
CONTINUOUS
10
4.8147318503937004
20
-3.3703237401574802
11
4.9423833858267718
21
-3.0196048031496061
0
ARC
8
BLACK
10
4.7777401574803147
20
-3.3568700787401573
40
0.0393622452374125
50
-110.00394031
51
-19.98602948
0
LINE
8
BLACK
6
CONTINUOUS
10
2.856630472440945
20
-2.699528188976378
11
4.7642755511811021
21
-3.3938558661417324
0
ARC
8
BLACK
10
2.8431653543307087
20
-2.73651968503937
40
0.0393688892698465
50
69.99820201
51
160.00431756
0
LINE
8
BLACK
6
CONTINUOUS
10
2.6708524803149607
20
-3.0948375984251966
11
2.8061696850393698
21
-2.7230575196850393
0
ARC
8
BLACK
10
2.6338582677165352
20
-3.0813740157480316
40
0.0393680050838539
50
-180.00223454
51
-19.99834580
0
LINE
8
BLACK
6
CONTINUOUS
10
2.5944881889763778
20
-2.6574803149606296
11
2.5944881889763778
21
-3.0813724803149607
0
ARC
8
BLACK
10
2.6338582677165352
20
-2.6574803149606296
40
0.0393700787401575
50
90.00000000
51
180.00000000
0
LINE
8
BLACK
6
CONTINUOUS
10
4.6751968503937009
20
-2.6181102362204722
11
2.6338582677165352
21
-2.6181102362204722
0
LINE
8
BLACK
6
CONTINUOUS
10
0.3740157480314961
20
0.3346456692913386
11
0.3740157480314961
21
-1.0826771653543308
0
ARC
8
BLACK
10
0.4133858267716535
20
0.3346456692913386
40
0.0393700787401575
50
90.00000000
51
180.00000000
0
LINE
8
BLACK
6
CONTINUOUS
10
6.1909448818897639
20
0.3740157480314961
11
0.4133858267716535
21
0.3740157480314961
0
LINE
8
BLACK
6
CONTINUOUS
10
6.1909448818897639
20
0.2244094488188976
11
6.1909448818897639
21
0.3740157480314961
0
ARC
8
BLACK
10
6.2106299212598426
20
0.2244094488188976
40
0.0196850393700787
50
-180.00000000
51
-90.00000000
0
LINE
8
BLACK
6
CONTINUOUS
10
6.5944881889763778
20
0.2047244094488189
11
6.2106299212598426
21
0.2047244094488189
0
ARC
8
BLACK
10
6.5944881889763778
20
0.2244094488188976
40
0.0196850393700787
50
-90.00000000
51
-0.00000000
0
LINE
8
BLACK
6
CONTINUOUS
10
6.6141732283464565
20
0.3740157480314961
11
6.6141732283464565
21
0.2244094488188976
0
LINE
8
BLACK
6
CONTINUOUS
10
11.5748031496062982
20
0.3740157480314961
11
6.6141732283464565
21
0.3740157480314961
0
ARC
8
BLACK
10
11.5748031496062982
20
0.3543307086614173
40
0.0196850393700787
50
0.00000000
51
90.00000000
0
LINE
8
BLACK
6
CONTINUOUS
10
11.5944881889763778
20
-2.5984251968503935
11
11.5944881889763778
21
0.3543307086614173
0
ARC
8
BLACK
10
11.5748031496062982
20
-2.5984251968503935
40
0.0196850393700787
50
-90.00000000
51
-0.00000000
0
LINE
8
BLACK
6
CONTINUOUS
10
11.4507874015748037
20
-2.6181102362204722
11
11.5748031496062982
21
-2.6181102362204722
0
ARC
8
BLACK
10
11.4507874015748037
20
-2.6377952755905509
40
0.0196850393700787
50
90.00000000
51
180.00000000
0
LINE
8
BLACK
6
CONTINUOUS
10
11.4311023622047241
20
-3.3464566929133857
11
11.4311023622047241
21
-2.6377952755905509
0
ARC
8
BLACK
10
11.4114173228346463
20
-3.3464566929133857
40
0.0196850393700787
50
-90.00000000
51
-0.00000000
0
LINE
8
BLACK
6
CONTINUOUS
10
8.1796997244094491
20
-3.3661417322834644
11
11.4114173228346463
21
-3.3661417322834644
0
ARC
8
BLACK
10
8.179685039370078
20
-3.4054527559055119
40
0.039311283668305
50
89.97859657
51
110.00877074
0
LINE
8
BLACK
6
CONTINUOUS
10
6.1883446062992125
20
-4.0884088976377955
11
8.1662341338582678
21
-3.3685142913385828
0
ARC
8
BLACK
10
6.1748779527559057
20
-4.051417322834646
40
0.0393665767380462
50
-160.00228551
51
-69.99614127
0
LINE
8
BLACK
6
CONTINUOUS
10
5.8929920078740157
20
-3.3920464173228346
11
6.1378840944881885
21
-4.0648803149606296
0
ARC
8
BLACK
10
5.8559960629921255
20
-3.4055118110236218
40
0.0393700787404724
50
19.99996031
51
89.99977082
0
LINE
8
BLACK
6
CONTINUOUS
10
5.4232283464566926
20
-3.3661417322834644
11
5.8559962204724405
21
-3.3661417322834644
0
ARC
8
BLACK
10
0.3346456692913386
20
-1.0826771653543308
40
0.0393700787401575
50
-90.00000000
51
-0.00000000
0
LINE
8
BLACK
6
CONTINUOUS
10
0.0393700787401575
20
-1.1220472440944882
11
0.3346456692913386
21
-1.1220472440944882
0
ARC
8
BLACK
10
0.0393700787401575
20
-1.1614173228346456
40
0.0393700787401575
50
90.00000000
51
180.00000000
0
LINE
8
BLACK
6
CONTINUOUS
10
0.
20
-1.8307086614173227
11
0.
21
-1.1614173228346456
0
ARC
8
BLACK
10
-0.0393700393700787
20
-1.8307087007874014
40
0.0393700393700984
50
-90.00005730
51
0.00005730
0
LINE
8
BLACK
6
CONTINUOUS
10
-0.1476377952755905
20
-1.8700787401574803
11
-0.0393700787401575
21
-1.8700787401574803
0
ARC
8
BLACK
10
-0.1476378346456693
20
-1.909448779527559
40
0.0393700393700984
50
-270.00005730
51
-179.99994270
0
LINE
8
BLACK
6
CONTINUOUS
10
-0.187007874015748
20
-2.5787401574803148
11
-0.187007874015748
21
-1.9094488188976377
0
ARC
8
BLACK
10
-0.1476378346456693
20
-2.5787401968503936
40
0.0393700393700984
50
-180.00005730
51
-89.99994270
0
LINE
8
BLACK
6
CONTINUOUS
10
-0.062992125984252
20
-2.6181102362204722
11
-0.1476377952755905
21
-2.6181102362204722
0
ARC
8
BLACK
10
-0.0629920866141732
20
-2.6574802755905513
40
0.0393700393700984
50
-0.00005730
51
90.00005730
0
LINE
8
BLACK
6
CONTINUOUS
10
-0.0236220472440945
20
-3.326771653543307
11
-0.0236220472440945
21
-2.6574803149606296
0
ARC
8
BLACK
10
0.015748031496063
20
-3.326771653543307
40
0.0393700787401575
50
-180.00000000
51
-90.00000000
0
LINE
8
BLACK
6
CONTINUOUS
10
2.666756968503937
20
-3.3661417322834644
11
0.015748031496063
21
-3.3661417322834644
0
ARC
8
BLACK
10
2.6667716535433068
20
-3.4054527559055119
40
0.0393110263649213
50
69.99122926
51
90.02140343
0
LINE
8
BLACK
6
CONTINUOUS
10
4.6581120866141728
20
-4.0884088976377955
11
2.6802225590551179
21
-3.3685142913385828
0
ARC
8
BLACK
10
4.6715787401574804
20
-4.051417322834646
40
0.0393674701564148
50
-110.00385873
51
-19.99771449
0
LINE
8
BLACK
6
CONTINUOUS
10
4.9534646850393695
20
-3.3920464173228346
11
4.7085725984251967
21
-4.0648803149606296
0
ARC
8
BLACK
10
4.9904606299212597
20
-3.4055118110236218
40
0.0393702522880033
50
90.00022918
51
160.00003969
0
LINE
8
BLACK
6
CONTINUOUS
10
5.4232283464566926
20
-3.3661417322834644
11
4.9904604724409447
21
-3.3661417322834644
0
CIRCLE
8
BLACK
10
5.784448818897638
20
0.
40
0.0334645669291339
0
CIRCLE
8
BLACK
10
5.984251968503937
20
0.
40
0.1023622047244094
0
CIRCLE
8
BLACK
10
6.7322834645669287
20
0.
40
0.1023622047244094
0
CIRCLE
8
BLACK
10
6.9320866141732278
20
0.
40
0.0334645669291339
0
CIRCLE
8
BLACK
10
9.5246062992125982
20
0.
40
0.0334645669291339
0
CIRCLE
8
BLACK
10
9.7244094488188981
20
0.
40
0.1023622047244094
0
CIRCLE
8
BLACK
10
9.9242125984251963
20
0.
40
0.0334645669291339
0
CIRCLE
8
BLACK
10
8.4261811023622037
20
-2.9921259842519685
40
0.0334645669291339
0
CIRCLE
8
BLACK
10
8.6259842519685037
20
-2.9921259842519685
40
0.1023622047244094
0
CIRCLE
8
BLACK
10
8.8257874015748037
20
-2.9921259842519685
40
0.0334645669291339
0
CIRCLE
8
BLACK
10
10.2726377952755907
20
0.
40
0.0334645669291339
0
CIRCLE
8
BLACK
10
10.4724409448818889
20
0.
40
0.1023622047244094
0
CIRCLE
8
BLACK
10
10.6722440944881889
20
0.
40
0.0334645669291339
0
CIRCLE
8
BLACK
10
6.1584645669291334
20
-0.7480314960629921
40
0.0334645669291339
0
CIRCLE
8
BLACK
10
6.3582677165354333
20
-0.7480314960629921
40
0.1023622047244094
0
CIRCLE
8
BLACK
10
6.5580708661417324
20
-0.7480314960629921
40
0.0334645669291339
0
CIRCLE
8
BLACK
10
10.2726377952755907
20
-1.4960629921259843
40
0.0334645669291339
0
CIRCLE
8
BLACK
10
10.4724409448818889
20
-1.4960629921259843
40
0.1023622047244094
0
CIRCLE
8
BLACK
10
10.6722440944881889
20
-1.4960629921259843
40
0.0334645669291339
0
CIRCLE
8
BLACK
10
7.2805118110236222
20
0.
40
0.0334645669291339
0
CIRCLE
8
BLACK
10
7.4803149606299213
20
0.
40
0.1023622047244094
0
CIRCLE
8
BLACK
10
7.6801181102362204
20
0.
40
0.0334645669291339
0
CIRCLE
8
BLACK
10
6.7194881889763778
20
-2.2440944881889764
40
0.0334645669291339
0
CIRCLE
8
BLACK
10
6.9192913385826769
20
-2.2440944881889764
40
0.1023622047244094
0
CIRCLE
8
BLACK
10
7.1190944881889759
20
-2.2440944881889764
40
0.0334645669291339
0
CIRCLE
8
BLACK
10
10.109251968503937
20
-2.9921259842519685
40
0.0334645669291339
0
CIRCLE
8
BLACK
10
10.3090551181102352
20
-2.9921259842519685
40
0.1023622047244094
0
CIRCLE
8
BLACK
10
10.5088582677165352
20
-2.9921259842519685
40
0.0334645669291339
0
CIRCLE
8
BLACK
10
3.3533464566929134
20
-1.4960629921259843
40
0.0334645669291339
0
CIRCLE
8
BLACK
10
3.5531496062992125
20
-1.4960629921259843
40
0.1023622047244094
0
CIRCLE
8
BLACK
10
3.7529527559055116
20
-1.4960629921259843
40
0.0334645669291339
0
CIRCLE
8
BLACK
10
6.3454724409448815
20
-1.4960629921259843
40
0.0334645669291339
0
CIRCLE
8
BLACK
10
6.5452755905511806
20
-1.4960629921259843
40
0.1023622047244094
0
CIRCLE
8
BLACK
10
6.7450787401574805
20
-1.4960629921259843
40
0.0334645669291339
0
CIRCLE
8
BLACK
10
1.670275590551181
20
-0.7480314960629921
40
0.0334645669291339
0
CIRCLE
8
BLACK
10
1.8700787401574803
20
-0.7480314960629921
40
0.1023622047244094
0
CIRCLE
8
BLACK
10
2.0698818897637796
20
-0.7480314960629921
40
0.0334645669291339
0
CIRCLE
8
BLACK
10
9.8986220472440944
20
-0.7480314960629921
40
0.0334645669291339
0
CIRCLE
8
BLACK
10
10.0984251968503926
20
-0.7480314960629921
40
0.1023622047244094
0
CIRCLE
8
BLACK
10
10.2982283464566926
20
-0.7480314960629921
40
0.0334645669291339
0
CIRCLE
8
BLACK
10
1.8572834645669292
20
-1.4960629921259843
40
0.0334645669291339
0
CIRCLE
8
BLACK
10
2.0570866141732282
20
-1.4960629921259843
40
0.1023622047244094
0
CIRCLE
8
BLACK
10
2.2568897637795273
20
-1.4960629921259843
40
0.0334645669291339
0
CIRCLE
8
BLACK
10
3.1663385826771653
20
-0.7480314960629921
40
0.0334645669291339
0
CIRCLE
8
BLACK
10
3.3661417322834644
20
-0.7480314960629921
40
0.1023622047244094
0
CIRCLE
8
BLACK
10
3.5659448818897639
20
-0.7480314960629921
40
0.0334645669291339
0
CIRCLE
8
BLACK
10
4.8494094488188972
20
-1.4960629921259843
40
0.0334645669291339
0
CIRCLE
8
BLACK
10
5.0492125984251963
20
-1.4960629921259843
40
0.1023622047244094
0
CIRCLE
8
BLACK
10
5.2490157480314963
20
-1.4960629921259843
40
0.0334645669291339
0
CIRCLE
8
BLACK
10
2.7923228346456694
20
0.
40
0.0334645669291339
0
CIRCLE
8
BLACK
10
2.9921259842519685
20
0.
40
0.1023622047244094
0
CIRCLE
8
BLACK
10
3.1919291338582676
20
0.
40
0.0334645669291339
0
CIRCLE
8
BLACK
10
0.735236220472441
20
-0.7480314960629921
40
0.0334645669291339
0
CIRCLE
8
BLACK
10
0.9350393700787402
20
-0.7480314960629921
40
0.1023622047244094
0
CIRCLE
8
BLACK
10
1.1348425196850394
20
-0.7480314960629921
40
0.0334645669291339
0
CIRCLE
8
BLACK
10
10.8572834645669296
20
-2.9921259842519685
40
0.0334645669291339
0
CIRCLE
8
BLACK
10
11.0570866141732278
20
-2.9921259842519685
40
0.1023622047244094
0
CIRCLE
8
BLACK
10
11.2568897637795278
20
-2.9921259842519685
40
0.0334645669291339
0
CIRCLE
8
BLACK
10
1.296259842519685
20
0.
40
0.0334645669291339
0
CIRCLE
8
BLACK
10
1.4960629921259843
20
0.
40
0.1023622047244094
0
CIRCLE
8
BLACK
10
1.6958661417322833
20
0.
40
0.0334645669291339
0
CIRCLE
8
BLACK
10
4.6624015748031491
20
-0.7480314960629921
40
0.0334645669291339
0
CIRCLE
8
BLACK
10
4.8622047244094491
20
-0.7480314960629921
40
0.1023622047244094
0
CIRCLE
8
BLACK
10
5.0620078740157481
20
-0.7480314960629921
40
0.0334645669291339
0
CIRCLE
8
BLACK
10
5.9714566929133861
20
-2.2440944881889764
40
0.0334645669291339
0
CIRCLE
8
BLACK
10
6.1712598425196852
20
-2.2440944881889764
40
0.1023622047244094
0
CIRCLE
8
BLACK
10
6.3710629921259843
20
-2.2440944881889764
40
0.0334645669291339
0
CIRCLE
8
BLACK
10
5.4104330708661417
20
-0.7480314960629921
40
0.0334645669291339
0
CIRCLE
8
BLACK
10
5.6102362204724407
20
-0.7480314960629921
40
0.1023622047244094
0
CIRCLE
8
BLACK
10
5.8100393700787398
20
-0.7480314960629921
40
0.0334645669291339
0
CIRCLE
8
BLACK
10
3.9143700787401574
20
-0.7480314960629921
40
0.0334645669291339
0
CIRCLE
8
BLACK
10
4.1141732283464565
20
-0.7480314960629921
40
0.1023622047244094
0
CIRCLE
8
BLACK
10
4.3139763779527556
20
-0.7480314960629921
40
0.0334645669291339
0
CIRCLE
8
BLACK
10
8.4025590551181093
20
-0.7480314960629921
40
0.0334645669291339
0
CIRCLE
8
BLACK
10
8.6023622047244093
20
-0.7480314960629921
40
0.1023622047244094
0
CIRCLE
8
BLACK
10
8.8021653543307092
20
-0.7480314960629921
40
0.0334645669291339
0
CIRCLE
8
BLACK
10
7.8415354330708658
20
-1.4960629921259843
40
0.0334645669291339
0
CIRCLE
8
BLACK
10
8.0413385826771648
20
-1.4960629921259843
40
0.1023622047244094
0
CIRCLE
8
BLACK
10
8.2411417322834648
20
-1.4960629921259843
40
0.0334645669291339
0
CIRCLE
8
BLACK
10
3.5760259842519684
20
-3.3174900787401573
40
0.0334645669291339
0
CIRCLE
8
BLACK
10
3.7637795275590551
20
-3.3858267716535431
40
0.1023622047244094
0
CIRCLE
8
BLACK
10
3.9515330708661418
20
-3.4541634645669292
40
0.0334645669291339
0
CIRCLE
8
BLACK
10
7.6545275590551176
20
-0.7480314960629921
40
0.0334645669291339
0
CIRCLE
8
BLACK
10
7.8543307086614176
20
-0.7480314960629921
40
0.1023622047244094
0
CIRCLE
8
BLACK
10
8.0541338582677167
20
-0.7480314960629921
40
0.0334645669291339
0
CIRCLE
8
BLACK
10
9.4311023622047241
20
-1.4960629921259843
40
0.0334645669291339
0
CIRCLE
8
BLACK
10
9.6309055118110241
20
-1.4960629921259843
40
0.1023622047244094
0
CIRCLE
8
BLACK
10
9.8307086614173222
20
-1.4960629921259843
40
0.0334645669291339
0
CIRCLE
8
BLACK
10
9.1505905511811019
20
-0.7480314960629921
40
0.0334645669291339
0
CIRCLE
8
BLACK
10
9.3503937007874018
20
-0.7480314960629921
40
0.1023622047244094
0
CIRCLE
8
BLACK
10
9.5501968503937
20
-0.7480314960629921
40
0.0334645669291339
0
CIRCLE
8
BLACK
10
11.0206692913385833
20
-1.4960629921259843
40
0.0334645669291339
0
CIRCLE
8
BLACK
10
11.2204724409448815
20
-1.4960629921259843
40
0.1023622047244094
0
CIRCLE
8
BLACK
10
11.4202755905511815
20
-1.4960629921259843
40
0.0334645669291339
0
CIRCLE
8
BLACK
10
10.8336614173228352
20
-0.7480314960629921
40
0.0334645669291339
0
CIRCLE
8
BLACK
10
11.0334645669291334
20
-0.7480314960629921
40
0.1023622047244094
0
CIRCLE
8
BLACK
10
11.2332677165354333
20
-0.7480314960629921
40
0.0334645669291339
0
CIRCLE
8
BLACK
10
5.5974409448818898
20
-1.4960629921259843
40
0.0334645669291339
0
CIRCLE
8
BLACK
10
5.7972440944881889
20
-1.4960629921259843
40
0.1023622047244094
0
CIRCLE
8
BLACK
10
5.997047244094488
20
-1.4960629921259843
40
0.0334645669291339
0
CIRCLE
8
BLACK
10
2.0206692913385824
20
-2.9921259842519685
40
0.0334645669291339
0
CIRCLE
8
BLACK
10
2.2204724409448819
20
-2.9921259842519685
40
0.1023622047244094
0
CIRCLE
8
BLACK
10
2.420275590551181
20
-2.9921259842519685
40
0.0334645669291339
0
CIRCLE
8
BLACK
10
7.5976795275590545
20
-3.1982579527559056
40
0.0334645669291339
0
CIRCLE
8
BLACK
10
7.7854330708661417
20
-3.1299212598425195
40
0.1023622047244094
0
CIRCLE
8
BLACK
10
7.9731866141732279
20
-3.0615845669291337
40
0.0334645669291339
0
CIRCLE
8
BLACK
10
5.0364173228346454
20
0.
40
0.0334645669291339
0
CIRCLE
8
BLACK
10
5.2362204724409445
20
0.
40
0.1023622047244094
0
CIRCLE
8
BLACK
10
5.4360236220472435
20
0.
40
0.0334645669291339
0
CIRCLE
8
BLACK
10
11.0206692913385833
20
-2.2440944881889764
40
0.0334645669291339
0
CIRCLE
8
BLACK
10
11.2204724409448815
20
-2.2440944881889764
40
0.1023622047244094
0
CIRCLE
8
BLACK
10
11.4202755905511815
20
-2.2440944881889764
40
0.0334645669291339
0
CIRCLE
8
BLACK
10
6.8949236220472443
20
-3.4541634645669292
40
0.0334645669291339
0
CIRCLE
8
BLACK
10
7.0826771653543306
20
-3.3858267716535431
40
0.1023622047244094
0
CIRCLE
8
BLACK
10
7.2704307086614168
20
-3.3174900787401573
40
0.0334645669291339
0
CIRCLE
8
BLACK
10
0.0807086614173228
20
-2.2440944881889764
40
0.0334645669291339
0
CIRCLE
8
BLACK
10
0.280511811023622
20
-2.2440944881889764
40
0.1023622047244094
0
CIRCLE
8
BLACK
10
0.4803149606299212
20
-2.2440944881889764
40
0.0334645669291339
0
CIRCLE
8
BLACK
10
3.7273622047244093
20
-2.2440944881889764
40
0.0334645669291339
0
CIRCLE
8
BLACK
10
3.9271653543307088
20
-2.2440944881889764
40
0.1023622047244094
0
CIRCLE
8
BLACK
10
4.1269685039370074
20
-2.2440944881889764
40
0.0334645669291339
0
CIRCLE
8
BLACK
10
2.8683488188976378
20
-3.0615845669291337
40
0.0334645669291339
0
CIRCLE
8
BLACK
10
3.0561023622047245
20
-3.1299212598425195
40
0.1023622047244094
0
CIRCLE
8
BLACK
10
3.2438559055118108
20
-3.1982579527559056
40
0.0334645669291339
0
CIRCLE
8
BLACK
10
8.0285433070866148
20
0.
40
0.0334645669291339
0
CIRCLE
8
BLACK
10
8.228346456692913
20
0.
40
0.1023622047244094
0
CIRCLE
8
BLACK
10
8.4281496062992129
20
0.
40
0.0334645669291339
0
CIRCLE
8
BLACK
10
1.2027559055118109
20
-2.2440944881889764
40
0.0334645669291339
0
CIRCLE
8
BLACK
10
1.4025590551181102
20
-2.2440944881889764
40
0.1023622047244094
0
CIRCLE
8
BLACK
10
1.6023622047244095
20
-2.2440944881889764
40
0.0334645669291339
0
CIRCLE
8
BLACK
10
4.2768133858267712
20
-3.5733955905511809
40
0.0334645669291339
0
CIRCLE
8
BLACK
10
4.4645669291338583
20
-3.6417322834645667
40
0.1023622047244094
0
CIRCLE
8
BLACK
10
4.6523204724409446
20
-3.7100689763779529
40
0.0334645669291339
0
CIRCLE
8
BLACK
10
2.231299212598425
20
-2.2440944881889764
40
0.0334645669291339
0
CIRCLE
8
BLACK
10
2.4311023622047245
20
-2.2440944881889764
40
0.1023622047244094
0
CIRCLE
8
BLACK
10
2.6309055118110236
20
-2.2440944881889764
40
0.0334645669291339
0
CIRCLE
8
BLACK
10
8.5895669291338574
20
-1.4960629921259843
40
0.0334645669291339
0
CIRCLE
8
BLACK
10
8.7893700787401574
20
-1.4960629921259843
40
0.1023622047244094
0
CIRCLE
8
BLACK
10
8.9891732283464556
20
-1.4960629921259843
40
0.0334645669291339
0
CIRCLE
8
BLACK
10
2.4183070866141732
20
-0.7480314960629921
40
0.0334645669291339
0
CIRCLE
8
BLACK
10
2.6181102362204722
20
-0.7480314960629921
40
0.1023622047244094
0
CIRCLE
8
BLACK
10
2.8179133858267718
20
-0.7480314960629921
40
0.0334645669291339
0
CIRCLE
8
BLACK
10
9.9921259842519685
20
-2.2440944881889764
40
0.0334645669291339
0
CIRCLE
8
BLACK
10
10.1919291338582667
20
-2.2440944881889764
40
0.1023622047244094
0
CIRCLE
8
BLACK
10
10.3917322834645667
20
-2.2440944881889764
40
0.0334645669291339
0
CIRCLE
8
BLACK
10
0.2440944881889764
20
-2.9921259842519685
40
0.0334645669291339
0
CIRCLE
8
BLACK
10
0.4438976377952756
20
-2.9921259842519685
40
0.1023622047244094
0
CIRCLE
8
BLACK
10
0.6437007874015748
20
-2.9921259842519685
40
0.0334645669291339
0
CIRCLE
8
BLACK
10
1.109251968503937
20
-1.4960629921259843
40
0.0334645669291339
0
CIRCLE
8
BLACK
10
1.3090551181102361
20
-1.4960629921259843
40
0.1023622047244094
0
CIRCLE
8
BLACK
10
1.5088582677165354
20
-1.4960629921259843
40
0.0334645669291339
0
CIRCLE
8
BLACK
10
6.1941362204724406
20
-3.7100689763779529
40
0.0334645669291339
0
CIRCLE
8
BLACK
10
6.3818897637795278
20
-3.6417322834645667
40
0.1023622047244094
0
CIRCLE
8
BLACK
10
6.569643307086614
20
-3.5733955905511809
40
0.0334645669291339
0
CIRCLE
8
BLACK
10
8.9635826771653537
20
-2.2440944881889764
40
0.0334645669291339
0
CIRCLE
8
BLACK
10
9.1633858267716537
20
-2.2440944881889764
40
0.1023622047244094
0
CIRCLE
8
BLACK
10
9.3631889763779519
20
-2.2440944881889764
40
0.0334645669291339
0
CIRCLE
8
BLACK
10
2.0442913385826773
20
0.
40
0.0334645669291339
0
CIRCLE
8
BLACK
10
2.2440944881889764
20
0.
40
0.1023622047244094
0
CIRCLE
8
BLACK
10
2.4438976377952755
20
0.
40
0.0334645669291339
0
CIRCLE
8
BLACK
10
7.0935039370078741
20
-1.4960629921259843
40
0.0334645669291339
0
CIRCLE
8
BLACK
10
7.2933070866141732
20
-1.4960629921259843
40
0.1023622047244094
0
CIRCLE
8
BLACK
10
7.4931102362204722
20
-1.4960629921259843
40
0.0334645669291339
0
CIRCLE
8
BLACK
10
4.4753937007874018
20
-2.2440944881889764
40
0.0334645669291339
0
CIRCLE
8
BLACK
10
4.6751968503937009
20
-2.2440944881889764
40
0.1023622047244094
0
CIRCLE
8
BLACK
10
4.875
20
-2.2440944881889764
40
0.0334645669291339
0
CIRCLE
8
BLACK
10
8.7765748031496056
20
0.
40
0.0334645669291339
0
CIRCLE
8
BLACK
10
8.9763779527559056
20
0.
40
0.1023622047244094
0
CIRCLE
8
BLACK
10
9.1761811023622037
20
0.
40
0.0334645669291339
0
CIRCLE
8
BLACK
10
2.6053149606299213
20
-1.4960629921259843
40
0.0334645669291339
0
CIRCLE
8
BLACK
10
2.8051181102362204
20
-1.4960629921259843
40
0.1023622047244094
0
CIRCLE
8
BLACK
10
3.0049212598425195
20
-1.4960629921259843
40
0.0334645669291339
0
CIRCLE
8
BLACK
10
0.2677165354330708
20
-1.4960629921259843
40
0.0334645669291339
0
CIRCLE
8
BLACK
10
0.4675196850393701
20
-1.4960629921259843
40
0.1023622047244094
0
CIRCLE
8
BLACK
10
0.6673228346456693
20
-1.4960629921259843
40
0.0334645669291339
0
CIRCLE
8
BLACK
10
0.5482283464566929
20
0.
40
0.0334645669291339
0
CIRCLE
8
BLACK
10
0.7480314960629921
20
0.
40
0.1023622047244094
0
CIRCLE
8
BLACK
10
0.9478346456692913
20
0.
40
0.0334645669291339
0
CIRCLE
8
BLACK
10
3.5403543307086611
20
0.
40
0.0334645669291339
0
CIRCLE
8
BLACK
10
3.7401574803149606
20
0.
40
0.1023622047244094
0
CIRCLE
8
BLACK
10
3.9399606299212597
20
0.
40
0.0334645669291339
0
CIRCLE
8
BLACK
10
6.9064960629921259
20
-0.7480314960629921
40
0.0334645669291339
0
CIRCLE
8
BLACK
10
7.106299212598425
20
-0.7480314960629921
40
0.1023622047244094
0
CIRCLE
8
BLACK
10
7.3061023622047241
20
-0.7480314960629921
40
0.0334645669291339
0
CIRCLE
8
BLACK
10
2.9793307086614171
20
-2.2440944881889764
40
0.0334645669291339
0
CIRCLE
8
BLACK
10
3.1791338582677167
20
-2.2440944881889764
40
0.1023622047244094
0
CIRCLE
8
BLACK
10
3.3789370078740157
20
-2.2440944881889764
40
0.0334645669291339
0
CIRCLE
8
BLACK
10
5.2234251968503935
20
-2.9921259842519685
40
0.0334645669291339
0
CIRCLE
8
BLACK
10
5.4232283464566926
20
-2.9921259842519685
40
0.1023622047244094
0
CIRCLE
8
BLACK
10
5.6230314960629917
20
-2.9921259842519685
40
0.0334645669291339
0
CIRCLE
8
BLACK
10
8.2155511811023612
20
-2.2440944881889764
40
0.0334645669291339
0
CIRCLE
8
BLACK
10
8.4153543307086611
20
-2.2440944881889764
40
0.1023622047244094
0
CIRCLE
8
BLACK
10
8.6151574803149611
20
-2.2440944881889764
40
0.0334645669291339
0
CIRCLE
8
BLACK
10
4.1013779527559056
20
-1.4960629921259843
40
0.0334645669291339
0
CIRCLE
8
BLACK
10
4.3011811023622046
20
-1.4960629921259843
40
0.1023622047244094
0
CIRCLE
8
BLACK
10
4.5009842519685037
20
-1.4960629921259843
40
0.0334645669291339
0
CIRCLE
8
BLACK
10
4.2883858267716537
20
0.
40
0.0334645669291339
0
CIRCLE
8
BLACK
10
4.4881889763779528
20
0.
40
0.1023622047244094
0
CIRCLE
8
BLACK
10
4.6879921259842519
20
0.
40
0.0334645669291339
0
CIRCLE
8
BLACK
10
1.1791338582677164
20
-2.9921259842519685
40
0.0334645669291339
0
CIRCLE
8
BLACK
10
1.3789370078740157
20
-2.9921259842519685
40
0.1023622047244094
0
CIRCLE
8
BLACK
10
1.5787401574803148
20
-2.9921259842519685
40
0.0334645669291339
0
CIRCLE
8
BLACK
10
5.2234251968503935
20
-2.2440944881889764
40
0.0334645669291339
0
CIRCLE
8
BLACK
10
5.4232283464566926
20
-2.2440944881889764
40
0.1023622047244094
0
CIRCLE
8
BLACK
10
5.6230314960629917
20
-2.2440944881889764
40
0.0334645669291339
0
CIRCLE
8
BLACK
10
9.2677165354330704
20
-2.9921259842519685
40
0.0334645669291339
0
CIRCLE
8
BLACK
10
9.4675196850393704
20
-2.9921259842519685
40
0.1023622047244094
0
CIRCLE
8
BLACK
10
9.6673228346456686
20
-2.9921259842519685
40
0.0334645669291339
0
CIRCLE
8
BLACK
10
7.4675196850393695
20
-2.2440944881889764
40
0.0334645669291339
0
CIRCLE
8
BLACK
10
7.6673228346456694
20
-2.2440944881889764
40
0.1023622047244094
0
CIRCLE
8
BLACK
10
7.8671259842519685
20
-2.2440944881889764
40
0.0334645669291339
0
CIRCLE
8
BLACK
10
11.0206692913385833
20
0.
40
0.0334645669291339
0
CIRCLE
8
BLACK
10
11.2204724409448815
20
0.
40
0.1023622047244094
0
CIRCLE
8
BLACK
10
11.4202755905511815
20
0.
40
0.0334645669291339
0
LINE
8
BLACK
6
CONTINUOUS
10
5.8858267716535435
20
0.2460629921259843
11
6.0826771653543306
21
0.2460629921259843
0
LINE
8
BLACK
6
CONTINUOUS
10
5.8858267716535435
20
0.1279527559055118
11
6.0826771653543306
21
0.1279527559055118
0
LINE
8
BLACK
6
CONTINUOUS
10
5.9133858267716537
20
-0.094488188976378
11
6.0551181102362204
21
-0.094488188976378
0
LINE
8
BLACK
6
CONTINUOUS
10
5.9133858267716537
20
-0.2519685039370079
11
6.0551181102362204
21
-0.2519685039370079
0
ARC
8
BLACK
10
5.8858267716535435
20
0.187007874015748
40
0.0590551181102362
50
-270.00000000
51
-90.00000000
0
ARC
8
BLACK
10
5.9133858267716537
20
-0.1732283464566929
40
0.078740157480315
50
-270.00000000
51
-90.00000000
0
ARC
8
BLACK
10
6.0551181102362204
20
-0.1732283464566929
40
0.078740157480315
50
-90.00000000
51
90.00000000
0
ARC
8
BLACK
10
6.0826771653543306
20
0.187007874015748
40
0.0590551181102362
50
-90.00000000
51
90.00000000
0
LINE
8
BLACK
6
CONTINUOUS
10
6.6338582677165352
20
0.2460629921259843
11
6.8307086614173222
21
0.2460629921259843
0
LINE
8
BLACK
6
CONTINUOUS
10
6.6338582677165352
20
0.1279527559055118
11
6.8307086614173222
21
0.1279527559055118
0
LINE
8
BLACK
6
CONTINUOUS
10
6.6614173228346454
20
-0.094488188976378
11
6.8031496062992121
21
-0.094488188976378
0
LINE
8
BLACK
6
CONTINUOUS
10
6.6614173228346454
20
-0.2519685039370079
11
6.8031496062992121
21
-0.2519685039370079
0
ARC
8
BLACK
10
6.6338582677165352
20
0.187007874015748
40
0.0590551181102362
50
-270.00000000
51
-90.00000000
0
ARC
8
BLACK
10
6.6614173228346454
20
-0.1732283464566929
40
0.078740157480315
50
-270.00000000
51
-90.00000000
0
ARC
8
BLACK
10
6.8031496062992121
20
-0.1732283464566929
40
0.078740157480315
50
-90.00000000
51
90.00000000
0
ARC
8
BLACK
10
6.8307086614173222
20
0.187007874015748
40
0.0590551181102362
50
-90.00000000
51
90.00000000
0
LINE
8
BLACK
6
CONTINUOUS
10
9.6259842519685037
20
0.2460629921259843
11
9.8228346456692908
21
0.2460629921259843
0
LINE
8
BLACK
6
CONTINUOUS
10
9.6259842519685037
20
0.1279527559055118
11
9.8228346456692908
21
0.1279527559055118
0
LINE
8
BLACK
6
CONTINUOUS
10
9.6535433070866148
20
-0.094488188976378
11
9.7952755905511815
21
-0.094488188976378
0
LINE
8
BLACK
6
CONTINUOUS
10
9.6535433070866148
20
-0.2519685039370079
11
9.7952755905511815
21
-0.2519685039370079
0
ARC
8
BLACK
10
9.6259842519685037
20
0.187007874015748
40
0.0590551181102362
50
-270.00000000
51
-90.00000000
0
ARC
8
BLACK
10
9.6535433070866148
20
-0.1732283464566929
40
0.078740157480315
50
-270.00000000
51
-90.00000000
0
ARC
8
BLACK
10
9.7952755905511815
20
-0.1732283464566929
40
0.078740157480315
50
-90.00000000
51
90.00000000
0
ARC
8
BLACK
10
9.8228346456692908
20
0.187007874015748
40
0.0590551181102362
50
-90.00000000
51
90.00000000
0
LINE
8
BLACK
6
CONTINUOUS
10
8.5275590551181093
20
-2.7460629921259843
11
8.7244094488188981
21
-2.7460629921259843
0
LINE
8
BLACK
6
CONTINUOUS
10
8.5275590551181093
20
-2.8641732283464565
11
8.7244094488188981
21
-2.8641732283464565
0
LINE
8
BLACK
6
CONTINUOUS
10
8.5551181102362204
20
-3.0866141732283463
11
8.6968503937007871
21
-3.0866141732283463
0
LINE
8
BLACK
6
CONTINUOUS
10
8.5551181102362204
20
-3.2440944881889764
11
8.6968503937007871
21
-3.2440944881889764
0
ARC
8
BLACK
10
8.5275590551181093
20
-2.8051181102362204
40
0.0590551181102362
50
-270.00000000
51
-90.00000000
0
ARC
8
BLACK
10
8.5551181102362204
20
-3.1653543307086611
40
0.078740157480315
50
-270.00000000
51
-90.00000000
0
ARC
8
BLACK
10
8.6968503937007871
20
-3.1653543307086611
40
0.078740157480315
50
-90.00000000
51
90.00000000
0
ARC
8
BLACK
10
8.7244094488188981
20
-2.8051181102362204
40
0.0590551181102362
50
-90.00000000
51
90.00000000
0
LINE
8
BLACK
6
CONTINUOUS
10
10.3740157480314963
20
0.2460629921259843
11
10.5708661417322833
21
0.2460629921259843
0
LINE
8
BLACK
6
CONTINUOUS
10
10.3740157480314963
20
0.1279527559055118
11
10.5708661417322833
21
0.1279527559055118
0
LINE
8
BLACK
6
CONTINUOUS
10
10.4015748031496056
20
-0.094488188976378
11
10.5433070866141723
21
-0.094488188976378
0
LINE
8
BLACK
6
CONTINUOUS
10
10.4015748031496056
20
-0.2519685039370079
11
10.5433070866141723
21
-0.2519685039370079
0
ARC
8
BLACK
10
10.3740157480314963
20
0.187007874015748
40
0.0590551181102362
50
-270.00000000
51
-90.00000000
0
ARC
8
BLACK
10
10.4015748031496056
20
-0.1732283464566929
40
0.078740157480315
50
-270.00000000
51
-90.00000000
0
ARC
8
BLACK
10
10.5433070866141723
20
-0.1732283464566929
40
0.078740157480315
50
-90.00000000
51
90.00000000
0
ARC
8
BLACK
10
10.5708661417322833
20
0.187007874015748
40
0.0590551181102362
50
-90.00000000
51
90.00000000
0
LINE
8
BLACK
6
CONTINUOUS
10
6.2598425196850389
20
-0.5019685039370079
11
6.4566929133858268
21
-0.5019685039370079
0
LINE
8
BLACK
6
CONTINUOUS
10
6.2598425196850389
20
-0.6200787401574803
11
6.4566929133858268
21
-0.6200787401574803
0
LINE
8
BLACK
6
CONTINUOUS
10
6.2874015748031491
20
-0.84251968503937
11
6.4291338582677167
21
-0.84251968503937
0
LINE
8
BLACK
6
CONTINUOUS
10
6.2874015748031491
20
-1.
11
6.4291338582677167
21
-1.
0
ARC
8
BLACK
10
6.2598425196850389
20
-0.5610236220472441
40
0.0590551181102362
50
-270.00000000
51
-90.00000000
0
ARC
8
BLACK
10
6.2874015748031491
20
-0.9212598425196851
40
0.078740157480315
50
-270.00000000
51
-90.00000000
0
ARC
8
BLACK
10
6.4291338582677167
20
-0.9212598425196851
40
0.078740157480315
50
-90.00000000
51
90.00000000
0
ARC
8
BLACK
10
6.4566929133858268
20
-0.5610236220472441
40
0.0590551181102362
50
-90.00000000
51
90.00000000
0
LINE
8
BLACK
6
CONTINUOUS
10
10.3740157480314963
20
-1.25
11
10.5708661417322833
21
-1.25
0
LINE
8
BLACK
6
CONTINUOUS
10
10.3740157480314963
20
-1.3681102362204725
11
10.5708661417322833
21
-1.3681102362204725
0
LINE
8
BLACK
6
CONTINUOUS
10
10.4015748031496056
20
-1.5905511811023623
11
10.5433070866141723
21
-1.5905511811023623
0
LINE
8
BLACK
6
CONTINUOUS
10
10.4015748031496056
20
-1.7480314960629921
11
10.5433070866141723
21
-1.7480314960629921
0
ARC
8
BLACK
10
10.3740157480314963
20
-1.3090551181102361
40
0.0590551181102362
50
-270.00000000
51
-90.00000000
0
ARC
8
BLACK
10
10.4015748031496056
20
-1.6692913385826771
40
0.078740157480315
50
-270.00000000
51
-90.00000000
0
ARC
8
BLACK
10
10.5433070866141723
20
-1.6692913385826771
40
0.078740157480315
50
-90.00000000
51
90.00000000
0
ARC
8
BLACK
10
10.5708661417322833
20
-1.3090551181102361
40
0.0590551181102362
50
-90.00000000
51
90.00000000
0
LINE
8
BLACK
6
CONTINUOUS
10
7.3818897637795278
20
0.2460629921259843
11
7.5787401574803148
21
0.2460629921259843
0
LINE
8
BLACK
6
CONTINUOUS
10
7.3818897637795278
20
0.1279527559055118
11
7.5787401574803148
21
0.1279527559055118
0
LINE
8
BLACK
6
CONTINUOUS
10
7.409448818897638
20
-0.094488188976378
11
7.5511811023622046
21
-0.094488188976378
0
LINE
8
BLACK
6
CONTINUOUS
10
7.409448818897638
20
-0.2519685039370079
11
7.5511811023622046
21
-0.2519685039370079
0
ARC
8
BLACK
10
7.3818897637795278
20
0.187007874015748
40
0.0590551181102362
50
-270.00000000
51
-90.00000000
0
ARC
8
BLACK
10
7.409448818897638
20
-0.1732283464566929
40
0.078740157480315
50
-270.00000000
51
-90.00000000
0
ARC
8
BLACK
10
7.5511811023622046
20
-0.1732283464566929
40
0.078740157480315
50
-90.00000000
51
90.00000000
0
ARC
8
BLACK
10
7.5787401574803148
20
0.187007874015748
40
0.0590551181102362
50
-90.00000000
51
90.00000000
0
LINE
8
BLACK
6
CONTINUOUS
10
6.8208661417322833
20
-1.9980314960629921
11
7.0177165354330704
21
-1.9980314960629921
0
LINE
8
BLACK
6
CONTINUOUS
10
6.8208661417322833
20
-2.1161417322834644
11
7.0177165354330704
21
-2.1161417322834644
0
LINE
8
BLACK
6
CONTINUOUS
10
6.8484251968503935
20
-2.3385826771653542
11
6.9901574803149602
21
-2.3385826771653542
0
LINE
8
BLACK
6
CONTINUOUS
10
6.8484251968503935
20
-2.4960629921259843
11
6.9901574803149602
21
-2.4960629921259843
0
ARC
8
BLACK
10
6.8208661417322833
20
-2.0570866141732282
40
0.0590551181102362
50
-270.00000000
51
-90.00000000
0
ARC
8
BLACK
10
6.8484251968503935
20
-2.4173228346456694
40
0.078740157480315
50
-270.00000000
51
-90.00000000
0
ARC
8
BLACK
10
6.9901574803149602
20
-2.4173228346456694
40
0.078740157480315
50
-90.00000000
51
90.00000000
0
ARC
8
BLACK
10
7.0177165354330704
20
-2.0570866141732282
40
0.0590551181102362
50
-90.00000000
51
90.00000000
0
LINE
8
BLACK
6
CONTINUOUS
10
10.2106299212598426
20
-2.7460629921259843
11
10.4074803149606296
21
-2.7460629921259843
0
LINE
8
BLACK
6
CONTINUOUS
10
10.2106299212598426
20
-2.8641732283464565
11
10.4074803149606296
21
-2.8641732283464565
0
LINE
8
BLACK
6
CONTINUOUS
10
10.2381889763779519
20
-3.0866141732283463
11
10.3799212598425186
21
-3.0866141732283463
0
LINE
8
BLACK
6
CONTINUOUS
10
10.2381889763779519
20
-3.2440944881889764
11
10.3799212598425186
21
-3.2440944881889764
0
ARC
8
BLACK
10
10.2106299212598426
20
-2.8051181102362204
40
0.0590551181102362
50
-270.00000000
51
-90.00000000
0
ARC
8
BLACK
10
10.2381889763779519
20
-3.1653543307086611
40
0.078740157480315
50
-270.00000000
51
-90.00000000
0
ARC
8
BLACK
10
10.3799212598425186
20
-3.1653543307086611
40
0.078740157480315
50
-90.00000000
51
90.00000000
0
ARC
8
BLACK
10
10.4074803149606296
20
-2.8051181102362204
40
0.0590551181102362
50
-90.00000000
51
90.00000000
0
LINE
8
BLACK
6
CONTINUOUS
10
3.454724409448819
20
-1.25
11
3.651574803149606
21
-1.25
0
LINE
8
BLACK
6
CONTINUOUS
10
3.454724409448819
20
-1.3681102362204725
11
3.651574803149606
21
-1.3681102362204725
0
LINE
8
BLACK
6
CONTINUOUS
10
3.4822834645669292
20
-1.5905511811023623
11
3.6240157480314958
21
-1.5905511811023623
0
LINE
8
BLACK
6
CONTINUOUS
10
3.4822834645669292
20
-1.7480314960629921
11
3.6240157480314958
21
-1.7480314960629921
0
ARC
8
BLACK
10
3.454724409448819
20
-1.3090551181102361
40
0.0590551181102362
50
-270.00000000
51
-90.00000000
0
ARC
8
BLACK
10
3.4822834645669292
20
-1.6692913385826771
40
0.078740157480315
50
-270.00000000
51
-90.00000000
0
ARC
8
BLACK
10
3.6240157480314958
20
-1.6692913385826771
40
0.078740157480315
50
-90.00000000
51
90.00000000
0
ARC
8
BLACK
10
3.651574803149606
20
-1.3090551181102361
40
0.0590551181102362
50
-90.00000000
51
90.00000000
0
LINE
8
BLACK
6
CONTINUOUS
10
6.4468503937007871
20
-1.25
11
6.643700787401575
21
-1.25
0
LINE
8
BLACK
6
CONTINUOUS
10
6.4468503937007871
20
-1.3681102362204725
11
6.643700787401575
21
-1.3681102362204725
0
LINE
8
BLACK
6
CONTINUOUS
10
6.4744094488188972
20
-1.5905511811023623
11
6.6161417322834648
21
-1.5905511811023623
0
LINE
8
BLACK
6
CONTINUOUS
10
6.4744094488188972
20
-1.7480314960629921
11
6.6161417322834648
21
-1.7480314960629921
0
ARC
8
BLACK
10
6.4468503937007871
20
-1.3090551181102361
40
0.0590551181102362
50
-270.00000000
51
-90.00000000
0
ARC
8
BLACK
10
6.4744094488188972
20
-1.6692913385826771
40
0.078740157480315
50
-270.00000000
51
-90.00000000
0
ARC
8
BLACK
10
6.6161417322834648
20
-1.6692913385826771
40
0.078740157480315
50
-90.00000000
51
90.00000000
0
ARC
8
BLACK
10
6.643700787401575
20
-1.3090551181102361
40
0.0590551181102362
50
-90.00000000
51
90.00000000
0
LINE
8
BLACK
6
CONTINUOUS
10
1.7716535433070866
20
-0.5019685039370079
11
1.9685039370078741
21
-0.5019685039370079
0
LINE
8
BLACK
6
CONTINUOUS
10
1.7716535433070866
20
-0.6200787401574803
11
1.9685039370078741
21
-0.6200787401574803
0
LINE
8
BLACK
6
CONTINUOUS
10
1.7992125984251968
20
-0.84251968503937
11
1.9409448818897637
21
-0.84251968503937
0
LINE
8
BLACK
6
CONTINUOUS
10
1.7992125984251968
20
-1.
11
1.9409448818897637
21
-1.
0
ARC
8
BLACK
10
1.7716535433070866
20
-0.5610236220472441
40
0.0590551181102362
50
-270.00000000
51
-90.00000000
0
ARC
8
BLACK
10
1.7992125984251968
20
-0.9212598425196851
40
0.078740157480315
50
-270.00000000
51
-90.00000000
0
ARC
8
BLACK
10
1.9409448818897637
20
-0.9212598425196851
40
0.078740157480315
50
-90.00000000
51
90.00000000
0
ARC
8
BLACK
10
1.9685039370078741
20
-0.5610236220472441
40
0.0590551181102362
50
-90.00000000
51
90.00000000
0
LINE
8
BLACK
6
CONTINUOUS
10
10.
20
-0.5019685039370079
11
10.1968503937007871
21
-0.5019685039370079
0
LINE
8
BLACK
6
CONTINUOUS
10
10.
20
-0.6200787401574803
11
10.1968503937007871
21
-0.6200787401574803
0
LINE
8
BLACK
6
CONTINUOUS
10
10.0275590551181093
20
-0.84251968503937
11
10.1692913385826778
21
-0.84251968503937
0
LINE
8
BLACK
6
CONTINUOUS
10
10.0275590551181093
20
-1.
11
10.1692913385826778
21
-1.
0
ARC
8
BLACK
10
10.
20
-0.5610236220472441
40
0.0590551181102362
50
-270.00000000
51
-90.00000000
0
ARC
8
BLACK
10
10.0275590551181093
20
-0.9212598425196851
40
0.078740157480315
50
-270.00000000
51
-90.00000000
0
ARC
8
BLACK
10
10.1692913385826778
20
-0.9212598425196851
40
0.078740157480315
50
-90.00000000
51
90.00000000
0
ARC
8
BLACK
10
10.1968503937007871
20
-0.5610236220472441
40
0.0590551181102362
50
-90.00000000
51
90.00000000
0
LINE
8
BLACK
6
CONTINUOUS
10
1.9586614173228345
20
-1.25
11
2.1555118110236222
21
-1.25
0
LINE
8
BLACK
6
CONTINUOUS
10
1.9586614173228345
20
-1.3681102362204725
11
2.1555118110236222
21
-1.3681102362204725
0
LINE
8
BLACK
6
CONTINUOUS
10
1.9862204724409449
20
-1.5905511811023623
11
2.1279527559055116
21
-1.5905511811023623
0
LINE
8
BLACK
6
CONTINUOUS
10
1.9862204724409449
20
-1.7480314960629921
11
2.1279527559055116
21
-1.7480314960629921
0
ARC
8
BLACK
10
1.9586614173228345
20
-1.3090551181102361
40
0.0590551181102362
50
-270.00000000
51
-90.00000000
0
ARC
8
BLACK
10
1.9862204724409449
20
-1.6692913385826771
40
0.078740157480315
50
-270.00000000
51
-90.00000000
0
ARC
8
BLACK
10
2.1279527559055116
20
-1.6692913385826771
40
0.078740157480315
50
-90.00000000
51
90.00000000
0
ARC
8
BLACK
10
2.1555118110236222
20
-1.3090551181102361
40
0.0590551181102362
50
-90.00000000
51
90.00000000
0
LINE
8
BLACK
6
CONTINUOUS
10
3.2677165354330708
20
-0.5019685039370079
11
3.4645669291338583
21
-0.5019685039370079
0
LINE
8
BLACK
6
CONTINUOUS
10
3.2677165354330708
20
-0.6200787401574803
11
3.4645669291338583
21
-0.6200787401574803
0
LINE
8
BLACK
6
CONTINUOUS
10
3.295275590551181
20
-0.84251968503937
11
3.4370078740157481
21
-0.84251968503937
0
LINE
8
BLACK
6
CONTINUOUS
10
3.295275590551181
20
-1.
11
3.4370078740157481
21
-1.
0
ARC
8
BLACK
10
3.2677165354330708
20
-0.5610236220472441
40
0.0590551181102362
50
-270.00000000
51
-90.00000000
0
ARC
8
BLACK
10
3.295275590551181
20
-0.9212598425196851
40
0.078740157480315
50
-270.00000000
51
-90.00000000
0
ARC
8
BLACK
10
3.4370078740157481
20
-0.9212598425196851
40
0.078740157480315
50
-90.00000000
51
90.00000000
0
ARC
8
BLACK
10
3.4645669291338583
20
-0.5610236220472441
40
0.0590551181102362
50
-90.00000000
51
90.00000000
0
LINE
8
BLACK
6
CONTINUOUS
10
4.9507874015748028
20
-1.25
11
5.1476377952755907
21
-1.25
0
LINE
8
BLACK
6
CONTINUOUS
10
4.9507874015748028
20
-1.3681102362204725
11
5.1476377952755907
21
-1.3681102362204725
0
LINE
8
BLACK
6
CONTINUOUS
10
4.978346456692913
20
-1.5905511811023623
11
5.1200787401574805
21
-1.5905511811023623
0
LINE
8
BLACK
6
CONTINUOUS
10
4.978346456692913
20
-1.7480314960629921
11
5.1200787401574805
21
-1.7480314960629921
0
ARC
8
BLACK
10
4.9507874015748028
20
-1.3090551181102361
40
0.0590551181102362
50
-270.00000000
51
-90.00000000
0
ARC
8
BLACK
10
4.978346456692913
20
-1.6692913385826771
40
0.078740157480315
50
-270.00000000
51
-90.00000000
0
ARC
8
BLACK
10
5.1200787401574805
20
-1.6692913385826771
40
0.078740157480315
50
-90.00000000
51
90.00000000
0
ARC
8
BLACK
10
5.1476377952755907
20
-1.3090551181102361
40
0.0590551181102362
50
-90.00000000
51
90.00000000
0
LINE
8
BLACK
6
CONTINUOUS
10
2.8937007874015745
20
0.2460629921259843
11
3.090551181102362
21
0.2460629921259843
0
LINE
8
BLACK
6
CONTINUOUS
10
2.8937007874015745
20
0.1279527559055118
11
3.090551181102362
21
0.1279527559055118
0
LINE
8
BLACK
6
CONTINUOUS
10
2.9212598425196852
20
-0.094488188976378
11
3.0629921259842519
21
-0.094488188976378
0
LINE
8
BLACK
6
CONTINUOUS
10
2.9212598425196852
20
-0.2519685039370079
11
3.0629921259842519
21
-0.2519685039370079
0
ARC
8
BLACK
10
2.8937007874015745
20
0.187007874015748
40
0.0590551181102362
50
-270.00000000
51
-90.00000000
0
ARC
8
BLACK
10
2.9212598425196852
20
-0.1732283464566929
40
0.078740157480315
50
-270.00000000
51
-90.00000000
0
ARC
8
BLACK
10
3.0629921259842519
20
-0.1732283464566929
40
0.078740157480315
50
-90.00000000
51
90.00000000
0
ARC
8
BLACK
10
3.090551181102362
20
0.187007874015748
40
0.0590551181102362
50
-90.00000000
51
90.00000000
0
LINE
8
BLACK
6
CONTINUOUS
10
0.8366141732283464
20
-0.5019685039370079
11
1.0334645669291338
21
-0.5019685039370079
0
LINE
8
BLACK
6
CONTINUOUS
10
0.8366141732283464
20
-0.6200787401574803
11
1.0334645669291338
21
-0.6200787401574803
0
LINE
8
BLACK
6
CONTINUOUS
10
0.8641732283464567
20
-0.84251968503937
11
1.0059055118110236
21
-0.84251968503937
0
LINE
8
BLACK
6
CONTINUOUS
10
0.8641732283464567
20
-1.
11
1.0059055118110236
21
-1.
0
ARC
8
BLACK
10
0.8366141732283464
20
-0.5610236220472441
40
0.0590551181102362
50
-270.00000000
51
-90.00000000
0
ARC
8
BLACK
10
0.8641732283464567
20
-0.9212598425196851
40
0.078740157480315
50
-270.00000000
51
-90.00000000
0
ARC
8
BLACK
10
1.0059055118110236
20
-0.9212598425196851
40
0.078740157480315
50
-90.00000000
51
90.00000000
0
ARC
8
BLACK
10
1.0334645669291338
20
-0.5610236220472441
40
0.0590551181102362
50
-90.00000000
51
90.00000000
0
LINE
8
BLACK
6
CONTINUOUS
10
10.9586614173228352
20
-2.7460629921259843
11
11.1555118110236222
21
-2.7460629921259843
0
LINE
8
BLACK
6
CONTINUOUS
10
10.9586614173228352
20
-2.8641732283464565
11
11.1555118110236222
21
-2.8641732283464565
0
LINE
8
BLACK
6
CONTINUOUS
10
10.9862204724409445
20
-3.0866141732283463
11
11.1279527559055111
21
-3.0866141732283463
0
LINE
8
BLACK
6
CONTINUOUS
10
10.9862204724409445
20
-3.2440944881889764
11
11.1279527559055111
21
-3.2440944881889764
0
ARC
8
BLACK
10
10.9586614173228352
20
-2.8051181102362204
40
0.0590551181102362
50
-270.00000000
51
-90.00000000
0
ARC
8
BLACK
10
10.9862204724409445
20
-3.1653543307086611
40
0.078740157480315
50
-270.00000000
51
-90.00000000
0
ARC
8
BLACK
10
11.1279527559055111
20
-3.1653543307086611
40
0.078740157480315
50
-90.00000000
51
90.00000000
0
ARC
8
BLACK
10
11.1555118110236222
20
-2.8051181102362204
40
0.0590551181102362
50
-90.00000000
51
90.00000000
0
LINE
8
BLACK
6
CONTINUOUS
10
1.3976377952755905
20
0.2460629921259843
11
1.594488188976378
21
0.2460629921259843
0
LINE
8
BLACK
6
CONTINUOUS
10
1.3976377952755905
20
0.1279527559055118
11
1.594488188976378
21
0.1279527559055118
0
LINE
8
BLACK
6
CONTINUOUS
10
1.4251968503937007
20
-0.094488188976378
11
1.5669291338582676
21
-0.094488188976378
0
LINE
8
BLACK
6
CONTINUOUS
10
1.4251968503937007
20
-0.2519685039370079
11
1.5669291338582676
21
-0.2519685039370079
0
ARC
8
BLACK
10
1.3976377952755905
20
0.187007874015748
40
0.0590551181102362
50
-270.00000000
51
-90.00000000
0
ARC
8
BLACK
10
1.4251968503937007
20
-0.1732283464566929
40
0.078740157480315
50
-270.00000000
51
-90.00000000
0
ARC
8
BLACK
10
1.5669291338582676
20
-0.1732283464566929
40
0.078740157480315
50
-90.00000000
51
90.00000000
0
ARC
8
BLACK
10
1.594488188976378
20
0.187007874015748
40
0.0590551181102362
50
-90.00000000
51
90.00000000
0
LINE
8
BLACK
6
CONTINUOUS
10
4.7637795275590546
20
-0.5019685039370079
11
4.9606299212598426
21
-0.5019685039370079
0
LINE
8
BLACK
6
CONTINUOUS
10
4.7637795275590546
20
-0.6200787401574803
11
4.9606299212598426
21
-0.6200787401574803
0
LINE
8
BLACK
6
CONTINUOUS
10
4.7913385826771648
20
-0.84251968503937
11
4.9330708661417324
21
-0.84251968503937
0
LINE
8
BLACK
6
CONTINUOUS
10
4.7913385826771648
20
-1.
11
4.9330708661417324
21
-1.
0
ARC
8
BLACK
10
4.7637795275590546
20
-0.5610236220472441
40
0.0590551181102362
50
-270.00000000
51
-90.00000000
0
ARC
8
BLACK
10
4.7913385826771648
20
-0.9212598425196851
40
0.078740157480315
50
-270.00000000
51
-90.00000000
0
ARC
8
BLACK
10
4.9330708661417324
20
-0.9212598425196851
40
0.078740157480315
50
-90.00000000
51
90.00000000
0
ARC
8
BLACK
10
4.9606299212598426
20
-0.5610236220472441
40
0.0590551181102362
50
-90.00000000
51
90.00000000
0
LINE
8
BLACK
6
CONTINUOUS
10
6.0728346456692908
20
-1.9980314960629921
11
6.2696850393700787
21
-1.9980314960629921
0
LINE
8
BLACK
6
CONTINUOUS
10
6.0728346456692908
20
-2.1161417322834644
11
6.2696850393700787
21
-2.1161417322834644
0
LINE
8
BLACK
6
CONTINUOUS
10
6.1003937007874018
20
-2.3385826771653542
11
6.2421259842519685
21
-2.3385826771653542
0
LINE
8
BLACK
6
CONTINUOUS
10
6.1003937007874018
20
-2.4960629921259843
11
6.2421259842519685
21
-2.4960629921259843
0
ARC
8
BLACK
10
6.0728346456692908
20
-2.0570866141732282
40
0.0590551181102362
50
-270.00000000
51
-90.00000000
0
ARC
8
BLACK
10
6.1003937007874018
20
-2.4173228346456694
40
0.078740157480315
50
-270.00000000
51
-90.00000000
0
ARC
8
BLACK
10
6.2421259842519685
20
-2.4173228346456694
40
0.078740157480315
50
-90.00000000
51
90.00000000
0
ARC
8
BLACK
10
6.2696850393700787
20
-2.0570866141732282
40
0.0590551181102362
50
-90.00000000
51
90.00000000
0
LINE
8
BLACK
6
CONTINUOUS
10
5.5118110236220472
20
-0.5019685039370079
11
5.7086614173228343
21
-0.5019685039370079
0
LINE
8
BLACK
6
CONTINUOUS
10
5.5118110236220472
20
-0.6200787401574803
11
5.7086614173228343
21
-0.6200787401574803
0
LINE
8
BLACK
6
CONTINUOUS
10
5.5393700787401574
20
-0.84251968503937
11
5.6811023622047241
21
-0.84251968503937
0
LINE
8
BLACK
6
CONTINUOUS
10
5.5393700787401574
20
-1.
11
5.6811023622047241
21
-1.
0
ARC
8
BLACK
10
5.5118110236220472
20
-0.5610236220472441
40
0.0590551181102362
50
-270.00000000
51
-90.00000000
0
ARC
8
BLACK
10
5.5393700787401574
20
-0.9212598425196851
40
0.078740157480315
50
-270.00000000
51
-90.00000000
0
ARC
8
BLACK
10
5.6811023622047241
20
-0.9212598425196851
40
0.078740157480315
50
-90.00000000
51
90.00000000
0
ARC
8
BLACK
10
5.7086614173228343
20
-0.5610236220472441
40
0.0590551181102362
50
-90.00000000
51
90.00000000
0
LINE
8
BLACK
6
CONTINUOUS
10
4.015748031496063
20
-0.5019685039370079
11
4.21259842519685
21
-0.5019685039370079
0
LINE
8
BLACK
6
CONTINUOUS
10
4.015748031496063
20
-0.6200787401574803
11
4.21259842519685
21
-0.6200787401574803
0
LINE
8
BLACK
6
CONTINUOUS
10
4.0433070866141732
20
-0.84251968503937
11
4.1850393700787398
21
-0.84251968503937
0
LINE
8
BLACK
6
CONTINUOUS
10
4.0433070866141732
20
-1.
11
4.1850393700787398
21
-1.
0
ARC
8
BLACK
10
4.015748031496063
20
-0.5610236220472441
40
0.0590551181102362
50
-270.00000000
51
-90.00000000
0
ARC
8
BLACK
10
4.0433070866141732
20
-0.9212598425196851
40
0.078740157480315
50
-270.00000000
51
-90.00000000
0
ARC
8
BLACK
10
4.1850393700787398
20
-0.9212598425196851
40
0.078740157480315
50
-90.00000000
51
90.00000000
0
ARC
8
BLACK
10
4.21259842519685
20
-0.5610236220472441
40
0.0590551181102362
50
-90.00000000
51
90.00000000
0
LINE
8
BLACK
6
CONTINUOUS
10
8.5039370078740149
20
-0.5019685039370079
11
8.7007874015748037
21
-0.5019685039370079
0
LINE
8
BLACK
6
CONTINUOUS
10
8.5039370078740149
20
-0.6200787401574803
11
8.7007874015748037
21
-0.6200787401574803
0
LINE
8
BLACK
6
CONTINUOUS
10
8.5314960629921259
20
-0.84251968503937
11
8.6732283464566926
21
-0.84251968503937
0
LINE
8
BLACK
6
CONTINUOUS
10
8.5314960629921259
20
-1.
11
8.6732283464566926
21
-1.
0
ARC
8
BLACK
10
8.5039370078740149
20
-0.5610236220472441
40
0.0590551181102362
50
-270.00000000
51
-90.00000000
0
ARC
8
BLACK
10
8.5314960629921259
20
-0.9212598425196851
40
0.078740157480315
50
-270.00000000
51
-90.00000000
0
ARC
8
BLACK
10
8.6732283464566926
20
-0.9212598425196851
40
0.078740157480315
50
-90.00000000
51
90.00000000
0
ARC
8
BLACK
10
8.7007874015748037
20
-0.5610236220472441
40
0.0590551181102362
50
-90.00000000
51
90.00000000
0
LINE
8
BLACK
6
CONTINUOUS
10
7.9429133858267713
20
-1.25
11
8.1397637795275593
21
-1.25
0
LINE
8
BLACK
6
CONTINUOUS
10
7.9429133858267713
20
-1.3681102362204725
11
8.1397637795275593
21
-1.3681102362204725
0
LINE
8
BLACK
6
CONTINUOUS
10
7.9704724409448815
20
-1.5905511811023623
11
8.1122047244094482
21
-1.5905511811023623
0
LINE
8
BLACK
6
CONTINUOUS
10
7.9704724409448815
20
-1.7480314960629921
11
8.1122047244094482
21
-1.7480314960629921
0
ARC
8
BLACK
10
7.9429133858267713
20
-1.3090551181102361
40
0.0590551181102362
50
-270.00000000
51
-90.00000000
0
ARC
8
BLACK
10
7.9704724409448815
20
-1.6692913385826771
40
0.078740157480315
50
-270.00000000
51
-90.00000000
0
ARC
8
BLACK
10
8.1122047244094482
20
-1.6692913385826771
40
0.078740157480315
50
-90.00000000
51
90.00000000
0
ARC
8
BLACK
10
8.1397637795275593
20
-1.3090551181102361
40
0.0590551181102362
50
-90.00000000
51
90.00000000
0
LINE
8
BLACK
6
CONTINUOUS
10
3.7554485826771651
20
-3.1209398031496063
11
3.9404274409448816
21
-3.1882665748031496
0
LINE
8
BLACK
6
CONTINUOUS
10
3.7150525196850395
20
-3.2319271259842517
11
3.900031377952756
21
-3.2992538976377954
0
LINE
8
BLACK
6
CONTINUOUS
10
3.6648702755905509
20
-3.4503789763779529
11
3.7980550393700785
21
-3.4988542913385827
0
LINE
8
BLACK
6
CONTINUOUS
10
3.6110088188976377
20
-3.598362086614173
11
3.744193622047244
21
-3.6468373622047245
0
ARC
8
BLACK
10
3.7352505511811023
20
-3.1764334645669292
40
0.0590551177614304
50
-289.99999138
51
-109.99999138
0
ARC
8
BLACK
10
3.6379395669291337
20
-3.5243705118110236
40
0.0787401951444496
50
-289.99999465
51
-110.00001177
0
ARC
8
BLACK
10
3.7711243307086613
20
-3.5728458267716534
40
0.0787401446833159
50
-109.99999465
51
70.00000535
0
ARC
8
BLACK
10
3.9202294094488188
20
-3.2437602362204725
40
0.0590551177614304
50
-109.99999138
51
70.00000862
0
LINE
8
BLACK
6
CONTINUOUS
10
7.7559055118110232
20
-0.5019685039370079
11
7.9527559055118111
21
-0.5019685039370079
0
LINE
8
BLACK
6
CONTINUOUS
10
7.7559055118110232
20
-0.6200787401574803
11
7.9527559055118111
21
-0.6200787401574803
0
LINE
8
BLACK
6
CONTINUOUS
10
7.7834645669291334
20
-0.84251968503937
11
7.9251968503937009
21
-0.84251968503937
0
LINE
8
BLACK
6
CONTINUOUS
10
7.7834645669291334
20
-1.
11
7.9251968503937009
21
-1.
0
ARC
8
BLACK
10
7.7559055118110232
20
-0.5610236220472441
40
0.0590551181102362
50
-270.00000000
51
-90.00000000
0
ARC
8
BLACK
10
7.7834645669291334
20
-0.9212598425196851
40
0.078740157480315
50
-270.00000000
51
-90.00000000
0
ARC
8
BLACK
10
7.9251968503937009
20
-0.9212598425196851
40
0.078740157480315
50
-90.00000000
51
90.00000000
0
ARC
8
BLACK
10
7.9527559055118111
20
-0.5610236220472441
40
0.0590551181102362
50
-90.00000000
51
90.00000000
0
LINE
8
BLACK
6
CONTINUOUS
10
3.9111266929133857
20
-4.0687479527559054
11
4.4597740157480317
21
-4.2684392519685037
0
LINE
8
BLACK
6
CONTINUOUS
10
4.4799584645669288
20
-4.2590270866141733
11
4.5499783070866142
21
-4.06664905511811
0
LINE
8
BLACK
6
CONTINUOUS
10
3.8991248425196852
20
-4.0476208661417319
11
3.9691447244094489
21
-3.8552429133858266
0
LINE
8
BLACK
6
CONTINUOUS
10
3.9919188582677165
20
-3.8467733070866141
11
4.5405661417322838
21
-4.0464646062992129
0
LINE
8
BLACK
6
CONTINUOUS
10
4.2342953149606295
20
-3.1808494094488187
11
4.7829426377952755
21
-3.3805407086614174
0
LINE
8
BLACK
6
CONTINUOUS
10
4.8031270866141735
20
-3.3711285433070866
11
4.8731469685039368
21
-3.1787505118110237
0
LINE
8
BLACK
6
CONTINUOUS
10
4.2949030314960632
20
-2.9682869291338583
11
4.2248831496062991
21
-3.1606649606299211
0
LINE
8
BLACK
6
CONTINUOUS
10
4.3150874803149604
20
-2.9588747637795274
11
4.8637348031496064
21
-3.1585660629921257
0
LINE
8
BLACK
6
CONTINUOUS
10
4.9439476771653545
20
-3.4181933464566927
11
4.6881058661417319
21
-4.1211130314960629
0
LINE
8
BLACK
6
CONTINUOUS
10
4.6881058661417319
20
-4.1211130314960629
11
3.9851861811023621
21
-3.8652712204724406
0
LINE
8
BLACK
6
CONTINUOUS
10
3.9851861811023621
20
-3.8652712204724406
11
4.2410279921259839
21
-3.1623515354330709
0
LINE
8
BLACK
6
CONTINUOUS
10
4.2410279921259839
20
-3.1623515354330709
11
4.9439476771653545
21
-3.4181933464566927
0
ARC
8
BLACK
10
3.9139231889763777
20
-4.053007047244094
40
0.0157480928632663
50
-200.00008026
51
-110.00021486
0
ARC
8
BLACK
10
4.465160157480315
20
-4.2536409842519687
40
0.0157480154713501
50
-110.00004364
51
-19.99986005
0
ARC
8
BLACK
10
3.9839430314960631
20
-3.8606290944881887
40
0.015748079397811
50
70.00005434
51
159.99991974
0
ARC
8
BLACK
10
4.5351800787401571
20
-4.0612628740157479
40
0.0157479650102927
50
-20.00022723
51
70.00022556
0
ARC
8
BLACK
10
4.2396814566929129
20
-3.1660511023622044
40
0.0157480289366632
50
-199.99999465
51
-109.99999465
0
ARC
8
BLACK
10
4.7883287795275589
20
-3.3657424015748032
40
0.0157480289366632
50
-109.99999465
51
-19.99999465
0
ARC
8
BLACK
10
4.309701338582677
20
-2.9736730708661416
40
0.0157480289366632
50
70.00000535
51
160.00000535
0
ARC
8
BLACK
10
4.858348661417323
20
-3.1733643700787399
40
0.0157480289366632
50
-19.99999465
51
70.00000535
0
LINE
8
BLACK
6
CONTINUOUS
10
9.5324803149606296
20
-1.25
11
9.7293307086614167
21
-1.25
0
LINE
8
BLACK
6
CONTINUOUS
10
9.5324803149606296
20
-1.3681102362204725
11
9.7293307086614167
21
-1.3681102362204725
0
LINE
8
BLACK
6
CONTINUOUS
10
9.5600393700787407
20
-1.5905511811023623
11
9.7017716535433074
21
-1.5905511811023623
0
LINE
8
BLACK
6
CONTINUOUS
10
9.5600393700787407
20
-1.7480314960629921
11
9.7017716535433074
21
-1.7480314960629921
0
ARC
8
BLACK
10
9.5324803149606296
20
-1.3090551181102361
40
0.0590551181102362
50
-270.00000000
51
-90.00000000
0
ARC
8
BLACK
10
9.5600393700787407
20
-1.6692913385826771
40
0.078740157480315
50
-270.00000000
51
-90.00000000
0
ARC
8
BLACK
10
9.7017716535433074
20
-1.6692913385826771
40
0.078740157480315
50
-90.00000000
51
90.00000000
0
ARC
8
BLACK
10
9.7293307086614167
20
-1.3090551181102361
40
0.0590551181102362
50
-90.00000000
51
90.00000000
0
LINE
8
BLACK
6
CONTINUOUS
10
9.2519685039370074
20
-0.5019685039370079
11
9.4488188976377945
21
-0.5019685039370079
0
LINE
8
BLACK
6
CONTINUOUS
10
9.2519685039370074
20
-0.6200787401574803
11
9.4488188976377945
21
-0.6200787401574803
0
LINE
8
BLACK
6
CONTINUOUS
10
9.2795275590551185
20
-0.84251968503937
11
9.4212598425196852
21
-0.84251968503937
0
LINE
8
BLACK
6
CONTINUOUS
10
9.2795275590551185
20
-1.
11
9.4212598425196852
21
-1.
0
ARC
8
BLACK
10
9.2519685039370074
20
-0.5610236220472441
40
0.0590551181102362
50
-270.00000000
51
-90.00000000
0
ARC
8
BLACK
10
9.2795275590551185
20
-0.9212598425196851
40
0.078740157480315
50
-270.00000000
51
-90.00000000
0
ARC
8
BLACK
10
9.4212598425196852
20
-0.9212598425196851
40
0.078740157480315
50
-90.00000000
51
90.00000000
0
ARC
8
BLACK
10
9.4488188976377945
20
-0.5610236220472441
40
0.0590551181102362
50
-90.00000000
51
90.00000000
0
LINE
8
BLACK
6
CONTINUOUS
10
11.1220472440944871
20
-1.25
11
11.3188976377952759
21
-1.25
0
LINE
8
BLACK
6
CONTINUOUS
10
11.1220472440944871
20
-1.3681102362204725
11
11.3188976377952759
21
-1.3681102362204725
0
LINE
8
BLACK
6
CONTINUOUS
10
11.1496062992125982
20
-1.5905511811023623
11
11.2913385826771648
21
-1.5905511811023623
0
LINE
8
BLACK
6
CONTINUOUS
10
11.1496062992125982
20
-1.7480314960629921
11
11.2913385826771648
21
-1.7480314960629921
0
ARC
8
BLACK
10
11.1220472440944871
20
-1.3090551181102361
40
0.0590551181102362
50
-270.00000000
51
-90.00000000
0
ARC
8
BLACK
10
11.1496062992125982
20
-1.6692913385826771
40
0.078740157480315
50
-270.00000000
51
-90.00000000
0
ARC
8
BLACK
10
11.2913385826771648
20
-1.6692913385826771
40
0.078740157480315
50
-90.00000000
51
90.00000000
0
ARC
8
BLACK
10
11.3188976377952759
20
-1.3090551181102361
40
0.0590551181102362
50
-90.00000000
51
90.00000000
0
LINE
8
BLACK
6
CONTINUOUS
10
10.9350393700787407
20
-0.5019685039370079
11
11.1318897637795278
21
-0.5019685039370079
0
LINE
8
BLACK
6
CONTINUOUS
10
10.9350393700787407
20
-0.6200787401574803
11
11.1318897637795278
21
-0.6200787401574803
0
LINE
8
BLACK
6
CONTINUOUS
10
10.96259842519685
20
-0.84251968503937
11
11.1043307086614167
21
-0.84251968503937
0
LINE
8
BLACK
6
CONTINUOUS
10
10.96259842519685
20
-1.
11
11.1043307086614167
21
-1.
0
ARC
8
BLACK
10
10.9350393700787407
20
-0.5610236220472441
40
0.0590551181102362
50
-270.00000000
51
-90.00000000
0
ARC
8
BLACK
10
10.96259842519685
20
-0.9212598425196851
40
0.078740157480315
50
-270.00000000
51
-90.00000000
0
ARC
8
BLACK
10
11.1043307086614167
20
-0.9212598425196851
40
0.078740157480315
50
-90.00000000
51
90.00000000
0
ARC
8
BLACK
10
11.1318897637795278
20
-0.5610236220472441
40
0.0590551181102362
50
-90.00000000
51
90.00000000
0
LINE
8
BLACK
6
CONTINUOUS
10
5.6988188976377954
20
-1.25
11
5.8956692913385824
21
-1.25
0
LINE
8
BLACK
6
CONTINUOUS
10
5.6988188976377954
20
-1.3681102362204725
11
5.8956692913385824
21
-1.3681102362204725
0
LINE
8
BLACK
6
CONTINUOUS
10
5.7263779527559056
20
-1.5905511811023623
11
5.8681102362204722
21
-1.5905511811023623
0
LINE
8
BLACK
6
CONTINUOUS
10
5.7263779527559056
20
-1.7480314960629921
11
5.8681102362204722
21
-1.7480314960629921
0
ARC
8
BLACK
10
5.6988188976377954
20
-1.3090551181102361
40
0.0590551181102362
50
-270.00000000
51
-90.00000000
0
ARC
8
BLACK
10
5.7263779527559056
20
-1.6692913385826771
40
0.078740157480315
50
-270.00000000
51
-90.00000000
0
ARC
8
BLACK
10
5.8681102362204722
20
-1.6692913385826771
40
0.078740157480315
50
-90.00000000
51
90.00000000
0
ARC
8
BLACK
10
5.8956692913385824
20
-1.3090551181102361
40
0.0590551181102362
50
-90.00000000
51
90.00000000
0
LINE
8
BLACK
6
CONTINUOUS
10
2.122047244094488
20
-2.7460629921259843
11
2.3188976377952755
21
-2.7460629921259843
0
LINE
8
BLACK
6
CONTINUOUS
10
2.122047244094488
20
-2.8641732283464565
11
2.3188976377952755
21
-2.8641732283464565
0
LINE
8
BLACK
6
CONTINUOUS
10
2.1496062992125982
20
-3.0866141732283463
11
2.2913385826771653
21
-3.0866141732283463
0
LINE
8
BLACK
6
CONTINUOUS
10
2.1496062992125982
20
-3.2440944881889764
11
2.2913385826771653
21
-3.2440944881889764
0
ARC
8
BLACK
10
2.122047244094488
20
-2.8051181102362204
40
0.0590551181102362
50
-270.00000000
51
-90.00000000
0
ARC
8
BLACK
10
2.1496062992125982
20
-3.1653543307086611
40
0.078740157480315
50
-270.00000000
51
-90.00000000
0
ARC
8
BLACK
10
2.2913385826771653
20
-3.1653543307086611
40
0.078740157480315
50
-90.00000000
51
90.00000000
0
ARC
8
BLACK
10
2.3188976377952755
20
-2.8051181102362204
40
0.0590551181102362
50
-90.00000000
51
90.00000000
0
LINE
8
BLACK
6
CONTINUOUS
10
7.6087851574803151
20
-2.932361062992126
11
7.7937640157480317
21
-2.8650342913385827
0
LINE
8
BLACK
6
CONTINUOUS
10
7.6491812204724408
20
-3.0433483858267714
11
7.8341600787401573
21
-2.9760216141732281
0
LINE
8
BLACK
6
CONTINUOUS
10
7.7511575590551178
20
-3.2429487795275591
11
7.8843423228346454
21
-3.1944734645669293
0
LINE
8
BLACK
6
CONTINUOUS
10
7.8050189763779523
20
-3.3909318503937009
11
7.9382037795275586
21
-3.3424565748031494
0
ARC
8
BLACK
10
7.6289831889763775
20
-2.9878547244094489
40
0.0590551177614304
50
-250.00000862
51
-70.00000862
0
ARC
8
BLACK
10
7.7780882677165355
20
-3.3169403149606298
40
0.0787401446833159
50
-250.00000535
51
-70.00000535
0
ARC
8
BLACK
10
7.9112730314960631
20
-3.268465
40
0.0787401446833159
50
-69.99998823
51
109.99999465
0
ARC
8
BLACK
10
7.813962047244094
20
-2.9205279527559056
40
0.0590551177614304
50
-70.00000862
51
109.99999138
0
LINE
8
BLACK
6
CONTINUOUS
10
5.1377952755905509
20
0.2460629921259843
11
5.3346456692913389
21
0.2460629921259843
0
LINE
8
BLACK
6
CONTINUOUS
10
5.1377952755905509
20
0.1279527559055118
11
5.3346456692913389
21
0.1279527559055118
0
LINE
8
BLACK
6
CONTINUOUS
10
5.1653543307086611
20
-0.094488188976378
11
5.3070866141732278
21
-0.094488188976378
0
LINE
8
BLACK
6
CONTINUOUS
10
5.1653543307086611
20
-0.2519685039370079
11
5.3070866141732278
21
-0.2519685039370079
0
ARC
8
BLACK
10
5.1377952755905509
20
0.187007874015748
40
0.0590551181102362
50
-270.00000000
51
-90.00000000
0
ARC
8
BLACK
10
5.1653543307086611
20
-0.1732283464566929
40
0.078740157480315
50
-270.00000000
51
-90.00000000
0
ARC
8
BLACK
10
5.3070866141732278
20
-0.1732283464566929
40
0.078740157480315
50
-90.00000000
51
90.00000000
0
ARC
8
BLACK
10
5.3346456692913389
20
0.187007874015748
40
0.0590551181102362
50
-90.00000000
51
90.00000000
0
LINE
8
BLACK
6
CONTINUOUS
10
11.1220472440944871
20
-1.9980314960629921
11
11.3188976377952759
21
-1.9980314960629921
0
LINE
8
BLACK
6
CONTINUOUS
10
11.1220472440944871
20
-2.1161417322834644
11
11.3188976377952759
21
-2.1161417322834644
0
LINE
8
BLACK
6
CONTINUOUS
10
11.1496062992125982
20
-2.3385826771653542
11
11.2913385826771648
21
-2.3385826771653542
0
LINE
8
BLACK
6
CONTINUOUS
10
11.1496062992125982
20
-2.4960629921259843
11
11.2913385826771648
21
-2.4960629921259843
0
ARC
8
BLACK
10
11.1220472440944871
20
-2.0570866141732282
40
0.0590551181102362
50
-270.00000000
51
-90.00000000
0
ARC
8
BLACK
10
11.1496062992125982
20
-2.4173228346456694
40
0.078740157480315
50
-270.00000000
51
-90.00000000
0
ARC
8
BLACK
10
11.2913385826771648
20
-2.4173228346456694
40
0.078740157480315
50
-90.00000000
51
90.00000000
0
ARC
8
BLACK
10
11.3188976377952759
20
-2.0570866141732282
40
0.0590551181102362
50
-90.00000000
51
90.00000000
0
LINE
8
BLACK
6
CONTINUOUS
10
6.906029251968504
20
-3.1882665748031496
11
7.0910081102362206
21
-3.1209398031496063
0
LINE
8
BLACK
6
CONTINUOUS
10
6.9464253149606296
20
-3.2992538976377954
11
7.1314041732283462
21
-3.2319271259842517
0
LINE
8
BLACK
6
CONTINUOUS
10
7.0484016535433067
20
-3.4988542913385827
11
7.1815864173228343
21
-3.4503789763779529
0
LINE
8
BLACK
6
CONTINUOUS
10
7.1022630708661412
20
-3.6468373622047245
11
7.2354478740157475
21
-3.598362086614173
0
ARC
8
BLACK
10
6.9262272834645664
20
-3.2437602362204725
40
0.0590551177614304
50
-250.00000862
51
-70.00000862
0
ARC
8
BLACK
10
7.0753323622047244
20
-3.5728458267716534
40
0.0787401446833159
50
-250.00000535
51
-70.00000535
0
ARC
8
BLACK
10
7.208517125984252
20
-3.5243705118110236
40
0.0787401446833159
50
-69.99998823
51
109.99999465
0
ARC
8
BLACK
10
7.1112061417322829
20
-3.1764334645669292
40
0.0590551177614304
50
-70.00000862
51
109.99999138
0
LINE
8
BLACK
6
CONTINUOUS
10
0.1820866141732284
20
-1.9980314960629921
11
0.3789370078740157
21
-1.9980314960629921
0
LINE
8
BLACK
6
CONTINUOUS
10
0.1820866141732284
20
-2.1161417322834644
11
0.3789370078740157
21
-2.1161417322834644
0
LINE
8
BLACK
6
CONTINUOUS
10
0.2096456692913386
20
-2.3385826771653542
11
0.3513779527559055
21
-2.3385826771653542
0
LINE
8
BLACK
6
CONTINUOUS
10
0.2096456692913386
20
-2.4960629921259843
11
0.3513779527559055
21
-2.4960629921259843
0
ARC
8
BLACK
10
0.1820866141732284
20
-2.0570866141732282
40
0.0590551181102362
50
-270.00000000
51
-90.00000000
0
ARC
8
BLACK
10
0.2096456692913386
20
-2.4173228346456694
40
0.078740157480315
50
-270.00000000
51
-90.00000000
0
ARC
8
BLACK
10
0.3513779527559055
20
-2.4173228346456694
40
0.078740157480315
50
-90.00000000
51
90.00000000
0
ARC
8
BLACK
10
0.3789370078740157
20
-2.0570866141732282
40
0.0590551181102362
50
-90.00000000
51
90.00000000
0
LINE
8
BLACK
6
CONTINUOUS
10
6.5313692125984248
20
-2.9588747637795274
11
5.9827218897637797
21
-3.1585660629921257
0
LINE
8
BLACK
6
CONTINUOUS
10
5.9733097244094484
20
-3.1787505118110237
11
6.0433296062992126
21
-3.3711285433070866
0
LINE
8
BLACK
6
CONTINUOUS
10
6.5541433858267713
20
-2.9673444094488186
11
6.6241631889763779
21
-3.1597224015748031
0
LINE
8
BLACK
6
CONTINUOUS
10
6.6121613779527557
20
-3.1808494094488187
11
6.0635140551181097
21
-3.3805407086614174
0
LINE
8
BLACK
6
CONTINUOUS
10
6.8545378346456696
20
-3.8467733070866141
11
6.3058905511811023
21
-4.0464646062992129
0
LINE
8
BLACK
6
CONTINUOUS
10
6.2964783858267719
20
-4.06664905511811
11
6.3664982283464564
21
-4.2590270866141733
0
LINE
8
BLACK
6
CONTINUOUS
10
6.9447421653543309
20
-4.0485635039370074
11
6.8747222834645667
21
-3.856185472440945
0
LINE
8
BLACK
6
CONTINUOUS
10
6.9353299999999996
20
-4.0687479527559054
11
6.3866826771653544
21
-4.2684392519685037
0
LINE
8
BLACK
6
CONTINUOUS
10
6.8612705118110231
20
-3.8652712204724406
11
6.1583508267716534
21
-4.1211130314960629
0
LINE
8
BLACK
6
CONTINUOUS
10
6.1583508267716534
20
-4.1211130314960629
11
5.9025090157480316
21
-3.4181933464566927
0
LINE
8
BLACK
6
CONTINUOUS
10
5.9025090157480316
20
-3.4181933464566927
11
6.6054287007874013
21
-3.1623515354330709
0
LINE
8
BLACK
6
CONTINUOUS
10
6.6054287007874013
20
-3.1623515354330709
11
6.8612705118110231
21
-3.8652712204724406
0
ARC
8
BLACK
10
6.5393450393700787
20
-2.9727305511811024
40
0.0157480659324427
50
19.99994566
51
109.99994566
0
ARC
8
BLACK
10
5.9881079921259843
20
-3.1733643700787399
40
0.0157479919408952
50
-250.00013995
51
-159.99995636
0
ARC
8
BLACK
10
6.6093648818897632
20
-3.1651085039370077
40
0.0157480524671612
50
-70.00005434
51
19.99981106
0
ARC
8
BLACK
10
6.0581278740157476
20
-3.365742440944882
40
0.0157480054063268
50
-160.00009096
51
-69.99982176
0
ARC
8
BLACK
10
6.8599239763779529
20
-3.8615716141732284
40
0.0157480289366632
50
19.99999465
51
109.99999465
0
ARC
8
BLACK
10
6.3112766929133857
20
-4.0612629133858267
40
0.0157480289366632
50
-250.00000535
51
-160.00000535
0
ARC
8
BLACK
10
6.9299438582677162
20
-4.0539496456692916
40
0.0157480289366632
50
-70.00000535
51
19.99999465
0
ARC
8
BLACK
10
6.3812965354330711
20
-4.2536409448818899
40
0.0157480289366632
50
-160.00000535
51
-70.00000535
0
LINE
8
BLACK
6
CONTINUOUS
10
3.8287401574803148
20
-1.9980314960629921
11
4.0255905511811019
21
-1.9980314960629921
0
LINE
8
BLACK
6
CONTINUOUS
10
3.8287401574803148
20
-2.1161417322834644
11
4.0255905511811019
21
-2.1161417322834644
0
LINE
8
BLACK
6
CONTINUOUS
10
3.856299212598425
20
-2.3385826771653542
11
3.9980314960629921
21
-2.3385826771653542
0
LINE
8
BLACK
6
CONTINUOUS
10
3.856299212598425
20
-2.4960629921259843
11
3.9980314960629921
21
-2.4960629921259843
0
ARC
8
BLACK
10
3.8287401574803148
20
-2.0570866141732282
40
0.0590551181102362
50
-270.00000000
51
-90.00000000
0
ARC
8
BLACK
10
3.856299212598425
20
-2.4173228346456694
40
0.078740157480315
50
-270.00000000
51
-90.00000000
0
ARC
8
BLACK
10
3.9980314960629921
20
-2.4173228346456694
40
0.078740157480315
50
-90.00000000
51
90.00000000
0
ARC
8
BLACK
10
4.0255905511811019
20
-2.0570866141732282
40
0.0590551181102362
50
-90.00000000
51
90.00000000
0
LINE
8
BLACK
6
CONTINUOUS
10
3.0477714173228345
20
-2.8650342913385827
11
3.2327502755905511
21
-2.932361062992126
0
LINE
8
BLACK
6
CONTINUOUS
10
3.0073753543307085
20
-2.9760216141732281
11
3.192354212598425
21
-3.0433483858267714
0
LINE
8
BLACK
6
CONTINUOUS
10
2.9571931102362203
20
-3.1944734645669293
11
3.0903778740157479
21
-3.2429487795275591
0
LINE
8
BLACK
6
CONTINUOUS
10
2.9033316535433071
20
-3.3424565748031494
11
3.0365164566929135
21
-3.3909318503937009
0
ARC
8
BLACK
10
3.0275733858267717
20
-2.9205279527559056
40
0.0590551177614304
50
-289.99999138
51
-109.99999138
0
ARC
8
BLACK
10
2.9302624015748031
20
-3.268465
40
0.0787401951444496
50
-289.99999465
51
-110.00001177
0
ARC
8
BLACK
10
3.0634471653543307
20
-3.3169403149606298
40
0.0787401446833159
50
-109.99999465
51
70.00000535
0
ARC
8
BLACK
10
3.2125522440944883
20
-2.9878547244094489
40
0.0590551177614304
50
-109.99999138
51
70.00000862
0
LINE
8
BLACK
6
CONTINUOUS
10
8.1299212598425203
20
0.2460629921259843
11
8.3267716535433074
21
0.2460629921259843
0
LINE
8
BLACK
6
CONTINUOUS
10
8.1299212598425203
20
0.1279527559055118
11
8.3267716535433074
21
0.1279527559055118
0
LINE
8
BLACK
6
CONTINUOUS
10
8.1574803149606296
20
-0.094488188976378
11
8.2992125984251963
21
-0.094488188976378
0
LINE
8
BLACK
6
CONTINUOUS
10
8.1574803149606296
20
-0.2519685039370079
11
8.2992125984251963
21
-0.2519685039370079
0
ARC
8
BLACK
10
8.1299212598425203
20
0.187007874015748
40
0.0590551181102362
50
-270.00000000
51
-90.00000000
0
ARC
8
BLACK
10
8.1574803149606296
20
-0.1732283464566929
40
0.078740157480315
50
-270.00000000
51
-90.00000000
0
ARC
8
BLACK
10
8.2992125984251963
20
-0.1732283464566929
40
0.078740157480315
50
-90.00000000
51
90.00000000
0
ARC
8
BLACK
10
8.3267716535433074
20
0.187007874015748
40
0.0590551181102362
50
-90.00000000
51
90.00000000
0
LINE
8
BLACK
6
CONTINUOUS
10
1.3041338582677164
20
-1.9980314960629921
11
1.5009842519685039
21
-1.9980314960629921
0
LINE
8
BLACK
6
CONTINUOUS
10
1.3041338582677164
20
-2.1161417322834644
11
1.5009842519685039
21
-2.1161417322834644
0
LINE
8
BLACK
6
CONTINUOUS
10
1.3316929133858268
20
-2.3385826771653542
11
1.4734251968503937
21
-2.3385826771653542
0
LINE
8
BLACK
6
CONTINUOUS
10
1.3316929133858268
20
-2.4960629921259843
11
1.4734251968503937
21
-2.4960629921259843
0
ARC
8
BLACK
10
1.3041338582677164
20
-2.0570866141732282
40
0.0590551181102362
50
-270.00000000
51
-90.00000000
0
ARC
8
BLACK
10
1.3316929133858268
20
-2.4173228346456694
40
0.078740157480315
50
-270.00000000
51
-90.00000000
0
ARC
8
BLACK
10
1.4734251968503937
20
-2.4173228346456694
40
0.078740157480315
50
-90.00000000
51
90.00000000
0
ARC
8
BLACK
10
1.5009842519685039
20
-2.0570866141732282
40
0.0590551181102362
50
-90.00000000
51
90.00000000
0
LINE
8
BLACK
6
CONTINUOUS
10
4.4562359842519683
20
-3.3768453149606299
11
4.6412148425196849
21
-3.4441720866141732
0
LINE
8
BLACK
6
CONTINUOUS
10
4.4158399212598427
20
-3.4878326377952753
11
4.6008187795275592
21
-3.555159409448819
0
LINE
8
BLACK
6
CONTINUOUS
10
4.3656576771653546
20
-3.7062844881889765
11
4.4988424409448822
21
-3.7547598031496063
0
LINE
8
BLACK
6
CONTINUOUS
10
4.3117962204724405
20
-3.8542675984251966
11
4.4449810236220468
21
-3.9027428740157482
0
ARC
8
BLACK
10
4.4360379527559051
20
-3.4323389763779528
40
0.0590551177614304
50
-289.99999138
51
-109.99999138
0
ARC
8
BLACK
10
4.3387269685039369
20
-3.7802760236220472
40
0.0787401951444496
50
-289.99999465
51
-110.00001177
0
ARC
8
BLACK
10
4.4719117322834645
20
-3.828751338582677
40
0.0787401446833159
50
-109.99999465
51
70.00000535
0
ARC
8
BLACK
10
4.6210168110236216
20
-3.4996657480314961
40
0.0590551177614304
50
-109.99999138
51
70.00000862
0
LINE
8
BLACK
6
CONTINUOUS
10
2.3326771653543306
20
-1.9980314960629921
11
2.5295275590551181
21
-1.9980314960629921
0
LINE
8
BLACK
6
CONTINUOUS
10
2.3326771653543306
20
-2.1161417322834644
11
2.5295275590551181
21
-2.1161417322834644
0
LINE
8
BLACK
6
CONTINUOUS
10
2.3602362204724407
20
-2.3385826771653542
11
2.5019685039370079
21
-2.3385826771653542
0
LINE
8
BLACK
6
CONTINUOUS
10
2.3602362204724407
20
-2.4960629921259843
11
2.5019685039370079
21
-2.4960629921259843
0
ARC
8
BLACK
10
2.3326771653543306
20
-2.0570866141732282
40
0.0590551181102362
50
-270.00000000
51
-90.00000000
0
ARC
8
BLACK
10
2.3602362204724407
20
-2.4173228346456694
40
0.078740157480315
50
-270.00000000
51
-90.00000000
0
ARC
8
BLACK
10
2.5019685039370079
20
-2.4173228346456694
40
0.078740157480315
50
-90.00000000
51
90.00000000
0
ARC
8
BLACK
10
2.5295275590551181
20
-2.0570866141732282
40
0.0590551181102362
50
-90.00000000
51
90.00000000
0
LINE
8
BLACK
6
CONTINUOUS
10
8.690944881889763
20
-1.25
11
8.8877952755905518
21
-1.25
0
LINE
8
BLACK
6
CONTINUOUS
10
8.690944881889763
20
-1.3681102362204725
11
8.8877952755905518
21
-1.3681102362204725
0
LINE
8
BLACK
6
CONTINUOUS
10
8.7185039370078741
20
-1.5905511811023623
11
8.8602362204724407
21
-1.5905511811023623
0
LINE
8
BLACK
6
CONTINUOUS
10
8.7185039370078741
20
-1.7480314960629921
11
8.8602362204724407
21
-1.7480314960629921
0
ARC
8
BLACK
10
8.690944881889763
20
-1.3090551181102361
40
0.0590551181102362
50
-270.00000000
51
-90.00000000
0
ARC
8
BLACK
10
8.7185039370078741
20
-1.6692913385826771
40
0.078740157480315
50
-270.00000000
51
-90.00000000
0
ARC
8
BLACK
10
8.8602362204724407
20
-1.6692913385826771
40
0.078740157480315
50
-90.00000000
51
90.00000000
0
ARC
8
BLACK
10
8.8877952755905518
20
-1.3090551181102361
40
0.0590551181102362
50
-90.00000000
51
90.00000000
0
LINE
8
BLACK
6
CONTINUOUS
10
2.5196850393700787
20
-0.5019685039370079
11
2.7165354330708662
21
-0.5019685039370079
0
LINE
8
BLACK
6
CONTINUOUS
10
2.5196850393700787
20
-0.6200787401574803
11
2.7165354330708662
21
-0.6200787401574803
0
LINE
8
BLACK
6
CONTINUOUS
10
2.5472440944881889
20
-0.84251968503937
11
2.688976377952756
21
-0.84251968503937
0
LINE
8
BLACK
6
CONTINUOUS
10
2.5472440944881889
20
-1.
11
2.688976377952756
21
-1.
0
ARC
8
BLACK
10
2.5196850393700787
20
-0.5610236220472441
40
0.0590551181102362
50
-270.00000000
51
-90.00000000
0
ARC
8
BLACK
10
2.5472440944881889
20
-0.9212598425196851
40
0.078740157480315
50
-270.00000000
51
-90.00000000
0
ARC
8
BLACK
10
2.688976377952756
20
-0.9212598425196851
40
0.078740157480315
50
-90.00000000
51
90.00000000
0
ARC
8
BLACK
10
2.7165354330708662
20
-0.5610236220472441
40
0.0590551181102362
50
-90.00000000
51
90.00000000
0
LINE
8
BLACK
6
CONTINUOUS
10
10.0935039370078741
20
-1.9980314960629921
11
10.2903543307086611
21
-1.9980314960629921
0
LINE
8
BLACK
6
CONTINUOUS
10
10.0935039370078741
20
-2.1161417322834644
11
10.2903543307086611
21
-2.1161417322834644
0
LINE
8
BLACK
6
CONTINUOUS
10
10.1210629921259834
20
-2.3385826771653542
11
10.2627952755905518
21
-2.3385826771653542
0
LINE
8
BLACK
6
CONTINUOUS
10
10.1210629921259834
20
-2.4960629921259843
11
10.2627952755905518
21
-2.4960629921259843
0
ARC
8
BLACK
10
10.0935039370078741
20
-2.0570866141732282
40
0.0590551181102362
50
-270.00000000
51
-90.00000000
0
ARC
8
BLACK
10
10.1210629921259834
20
-2.4173228346456694
40
0.078740157480315
50
-270.00000000
51
-90.00000000
0
ARC
8
BLACK
10
10.2627952755905518
20
-2.4173228346456694
40
0.078740157480315
50
-90.00000000
51
90.00000000
0
ARC
8
BLACK
10
10.2903543307086611
20
-2.0570866141732282
40
0.0590551181102362
50
-90.00000000
51
90.00000000
0
LINE
8
BLACK
6
CONTINUOUS
10
0.3454724409448819
20
-2.7460629921259843
11
0.5423228346456693
21
-2.7460629921259843
0
LINE
8
BLACK
6
CONTINUOUS
10
0.3454724409448819
20
-2.8641732283464565
11
0.5423228346456693
21
-2.8641732283464565
0
LINE
8
BLACK
6
CONTINUOUS
10
0.3730314960629921
20
-3.0866141732283463
11
0.514763779527559
21
-3.0866141732283463
0
LINE
8
BLACK
6
CONTINUOUS
10
0.3730314960629921
20
-3.2440944881889764
11
0.514763779527559
21
-3.2440944881889764
0
ARC
8
BLACK
10
0.3454724409448819
20
-2.8051181102362204
40
0.0590551181102362
50
-270.00000000
51
-90.00000000
0
ARC
8
BLACK
10
0.3730314960629921
20
-3.1653543307086611
40
0.078740157480315
50
-270.00000000
51
-90.00000000
0
ARC
8
BLACK
10
0.514763779527559
20
-3.1653543307086611
40
0.078740157480315
50
-90.00000000
51
90.00000000
0
ARC
8
BLACK
10
0.5423228346456693
20
-2.8051181102362204
40
0.0590551181102362
50
-90.00000000
51
90.00000000
0
LINE
8
BLACK
6
CONTINUOUS
10
1.2106299212598426
20
-1.25
11
1.4074803149606299
21
-1.25
0
LINE
8
BLACK
6
CONTINUOUS
10
1.2106299212598426
20
-1.3681102362204725
11
1.4074803149606299
21
-1.3681102362204725
0
LINE
8
BLACK
6
CONTINUOUS
10
1.2381889763779528
20
-1.5905511811023623
11
1.3799212598425197
21
-1.5905511811023623
0
LINE
8
BLACK
6
CONTINUOUS
10
1.2381889763779528
20
-1.7480314960629921
11
1.3799212598425197
21
-1.7480314960629921
0
ARC
8
BLACK
10
1.2106299212598426
20
-1.3090551181102361
40
0.0590551181102362
50
-270.00000000
51
-90.00000000
0
ARC
8
BLACK
10
1.2381889763779528
20
-1.6692913385826771
40
0.078740157480315
50
-270.00000000
51
-90.00000000
0
ARC
8
BLACK
10
1.3799212598425197
20
-1.6692913385826771
40
0.078740157480315
50
-90.00000000
51
90.00000000
0
ARC
8
BLACK
10
1.4074803149606299
20
-1.3090551181102361
40
0.0590551181102362
50
-90.00000000
51
90.00000000
0
LINE
8
BLACK
6
CONTINUOUS
10
6.2052418503937004
20
-3.4441720866141732
11
6.3902207086614169
21
-3.3768453149606299
0
LINE
8
BLACK
6
CONTINUOUS
10
6.2456379133858269
20
-3.555159409448819
11
6.4306167716535434
21
-3.4878326377952753
0
LINE
8
BLACK
6
CONTINUOUS
10
6.3476142519685039
20
-3.7547598031496063
11
6.4807990157480315
21
-3.7062844881889765
0
LINE
8
BLACK
6
CONTINUOUS
10
6.4014756692913384
20
-3.9027428740157482
11
6.5346604724409447
21
-3.8542675984251966
0
ARC
8
BLACK
10
6.2254398818897636
20
-3.4996657480314961
40
0.0590551177614304
50
-250.00000862
51
-70.00000862
0
ARC
8
BLACK
10
6.3745449606299207
20
-3.828751338582677
40
0.0787401446833159
50
-250.00000535
51
-70.00000535
0
ARC
8
BLACK
10
6.5077297244094483
20
-3.7802760236220472
40
0.0787401446833159
50
-69.99998823
51
109.99999465
0
ARC
8
BLACK
10
6.4104187401574801
20
-3.4323389763779528
40
0.0590551177614304
50
-70.00000862
51
109.99999138
0
LINE
8
BLACK
6
CONTINUOUS
10
9.0649606299212593
20
-1.9980314960629921
11
9.2618110236220463
21
-1.9980314960629921
0
LINE
8
BLACK
6
CONTINUOUS
10
9.0649606299212593
20
-2.1161417322834644
11
9.2618110236220463
21
-2.1161417322834644
0
LINE
8
BLACK
6
CONTINUOUS
10
9.0925196850393704
20
-2.3385826771653542
11
9.234251968503937
21
-2.3385826771653542
0
LINE
8
BLACK
6
CONTINUOUS
10
9.0925196850393704
20
-2.4960629921259843
11
9.234251968503937
21
-2.4960629921259843
0
ARC
8
BLACK
10
9.0649606299212593
20
-2.0570866141732282
40
0.0590551181102362
50
-270.00000000
51
-90.00000000
0
ARC
8
BLACK
10
9.0925196850393704
20
-2.4173228346456694
40
0.078740157480315
50
-270.00000000
51
-90.00000000
0
ARC
8
BLACK
10
9.234251968503937
20
-2.4173228346456694
40
0.078740157480315
50
-90.00000000
51
90.00000000
0
ARC
8
BLACK
10
9.2618110236220463
20
-2.0570866141732282
40
0.0590551181102362
50
-90.00000000
51
90.00000000
0
LINE
8
BLACK
6
CONTINUOUS
10
2.1456692913385824
20
0.2460629921259843
11
2.3425196850393699
21
0.2460629921259843
0
LINE
8
BLACK
6
CONTINUOUS
10
2.1456692913385824
20
0.1279527559055118
11
2.3425196850393699
21
0.1279527559055118
0
LINE
8
BLACK
6
CONTINUOUS
10
2.173228346456693
20
-0.094488188976378
11
2.3149606299212597
21
-0.094488188976378
0
LINE
8
BLACK
6
CONTINUOUS
10
2.173228346456693
20
-0.2519685039370079
11
2.3149606299212597
21
-0.2519685039370079
0
ARC
8
BLACK
10
2.1456692913385824
20
0.187007874015748
40
0.0590551181102362
50
-270.00000000
51
-90.00000000
0
ARC
8
BLACK
10
2.173228346456693
20
-0.1732283464566929
40
0.078740157480315
50
-270.00000000
51
-90.00000000
0
ARC
8
BLACK
10
2.3149606299212597
20
-0.1732283464566929
40
0.078740157480315
50
-90.00000000
51
90.00000000
0
ARC
8
BLACK
10
2.3425196850393699
20
0.187007874015748
40
0.0590551181102362
50
-90.00000000
51
90.00000000
0
LINE
8
BLACK
6
CONTINUOUS
10
7.1948818897637796
20
-1.25
11
7.3917322834645667
21
-1.25
0
LINE
8
BLACK
6
CONTINUOUS
10
7.1948818897637796
20
-1.3681102362204725
11
7.3917322834645667
21
-1.3681102362204725
0
LINE
8
BLACK
6
CONTINUOUS
10
7.2224409448818898
20
-1.5905511811023623
11
7.3641732283464565
21
-1.5905511811023623
0
LINE
8
BLACK
6
CONTINUOUS
10
7.2224409448818898
20
-1.7480314960629921
11
7.3641732283464565
21
-1.7480314960629921
0
ARC
8
BLACK
10
7.1948818897637796
20
-1.3090551181102361
40
0.0590551181102362
50
-270.00000000
51
-90.00000000
0
ARC
8
BLACK
10
7.2224409448818898
20
-1.6692913385826771
40
0.078740157480315
50
-270.00000000
51
-90.00000000
0
ARC
8
BLACK
10
7.3641732283464565
20
-1.6692913385826771
40
0.078740157480315
50
-90.00000000
51
90.00000000
0
ARC
8
BLACK
10
7.3917322834645667
20
-1.3090551181102361
40
0.0590551181102362
50
-90.00000000
51
90.00000000
0
LINE
8
BLACK
6
CONTINUOUS
10
4.5767716535433074
20
-1.9980314960629921
11
4.7736220472440944
21
-1.9980314960629921
0
LINE
8
BLACK
6
CONTINUOUS
10
4.5767716535433074
20
-2.1161417322834644
11
4.7736220472440944
21
-2.1161417322834644
0
LINE
8
BLACK
6
CONTINUOUS
10
4.6043307086614176
20
-2.3385826771653542
11
4.7460629921259843
21
-2.3385826771653542
0
LINE
8
BLACK
6
CONTINUOUS
10
4.6043307086614176
20
-2.4960629921259843
11
4.7460629921259843
21
-2.4960629921259843
0
ARC
8
BLACK
10
4.5767716535433074
20
-2.0570866141732282
40
0.0590551181102362
50
-270.00000000
51
-90.00000000
0
ARC
8
BLACK
10
4.6043307086614176
20
-2.4173228346456694
40
0.078740157480315
50
-270.00000000
51
-90.00000000
0
ARC
8
BLACK
10
4.7460629921259843
20
-2.4173228346456694
40
0.078740157480315
50
-90.00000000
51
90.00000000
0
ARC
8
BLACK
10
4.7736220472440944
20
-2.0570866141732282
40
0.0590551181102362
50
-90.00000000
51
90.00000000
0
LINE
8
BLACK
6
CONTINUOUS
10
8.8779527559055111
20
0.2460629921259843
11
9.0748031496062982
21
0.2460629921259843
0
LINE
8
BLACK
6
CONTINUOUS
10
8.8779527559055111
20
0.1279527559055118
11
9.0748031496062982
21
0.1279527559055118
0
LINE
8
BLACK
6
CONTINUOUS
10
8.9055118110236222
20
-0.094488188976378
11
9.0472440944881889
21
-0.094488188976378
0
LINE
8
BLACK
6
CONTINUOUS
10
8.9055118110236222
20
-0.2519685039370079
11
9.0472440944881889
21
-0.2519685039370079
0
ARC
8
BLACK
10
8.8779527559055111
20
0.187007874015748
40
0.0590551181102362
50
-270.00000000
51
-90.00000000
0
ARC
8
BLACK
10
8.9055118110236222
20
-0.1732283464566929
40
0.078740157480315
50
-270.00000000
51
-90.00000000
0
ARC
8
BLACK
10
9.0472440944881889
20
-0.1732283464566929
40
0.078740157480315
50
-90.00000000
51
90.00000000
0
ARC
8
BLACK
10
9.0748031496062982
20
0.187007874015748
40
0.0590551181102362
50
-90.00000000
51
90.00000000
0
LINE
8
BLACK
6
CONTINUOUS
10
2.7066929133858268
20
-1.25
11
2.9035433070866139
21
-1.25
0
LINE
8
BLACK
6
CONTINUOUS
10
2.7066929133858268
20
-1.3681102362204725
11
2.9035433070866139
21
-1.3681102362204725
0
LINE
8
BLACK
6
CONTINUOUS
10
2.734251968503937
20
-1.5905511811023623
11
2.8759842519685037
21
-1.5905511811023623
0
LINE
8
BLACK
6
CONTINUOUS
10
2.734251968503937
20
-1.7480314960629921
11
2.8759842519685037
21
-1.7480314960629921
0
ARC
8
BLACK
10
2.7066929133858268
20
-1.3090551181102361
40
0.0590551181102362
50
-270.00000000
51
-90.00000000
0
ARC
8
BLACK
10
2.734251968503937
20
-1.6692913385826771
40
0.078740157480315
50
-270.00000000
51
-90.00000000
0
ARC
8
BLACK
10
2.8759842519685037
20
-1.6692913385826771
40
0.078740157480315
50
-90.00000000
51
90.00000000
0
ARC
8
BLACK
10
2.9035433070866139
20
-1.3090551181102361
40
0.0590551181102362
50
-90.00000000
51
90.00000000
0
LINE
8
BLACK
6
CONTINUOUS
10
0.3690944881889764
20
-1.25
11
0.5659448818897638
21
-1.25
0
LINE
8
BLACK
6
CONTINUOUS
10
0.3690944881889764
20
-1.3681102362204725
11
0.5659448818897638
21
-1.3681102362204725
0
LINE
8
BLACK
6
CONTINUOUS
10
0.3966535433070866
20
-1.5905511811023623
11
0.5383858267716536
21
-1.5905511811023623
0
LINE
8
BLACK
6
CONTINUOUS
10
0.3966535433070866
20
-1.7480314960629921
11
0.5383858267716536
21
-1.7480314960629921
0
ARC
8
BLACK
10
0.3690944881889764
20
-1.3090551181102361
40
0.0590551181102362
50
-270.00000000
51
-90.00000000
0
ARC
8
BLACK
10
0.3966535433070866
20
-1.6692913385826771
40
0.078740157480315
50
-270.00000000
51
-90.00000000
0
ARC
8
BLACK
10
0.5383858267716536
20
-1.6692913385826771
40
0.078740157480315
50
-90.00000000
51
90.00000000
0
ARC
8
BLACK
10
0.5659448818897638
20
-1.3090551181102361
40
0.0590551181102362
50
-90.00000000
51
90.00000000
0
LINE
8
BLACK
6
CONTINUOUS
10
0.6496062992125984
20
0.2460629921259843
11
0.8464566929133858
21
0.2460629921259843
0
LINE
8
BLACK
6
CONTINUOUS
10
0.6496062992125984
20
0.1279527559055118
11
0.8464566929133858
21
0.1279527559055118
0
LINE
8
BLACK
6
CONTINUOUS
10
0.6771653543307087
20
-0.094488188976378
11
0.8188976377952756
21
-0.094488188976378
0
LINE
8
BLACK
6
CONTINUOUS
10
0.6771653543307087
20
-0.2519685039370079
11
0.8188976377952756
21
-0.2519685039370079
0
ARC
8
BLACK
10
0.6496062992125984
20
0.187007874015748
40
0.0590551181102362
50
-270.00000000
51
-90.00000000
0
ARC
8
BLACK
10
0.6771653543307087
20
-0.1732283464566929
40
0.078740157480315
50
-270.00000000
51
-90.00000000
0
ARC
8
BLACK
10
0.8188976377952756
20
-0.1732283464566929
40
0.078740157480315
50
-90.00000000
51
90.00000000
0
ARC
8
BLACK
10
0.8464566929133858
20
0.187007874015748
40
0.0590551181102362
50
-90.00000000
51
90.00000000
0
LINE
8
BLACK
6
CONTINUOUS
10
3.6417322834645667
20
0.2460629921259843
11
3.8385826771653542
21
0.2460629921259843
0
LINE
8
BLACK
6
CONTINUOUS
10
3.6417322834645667
20
0.1279527559055118
11
3.8385826771653542
21
0.1279527559055118
0
LINE
8
BLACK
6
CONTINUOUS
10
3.6692913385826769
20
-0.094488188976378
11
3.811023622047244
21
-0.094488188976378
0
LINE
8
BLACK
6
CONTINUOUS
10
3.6692913385826769
20
-0.2519685039370079
11
3.811023622047244
21
-0.2519685039370079
0
ARC
8
BLACK
10
3.6417322834645667
20
0.187007874015748
40
0.0590551181102362
50
-270.00000000
51
-90.00000000
0
ARC
8
BLACK
10
3.6692913385826769
20
-0.1732283464566929
40
0.078740157480315
50
-270.00000000
51
-90.00000000
0
ARC
8
BLACK
10
3.811023622047244
20
-0.1732283464566929
40
0.078740157480315
50
-90.00000000
51
90.00000000
0
ARC
8
BLACK
10
3.8385826771653542
20
0.187007874015748
40
0.0590551181102362
50
-90.00000000
51
90.00000000
0
LINE
8
BLACK
6
CONTINUOUS
10
7.0078740157480315
20
-0.5019685039370079
11
7.2047244094488185
21
-0.5019685039370079
0
LINE
8
BLACK
6
CONTINUOUS
10
7.0078740157480315
20
-0.6200787401574803
11
7.2047244094488185
21
-0.6200787401574803
0
LINE
8
BLACK
6
CONTINUOUS
10
7.0354330708661417
20
-0.84251968503937
11
7.1771653543307083
21
-0.84251968503937
0
LINE
8
BLACK
6
CONTINUOUS
10
7.0354330708661417
20
-1.
11
7.1771653543307083
21
-1.
0
ARC
8
BLACK
10
7.0078740157480315
20
-0.5610236220472441
40
0.0590551181102362
50
-270.00000000
51
-90.00000000
0
ARC
8
BLACK
10
7.0354330708661417
20
-0.9212598425196851
40
0.078740157480315
50
-270.00000000
51
-90.00000000
0
ARC
8
BLACK
10
7.1771653543307083
20
-0.9212598425196851
40
0.078740157480315
50
-90.00000000
51
90.00000000
0
ARC
8
BLACK
10
7.2047244094488185
20
-0.5610236220472441
40
0.0590551181102362
50
-90.00000000
51
90.00000000
0
LINE
8
BLACK
6
CONTINUOUS
10
3.0807086614173227
20
-1.9980314960629921
11
3.2775590551181102
21
-1.9980314960629921
0
LINE
8
BLACK
6
CONTINUOUS
10
3.0807086614173227
20
-2.1161417322834644
11
3.2775590551181102
21
-2.1161417322834644
0
LINE
8
BLACK
6
CONTINUOUS
10
3.1082677165354329
20
-2.3385826771653542
11
3.25
21
-2.3385826771653542
0
LINE
8
BLACK
6
CONTINUOUS
10
3.1082677165354329
20
-2.4960629921259843
11
3.25
21
-2.4960629921259843
0
ARC
8
BLACK
10
3.0807086614173227
20
-2.0570866141732282
40
0.0590551181102362
50
-270.00000000
51
-90.00000000
0
ARC
8
BLACK
10
3.1082677165354329
20
-2.4173228346456694
40
0.078740157480315
50
-270.00000000
51
-90.00000000
0
ARC
8
BLACK
10
3.25
20
-2.4173228346456694
40
0.078740157480315
50
-90.00000000
51
90.00000000
0
ARC
8
BLACK
10
3.2775590551181102
20
-2.0570866141732282
40
0.0590551181102362
50
-90.00000000
51
90.00000000
0
LINE
8
BLACK
6
CONTINUOUS
10
5.3248031496062991
20
-2.7460629921259843
11
5.5216535433070861
21
-2.7460629921259843
0
LINE
8
BLACK
6
CONTINUOUS
10
5.3248031496062991
20
-2.8641732283464565
11
5.5216535433070861
21
-2.8641732283464565
0
LINE
8
BLACK
6
CONTINUOUS
10
5.3523622047244093
20
-3.0866141732283463
11
5.4940944881889759
21
-3.0866141732283463
0
LINE
8
BLACK
6
CONTINUOUS
10
5.3523622047244093
20
-3.2440944881889764
11
5.4940944881889759
21
-3.2440944881889764
0
ARC
8
BLACK
10
5.3248031496062991
20
-2.8051181102362204
40
0.0590551181102362
50
-270.00000000
51
-90.00000000
0
ARC
8
BLACK
10
5.3523622047244093
20
-3.1653543307086611
40
0.078740157480315
50
-270.00000000
51
-90.00000000
0
ARC
8
BLACK
10
5.4940944881889759
20
-3.1653543307086611
40
0.078740157480315
50
-90.00000000
51
90.00000000
0
ARC
8
BLACK
10
5.5216535433070861
20
-2.8051181102362204
40
0.0590551181102362
50
-90.00000000
51
90.00000000
0
LINE
8
BLACK
6
CONTINUOUS
10
8.3169291338582667
20
-1.9980314960629921
11
8.5137795275590555
21
-1.9980314960629921
0
LINE
8
BLACK
6
CONTINUOUS
10
8.3169291338582667
20
-2.1161417322834644
11
8.5137795275590555
21
-2.1161417322834644
0
LINE
8
BLACK
6
CONTINUOUS
10
8.3444881889763778
20
-2.3385826771653542
11
8.4862204724409445
21
-2.3385826771653542
0
LINE
8
BLACK
6
CONTINUOUS
10
8.3444881889763778
20
-2.4960629921259843
11
8.4862204724409445
21
-2.4960629921259843
0
ARC
8
BLACK
10
8.3169291338582667
20
-2.0570866141732282
40
0.0590551181102362
50
-270.00000000
51
-90.00000000
0
ARC
8
BLACK
10
8.3444881889763778
20
-2.4173228346456694
40
0.078740157480315
50
-270.00000000
51
-90.00000000
0
ARC
8
BLACK
10
8.4862204724409445
20
-2.4173228346456694
40
0.078740157480315
50
-90.00000000
51
90.00000000
0
ARC
8
BLACK
10
8.5137795275590555
20
-2.0570866141732282
40
0.0590551181102362
50
-90.00000000
51
90.00000000
0
LINE
8
BLACK
6
CONTINUOUS
10
4.2027559055118111
20
-1.25
11
4.3996062992125982
21
-1.25
0
LINE
8
BLACK
6
CONTINUOUS
10
4.2027559055118111
20
-1.3681102362204725
11
4.3996062992125982
21
-1.3681102362204725
0
LINE
8
BLACK
6
CONTINUOUS
10
4.2303149606299213
20
-1.5905511811023623
11
4.372047244094488
21
-1.5905511811023623
0
LINE
8
BLACK
6
CONTINUOUS
10
4.2303149606299213
20
-1.7480314960629921
11
4.372047244094488
21
-1.7480314960629921
0
ARC
8
BLACK
10
4.2027559055118111
20
-1.3090551181102361
40
0.0590551181102362
50
-270.00000000
51
-90.00000000
0
ARC
8
BLACK
10
4.2303149606299213
20
-1.6692913385826771
40
0.078740157480315
50
-270.00000000
51
-90.00000000
0
ARC
8
BLACK
10
4.372047244094488
20
-1.6692913385826771
40
0.078740157480315
50
-90.00000000
51
90.00000000
0
ARC
8
BLACK
10
4.3996062992125982
20
-1.3090551181102361
40
0.0590551181102362
50
-90.00000000
51
90.00000000
0
LINE
8
BLACK
6
CONTINUOUS
10
4.3897637795275593
20
0.2460629921259843
11
4.5866141732283463
21
0.2460629921259843
0
LINE
8
BLACK
6
CONTINUOUS
10
4.3897637795275593
20
0.1279527559055118
11
4.5866141732283463
21
0.1279527559055118
0
LINE
8
BLACK
6
CONTINUOUS
10
4.4173228346456694
20
-0.094488188976378
11
4.5590551181102361
21
-0.094488188976378
0
LINE
8
BLACK
6
CONTINUOUS
10
4.4173228346456694
20
-0.2519685039370079
11
4.5590551181102361
21
-0.2519685039370079
0
ARC
8
BLACK
10
4.3897637795275593
20
0.187007874015748
40
0.0590551181102362
50
-270.00000000
51
-90.00000000
0
ARC
8
BLACK
10
4.4173228346456694
20
-0.1732283464566929
40
0.078740157480315
50
-270.00000000
51
-90.00000000
0
ARC
8
BLACK
10
4.5590551181102361
20
-0.1732283464566929
40
0.078740157480315
50
-90.00000000
51
90.00000000
0
ARC
8
BLACK
10
4.5866141732283463
20
0.187007874015748
40
0.0590551181102362
50
-90.00000000
51
90.00000000
0
LINE
8
BLACK
6
CONTINUOUS
10
1.280511811023622
20
-2.7460629921259843
11
1.4773622047244095
21
-2.7460629921259843
0
LINE
8
BLACK
6
CONTINUOUS
10
1.280511811023622
20
-2.8641732283464565
11
1.4773622047244095
21
-2.8641732283464565
0
LINE
8
BLACK
6
CONTINUOUS
10
1.3080708661417322
20
-3.0866141732283463
11
1.4498031496062991
21
-3.0866141732283463
0
LINE
8
BLACK
6
CONTINUOUS
10
1.3080708661417322
20
-3.2440944881889764
11
1.4498031496062991
21
-3.2440944881889764
0
ARC
8
BLACK
10
1.280511811023622
20
-2.8051181102362204
40
0.0590551181102362
50
-270.00000000
51
-90.00000000
0
ARC
8
BLACK
10
1.3080708661417322
20
-3.1653543307086611
40
0.078740157480315
50
-270.00000000
51
-90.00000000
0
ARC
8
BLACK
10
1.4498031496062991
20
-3.1653543307086611
40
0.078740157480315
50
-90.00000000
51
90.00000000
0
ARC
8
BLACK
10
1.4773622047244095
20
-2.8051181102362204
40
0.0590551181102362
50
-90.00000000
51
90.00000000
0
LINE
8
BLACK
6
CONTINUOUS
10
5.3248031496062991
20
-1.9980314960629921
11
5.5216535433070861
21
-1.9980314960629921
0
LINE
8
BLACK
6
CONTINUOUS
10
5.3248031496062991
20
-2.1161417322834644
11
5.5216535433070861
21
-2.1161417322834644
0
LINE
8
BLACK
6
CONTINUOUS
10
5.3523622047244093
20
-2.3385826771653542
11
5.4940944881889759
21
-2.3385826771653542
0
LINE
8
BLACK
6
CONTINUOUS
10
5.3523622047244093
20
-2.4960629921259843
11
5.4940944881889759
21
-2.4960629921259843
0
ARC
8
BLACK
10
5.3248031496062991
20
-2.0570866141732282
40
0.0590551181102362
50
-270.00000000
51
-90.00000000
0
ARC
8
BLACK
10
5.3523622047244093
20
-2.4173228346456694
40
0.078740157480315
50
-270.00000000
51
-90.00000000
0
ARC
8
BLACK
10
5.4940944881889759
20
-2.4173228346456694
40
0.078740157480315
50
-90.00000000
51
90.00000000
0
ARC
8
BLACK
10
5.5216535433070861
20
-2.0570866141732282
40
0.0590551181102362
50
-90.00000000
51
90.00000000
0
LINE
8
BLACK
6
CONTINUOUS
10
9.3690944881889759
20
-2.7460629921259843
11
9.565944881889763
21
-2.7460629921259843
0
LINE
8
BLACK
6
CONTINUOUS
10
9.3690944881889759
20
-2.8641732283464565
11
9.565944881889763
21
-2.8641732283464565
0
LINE
8
BLACK
6
CONTINUOUS
10
9.396653543307087
20
-3.0866141732283463
11
9.5383858267716537
21
-3.0866141732283463
0
LINE
8
BLACK
6
CONTINUOUS
10
9.396653543307087
20
-3.2440944881889764
11
9.5383858267716537
21
-3.2440944881889764
0
ARC
8
BLACK
10
9.3690944881889759
20
-2.8051181102362204
40
0.0590551181102362
50
-270.00000000
51
-90.00000000
0
ARC
8
BLACK
10
9.396653543307087
20
-3.1653543307086611
40
0.078740157480315
50
-270.00000000
51
-90.00000000
0
ARC
8
BLACK
10
9.5383858267716537
20
-3.1653543307086611
40
0.078740157480315
50
-90.00000000
51
90.00000000
0
ARC
8
BLACK
10
9.565944881889763
20
-2.8051181102362204
40
0.0590551181102362
50
-90.00000000
51
90.00000000
0
LINE
8
BLACK
6
CONTINUOUS
10
7.568897637795275
20
-1.9980314960629921
11
7.765748031496063
21
-1.9980314960629921
0
LINE
8
BLACK
6
CONTINUOUS
10
7.568897637795275
20
-2.1161417322834644
11
7.765748031496063
21
-2.1161417322834644
0
LINE
8
BLACK
6
CONTINUOUS
10
7.5964566929133852
20
-2.3385826771653542
11
7.7381889763779528
21
-2.3385826771653542
0
LINE
8
BLACK
6
CONTINUOUS
10
7.5964566929133852
20
-2.4960629921259843
11
7.7381889763779528
21
-2.4960629921259843
0
ARC
8
BLACK
10
7.568897637795275
20
-2.0570866141732282
40
0.0590551181102362
50
-270.00000000
51
-90.00000000
0
ARC
8
BLACK
10
7.5964566929133852
20
-2.4173228346456694
40
0.078740157480315
50
-270.00000000
51
-90.00000000
0
ARC
8
BLACK
10
7.7381889763779528
20
-2.4173228346456694
40
0.078740157480315
50
-90.00000000
51
90.00000000
0
ARC
8
BLACK
10
7.765748031496063
20
-2.0570866141732282
40
0.0590551181102362
50
-90.00000000
51
90.00000000
0
LINE
8
BLACK
6
CONTINUOUS
10
11.1220472440944871
20
0.2460629921259843
11
11.3188976377952759
21
0.2460629921259843
0
LINE
8
BLACK
6
CONTINUOUS
10
11.1220472440944871
20
0.1279527559055118
11
11.3188976377952759
21
0.1279527559055118
0
LINE
8
BLACK
6
CONTINUOUS
10
11.1496062992125982
20
-0.094488188976378
11
11.2913385826771648
21
-0.094488188976378
0
LINE
8
BLACK
6
CONTINUOUS
10
11.1496062992125982
20
-0.2519685039370079
11
11.2913385826771648
21
-0.2519685039370079
0
ARC
8
BLACK
10
11.1220472440944871
20
0.187007874015748
40
0.0590551181102362
50
-270.00000000
51
-90.00000000
0
ARC
8
BLACK
10
11.1496062992125982
20
-0.1732283464566929
40
0.078740157480315
50
-270.00000000
51
-90.00000000
0
ARC
8
BLACK
10
11.2913385826771648
20
-0.1732283464566929
40
0.078740157480315
50
-90.00000000
51
90.00000000
0
ARC
8
BLACK
10
11.3188976377952759
20
0.187007874015748
40
0.0590551181102362
50
-90.00000000
51
90.00000000
  0
ENDSEC
  0
EOF
